<?xml version="1.0" encoding="utf-8"?>
<!-- Generator: Adobe Illustrator 23.0.1, SVG Export Plug-In . SVG Version: 6.00 Build 0)  -->
<svg version="1.1" id="Calque_1" xmlns="http://www.w3.org/2000/svg" xmlns:xlink="http://www.w3.org/1999/xlink" x="0px" y="0px"
	 viewBox="0 0 849.98 599.97" style="enable-background:new 0 0 849.98 599.97;" xml:space="preserve">
<style type="text/css">
	.st0{fill:url(#SVGID_1_);}
	.st1{fill:url(#SVGID_2_);}
	.st2{fill:url(#SVGID_3_);}
	.st3{fill:url(#SVGID_4_);}
	.st4{fill:url(#SVGID_5_);}
</style>
<title>plane</title>
<radialGradient id="SVGID_1_" cx="425.0023" cy="300.0079" r="432.7073" gradientTransform="matrix(1 0 0 0.8437 0 46.8794)" gradientUnits="userSpaceOnUse">
	<stop  offset="0" style="stop-color:#252958"/>
	<stop  offset="1" style="stop-color:#16152E"/>
</radialGradient>
<rect x="-108.35" class="st0" width="1066.71" height="600.02"/>
<linearGradient id="SVGID_2_" gradientUnits="userSpaceOnUse" x1="535.6467" y1="-29.4934" x2="814.9235" y2="195.8117" gradientTransform="matrix(-1 0 0 -1 750 602)">
	<stop  offset="0" style="stop-color:#1F244A"/>
	<stop  offset="0.19" style="stop-color:#2C2751"/>
	<stop  offset="0.54" style="stop-color:#502F65"/>
	<stop  offset="1" style="stop-color:#883B84"/>
</linearGradient>
<path class="st1" d="M0.03,351.04c2.71,0.02,5.4,0.52,7.93,1.5c11.6,4.46,17.42,17.44,13.03,29.07c6.22,3.42,10.47,9.55,11.48,16.57
	c16.08-5.78,33.8,2.56,39.58,18.63c0.71,1.98,1.22,4.03,1.52,6.12c9.64-4.98,21.46-2.36,28.11,6.21c7.45-6.23,18.55-5.23,24.77,2.22
	c1.88,2.25,3.17,4.94,3.75,7.82c7.79-5.8,18.82-4.19,24.62,3.6c4.97,6.67,4.59,15.9-0.91,22.14c5.79,4.8,7.89,12.76,5.22,19.79
	c9.08-1.53,17.79,4.22,19.97,13.17c10.11-7.31,24.24-5.04,31.55,5.07c6.63,9.17,5.46,21.82-2.74,29.61
	c8.66,4.39,13.55,13.83,12.15,23.44c11.97-3.55,24.54,3.28,28.08,15.25c2.77,9.34-0.76,19.4-8.75,24.96c0.98,1.15,1.8,2.43,2.44,3.8
	H0.03V351.04z"/>
<linearGradient id="SVGID_3_" gradientUnits="userSpaceOnUse" x1="749.9908" y1="575.6788" x2="566.7685" y2="311.842" gradientTransform="matrix(0.93 0.36 -0.36 0.93 -413.74 -159.13)">
	<stop  offset="0" style="stop-color:#5F3189"/>
	<stop  offset="1" style="stop-color:#A14C97"/>
</linearGradient>
<path class="st2" d="M0,439c9.9-2.83,20.36,2.1,24.47,11.54c11.48-9.08,28.14-7.13,37.21,4.34c9.08,11.48,7.13,28.14-4.34,37.21
	c-0.23,0.18-0.47,0.36-0.7,0.54c6.45,6.39,9.17,15.64,7.22,24.51c14.58-0.96,27.18,10.09,28.14,24.67c0.32,4.83-0.7,9.65-2.93,13.95
	c20.82-0.63,38.21,15.74,38.84,36.57c0.08,2.57-0.11,5.14-0.55,7.66H0V439z"/>
<linearGradient id="SVGID_4_" gradientUnits="userSpaceOnUse" x1="-93.0441" y1="596.8463" x2="26.5651" y2="499.9937" gradientTransform="matrix(-1 0 0 -1 750 602)">
	<stop  offset="0" style="stop-color:#1F244A"/>
	<stop  offset="0.16" style="stop-color:#2C2852"/>
	<stop  offset="0.45" style="stop-color:#503367"/>
	<stop  offset="0.85" style="stop-color:#894589"/>
	<stop  offset="1" style="stop-color:#A14C97"/>
</linearGradient>
<path class="st3" d="M703.86,4.2c0-1.43,0.25-2.86,0.75-4.2h145.2v42.83L850,86.39v30.38c-5.58,1.48-11.3-1.85-12.77-7.42
	c-0.81-3.04-0.2-6.29,1.66-8.83c-3.22,0.65-6.35-1.44-7-4.65c-0.24-1.21-0.1-2.46,0.39-3.58c-0.26,0.04-0.53,0.06-0.79,0.06
	c-1.98,0-3.82-0.98-4.93-2.62c-2.86,3.09-7.68,3.29-10.77,0.43c-1.55-1.43-2.44-3.44-2.45-5.55c-2.37-0.32-4.46-1.74-5.63-3.83
	c-4.36,3.77-10.96,3.29-14.73-1.08c-0.47-0.54-0.87-1.12-1.22-1.74c-2.43,2.74-6.48,3.35-9.61,1.45c-1.6,2.87-5.21,3.89-8.08,2.3
	c-0.87-0.48-1.6-1.17-2.13-2.01c-1.75,2.77-5.42,3.6-8.19,1.85c-2.37-1.5-3.37-4.46-2.4-7.09c-2.41-0.81-4.03-3.06-4.05-5.6
	c-2.68,1.58-6.12,0.83-7.89-1.73c-2.28,3.54-7,4.56-10.54,2.28c-3.23-2.08-4.4-6.24-2.74-9.71c-3.26-0.34-5.95-2.72-6.67-5.92
	c-3.33,2.58-8.12,1.97-10.7-1.36c-2.03-2.62-2.13-6.24-0.27-8.97c-2.79-1.52-3.82-5.02-2.3-7.81c0.81-1.49,2.24-2.55,3.91-2.89
	c-0.29-1.77,0.26-3.57,1.5-4.86c-1.01-1.07-1.58-2.48-1.58-3.95c0-0.2,0-0.4,0.03-0.59c-1.63,0.85-3.55,0.94-5.25,0.24
	c-1.52,1.18-3.7,0.91-4.89-0.6c-1.18-1.52-0.91-3.7,0.6-4.89c0.14-0.11,0.28-0.2,0.43-0.29c0-0.81,0.16-1.62,0.47-2.37
	C706.86,13.59,703.86,9.14,703.86,4.2z"/>
<linearGradient id="SVGID_5_" gradientUnits="userSpaceOnUse" x1="-123.2047" y1="605.7469" x2="-28.3196" y2="553.2351" gradientTransform="matrix(-1 0 0 -1 750 602)">
	<stop  offset="0" style="stop-color:#5F3189"/>
	<stop  offset="1" style="stop-color:#A14C97"/>
</linearGradient>
<path class="st4" d="M747.9,15c0-3.45,1.99-6.6,5.11-8.08c-1.01-2.17-1.09-4.66-0.24-6.9h97.05v58.66l0.16,0.05v13.24
	c-0.68,0.22-1.38,0.32-2.09,0.32c-3.83,0-6.94-3.1-6.94-6.93c0-0.88,0.17-1.75,0.49-2.57c-4.12,0.91-8.31-1.19-10.04-5.03
	c-4.27,3.83-10.57,4.33-15.39,1.22c-0.22,3.83-3.49,6.75-7.32,6.54c-1.72-0.1-3.34-0.83-4.55-2.06c-2.59,4.21-8.1,5.52-12.31,2.94
	c-4.21-2.59-5.52-8.1-2.94-12.31c-2.81-1.23-4.79-3.82-5.25-6.85c-4.48,2.06-9.78,0.11-11.84-4.37c-0.69-1.49-0.95-3.13-0.76-4.76
	c-6.49,2.72-13.95-0.34-16.66-6.83c-1.05-2.5-1.27-5.26-0.64-7.89C750.23,22.1,747.9,18.74,747.9,15z"/>
</svg>
