<svg id="Calque_2" data-name="Calque 2" xmlns="http://www.w3.org/2000/svg" xmlns:xlink="http://www.w3.org/1999/xlink" viewBox="0 0 849.98 599.97"><defs><style>.cls-1{fill:url(#Degradado_sin_nombre_8);}.cls-2{fill:url(#Degradado_sin_nombre_6);}.cls-3{fill:url(#Degradado_sin_nombre_7);}.cls-4{fill:url(#Degradado_sin_nombre_6-2);}.cls-5{fill:#a9a9a9;}.cls-6{fill:#e5e4e4;}.cls-7{fill:#cfcccc;}</style><linearGradient id="Degradado_sin_nombre_8" x1="538.86" y1="652.78" x2="1006.79" y2="275.28" gradientTransform="matrix(-1, 0, 0, 1, 898, 0)" gradientUnits="userSpaceOnUse"><stop offset="0" stop-color="#1f244a"/><stop offset="0.19" stop-color="#2c2751"/><stop offset="0.54" stop-color="#502f65"/><stop offset="1" stop-color="#883b84"/></linearGradient><linearGradient id="Degradado_sin_nombre_6" x1="740.49" y1="372.8" x2="433.5" y2="814.86" gradientTransform="matrix(0.93, 0.36, 0.36, -0.93, -696.92, 758.16)" gradientUnits="userSpaceOnUse"><stop offset="0" stop-color="#5f3189"/><stop offset="1" stop-color="#a14c97"/></linearGradient><linearGradient id="Degradado_sin_nombre_7" x1="67.16" y1="14.2" x2="396.66" y2="281.01" gradientTransform="matrix(-1, 0, 0, 1, 898, 0)" gradientUnits="userSpaceOnUse"><stop offset="0" stop-color="#1f244a"/><stop offset="0.16" stop-color="#2c2852"/><stop offset="0.45" stop-color="#503367"/><stop offset="0.85" stop-color="#894589"/><stop offset="1" stop-color="#a14c97"/></linearGradient><linearGradient id="Degradado_sin_nombre_6-2" x1="-15.92" y1="-10.33" x2="245.47" y2="134.33" gradientTransform="matrix(-1, 0, 0, 1, 898, 0)" xlink:href="#Degradado_sin_nombre_6"/></defs><title>plane</title><path class="cls-1" d="M.05,182.86a37.5,37.5,0,0,1,13.28,2.51,37.86,37.86,0,0,1,21.84,48.7,37.87,37.87,0,0,1,19.24,27.77,51.83,51.83,0,0,1,68.86,41.47,37.71,37.71,0,0,1,47.1,10.41,29.47,29.47,0,0,1,47.79,16.82,29.48,29.48,0,0,1,39.73,43.13,29.5,29.5,0,0,1,8.75,33.16,29.42,29.42,0,0,1,33.46,22.06A37.86,37.86,0,0,1,348.38,487a37.9,37.9,0,0,1,20.36,39.27,37.86,37.86,0,0,1,32.39,67.37,28.27,28.27,0,0,1,4.09,6.36H.05Z" transform="translate(0 0)"/><path class="cls-2" d="M0,330.24a34.4,34.4,0,0,1,41,19.34A44.39,44.39,0,1,1,94.9,420.11,44.42,44.42,0,0,1,107,461.18a44.34,44.34,0,0,1,42.24,64.71A63.2,63.2,0,0,1,213.39,600H0Z" transform="translate(0 0)"/><path class="cls-3" d="M447.42,11.57A33.37,33.37,0,0,1,449.48,0h400V118L850,238v83.68a28.78,28.78,0,0,1-30.63-44.77,16.37,16.37,0,0,1-18.19-22.69,15.64,15.64,0,0,1-2.18.16,16.35,16.35,0,0,1-13.57-7.21A21,21,0,0,1,749,233.08a21,21,0,0,1-15.5-10.56,28.77,28.77,0,0,1-43.94-7.77,20.92,20.92,0,0,1-26.48,4,16.36,16.36,0,0,1-28.11.8,16.36,16.36,0,0,1-29.17-14.43,16.39,16.39,0,0,1-11.15-15.44,16.32,16.32,0,0,1-21.73-4.77,21,21,0,0,1-36.58-20.47,21.05,21.05,0,0,1-18.37-16.3,21,21,0,0,1-30.2-28.45,15.86,15.86,0,0,1,4.41-29.47,15.64,15.64,0,0,1,4.14-13.38,15.79,15.79,0,0,1-4.35-10.89c0-.55,0-1.09.08-1.62A17.13,17.13,0,0,1,477.6,65,9.59,9.59,0,1,1,467,49.08a16.87,16.87,0,0,1,1.3-6.53A33.44,33.44,0,0,1,447.42,11.57Z" transform="translate(0 0)"/><path class="cls-4" d="M568.74,41.31a24.64,24.64,0,0,1,14.09-22.25,24.43,24.43,0,0,1-.65-19H849.53V161.66l.45.15v36.47a18.91,18.91,0,0,1-5.76.89A19.11,19.11,0,0,1,826.45,173a24.54,24.54,0,0,1-27.67-13.87,35,35,0,0,1-42.39,3.35,19.11,19.11,0,0,1-32.7,12.33,24.64,24.64,0,1,1-42-25.82,24.65,24.65,0,0,1-14.46-18.86A24.59,24.59,0,0,1,632.5,105a35.08,35.08,0,0,1-47.66-40.55A24.65,24.65,0,0,1,568.74,41.31Z" transform="translate(0 0)"/><path class="cls-5" d="M147,353.52s1.72,1.06,1.15,1.39c-7.05,4.1-57.23,30.65-73,24.75Z" transform="translate(0 0)"/><path class="cls-5" d="M165.31,346.72s48.52-30.11,42.66-39.18L160.1,345.25Z" transform="translate(0 0)"/><path class="cls-5" d="M343.18,378.83s50.18-55.27,45.41-67.64-50.71,65.54-50.71,65.54Z" transform="translate(0 0)"/><path class="cls-6" d="M392.49,427c-11.95,16.09-96.1,9.07-96.1,9.07S53.9,522.7,49.77,515.68s181-88.66,181-88.66l-27.63-8.66c-18.14,7-40.82.41-42.89-6.55-1.75-5.92,12.62-11.35,16.94-12.85l1.2-.39c-1.64-1.66.43-7,.43-7s-16.7-19.57-31.9-38c-2.84-3.45-5.63-6.86-8.24-10.09-9.89-12.23-17.34-22-16-22,3.72,0,14.43,2.89,14.43,2.89s6.23,5.07,15.08,12.11c3.36,2.67,7.12,5.64,11,8.72h0c20.07,15.73,44.81,34.4,47.7,33.19,4.95-2.05,88.25-4.94,88.25-4.94s78.78-73.83,88.26-65.17-48.25,68.47-48.25,68.47,2.5,1.32,6.44,3.55c5.35,3,13.34,7.78,21.29,13.23C383.06,404.48,398.92,418.37,392.49,427Z" transform="translate(0 0)"/><path class="cls-6" d="M138.73,343.43S65,377.74,76.35,379.57,147,353.52,147,353.52l16.37-8.36S210.82,312.6,208,307.54s-55.69,28.9-55.69,28.9Z" transform="translate(0 0)"/><path d="M367,393.49c-.38,3-8.23,9.94-8.23,9.94s-56.28,18.76-58.13,5,27.21-20.61,33.55-21.93c5.45-1.13,10.27-5.15,11.52-6.26C351.08,383.3,359.07,388,367,393.49Z" transform="translate(0 0)"/><ellipse cx="210.79" cy="403.34" rx="6.64" ry="2.86" transform="translate(-208.63 579.98) rotate(-85.25)"/><ellipse cx="222.35" cy="405.52" rx="6.64" ry="2.86" transform="translate(-200.2 593.51) rotate(-85.25)"/><ellipse cx="234.4" cy="407.42" rx="6.64" ry="2.86" transform="translate(-191.04 607.25) rotate(-85.25)"/><ellipse cx="245.99" cy="409.18" rx="6.64" ry="2.86" transform="translate(-182.17 620.41) rotate(-85.25)"/><ellipse cx="258.03" cy="411.09" rx="6.64" ry="2.86" transform="translate(-173.03 634.16) rotate(-85.25)"/><ellipse cx="269.74" cy="412.06" rx="6.64" ry="2.86" transform="translate(-163.26 646.72) rotate(-85.25)"/><path class="cls-5" d="M51.81,516.09s69.31-5.1,160.23-42,85.6-38,85.6-38Z" transform="translate(0 0)"/><path class="cls-7" d="M307.84,432.66s71.39,4.68,81.07-7.12S307.84,432.66,307.84,432.66Z" transform="translate(0 0)"/></svg>