<?xml version="1.0" encoding="utf-8"?>
<!-- Generator: Adobe Illustrator 23.0.1, SVG Export Plug-In . SVG Version: 6.00 Build 0)  -->
<svg version="1.1" xmlns="http://www.w3.org/2000/svg" xmlns:xlink="http://www.w3.org/1999/xlink" x="0px" y="0px"
	 viewBox="0 0 1920 1080" style="enable-background:new 0 0 1920 1080;" xml:space="preserve">
<style type="text/css">
	.st0{fill:#CECECE;}
	.st1{fill:#F9E600;}
	.st2{fill:#00FFF2;}
	.st3{fill:#26FF00;}
	.st4{fill:#FF00DB;}
	.st5{fill:#FF0000;}
	.st6{fill:#0000FF;}
	.st7{fill:#2B3144;}
	.st8{fill:#FFFFFF;}
	.st9{fill:#590055;}
	.st10{fill:#51514F;}
	.st11{fill:#7C7C7C;}
	.st12{fill:none;stroke:#000000;stroke-width:10;stroke-miterlimit:10;}
	.st13{display:none;}
	.st14{display:inline;}
	.st15{fill:#B26900;}
	.st16{fill:#7C3E00;}
	.st17{fill:#EFD170;}
	.st18{fill:#6B3500;}
	.st19{fill:#3F1E00;}
	.st20{fill:#494949;}
	.st21{fill:#E0E0E0;}
	.st22{fill:#AA0000;}
	.st23{fill:#F4D34A;}
	.st24{fill:#DBDBDB;}
	.st25{fill:#1E1C1A;}
	.st26{fill:#4F2903;}
	.st27{fill:#844B00;}
	.st28{fill:#CE7500;}
	.st29{fill:url(#SVGID_1_);}
	.st30{fill:#282827;}
	.st31{fill:#4F4D4A;}
	.st32{fill:#636363;}
	.st33{fill:#BA0000;}
	.st34{fill:url(#SVGID_2_);}
	.st35{fill:#757370;}
	.st36{fill:#565656;}
	.st37{fill:url(#SVGID_3_);}
	.st38{fill:url(#SVGID_4_);}
	.st39{fill:url(#SVGID_5_);}
	.st40{fill:url(#SVGID_6_);}
	.st41{fill:url(#SVGID_7_);}
	.st42{fill:url(#SVGID_8_);}
	.st43{fill:url(#SVGID_9_);}
	.st44{fill:url(#SVGID_10_);}
	.st45{fill:url(#SVGID_11_);}
	.st46{fill:url(#SVGID_12_);}
	.st47{fill:url(#SVGID_13_);}
	.st48{fill:url(#SVGID_14_);}
</style>
<g id="Calque_11">
	<polygon class="st0" points="1471.01,782.58 1440.78,807.23 1440.78,657.86 1471.01,633.21 	"/>
	<polygon class="st1" points="1501.24,757.92 1471.01,782.58 1471.01,633.21 1501.24,608.56 	"/>
	<polygon class="st2" points="1531.48,733.27 1501.24,757.92 1501.24,608.56 1531.48,583.9 	"/>
	<polygon class="st3" points="1561.71,708.62 1531.48,733.27 1531.48,583.9 1561.71,559.25 	"/>
	<polygon class="st4" points="1591.95,683.96 1561.71,708.62 1561.71,559.25 1591.95,534.59 	"/>
	<polygon class="st5" points="1621.66,659.73 1591.42,684.39 1591.42,535.02 1621.66,510.37 	"/>
	<polygon class="st6" points="1651.37,635.5 1621.14,660.16 1621.14,510.79 1651.37,486.14 	"/>
	<polygon class="st7" points="1471.01,816.56 1440.78,841.21 1440.78,807.23 1471.01,782.58 	"/>
	<polygon class="st8" points="1501.24,791.9 1471.01,816.56 1471.01,782.58 1501.24,757.92 	"/>
	<polygon class="st9" points="1531.48,767.25 1501.24,791.9 1501.24,757.92 1531.48,733.27 	"/>
	<polygon class="st10" points="1561.71,742.59 1531.48,767.25 1531.48,733.27 1561.71,708.62 	"/>
	<polygon class="st11" points="1591.42,718.37 1561.71,742.59 1561.71,708.62 1591.42,684.39 	"/>
	<polygon class="st10" points="1621.14,694.14 1591.42,718.37 1591.42,684.39 1621.14,660.16 	"/>
	<polygon class="st11" points="1651.37,669.48 1621.14,694.14 1621.14,660.16 1651.37,635.5 	"/>
	<path class="st12" d="M1638.65,679.22l-184.27,151.14c-7.03,5.76-12.72,3.06-12.72-6.04v-155.6c0-9.1,5.7-21.15,12.72-26.91
		l184.27-151.14c7.03-5.76,12.72-3.06,12.72,6.04v155.6C1651.37,661.41,1645.67,673.46,1638.65,679.22z"/>
	<polygon class="st0" points="662.81,742.44 643.76,743.22 643.76,667.23 662.81,666.45 	"/>
	<polygon class="st1" points="681.86,741.66 662.81,742.44 662.81,666.45 681.86,665.67 	"/>
	<polygon class="st2" points="700.91,740.88 681.86,741.66 681.86,665.67 700.91,664.89 	"/>
	<polygon class="st3" points="719.97,740.1 700.91,740.88 700.91,664.89 719.97,664.11 	"/>
	<polygon class="st4" points="739.02,739.32 719.97,740.1 719.97,664.11 739.02,663.33 	"/>
	<polygon class="st5" points="757.74,738.55 738.69,739.33 738.69,663.34 757.74,662.56 	"/>
	<polygon class="st6" points="776.46,737.78 757.41,738.56 757.41,662.58 776.46,661.8 	"/>
	<polygon class="st7" points="662.81,759.72 643.76,760.5 643.76,743.22 662.81,742.44 	"/>
	<polygon class="st8" points="681.86,758.94 662.81,759.72 662.81,742.44 681.86,741.66 	"/>
	<polygon class="st9" points="700.91,758.16 681.86,758.94 681.86,741.66 700.91,740.88 	"/>
	<polygon class="st10" points="719.97,757.38 700.91,758.16 700.91,740.88 719.97,740.1 	"/>
	<polygon class="st11" points="738.69,756.62 719.97,757.38 719.97,740.1 738.69,739.33 	"/>
	<polygon class="st10" points="757.41,755.85 738.69,756.62 738.69,739.33 757.41,738.56 	"/>
	<polygon class="st11" points="776.46,755.07 757.41,755.85 757.41,738.56 776.46,737.78 	"/>
	<path class="st12" d="M768.45,755.07l-116.12,5.2c-4.43,0.2-8.02-3.39-8.02-8.02v-79.16c0-4.63,3.59-8.54,8.02-8.74l116.12-5.2
		c4.43-0.2,8.02,3.39,8.02,8.02v79.16C776.46,750.96,772.87,754.87,768.45,755.07z"/>
</g>
<g id="Calque_1" class="st13">
	<g class="st14">
		<path class="st15" d="M1869.93,388h-485.86c-6.64,0-12.07-5.43-12.07-12.07V71.07c0-6.64,5.43-12.07,12.07-12.07h485.86
			c6.64,0,12.07,5.43,12.07,12.07v304.86C1882,382.57,1876.57,388,1869.93,388z"/>
	</g>
	<g class="st14">
		<path class="st16" d="M1795.63,266h-339.25c-21.66,0-39.38-17.72-39.38-39.38v-94.25c0-21.66,17.72-39.38,39.38-39.38h339.25
			c21.66,0,39.38,17.72,39.38,39.38v94.25C1835,248.28,1817.28,266,1795.63,266z"/>
	</g>
	<g class="st14">
		<circle cx="1526" cy="180" r="74"/>
	</g>
	<g class="st14">
		<circle cx="1727" cy="179" r="74"/>
	</g>
	<g class="st14">
		<path class="st16" d="M1814.91,370h-377.81c-11.05,0-20.09-9.04-20.09-20.09v-46.82c0-11.05,9.04-20.09,20.09-20.09h377.81
			c11.05,0,20.09,9.04,20.09,20.09v46.82C1835,360.96,1825.96,370,1814.91,370z"/>
	</g>
	<g class="st14">
		<circle class="st17" cx="1472" cy="327" r="20"/>
	</g>
	<g class="st14">
		<circle class="st18" cx="1472" cy="327" r="11"/>
	</g>
	<g class="st14">
		<circle class="st17" cx="1781" cy="327" r="20"/>
	</g>
	<g class="st14">
		<circle class="st18" cx="1781" cy="327" r="11"/>
	</g>
	<g class="st14">
		<rect x="1526" y="297" class="st19" width="201" height="60"/>
	</g>
	<g class="st14">
		<circle class="st20" cx="1526" cy="180" r="43"/>
	</g>
	<g class="st14">
		<circle class="st20" cx="1727" cy="180" r="43"/>
	</g>
	<g class="st14">
		<rect x="1526" y="325" class="st21" width="201" height="5"/>
	</g>
	<g class="st14">
		<rect x="1530" y="301" class="st21" width="5" height="53"/>
	</g>
	<g class="st14">
		<rect x="1561" y="301" class="st21" width="5" height="53"/>
	</g>
	<g class="st14">
		<rect x="1546" y="313" class="st21" width="3" height="29"/>
	</g>
	<g class="st14">
		<rect x="1592" y="301" class="st21" width="5" height="53"/>
	</g>
	<g class="st14">
		<rect x="1577" y="313" class="st21" width="3" height="29"/>
	</g>
	<g class="st14">
		<rect x="1624" y="301" class="st21" width="5" height="53"/>
	</g>
	<g class="st14">
		<path d="M1611,314v27h-1v-27H1611 M1612,313h-3v29h3V313L1612,313z"/>
	</g>
	<g class="st14">
		<rect x="1655" y="301" class="st21" width="5" height="53"/>
	</g>
	<g class="st14">
		<rect x="1640" y="313" class="st21" width="3" height="29"/>
	</g>
	<g class="st14">
		<rect x="1687" y="301" class="st21" width="5" height="53"/>
	</g>
	<g class="st14">
		<rect x="1672" y="313" class="st21" width="3" height="29"/>
	</g>
	<g class="st14">
		<rect x="1718" y="301" class="st21" width="5" height="53"/>
	</g>
	<g class="st14">
		<rect x="1703" y="313" class="st21" width="3" height="29"/>
	</g>
	<g class="st14">
		<rect x="1603" y="297" class="st22" width="9" height="60"/>
	</g>
	<g class="st14">
		<circle class="st23" cx="1472" cy="327" r="9"/>
	</g>
	<g class="st14">
		<circle class="st23" cx="1781" cy="327" r="9"/>
	</g>
	<g class="st14">
		<rect x="1418" y="206" class="st24" width="417" height="2"/>
	</g>
	<g class="st14">
		<rect x="1418" y="211" class="st24" width="417" height="2"/>
	</g>
	<g class="st14">
		<rect x="1418" y="216" class="st24" width="417" height="2"/>
	</g>
	<g class="st14">
		<rect x="1418" y="221" class="st24" width="417" height="2"/>
	</g>
	<g class="st14">
		<rect x="1418" y="226" class="st24" width="417" height="2"/>
	</g>
	<g class="st14">
		<rect x="1418" y="231" class="st24" width="416" height="2"/>
	</g>
	<g class="st14">
		<rect x="1419" y="236" class="st24" width="414" height="2"/>
	</g>
	<g class="st14">
		<polygon class="st24" points="1421,243 1420,241 1832,241 1831,243 		"/>
	</g>
	<g class="st14">
		<polygon class="st24" points="1424,248 1423,246 1829,246 1828.01,248 		"/>
	</g>
	<g class="st14">
		<polygon class="st24" points="1428,253 1426,251 1826,251 1824.03,253 		"/>
	</g>
	<g class="st14">
		<polygon class="st24" points="1433,258 1431,256 1821,256 1819.05,258 		"/>
	</g>
	<g class="st14">
		<polygon class="st24" points="1442,263 1439,261 1813,261 1810.14,263 		"/>
	</g>
	<g class="st14">
		<rect x="1417" y="176" class="st24" width="418" height="2"/>
	</g>
	<g class="st14">
		<rect x="1417" y="181" class="st24" width="418" height="2"/>
	</g>
	<g class="st14">
		<rect x="1417" y="186" class="st24" width="418" height="2"/>
	</g>
	<g class="st14">
		<rect x="1417" y="191" class="st24" width="418" height="2"/>
	</g>
	<g class="st14">
		<rect x="1417" y="196" class="st24" width="418" height="2"/>
	</g>
	<g class="st14">
		<rect x="1417" y="201" class="st24" width="418" height="2"/>
	</g>
	<g class="st14">
		<rect x="1418" y="146" class="st24" width="417" height="2"/>
	</g>
	<g class="st14">
		<rect x="1418" y="151" class="st24" width="417" height="2"/>
	</g>
	<g class="st14">
		<rect x="1418" y="156" class="st24" width="417" height="2"/>
	</g>
	<g class="st14">
		<rect x="1418" y="161" class="st24" width="417" height="2"/>
	</g>
	<g class="st14">
		<rect x="1418" y="166" class="st24" width="417" height="2"/>
	</g>
	<g class="st14">
		<rect x="1418" y="171" class="st24" width="417" height="2"/>
	</g>
	<g class="st14">
		<polygon class="st24" points="1420,118 1421,116 1831.01,116 1832,118 		"/>
	</g>
	<g class="st14">
		<rect x="1419" y="121" class="st24" width="414" height="2"/>
	</g>
	<g class="st14">
		<rect x="1418" y="126" class="st24" width="416" height="2"/>
	</g>
	<g class="st14">
		<rect x="1417" y="131" class="st24" width="417" height="2"/>
	</g>
	<g class="st14">
		<rect x="1417" y="136" class="st24" width="417" height="2"/>
	</g>
	<g class="st14">
		<rect x="1417" y="141" class="st24" width="417" height="2"/>
	</g>
	<g class="st14">
		<polygon class="st24" points="1439,98 1441.84,96 1810,96 1813,98 		"/>
	</g>
	<g class="st14">
		<polygon class="st24" points="1431,103 1433,101 1819.07,101 1821,103 		"/>
	</g>
	<g class="st14">
		<polygon class="st24" points="1426,108 1428,106 1824.04,106 1826,108 		"/>
	</g>
	<g class="st14">
		<polygon class="st24" points="1423,113 1424,111 1828.01,111 1829,113 		"/>
	</g>
	<g class="st14">
		<g>
			<path class="st25" d="M1795.63,94c21.16,0,38.38,17.21,38.38,38.38v94.25c0,21.16-17.21,38.38-38.38,38.38h-339.25
				c-21.16,0-38.38-17.21-38.38-38.38v-94.25c0-21.16,17.21-38.38,38.38-38.38H1795.63 M1795.63,93h-339.25
				c-21.66,0-39.38,17.72-39.38,39.38v94.25c0,21.66,17.72,39.38,39.38,39.38h339.25c21.66,0,39.38-17.72,39.38-39.38v-94.25
				C1835,110.72,1817.28,93,1795.63,93L1795.63,93z"/>
		</g>
	</g>
</g>
<g id="Calque_2">
	<polygon class="st26" points="652.76,763.14 611.98,751.29 624.86,779.27 642.65,784.92 662.74,776.61 675.89,756.53 	"/>
	<polygon class="st26" points="1061.32,866.32 1020.55,854.47 1033.43,882.45 1051.22,888.1 1071.3,879.79 1084.46,859.71 	"/>
	<polygon class="st26" points="1290.72,753.32 1249,745.38 1264.47,772.02 1282.72,775.96 1301.93,765.79 1313.13,744.55 	"/>
	<g>
		<path class="st15" d="M1148.98,896.41L561.01,739.93c-8.03-2.14-14.61-10.38-14.61-18.3v-364.1c0-19.71,6.7-13.18,14.74-11.04
			l587.84,156.99c8.03,2.14,14.61,10.38,14.61,18.3v364.1C1163.59,902.99,1167.05,901.25,1148.98,896.41z"/>
	</g>
	<g>
		<path class="st27" d="M1326.08,738.14L1162.6,899.52c-1.94,0-0.61,0-0.7-5.85V519.85c0-4.31-4.83-9.54-3.6-11.27l162.29-168.93
			c1.94,0,9,6.02,9,10.33V730.3C1329.6,734.62,1328.37,735.69,1326.08,738.14z"/>
	</g>
	<g>
		<path class="st27" d="M1154.32,510.57L550.69,351.52c-4.78-1.93-4.79-5.76-0.03-8.51l254.69-132.24
			c4.76-2.75,12.56-3.41,17.34-1.48l498.42,130.39c4.78,1.93,4.79,5.76,0.03,8.51l-146.65,160.78
			C1160.01,519.72,1159.1,512.5,1154.32,510.57z"/>
	</g>
	<polygon class="st28" points="1165.59,899.42 545.25,725.64 545.25,343.7 1165.59,517.47 	"/>
	<path d="M986.61,820.44L594.08,710.48c-14.97-4.19-27.1-20.28-27.1-35.93V406.96c0-15.65,12.13-24.94,27.1-20.74l392.54,109.96
		c14.97,4.19,27.1,20.28,27.1,35.93V799.7C1013.72,815.35,1001.58,824.63,986.61,820.44z"/>
	<linearGradient id="SVGID_1_" gradientUnits="userSpaceOnUse" x1="587.807" y1="603.3271" x2="992.8839" y2="603.3271">
		<stop  offset="0" style="stop-color:#1F244A"/>
		<stop  offset="0.1866" style="stop-color:#2D2751"/>
		<stop  offset="0.5353" style="stop-color:#502F65"/>
		<stop  offset="1" style="stop-color:#883B84"/>
	</linearGradient>
	<path class="st29" d="M921.05,786.95l-261.42-73.23c-39.67-11.11-71.83-53.74-71.83-95.22V474.67c0-41.47,32.16-66.09,71.83-54.97
		l261.42,73.23c39.67,11.11,71.83,53.74,71.83,95.22v143.83C992.88,773.45,960.72,798.07,921.05,786.95z"/>
	<polygon class="st30" points="1147.64,666.73 1034.61,635.07 1034.61,509.62 1147.64,541.28 	"/>
	<polygon class="st30" points="1147.64,865.55 1034.61,833.88 1034.61,659.71 1147.64,691.37 	"/>
	<path d="M1142.89,787.98l-103.53-29c-2.03-0.57-3.68-2.75-3.68-4.88v0c0-2.12,1.65-3.38,3.68-2.82l103.53,29
		c2.03,0.57,3.68,2.75,3.68,4.88l0,0C1146.57,787.28,1144.92,788.55,1142.89,787.98z"/>
	<path d="M1142.89,799.74l-103.53-29c-2.03-0.57-3.68-2.75-3.68-4.88l0,0c0-2.12,1.65-3.38,3.68-2.82l103.53,29
		c2.03,0.57,3.68,2.75,3.68,4.88l0,0C1146.57,799.05,1144.92,800.31,1142.89,799.74z"/>
	<path d="M1142.89,811.5l-103.53-29c-2.03-0.57-3.68-2.75-3.68-4.88l0,0c0-2.12,1.65-3.38,3.68-2.82l103.53,29
		c2.03,0.57,3.68,2.75,3.68,4.88l0,0C1146.57,810.81,1144.92,812.07,1142.89,811.5z"/>
	<path d="M1142.89,823.26l-103.53-29c-2.03-0.57-3.68-2.75-3.68-4.88l0,0c0-2.12,1.65-3.38,3.68-2.82l103.53,29
		c2.03,0.57,3.68,2.75,3.68,4.88v0C1146.57,822.57,1144.92,823.83,1142.89,823.26z"/>
	<path d="M1142.89,835.02l-103.53-29c-2.03-0.57-3.68-2.75-3.68-4.88l0,0c0-2.12,1.65-3.38,3.68-2.82l103.53,29
		c2.03,0.57,3.68,2.75,3.68,4.88l0,0C1146.57,834.33,1144.92,835.59,1142.89,835.02z"/>
	<path d="M1142.89,846.78l-103.53-29c-2.03-0.57-3.68-2.75-3.68-4.88l0,0c0-2.12,1.65-3.38,3.68-2.82l103.53,29
		c2.03,0.57,3.68,2.75,3.68,4.88l0,0C1146.57,846.09,1144.92,847.35,1142.89,846.78z"/>
	<path d="M1142.89,858.54l-103.53-29c-2.03-0.57-3.68-2.75-3.68-4.88l0,0c0-2.12,1.65-3.38,3.68-2.82l103.53,29
		c2.03,0.57,3.68,2.75,3.68,4.88l0,0C1146.57,857.85,1144.92,859.11,1142.89,858.54z"/>
	<ellipse transform="matrix(0.8039 -0.5947 0.5947 0.8039 -213.462 790.0161)" cx="1091.39" cy="718.74" rx="32.43" ry="42.77"/>
	<path class="st30" d="M1068.58,682.67l45.62,12.78c-1.76-1.98-3.66-3.82-5.66-5.51l-34.29-9.61
		C1072.24,680.89,1070.34,681.68,1068.58,682.67z"/>
	<path class="st30" d="M1064.74,685.33c-1.19,1-2.28,2.11-3.28,3.33c0.12,0.06,0.25,0.11,0.37,0.14l58.58,16.41
		c0.29,0.08,0.56,0.09,0.81,0.05c-0.97-1.72-2.03-3.39-3.18-5L1064.74,685.33z"/>
	<path class="st30" d="M1057.52,695.25l67.75,18.98c-0.51-1.49-1.08-2.96-1.73-4.41l-64.29-18.01
		C1058.6,692.9,1058.03,694.05,1057.52,695.25z"/>
	<path class="st30" d="M1055.42,702.68l71.95,20.16c-0.22-1.52-0.53-3.03-0.9-4.54l-70.16-19.65
		C1055.94,699.94,1055.64,701.29,1055.42,702.68z"/>
	<path class="st30" d="M1054.97,708.54c0,0.56,0.02,1.13,0.04,1.69l72.77,20.39c0.02-0.55,0.04-1.11,0.04-1.67
		c0-0.75-0.03-1.51-0.07-2.26l-72.72-20.37C1054.99,707.05,1054.97,707.78,1054.97,708.54z"/>
	<path class="st30" d="M1055.34,714.07c0.2,1.51,0.47,3.02,0.82,4.51l70.46,19.74c0.34-1.27,0.61-2.59,0.81-3.96
		c-0.19-0.11-0.39-0.21-0.59-0.27l-71.43-20.01C1055.38,714.07,1055.36,714.07,1055.34,714.07z"/>
	<path class="st30" d="M1057.31,722.64c0.49,1.48,1.04,2.94,1.67,4.38l64.84,18.16c0.61-1.07,1.15-2.19,1.63-3.36
		c-0.18-0.11-0.37-0.21-0.57-0.26l-67.5-18.91C1057.35,722.65,1057.33,722.65,1057.31,722.64z"/>
	<path class="st30" d="M1061.15,731.5c0.94,1.72,1.98,3.4,3.1,5.02l54.29,15.21c1.07-0.95,2.06-1.99,2.96-3.12
		c-0.32-0.3-0.69-0.53-1.09-0.64l-58.58-16.41C1061.59,731.49,1061.37,731.48,1061.15,731.5z"/>
	<path class="st30" d="M1114.86,754.44l-46.93-13.15c1.67,1.93,3.46,3.75,5.36,5.42l36.2,10.14
		C1111.4,756.25,1113.19,755.44,1114.86,754.44z"/>
	<ellipse transform="matrix(0.8039 -0.5947 0.5947 0.8039 -151.2597 771.0651)" cx="1093.75" cy="614.93" rx="21.99" ry="28.99"/>
	
		<ellipse transform="matrix(0.8039 -0.5947 0.5947 0.8039 -153.5699 769.21)" class="st31" cx="1089.78" cy="617.51" rx="21.99" ry="28.99"/>
	<polygon points="1091.43,629.51 1087.04,628.28 1084.6,592.92 1087.04,592.08 1092.89,593.72 	"/>
	<polygon class="st32" points="1091.43,629.51 1084.6,627.59 1084.6,592.92 1091.43,594.84 	"/>
	
		<ellipse transform="matrix(0.8039 -0.5947 0.5947 0.8039 -141.9888 764.2236)" class="st33" cx="1088.01" cy="597.45" rx="1.3" ry="1.72"/>
	<ellipse transform="matrix(0.8039 -0.5947 0.5947 0.8039 -115.9537 759.425)" cx="1093.75" cy="555.57" rx="21.99" ry="28.99"/>
	
		<ellipse transform="matrix(0.8039 -0.5947 0.5947 0.8039 -118.2639 757.5701)" class="st31" cx="1089.78" cy="558.14" rx="21.99" ry="28.99"/>
	<polygon points="1091.43,570.14 1087.04,568.91 1084.6,533.56 1087.04,532.71 1092.89,534.35 	"/>
	<polygon class="st32" points="1091.43,570.14 1084.6,568.23 1084.6,533.56 1091.43,535.47 	"/>
	
		<ellipse transform="matrix(0.8039 -0.5947 0.5947 0.8039 -106.6828 752.5836)" class="st33" cx="1088.01" cy="538.08" rx="1.3" ry="1.72"/>
	<linearGradient id="SVGID_2_" gradientUnits="userSpaceOnUse" x1="587.1914" y1="584.6945" x2="993.9264" y2="584.6945">
		<stop  offset="0" style="stop-color:#5F3189"/>
		<stop  offset="1" style="stop-color:#A14C97"/>
	</linearGradient>
	<path class="st34" d="M992.82,645.77c0,84.75-91.14,127.92-203.57,96.43C676.83,710.7,590.03,617.65,587.84,532.32
		c-1.61-62.61-2.45-95.56,26.25-108.58c30.53-13.85,19.31-8.35,174.1,31.97c170.89,44.51,166.81,48.77,185.35,76
		C1000.86,571.85,992.82,610.96,992.82,645.77z"/>
	
		<rect x="905.07" y="192.48" transform="matrix(-0.8165 0.5773 -0.5773 -0.8165 1805.5344 -45.6198)" class="st0" width="9.9" height="143.23"/>
	
		<rect x="1129.83" y="175.57" transform="matrix(-0.5773 0.8165 -0.8165 -0.5773 1963.0035 -583.8773)" class="st0" width="5.61" height="81.19"/>
	<circle class="st0" cx="1169.92" cy="242.23" r="10.89"/>
	
		<rect x="844.84" y="135.39" transform="matrix(-0.8165 0.5773 -0.5773 -0.8165 1641.3652 -169.6731)" class="st0" width="5.61" height="81.19"/>
	<circle class="st0" cx="822.14" cy="138.67" r="13.88"/>
	<path d="M1077,346.1c0,38.91-44.74,42.74-101.97,42.74c-57.23,0-105.27-3.82-105.27-42.74s46.39-70.46,103.62-70.46
		C1030.61,275.64,1077,307.19,1077,346.1z"/>
	
		<rect x="1053.57" y="181.92" transform="matrix(0.8165 0.5773 -0.5773 0.8165 340.5671 -564.5687)" class="st0" width="9.9" height="143.23"/>
	<polygon class="st30" points="1299.51,659.24 1205.46,725.09 1205.46,588.05 1299.51,522.2 	"/>
	<path d="M1288.06,653.05l-71.66,50.18c-1.66,1.16-3.02,0.76-3.02-0.9v-2.77c0-1.66,1.36-3.97,3.02-5.13l71.66-50.18
		c1.66-1.16,3.02-0.76,3.02,0.9v2.77C1291.08,649.58,1289.72,651.88,1288.06,653.05z"/>
	<path d="M1288.06,638.97l-71.66,50.18c-1.66,1.16-3.02,0.76-3.02-0.9v-2.77c0-1.66,1.36-3.97,3.02-5.13l71.66-50.18
		c1.66-1.16,3.02-0.75,3.02,0.9v2.77C1291.08,635.49,1289.72,637.8,1288.06,638.97z"/>
	<path d="M1288.06,624.88l-71.66,50.18c-1.66,1.16-3.02,0.76-3.02-0.9v-2.77c0-1.66,1.36-3.97,3.02-5.13l71.66-50.18
		c1.66-1.16,3.02-0.76,3.02,0.9v2.77C1291.08,621.41,1289.72,623.72,1288.06,624.88z"/>
	<path d="M1288.06,610.8l-71.66,50.18c-1.66,1.16-3.02,0.76-3.02-0.9v-2.77c0-1.66,1.36-3.97,3.02-5.13l71.66-50.18
		c1.66-1.16,3.02-0.76,3.02,0.9v2.77C1291.08,607.33,1289.72,609.64,1288.06,610.8z"/>
	<path d="M1288.06,596.72l-71.66,50.18c-1.66,1.16-3.02,0.76-3.02-0.9v-2.77c0-1.66,1.36-3.97,3.02-5.13l71.66-50.18
		c1.66-1.16,3.02-0.76,3.02,0.9v2.77C1291.08,593.25,1289.72,595.56,1288.06,596.72z"/>
	<path d="M1288.06,582.64l-71.66,50.18c-1.66,1.16-3.02,0.76-3.02-0.9v-2.77c0-1.66,1.36-3.97,3.02-5.13l71.66-50.18
		c1.66-1.16,3.02-0.76,3.02,0.9v2.77C1291.08,579.17,1289.72,581.48,1288.06,582.64z"/>
	<path d="M1288.06,568.56l-71.66,50.18c-1.66,1.16-3.02,0.76-3.02-0.9v-2.77c0-1.66,1.36-3.97,3.02-5.13l71.66-50.18
		c1.66-1.16,3.02-0.76,3.02,0.9v2.77C1291.08,565.09,1289.72,567.4,1288.06,568.56z"/>
	<path d="M1288.06,554.48l-71.66,50.18c-1.66,1.16-3.02,0.76-3.02-0.9v-2.77c0-1.66,1.36-3.97,3.02-5.13l71.66-50.18
		c1.66-1.16,3.02-0.76,3.02,0.9v2.77C1291.08,551.01,1289.72,553.31,1288.06,554.48z"/>
	
		<ellipse transform="matrix(0.5786 -0.8156 0.8156 0.5786 29.4216 1237.8447)" class="st35" cx="1212.63" cy="590.45" rx="5.67" ry="2.85"/>
	
		<ellipse transform="matrix(0.5786 -0.8156 0.8156 0.5786 107.2868 1278.6836)" class="st35" cx="1291.08" cy="535.52" rx="5.67" ry="2.85"/>
	
		<ellipse transform="matrix(0.5786 -0.8156 0.8156 0.5786 7.6133 1330.1814)" class="st35" cx="1291.08" cy="657.72" rx="5.67" ry="2.85"/>
	
		<ellipse transform="matrix(0.5786 -0.8156 0.8156 0.5786 -69.5032 1289.7352)" class="st35" cx="1213.38" cy="712.13" rx="5.67" ry="2.85"/>
	<polygon class="st26" points="306.14,881.73 287.36,876.27 293.3,889.16 301.49,891.76 310.74,887.93 316.8,878.69 	"/>
	<polygon class="st26" points="494.27,929.24 475.5,923.78 481.43,936.67 489.62,939.27 498.87,935.44 504.93,926.2 	"/>
	<polygon class="st26" points="599.9,877.21 580.69,873.55 587.82,885.82 596.22,887.64 605.06,882.95 610.22,873.17 	"/>
	<g>
		<path class="st15" d="M534.64,943.1l-270.74-72.05c-3.7-0.98-6.73-4.78-6.73-8.43V694.96c0-9.08,3.09-6.07,6.79-5.08l270.68,72.29
			c3.7,0.98,6.73,4.78,6.73,8.43v167.66C541.36,946.13,542.96,945.33,534.64,943.1z"/>
	</g>
	<g>
		<path class="st27" d="M616.18,870.22l-75.27,74.31c-0.89,0-0.28,0-0.32-2.69V769.7c0-1.99-2.22-4.39-1.66-5.19l74.73-77.78
			c0.89,0,4.15,2.77,4.15,4.76v175.12C617.81,868.6,617.24,869.09,616.18,870.22z"/>
	</g>
	<g>
		<path class="st27" d="M537.1,765.43l-277.95-73.23c-2.2-0.89-2.21-2.65-0.01-3.92l117.28-60.89c2.19-1.27,5.79-1.57,7.98-0.68
			l229.51,60.04c2.2,0.89,2.21,2.65,0.01,3.92l-67.53,74.03C539.71,769.64,539.3,766.32,537.1,765.43z"/>
	</g>
	<polygon class="st28" points="542.28,944.48 256.64,864.46 256.64,688.59 542.28,768.61 	"/>
	<path d="M459.87,908.11l-180.75-50.63c-6.89-1.93-12.48-9.34-12.48-16.54V717.72c0-7.21,5.59-11.48,12.48-9.55l180.75,50.63
		c6.89,1.93,12.48,9.34,12.48,16.54v123.22C472.35,905.77,466.76,910.05,459.87,908.11z"/>
	<path class="st35" d="M429.68,892.7l-120.37-33.72c-18.27-5.12-33.08-24.75-33.08-43.84V748.9c0-19.1,14.81-30.43,33.08-25.31
		l120.37,33.72c18.27,5.12,33.08,24.75,33.08,43.84v66.23C462.76,886.48,447.95,897.81,429.68,892.7z"/>
	<polygon class="st30" points="534.02,837.34 481.97,822.76 481.97,764.99 534.02,779.57 	"/>
	<polygon class="st30" points="534.02,928.89 481.97,914.31 481.97,834.1 534.02,848.68 	"/>
	<path d="M531.83,893.17l-47.67-13.35c-0.94-0.26-1.69-1.27-1.69-2.25l0,0c0-0.98,0.76-1.56,1.69-1.3l47.67,13.35
		c0.94,0.26,1.69,1.27,1.69,2.25l0,0C533.53,892.85,532.77,893.43,531.83,893.17z"/>
	<path d="M531.83,898.58l-47.67-13.35c-0.94-0.26-1.69-1.27-1.69-2.25l0,0c0-0.98,0.76-1.56,1.69-1.3l47.67,13.35
		c0.94,0.26,1.69,1.27,1.69,2.25v0C533.53,898.26,532.77,898.84,531.83,898.58z"/>
	<path d="M531.83,904l-47.67-13.35c-0.94-0.26-1.69-1.27-1.69-2.25l0,0c0-0.98,0.76-1.56,1.69-1.3l47.67,13.35
		c0.94,0.26,1.69,1.27,1.69,2.25l0,0C533.53,903.68,532.77,904.26,531.83,904z"/>
	<path d="M531.83,909.41l-47.67-13.35c-0.94-0.26-1.69-1.27-1.69-2.25l0,0c0-0.98,0.76-1.56,1.69-1.3l47.67,13.35
		c0.94,0.26,1.69,1.27,1.69,2.25l0,0C533.53,909.09,532.77,909.67,531.83,909.41z"/>
	<path d="M531.83,914.83l-47.67-13.35c-0.94-0.26-1.69-1.27-1.69-2.25l0,0c0-0.98,0.76-1.56,1.69-1.3l47.67,13.35
		c0.94,0.26,1.69,1.27,1.69,2.25l0,0C533.53,914.51,532.77,915.09,531.83,914.83z"/>
	<path d="M531.83,920.24l-47.67-13.35c-0.94-0.26-1.69-1.27-1.69-2.25l0,0c0-0.98,0.76-1.56,1.69-1.3l47.67,13.35
		c0.94,0.26,1.69,1.27,1.69,2.25l0,0C533.53,919.93,532.77,920.51,531.83,920.24z"/>
	<path d="M531.83,925.66l-47.67-13.35c-0.94-0.26-1.69-1.27-1.69-2.25l0,0c0-0.98,0.76-1.56,1.69-1.3l47.67,13.35
		c0.94,0.26,1.69,1.27,1.69,2.25l0,0C533.53,925.34,532.77,925.92,531.83,925.66z"/>
	<ellipse transform="matrix(0.8039 -0.5947 0.5947 0.8039 -412.6049 471.0738)" cx="508.12" cy="861.29" rx="14.93" ry="19.69"/>
	<path class="st30" d="M497.62,844.68l21.01,5.88c-0.81-0.91-1.68-1.76-2.61-2.54l-15.79-4.42
		C499.3,843.86,498.43,844.22,497.62,844.68z"/>
	<path class="st30" d="M495.85,845.9c-0.55,0.46-1.05,0.97-1.51,1.53c0.06,0.03,0.11,0.05,0.17,0.07l26.97,7.56
		c0.13,0.04,0.26,0.04,0.38,0.02c-0.45-0.79-0.94-1.56-1.46-2.3L495.85,845.9z"/>
	<path class="st30" d="M492.52,850.47l31.2,8.74c-0.23-0.69-0.5-1.36-0.8-2.03l-29.6-8.29
		C493.02,849.39,492.76,849.92,492.52,850.47z"/>
	<path class="st30" d="M491.55,853.89l33.13,9.28c-0.1-0.7-0.24-1.4-0.41-2.09l-32.3-9.05
		C491.79,852.63,491.65,853.25,491.55,853.89z"/>
	<path class="st30" d="M491.35,856.59c0,0.26,0.01,0.52,0.02,0.78l33.51,9.39c0.01-0.25,0.02-0.51,0.02-0.77
		c0-0.35-0.01-0.69-0.03-1.04l-33.48-9.38C491.36,855.9,491.35,856.24,491.35,856.59z"/>
	<path class="st30" d="M491.52,859.13c0.09,0.7,0.22,1.39,0.38,2.08l32.44,9.09c0.16-0.58,0.28-1.19,0.37-1.82
		c-0.09-0.05-0.18-0.1-0.27-0.12l-32.89-9.21C491.54,859.14,491.53,859.14,491.52,859.13z"/>
	<path class="st30" d="M492.42,863.08c0.22,0.68,0.48,1.35,0.77,2.02l29.86,8.36c0.28-0.49,0.53-1.01,0.75-1.55
		c-0.08-0.05-0.17-0.09-0.26-0.12l-31.08-8.71C492.44,863.08,492.44,863.08,492.42,863.08z"/>
	<path class="st30" d="M494.19,867.16c0.43,0.79,0.91,1.57,1.43,2.31l25,7c0.49-0.44,0.95-0.92,1.36-1.44
		c-0.15-0.14-0.32-0.24-0.5-0.3l-26.97-7.56C494.4,867.16,494.29,867.15,494.19,867.16z"/>
	<path class="st30" d="M518.92,877.72l-21.61-6.05c0.77,0.89,1.59,1.73,2.47,2.5l16.67,4.67
		C517.33,878.56,518.16,878.18,518.92,877.72z"/>
	<ellipse transform="matrix(0.8039 -0.5947 0.5947 0.8039 -383.9628 462.3474)" cx="509.21" cy="813.48" rx="10.12" ry="13.35"/>
	
		<ellipse transform="matrix(0.8039 -0.5947 0.5947 0.8039 -385.0266 461.4933)" class="st31" cx="507.38" cy="814.67" rx="10.12" ry="13.35"/>
	<polygon points="508.13,820.2 506.11,819.63 504.99,803.35 506.11,802.96 508.81,803.72 	"/>
	<polygon class="st32" points="508.13,820.2 504.99,819.32 504.99,803.35 508.13,804.23 	"/>
	
		<ellipse transform="matrix(0.8039 -0.5947 0.5947 0.8039 -379.6938 459.1971)" class="st33" cx="506.56" cy="805.44" rx="0.6" ry="0.79"/>
	<ellipse transform="matrix(0.8039 -0.5947 0.5947 0.8039 -367.7055 456.9876)" cx="509.21" cy="786.15" rx="10.12" ry="13.35"/>
	
		<ellipse transform="matrix(0.8039 -0.5947 0.5947 0.8039 -368.7693 456.1334)" class="st31" cx="507.38" cy="787.34" rx="10.12" ry="13.35"/>
	<polygon points="508.13,792.86 506.11,792.29 504.99,776.02 506.11,775.63 508.81,776.38 	"/>
	<polygon class="st32" points="508.13,792.86 504.99,791.98 504.99,776.02 508.13,776.9 	"/>
	
		<ellipse transform="matrix(0.8039 -0.5947 0.5947 0.8039 -363.4366 453.8373)" class="st33" cx="506.56" cy="778.1" rx="0.6" ry="0.79"/>
	<path class="st36" d="M462.73,827.68c0,39.02-41.97,58.9-93.74,44.4s-91.74-57.35-92.75-96.64c-0.74-28.83-1.13-44,12.09-50
		c14.06-6.38,8.89-3.84,80.17,14.72c78.69,20.5,76.81,22.46,85.35,35C466.43,793.65,462.73,811.65,462.73,827.68z"/>
	
		<rect x="422.32" y="618.96" transform="matrix(-0.8165 0.5773 -0.5773 -0.8165 1147.6635 939.1393)" class="st0" width="4.56" height="65.95"/>
	
		<rect x="520.41" y="587.81" transform="matrix(0.8165 0.5773 -0.5773 0.8165 445.8463 -189.9064)" class="st0" width="2.58" height="37.38"/>
	<circle class="st0" cx="533.71" cy="589.33" r="5.01"/>
	
		<rect x="394.59" y="592.67" transform="matrix(-0.8165 0.5773 -0.5773 -0.8165 1072.069 882.0168)" class="st0" width="2.58" height="37.38"/>
	<circle class="st0" cx="383.88" cy="594.19" r="5.01"/>
	<path d="M501.49,689.7c0,17.92-20.6,19.68-46.96,19.68s-48.48-1.76-48.48-19.68s21.36-32.44,47.72-32.44
		S501.49,671.78,501.49,689.7z"/>
	
		<rect x="490.7" y="614.1" transform="matrix(0.8165 0.5773 -0.5773 0.8165 464 -165.8822)" class="st0" width="4.56" height="65.95"/>
	<polygon class="st30" points="603.95,833.89 560.64,864.21 560.64,801.11 603.95,770.78 	"/>
	<path d="M598.68,831.04l-33,23.11c-0.76,0.54-1.39,0.35-1.39-0.42v-1.27c0-0.76,0.63-1.83,1.39-2.36l33-23.11
		c0.76-0.54,1.39-0.35,1.39,0.42v1.27C600.07,829.44,599.44,830.5,598.68,831.04z"/>
	<path d="M598.68,824.55l-33,23.11c-0.76,0.54-1.39,0.35-1.39-0.42v-1.27c0-0.76,0.63-1.83,1.39-2.36l33-23.11
		c0.76-0.54,1.39-0.35,1.39,0.42v1.27C600.07,822.95,599.44,824.02,598.68,824.55z"/>
	<path d="M598.68,818.07l-33,23.11c-0.76,0.54-1.39,0.35-1.39-0.42v-1.27c0-0.76,0.63-1.83,1.39-2.36l33-23.11
		c0.76-0.54,1.39-0.35,1.39,0.42v1.27C600.07,816.47,599.44,817.53,598.68,818.07z"/>
	<path d="M598.68,811.58l-33,23.11c-0.76,0.54-1.39,0.35-1.39-0.42V833c0-0.76,0.63-1.83,1.39-2.36l33-23.11
		c0.76-0.54,1.39-0.35,1.39,0.42v1.27C600.07,809.99,599.44,811.05,598.68,811.58z"/>
	<path d="M598.68,805.1l-33,23.11c-0.76,0.54-1.39,0.35-1.39-0.42v-1.27c0-0.76,0.63-1.83,1.39-2.36l33-23.11
		c0.76-0.54,1.39-0.35,1.39,0.42v1.27C600.07,803.5,599.44,804.56,598.68,805.1z"/>
	<path d="M598.68,798.62l-33,23.11c-0.76,0.54-1.39,0.35-1.39-0.42v-1.27c0-0.76,0.63-1.83,1.39-2.36l33-23.11
		c0.76-0.54,1.39-0.35,1.39,0.42v1.27C600.07,797.02,599.44,798.08,598.68,798.62z"/>
	<path d="M598.68,792.13l-33,23.11c-0.76,0.54-1.39,0.35-1.39-0.42v-1.27c0-0.76,0.63-1.83,1.39-2.36l33-23.11
		c0.76-0.54,1.39-0.35,1.39,0.42v1.27C600.07,790.53,599.44,791.6,598.68,792.13z"/>
	<path d="M598.68,785.65l-33,23.11c-0.76,0.54-1.39,0.35-1.39-0.42v-1.27c0-0.76,0.63-1.83,1.39-2.36l33-23.11
		c0.76-0.54,1.39-0.35,1.39,0.42v1.27C600.07,784.05,599.44,785.11,598.68,785.65z"/>
	
		<ellipse transform="matrix(0.5786 -0.8156 0.8156 0.5786 -416.6472 798.008)" class="st35" cx="563.94" cy="802.21" rx="2.61" ry="1.31"/>
	
		<ellipse transform="matrix(0.5786 -0.8156 0.8156 0.5786 -380.7928 816.8129)" class="st35" cx="600.07" cy="776.92" rx="2.61" ry="1.31"/>
	
		<ellipse transform="matrix(0.5786 -0.8156 0.8156 0.5786 -426.6892 840.5261)" class="st35" cx="600.07" cy="833.19" rx="2.61" ry="1.31"/>
	
		<ellipse transform="matrix(0.5786 -0.8156 0.8156 0.5786 -462.1989 821.9019)" class="st35" cx="564.29" cy="858.24" rx="2.61" ry="1.31"/>
	<g id="Calque_9">
		<polygon class="st0" points="300.89,834.11 273.42,826.3 273.42,716.74 300.89,724.54 		"/>
		<polygon class="st1" points="328.37,841.91 300.89,834.11 300.89,724.54 328.37,732.34 		"/>
		<polygon class="st2" points="355.84,849.71 328.37,841.91 328.37,732.34 355.84,740.14 		"/>
		<polygon class="st3" points="383.31,857.51 355.84,849.71 355.84,740.14 383.31,747.94 		"/>
		<polygon class="st4" points="410.78,865.31 383.31,857.51 383.31,747.94 410.78,755.74 		"/>
		<polygon class="st5" points="437.78,872.98 410.31,865.18 410.31,755.61 437.78,763.41 		"/>
		<polygon class="st6" points="464.78,880.65 437.3,872.84 437.3,763.28 464.78,771.08 		"/>
		<polygon class="st7" points="300.89,859.03 273.42,851.23 273.42,826.3 300.89,834.11 		"/>
		<polygon class="st8" points="328.37,866.83 300.89,859.03 300.89,834.11 328.37,841.91 		"/>
		<polygon class="st9" points="355.84,874.63 328.37,866.83 328.37,841.91 355.84,849.71 		"/>
		<polygon class="st10" points="383.31,882.44 355.84,874.63 355.84,849.71 383.31,857.51 		"/>
		<polygon class="st11" points="410.31,890.1 383.31,882.44 383.31,857.51 410.31,865.18 		"/>
		<polygon class="st10" points="437.3,897.77 410.31,890.1 410.31,865.18 437.3,872.84 		"/>
		<polygon class="st11" points="464.78,905.57 437.3,897.77 437.3,872.84 464.78,880.65 		"/>
		<path class="st12" d="M453.21,901.82l-167.44-46.9c-6.38-1.79-11.56-8.65-11.56-15.32V725.45c0-6.67,5.18-10.64,11.56-8.85
			l167.44,46.9c6.38,1.79,11.56,8.65,11.56,15.32v114.14C464.78,899.65,459.6,903.61,453.21,901.82z"/>
	</g>
</g>
<g id="Calque_10">
</g>
<g id="Calque_7">
	<polygon class="st26" points="1612.9,741.61 1633.17,724.71 1626.76,746.36 1617.92,754.05 1607.94,752.85 1601.4,742.22 	"/>
	<polygon class="st26" points="1295.78,874.48 1316.51,860.02 1308.82,881.33 1299.75,887.97 1290.2,885.32 1284.64,873.48 	"/>
	<g>
		<path class="st15" d="M1366.23,939.77l292.27-233.85c3.99-3.2,7.26-10.18,7.26-15.51v-245c0-13.26-3.33-7.4-7.33-4.21
			l-292.21,234.17c-3.99,3.2-7.26,10.18-7.26,15.51v245C1358.97,947.4,1357.25,946.99,1366.23,939.77z"/>
	</g>
	<g>
		<path class="st27" d="M1262.57,875.96l94.3,73.48c1.13-0.42,0.36-0.13,0.43-4.09l1.67-251.54c0.02-2.9,2.85-7.45,2.14-8.36
			l-90.38-93.78c-1.13,0.42-5.26,5.98-5.28,8.89l-4.91,270.88C1260.54,874.34,1261.25,874.8,1262.57,875.96z"/>
	</g>
	<g>
		<path class="st27" d="M1358.86,685.78l305.29-246.23c2.41-2.46,2.37-5.39-0.09-6.5l-131.24-48.18c-2.46-1.11-6.44,0-8.84,2.46
			l-252.09,202.61c-2.41,2.46-2.37,5.39,0.09,6.5l76.6,92.31C1356.08,693.94,1356.46,688.25,1358.86,685.78z"/>
	</g>
	<polygon class="st28" points="1357.98,945.43 1666.34,692.87 1666.34,435.86 1357.98,688.42 	"/>
	<path d="M1446.94,853.16l195.12-159.82c7.44-6.09,13.47-19.57,13.47-30.1V483.18c0-10.53-6.03-14.13-13.47-8.03l-195.12,159.82
		c-7.44,6.09-13.47,19.57-13.47,30.1v180.06C1433.47,855.65,1439.5,859.25,1446.94,853.16z"/>
	<linearGradient id="SVGID_3_" gradientUnits="userSpaceOnUse" x1="1443.8243" y1="664.1502" x2="1645.1815" y2="664.1502">
		<stop  offset="0" style="stop-color:#1F244A"/>
		<stop  offset="0.1866" style="stop-color:#2D2751"/>
		<stop  offset="0.5353" style="stop-color:#502F65"/>
		<stop  offset="1" style="stop-color:#883B84"/>
	</linearGradient>
	<path class="st37" d="M1479.53,816.29l129.95-106.43c19.72-16.15,35.71-51.87,35.71-79.78V533.3c0-27.91-15.99-37.44-35.71-21.29
		l-129.95,106.43c-19.72,16.15-35.71,51.87-35.71,79.78V795C1443.82,822.91,1459.81,832.44,1479.53,816.29z"/>
	<polygon class="st30" points="1366.9,784.93 1423.08,738.91 1423.08,654.5 1366.9,700.52 	"/>
	<polygon class="st30" points="1366.9,918.72 1423.08,872.7 1423.08,755.5 1366.9,801.52 	"/>
	<path d="M1369.26,865.48l51.46-42.15c1.01-0.83,1.83-2.66,1.83-4.09l0,0c0-1.43-0.82-1.92-1.83-1.09l-51.46,42.15
		c-1.01,0.83-1.83,2.66-1.83,4.09l0,0C1367.43,865.82,1368.25,866.31,1369.26,865.48z"/>
	<path d="M1369.26,873.39l51.46-42.15c1.01-0.83,1.83-2.66,1.83-4.09l0,0c0-1.43-0.82-1.92-1.83-1.09l-51.46,42.15
		c-1.01,0.83-1.83,2.66-1.83,4.09l0,0C1367.43,873.73,1368.25,874.22,1369.26,873.39z"/>
	<path d="M1369.26,881.31l51.46-42.15c1.01-0.83,1.83-2.66,1.83-4.09l0,0c0-1.43-0.82-1.92-1.83-1.09l-51.46,42.15
		c-1.01,0.83-1.83,2.66-1.83,4.09l0,0C1367.43,881.65,1368.25,882.14,1369.26,881.31z"/>
	<path d="M1369.26,889.22l51.46-42.15c1.01-0.83,1.83-2.66,1.83-4.09l0,0c0-1.43-0.82-1.92-1.83-1.09l-51.46,42.15
		c-1.01,0.83-1.83,2.66-1.83,4.09l0,0C1367.43,889.56,1368.25,890.05,1369.26,889.22z"/>
	<path d="M1369.26,897.14l51.46-42.15c1.01-0.83,1.83-2.66,1.83-4.09l0,0c0-1.43-0.82-1.92-1.83-1.09l-51.46,42.15
		c-1.01,0.83-1.83,2.66-1.83,4.09v0C1367.43,897.48,1368.25,897.96,1369.26,897.14z"/>
	<path d="M1369.26,905.05l51.46-42.15c1.01-0.83,1.83-2.66,1.83-4.09l0,0c0-1.43-0.82-1.92-1.83-1.09l-51.46,42.15
		c-1.01,0.83-1.83,2.66-1.83,4.09l0,0C1367.43,905.39,1368.25,905.88,1369.26,905.05z"/>
	<path d="M1369.26,912.96l51.46-42.15c1.01-0.83,1.83-2.66,1.83-4.09l0,0c0-1.43-0.82-1.92-1.83-1.09l-51.46,42.15
		c-1.01,0.83-1.83,2.66-1.83,4.09l0,0C1367.43,913.3,1368.25,913.79,1369.26,912.96z"/>
	<ellipse transform="matrix(0.3777 -0.9259 0.9259 0.3777 120.1922 1794.1038)" cx="1394.86" cy="807.63" rx="31.4" ry="14.78"/>
	<path class="st30" d="M1406.2,778.37l-22.68,18.57c0.88-1.71,1.82-3.37,2.82-4.94l17.05-13.96
		C1404.38,777.98,1405.32,778.09,1406.2,778.37z"/>
	<path class="st30" d="M1408.11,779.32c0.59,0.41,1.13,0.92,1.63,1.52c-0.06,0.07-0.12,0.13-0.19,0.18l-29.12,23.85
		c-0.14,0.12-0.28,0.19-0.4,0.21c0.48-1.37,1.01-2.72,1.58-4.06L1408.11,779.32z"/>
	<path class="st30" d="M1411.7,784.42L1378.02,812c0.25-1.11,0.54-2.23,0.86-3.34l31.96-26.17
		C1411.16,783.07,1411.44,783.72,1411.7,784.42z"/>
	<path class="st30" d="M1412.74,788.96l-35.77,29.3c0.11-1.07,0.26-2.16,0.45-3.25l34.87-28.56
		C1412.48,787.23,1412.63,788.07,1412.74,788.96z"/>
	<path class="st30" d="M1412.96,792.8c0,0.38-0.01,0.76-0.02,1.15l-36.17,29.63c-0.01-0.37-0.02-0.73-0.02-1.11
		c0-0.51,0.01-1.02,0.03-1.54l36.15-29.61C1412.95,791.8,1412.96,792.3,1412.96,792.8z"/>
	<path class="st30" d="M1412.78,796.6c-0.1,1.06-0.23,2.13-0.41,3.21l-35.02,28.69c-0.17-0.78-0.31-1.61-0.4-2.48
		c0.09-0.12,0.19-0.23,0.29-0.31l35.51-29.08C1412.76,796.62,1412.77,796.61,1412.78,796.6z"/>
	<path class="st30" d="M1411.8,802.8c-0.24,1.1-0.52,2.21-0.83,3.31l-32.23,26.4c-0.3-0.58-0.57-1.22-0.81-1.91
		c0.09-0.11,0.18-0.22,0.28-0.3l33.55-27.48C1411.78,802.82,1411.79,802.81,1411.8,802.8z"/>
	<path class="st30" d="M1409.89,809.61c-0.47,1.37-0.98,2.72-1.54,4.06l-26.99,22.11c-0.53-0.4-1.02-0.89-1.47-1.45
		c0.16-0.27,0.34-0.51,0.54-0.67l29.12-23.85C1409.67,809.7,1409.78,809.64,1409.89,809.61z"/>
	<path class="st30" d="M1383.19,836.78l23.33-19.11c-0.83,1.67-1.72,3.28-2.66,4.82l-18,14.74
		C1384.91,837.24,1384.02,837.09,1383.19,836.78z"/>
	<ellipse transform="matrix(0.3777 -0.9259 0.9259 0.3777 183.6635 1749.8695)" cx="1393.68" cy="738.29" rx="21.29" ry="10.02"/>
	
		<ellipse transform="matrix(0.3777 -0.9259 0.9259 0.3777 184.0894 1752.2349)" class="st31" cx="1395.66" cy="739.16" rx="21.29" ry="10.02"/>
	<polygon points="1394.84,747.59 1397.02,745.81 1398.23,721.49 1397.02,721.45 1394.11,723.83 	"/>
	<polygon class="st32" points="1394.84,747.59 1398.23,744.81 1398.23,721.49 1394.84,724.26 	"/>
	
		<ellipse transform="matrix(0.3777 -0.9259 0.9259 0.3777 197.4927 1744.4108)" class="st33" cx="1396.54" cy="725.28" rx="1.26" ry="0.59"/>
	<ellipse transform="matrix(0.3777 -0.9259 0.9259 0.3777 220.6507 1725.0116)" cx="1393.68" cy="698.35" rx="21.29" ry="10.02"/>
	
		<ellipse transform="matrix(0.3777 -0.9259 0.9259 0.3777 221.0765 1727.377)" class="st31" cx="1395.66" cy="699.21" rx="21.29" ry="10.02"/>
	<polygon points="1394.84,707.65 1397.02,705.86 1398.23,681.54 1397.02,681.5 1394.11,683.89 	"/>
	<polygon class="st32" points="1394.84,707.65 1398.23,704.87 1398.23,681.54 1394.84,684.32 	"/>
	
		<ellipse transform="matrix(0.3777 -0.9259 0.9259 0.3777 234.4798 1719.5529)" class="st33" cx="1396.54" cy="685.33" rx="1.26" ry="0.59"/>
	<linearGradient id="SVGID_4_" gradientUnits="userSpaceOnUse" x1="1443.3062" y1="645.2686" x2="1645.4875" y2="645.2686">
		<stop  offset="0" style="stop-color:#5F3189"/>
		<stop  offset="1" style="stop-color:#A14C97"/>
	</linearGradient>
	<path class="st38" d="M1443.85,736.98c0,57.03,45.3,66.15,101.19,20.38s99.04-127.37,100.12-185.26
		c0.8-42.48,1.22-64.84-13.05-67.32c-15.18-2.64-9.6-1.39-86.54,59.58c-84.95,67.31-82.92,69.29-92.14,91.67
		C1439.86,689,1443.85,713.55,1443.85,736.98z"/>
	<polygon class="st0" points="1507.58,414.7 1503.56,412.62 1462.46,509.39 1466.48,511.47 	"/>
	<polygon class="st0" points="1367.4,426.16 1369.68,422.98 1392.98,457.34 1390.7,460.52 	"/>
	
		<ellipse transform="matrix(0.347 -0.9379 0.9379 0.347 496.6581 1558.0575)" class="st0" cx="1367.23" cy="422.36" rx="8.01" ry="4.95"/>
	<polygon class="st0" points="1528.81,362.28 1526.53,361.1 1503.23,415.95 1505.51,417.13 	"/>
	
		<ellipse transform="matrix(0.347 -0.9379 0.9379 0.347 662.3327 1667.9385)" class="st0" cx="1528.98" cy="358.32" rx="8.01" ry="4.95"/>
	<polygon class="st0" points="1388.64,459.9 1392.66,454.29 1433.76,514.91 1429.74,520.52 	"/>
</g>
<g id="Calque_8">
	<polygon class="st26" points="1593.52,469.65 1613.69,461.31 1607.32,475.94 1598.51,479.81 1588.58,476.92 1582.07,467.79 	"/>
	<polygon class="st26" points="1391.39,545.51 1411.56,537.17 1405.19,551.8 1396.39,555.68 1386.45,552.79 1379.94,543.65 	"/>
	<polygon class="st26" points="1277.9,503.55 1298.54,497.09 1290.89,511.2 1281.86,514.26 1272.36,510.4 1266.82,500.57 	"/>
	<g>
		<path class="st15" d="M1348.02,565.72l290.88-113.13c3.97-1.55,7.23-6.02,7.23-9.94V262.52c0-9.75-3.32-6.11-7.29-4.57
			l-290.82,113.38c-3.97,1.55-7.23,6.02-7.23,9.94V561.4C1340.8,569.87,1339.08,569.22,1348.02,565.72z"/>
	</g>
	<g>
		<path class="st27" d="M1260.41,498.19l80.87,69.91c0.96-0.12,0.3-0.04,0.34-2.94V380.22c0-2.13,2.39-5.01,1.78-5.79l-80.29-73.71
			c-0.96,0.12-4.45,3.53-4.45,5.66v188.15C1258.67,496.65,1259.27,497.11,1260.41,498.19z"/>
	</g>
	<g>
		<path class="st27" d="M1345.38,375.17l298.63-115.35c2.36-1.25,2.37-3.14,0.01-4.21l-126-49.95c-2.36-1.07-6.22-0.93-8.58,0.32
			l-246.58,94.78c-2.36,1.25-2.37,3.14-0.01,4.21l72.55,70.63C1342.57,380.04,1343.02,376.41,1345.38,375.17z"/>
	</g>
	<polygon class="st28" points="1339.81,568.22 1646.7,444.57 1646.7,255.61 1339.81,379.26 	"/>
	<path d="M1428.35,518.28l194.2-78.24c7.41-2.98,13.41-11.68,13.41-19.42V288.23c0-7.74-6-11.6-13.41-8.62l-194.2,78.24
		c-7.41,2.98-13.41,11.68-13.41,19.42v132.38C1414.94,517.4,1420.94,521.26,1428.35,518.28z"/>
	<linearGradient id="SVGID_5_" gradientUnits="userSpaceOnUse" x1="1425.2478" y1="398.9463" x2="1625.6481" y2="398.9463">
		<stop  offset="0" style="stop-color:#1F244A"/>
		<stop  offset="0.1866" style="stop-color:#2D2751"/>
		<stop  offset="0.5353" style="stop-color:#502F65"/>
		<stop  offset="1" style="stop-color:#883B84"/>
	</linearGradient>
	<path class="st39" d="M1460.78,497.73l129.33-52.11c19.63-7.91,35.54-30.95,35.54-51.47V323c0-20.52-15.91-30.74-35.54-22.83
		l-129.33,52.11c-19.63,7.91-35.54,30.95-35.54,51.47v71.16C1425.25,495.41,1441.16,505.64,1460.78,497.73z"/>
	<polygon class="st30" points="1348.69,452.02 1404.61,429.49 1404.61,367.42 1348.69,389.96 	"/>
	<polygon class="st30" points="1348.69,550.38 1404.61,527.85 1404.61,441.68 1348.69,464.21 	"/>
	<path d="M1351.04,511.71l51.22-20.64c1.01-0.4,1.82-1.59,1.82-2.64l0,0c0-1.05-0.81-1.57-1.82-1.17l-51.22,20.64
		c-1.01,0.4-1.82,1.59-1.82,2.64v0C1349.22,511.59,1350.03,512.12,1351.04,511.71z"/>
	<path d="M1351.04,517.53l51.22-20.64c1.01-0.4,1.82-1.59,1.82-2.64l0,0c0-1.05-0.81-1.57-1.82-1.17l-51.22,20.64
		c-1.01,0.4-1.82,1.59-1.82,2.64l0,0C1349.22,517.41,1350.03,517.93,1351.04,517.53z"/>
	<path d="M1351.04,523.35l51.22-20.64c1.01-0.4,1.82-1.59,1.82-2.64l0,0c0-1.05-0.81-1.57-1.82-1.17l-51.22,20.64
		c-1.01,0.4-1.82,1.59-1.82,2.64l0,0C1349.22,523.23,1350.03,523.75,1351.04,523.35z"/>
	<path d="M1351.04,529.17l51.22-20.64c1.01-0.4,1.82-1.59,1.82-2.64l0,0c0-1.05-0.81-1.57-1.82-1.17l-51.22,20.64
		c-1.01,0.4-1.82,1.59-1.82,2.64l0,0C1349.22,529.05,1350.03,529.57,1351.04,529.17z"/>
	<path d="M1351.04,534.98l51.22-20.64c1.01-0.4,1.82-1.59,1.82-2.64l0,0c0-1.05-0.81-1.57-1.82-1.17l-51.22,20.64
		c-1.01,0.4-1.82,1.59-1.82,2.64l0,0C1349.22,534.87,1350.03,535.39,1351.04,534.98z"/>
	<path d="M1351.04,540.8l51.22-20.64c1.01-0.4,1.82-1.59,1.82-2.64l0,0c0-1.05-0.81-1.57-1.82-1.17L1351.04,537
		c-1.01,0.4-1.82,1.59-1.82,2.64l0,0C1349.22,540.68,1350.03,541.21,1351.04,540.8z"/>
	<path d="M1351.04,546.62l51.22-20.64c1.01-0.4,1.82-1.59,1.82-2.64l0,0c0-1.05-0.81-1.57-1.82-1.17l-51.22,20.64
		c-1.01,0.4-1.82,1.59-1.82,2.64l0,0C1349.22,546.5,1350.03,547.03,1351.04,546.62z"/>
	<ellipse transform="matrix(0.5908 -0.8068 0.8068 0.5908 180.6149 1304.7556)" cx="1376.51" cy="474.33" rx="22.44" ry="15.13"/>
	<path class="st30" d="M1387.8,455.1l-22.57,9.09c0.87-1.08,1.81-2.11,2.8-3.07l16.97-6.84
		C1385.99,454.44,1386.93,454.72,1387.8,455.1z"/>
	<path class="st30" d="M1389.7,456.18c0.59,0.42,1.13,0.91,1.62,1.45c-0.06,0.04-0.12,0.07-0.19,0.09l-28.98,11.68
		c-0.14,0.06-0.28,0.08-0.4,0.07c0.48-0.91,1.01-1.8,1.57-2.67L1389.7,456.18z"/>
	<path class="st30" d="M1393.27,460.65l-33.52,13.5c0.25-0.77,0.54-1.53,0.86-2.28l31.8-12.81
		C1392.74,459.55,1393.02,460.09,1393.27,460.65z"/>
	<path class="st30" d="M1394.31,464.2l-35.6,14.34c0.11-0.77,0.26-1.53,0.45-2.3l34.71-13.98
		C1394.05,462.88,1394.2,463.52,1394.31,464.2z"/>
	<path class="st30" d="M1394.53,467.07c0,0.28-0.01,0.56-0.02,0.84l-36,14.51c-0.01-0.27-0.02-0.54-0.02-0.82
		c0-0.37,0.01-0.75,0.03-1.12l35.98-14.5C1394.52,466.33,1394.53,466.7,1394.53,467.07z"/>
	<path class="st30" d="M1394.35,469.83c-0.1,0.76-0.23,1.52-0.41,2.28l-34.86,14.04c-0.17-0.61-0.3-1.24-0.4-1.91
		c0.09-0.07,0.19-0.13,0.29-0.17l35.34-14.24C1394.33,469.83,1394.34,469.83,1394.35,469.83z"/>
	<path class="st30" d="M1393.38,474.19c-0.24,0.76-0.52,1.52-0.82,2.27l-32.08,12.92c-0.3-0.49-0.57-1.01-0.81-1.56
		c0.09-0.07,0.18-0.12,0.28-0.16l33.39-13.45C1393.35,474.2,1393.36,474.19,1393.38,474.19z"/>
	<path class="st30" d="M1391.48,478.81c-0.46,0.91-0.98,1.8-1.53,2.67l-26.86,10.82c-0.53-0.4-1.02-0.86-1.47-1.36
		c0.16-0.17,0.34-0.3,0.54-0.38l28.98-11.68C1391.26,478.83,1391.37,478.81,1391.48,478.81z"/>
	<path class="st30" d="M1364.91,493.41l23.22-9.35c-0.82,1.06-1.71,2.06-2.65,3.01l-17.91,7.22
		C1366.62,494.1,1365.73,493.81,1364.91,493.41z"/>
	<ellipse transform="matrix(0.5908 -0.8068 0.8068 0.5908 221.4589 1282.8545)" cx="1375.35" cy="423.12" rx="15.21" ry="10.26"/>
	
		<ellipse transform="matrix(0.5908 -0.8068 0.8068 0.5908 221.4286 1284.8615)" class="st31" cx="1377.31" cy="424.15" rx="15.21" ry="10.26"/>
	<polygon points="1376.5,430.19 1378.67,429.31 1379.87,411.67 1378.67,411.4 1375.77,412.57 	"/>
	<polygon class="st32" points="1376.5,430.19 1379.87,428.83 1379.87,411.67 1376.5,413.03 	"/>
	
		<ellipse transform="matrix(0.5908 -0.8068 0.8068 0.5908 229.8802 1281.464)" class="st33" cx="1378.19" cy="414.12" rx="0.9" ry="0.61"/>
	<ellipse transform="matrix(0.5908 -0.8068 0.8068 0.5908 245.1552 1270.8354)" cx="1375.35" cy="393.75" rx="15.21" ry="10.26"/>
	
		<ellipse transform="matrix(0.5908 -0.8068 0.8068 0.5908 245.1248 1272.8425)" class="st31" cx="1377.31" cy="394.78" rx="15.21" ry="10.26"/>
	<polygon points="1376.5,400.82 1378.67,399.94 1379.87,382.31 1378.67,382.03 1375.77,383.2 	"/>
	<polygon class="st32" points="1376.5,400.82 1379.87,399.46 1379.87,382.31 1376.5,383.67 	"/>
	
		<ellipse transform="matrix(0.5908 -0.8068 0.8068 0.5908 253.5764 1269.4449)" class="st33" cx="1378.19" cy="384.75" rx="0.9" ry="0.61"/>
	<linearGradient id="SVGID_6_" gradientUnits="userSpaceOnUse" x1="1424.7321" y1="387.5211" x2="1625.9526" y2="387.5211">
		<stop  offset="0" style="stop-color:#5F3189"/>
		<stop  offset="1" style="stop-color:#A14C97"/>
	</linearGradient>
	<path class="st40" d="M1425.28,432.24c0,41.93,45.09,57.75,100.71,35.34c55.62-22.41,98.56-73.72,99.65-116.06
		c0.8-31.07,1.21-47.42-12.99-52.12c-15.11-5-9.55-2.96-86.13,26.39c-84.54,32.4-82.53,34.26-91.7,48.86
		C1421.3,396.16,1425.28,415.02,1425.28,432.24z"/>
	<polygon class="st0" points="1488.7,208.12 1484.7,205.78 1443.79,268.66 1447.79,271 	"/>
	<polygon class="st0" points="1381.01,181.51 1383.88,182.17 1374.03,218.75 1371.17,218.08 	"/>
	
		<ellipse transform="matrix(0.1054 -0.9944 0.9944 0.1054 1058.6752 1536.167)" class="st0" cx="1383.16" cy="179.66" rx="5.07" ry="5.73"/>
	<polygon class="st0" points="1509.83,173.85 1507.56,172.52 1484.37,208.17 1486.64,209.49 	"/>
	
		<ellipse transform="matrix(0.6851 -0.7284 0.7284 0.6851 347.4136 1153.3271)" class="st0" cx="1507.69" cy="174.83" rx="7.3" ry="6.46"/>
	<path d="M1383.63,289.1c0,19.25,22.14,18.42,50.45,14.95c28.31-3.48,52.08-8.29,52.08-27.54c0-19.25-22.95-32.04-51.27-28.56
		C1406.58,251.43,1383.63,269.85,1383.63,289.1z"/>
	<polygon class="st0" points="1370.32,217.43 1374.32,214.11 1415.23,266.94 1411.23,270.26 	"/>
</g>
<g id="Calque_6">
	<polygon class="st26" points="1389.81,947.09 1417.25,939.12 1408.59,957.95 1396.61,961.75 1383.1,956.16 1374.25,942.64 	"/>
	<polygon class="st26" points="1114.89,1016.52 1142.33,1008.55 1133.66,1027.38 1121.69,1031.18 1108.17,1025.59 1099.32,1012.07 	
		"/>
	<polygon class="st26" points="960.53,940.49 988.6,935.14 978.19,953.07 965.91,955.72 952.99,948.88 945.45,934.58 	"/>
	<g>
		<path class="st15" d="M1055.91,1036.77l395.65-105.3c5.41-1.44,9.83-6.98,9.83-12.32v-245c0-13.26-4.51-8.87-9.92-7.43
			l-395.56,105.64c-5.41,1.44-9.83,6.98-9.83,12.32v245C1046.08,1041.2,1043.74,1040.03,1055.91,1036.77z"/>
	</g>
	<g>
		<path class="st27" d="M936.74,930.27l110,108.59c1.3,0,0.41,0,0.47-3.94V783.38c0-2.9,3.25-6.42,2.42-7.58L940.42,662.13
			c-1.3,0-6.06,4.05-6.06,6.95V925C934.37,927.9,935.19,928.62,936.74,930.27z"/>
	</g>
	<g>
		<path class="st27" d="M1052.31,777.14l406.18-107.02c3.21-1.3,3.22-3.88,0.02-5.72l-171.38-88.99c-3.2-1.85-8.45-2.3-11.67-1
			l-335.39,87.74c-3.21,1.3-3.22,3.88-0.02,5.72l98.68,108.19C1048.48,783.29,1049.1,778.44,1052.31,777.14z"/>
	</g>
	<polygon class="st28" points="1044.73,1038.79 1462.16,921.86 1462.16,664.85 1044.73,781.78 	"/>
	<path d="M1165.16,985.65l264.14-73.99c10.07-2.82,18.24-13.65,18.24-24.18V707.42c0-10.53-8.17-16.78-18.24-13.96l-264.14,73.99
		c-10.07,2.82-18.24,13.65-18.24,24.18v180.06C1146.92,982.22,1155.09,988.47,1165.16,985.65z"/>
	<linearGradient id="SVGID_7_" gradientUnits="userSpaceOnUse" x1="1160.943" y1="839.554" x2="1433.5192" y2="839.554">
		<stop  offset="0" style="stop-color:#1F244A"/>
		<stop  offset="0.1866" style="stop-color:#2D2751"/>
		<stop  offset="0.5353" style="stop-color:#502F65"/>
		<stop  offset="1" style="stop-color:#883B84"/>
	</linearGradient>
	<path class="st41" d="M1209.28,963.12l175.91-49.28c26.69-7.48,48.33-36.16,48.33-64.07v-96.79c0-27.91-21.64-44.47-48.33-36.99
		l-175.91,49.28c-26.69,7.48-48.33,36.16-48.33,64.07v96.79C1160.94,954.03,1182.58,970.59,1209.28,963.12z"/>
	<polygon class="st30" points="1056.81,882.22 1132.87,860.91 1132.87,776.5 1056.81,797.8 	"/>
	<polygon class="st30" points="1056.81,1016 1132.87,994.7 1132.87,877.49 1056.81,898.8 	"/>
	<path d="M1060,963.8l69.67-19.52c1.37-0.38,2.48-1.85,2.48-3.28l0,0c0-1.43-1.11-2.28-2.48-1.89L1060,958.63
		c-1.37,0.38-2.48,1.85-2.48,3.28v0C1057.53,963.34,1058.64,964.19,1060,963.8z"/>
	<path d="M1060,971.72l69.67-19.52c1.37-0.38,2.48-1.85,2.48-3.28l0,0c0-1.43-1.11-2.28-2.48-1.89L1060,966.54
		c-1.37,0.38-2.48,1.85-2.48,3.28l0,0C1057.53,971.25,1058.64,972.1,1060,971.72z"/>
	<path d="M1060,979.63l69.67-19.52c1.37-0.38,2.48-1.85,2.48-3.28l0,0c0-1.43-1.11-2.28-2.48-1.89L1060,974.46
		c-1.37,0.38-2.48,1.85-2.48,3.28l0,0C1057.53,979.17,1058.64,980.02,1060,979.63z"/>
	<path d="M1060,987.55l69.67-19.52c1.37-0.38,2.48-1.85,2.48-3.28l0,0c0-1.43-1.11-2.28-2.48-1.89L1060,982.37
		c-1.37,0.38-2.48,1.85-2.48,3.28l0,0C1057.53,987.08,1058.64,987.93,1060,987.55z"/>
	<path d="M1060,995.46l69.67-19.52c1.37-0.38,2.48-1.85,2.48-3.28l0,0c0-1.43-1.11-2.28-2.48-1.89L1060,990.28
		c-1.37,0.38-2.48,1.85-2.48,3.28l0,0C1057.53,994.99,1058.64,995.84,1060,995.46z"/>
	<path d="M1060,1003.37l69.67-19.52c1.37-0.38,2.48-1.85,2.48-3.28l0,0c0-1.43-1.11-2.28-2.48-1.89L1060,998.2
		c-1.37,0.38-2.48,1.85-2.48,3.28v0C1057.53,1002.91,1058.64,1003.76,1060,1003.37z"/>
	<path d="M1060,1011.29l69.67-19.52c1.37-0.38,2.48-1.85,2.48-3.28l0,0c0-1.43-1.11-2.28-2.48-1.89l-69.67,19.52
		c-1.37,0.38-2.48,1.85-2.48,3.28l0,0C1057.53,1010.82,1058.64,1011.67,1060,1011.29z"/>
	<ellipse transform="matrix(0.5947 -0.8039 0.8039 0.5947 -293.7431 1251.7363)" cx="1094.66" cy="917.22" rx="28.78" ry="21.82"/>
	<path class="st30" d="M1110.01,892.94l-30.7,8.6c1.19-1.33,2.46-2.57,3.81-3.71l23.08-6.46
		C1107.55,891.75,1108.82,892.28,1110.01,892.94z"/>
	<path class="st30" d="M1112.59,894.73c0.8,0.67,1.53,1.42,2.2,2.24c-0.08,0.04-0.17,0.07-0.25,0.1l-39.42,11.04
		c-0.19,0.05-0.38,0.06-0.55,0.03c0.65-1.16,1.37-2.28,2.14-3.36L1112.59,894.73z"/>
	<path class="st30" d="M1117.45,901.41l-45.59,12.77c0.34-1,0.73-1.99,1.16-2.96l43.26-12.12
		C1116.72,899.83,1117.11,900.6,1117.45,901.41z"/>
	<path class="st30" d="M1118.87,906.41l-48.42,13.56c0.15-1.02,0.35-2.04,0.61-3.05l47.21-13.22
		C1118.51,904.57,1118.72,905.47,1118.87,906.41z"/>
	<path class="st30" d="M1119.17,910.35c0,0.38-0.01,0.76-0.03,1.14l-48.97,13.72c-0.02-0.37-0.03-0.74-0.03-1.12
		c0-0.51,0.02-1.01,0.05-1.52l48.93-13.71C1119.15,909.35,1119.17,909.84,1119.17,910.35z"/>
	<path class="st30" d="M1118.92,914.07c-0.13,1.02-0.32,2.03-0.55,3.03l-47.41,13.28c-0.23-0.85-0.41-1.74-0.55-2.66
		c0.13-0.08,0.26-0.14,0.4-0.18l48.07-13.46C1118.89,914.07,1118.9,914.07,1118.92,914.07z"/>
	<path class="st30" d="M1117.59,919.84c-0.33,1-0.7,1.98-1.12,2.95l-43.63,12.22c-0.41-0.72-0.78-1.47-1.1-2.26
		c0.12-0.07,0.25-0.14,0.38-0.18l45.42-12.72C1117.56,919.84,1117.58,919.84,1117.59,919.84z"/>
	<path class="st30" d="M1115.01,925.8c-0.63,1.16-1.33,2.29-2.08,3.38l-36.53,10.23c-0.72-0.64-1.38-1.34-1.99-2.1
		c0.21-0.2,0.46-0.36,0.73-0.43l39.42-11.04C1114.71,925.8,1114.86,925.79,1115.01,925.8z"/>
	<path class="st30" d="M1078.87,941.23l31.58-8.85c-1.12,1.3-2.33,2.52-3.61,3.65l-24.36,6.82
		C1081.2,942.45,1079.99,941.91,1078.87,941.23z"/>
	<ellipse transform="matrix(0.5947 -0.8039 0.8039 0.5947 -238.2295 1222.15)" cx="1093.07" cy="847.36" rx="19.51" ry="14.79"/>
	
		<ellipse transform="matrix(0.5947 -0.8039 0.8039 0.5947 -238.5409 1224.9993)" class="st31" cx="1095.74" cy="849.1" rx="19.51" ry="14.79"/>
	<polygon points="1094.63,857.17 1097.59,856.34 1099.23,832.55 1097.59,831.98 1093.65,833.09 	"/>
	<polygon class="st32" points="1094.63,857.17 1099.23,855.88 1099.23,832.55 1094.63,833.84 	"/>
	
		<ellipse transform="matrix(0.5947 -0.8039 0.8039 0.5947 -227.2077 1220.4882)" class="st33" cx="1096.93" cy="835.6" rx="1.16" ry="0.88"/>
	<ellipse transform="matrix(0.5947 -0.8039 0.8039 0.5947 -206.1158 1205.9611)" cx="1093.07" cy="807.42" rx="19.51" ry="14.79"/>
	
		<ellipse transform="matrix(0.5947 -0.8039 0.8039 0.5947 -206.4271 1208.8103)" class="st31" cx="1095.74" cy="809.15" rx="19.51" ry="14.79"/>
	<polygon points="1094.63,817.22 1097.59,816.4 1099.23,792.61 1097.59,792.04 1093.65,793.14 	"/>
	<polygon class="st32" points="1094.63,817.22 1099.23,815.94 1099.23,792.61 1094.63,793.89 	"/>
	
		<ellipse transform="matrix(0.5947 -0.8039 0.8039 0.5947 -195.094 1204.2993)" class="st33" cx="1096.93" cy="795.65" rx="1.16" ry="0.88"/>
	<linearGradient id="SVGID_8_" gradientUnits="userSpaceOnUse" x1="1160.2415" y1="827.0161" x2="1433.9335" y2="827.0161">
		<stop  offset="0" style="stop-color:#5F3189"/>
		<stop  offset="1" style="stop-color:#A14C97"/>
	</linearGradient>
	<path class="st42" d="M1160.98,868.11c0,57.03,61.33,86.08,136.98,64.89c75.65-21.19,134.06-83.81,135.54-141.22
		c1.08-42.13,1.65-64.3-17.66-73.06c-20.55-9.32-13-5.62-117.15,21.51c-114.99,29.95-112.25,32.82-124.72,51.14
		C1155.58,818.37,1160.98,844.69,1160.98,868.11z"/>
	
		<rect x="1213.37" y="563.09" transform="matrix(0.8165 0.5773 -0.5773 0.8165 576.1177 -590.2518)" class="st0" width="6.66" height="96.38"/>
	
		<rect x="1112.85" y="529.15" transform="matrix(-0.2958 -0.9552 0.9552 -0.2958 912.9488 1785.9222)" class="st0" width="3.78" height="54.63"/>
	<circle class="st0" cx="1144.03" cy="547.56" r="7.33"/>
	
		<rect x="1222.2" y="529.43" transform="matrix(0.6032 -0.7976 0.7976 0.6032 41.6775 1197.2622)" class="st0" width="3.78" height="54.63"/>
	<circle class="st0" cx="1199.57" cy="538.41" r="7.33"/>
	<path d="M1104.34,666.47c0,26.18,30.11,28.76,68.62,28.76c38.51,0,70.84-2.57,70.84-28.76c0-26.18-31.22-47.41-69.73-47.41
		C1135.56,619.05,1104.34,640.28,1104.34,666.47z"/>
	
		<rect x="1113.44" y="555.99" transform="matrix(-0.8165 0.5773 -0.5773 -0.8165 2377.4492 452.7935)" class="st0" width="6.66" height="96.38"/>
</g>
<g id="Calque_4">
	<polygon class="st26" points="374.58,709.83 361.93,706.16 365.92,714.84 371.44,716.59 377.67,714.01 381.75,707.78 	"/>
	<polygon class="st26" points="501.31,741.84 488.66,738.16 492.66,746.84 498.18,748.6 504.41,746.02 508.49,739.79 	"/>
	<polygon class="st26" points="572.47,706.79 559.53,704.33 564.33,712.59 569.99,713.81 575.94,710.66 579.42,704.07 	"/>
	<g>
		<path class="st15" d="M528.5,751.17l-182.38-48.54c-2.49-0.66-4.53-3.22-4.53-5.68V584.02c0-6.11,2.08-4.09,4.57-3.43l182.34,48.7
			c2.49,0.66,4.53,3.22,4.53,5.68v112.94C533.03,753.21,534.11,752.68,528.5,751.17z"/>
	</g>
	<g>
		<path class="st27" d="M583.43,702.08l-50.71,50.06c-0.6,0-0.19,0-0.22-1.82V634.37c0-1.34-1.5-2.96-1.12-3.5l50.34-52.4
			c0.6,0,2.79,1.87,2.79,3.21v117.97C584.53,700.99,584.15,701.32,583.43,702.08z"/>
	</g>
	<g>
		<path class="st27" d="M530.16,631.49l-187.24-49.33c-1.48-0.6-1.49-1.79-0.01-2.64l79-41.02c1.48-0.85,3.9-1.06,5.38-0.46
			l154.61,40.45c1.48,0.6,1.49,1.79,0.01,2.64l-45.49,49.87C531.92,634.33,531.64,632.09,530.16,631.49z"/>
	</g>
	<polygon class="st28" points="533.65,752.11 341.23,698.2 341.23,579.73 533.65,633.63 	"/>
	<path d="M478.14,727.61L356.38,693.5c-4.64-1.3-8.41-6.29-8.41-11.14v-83.01c0-4.85,3.76-7.73,8.41-6.43l121.76,34.11
		c4.64,1.3,8.41,6.29,8.41,11.14v83.01C486.54,726.03,482.78,728.91,478.14,727.61z"/>
	<linearGradient id="SVGID_9_" gradientUnits="userSpaceOnUse" x1="354.4303" y1="660.2626" x2="480.0809" y2="660.2626">
		<stop  offset="0" style="stop-color:#1F244A"/>
		<stop  offset="0.1866" style="stop-color:#2D2751"/>
		<stop  offset="0.5353" style="stop-color:#502F65"/>
		<stop  offset="1" style="stop-color:#883B84"/>
	</linearGradient>
	<path class="st43" d="M457.8,717.22l-81.09-22.72c-12.31-3.45-22.28-16.67-22.28-29.53v-44.62c0-12.86,9.98-20.5,22.28-17.05
		l81.09,22.72c12.31,3.45,22.28,16.67,22.28,29.53v44.62C480.08,713.03,470.11,720.67,457.8,717.22z"/>
	<polygon class="st30" points="528.08,679.93 493.02,670.11 493.02,631.2 528.08,641.02 	"/>
	<polygon class="st30" points="528.08,741.6 493.02,731.78 493.02,677.75 528.08,687.57 	"/>
	<path d="M526.61,717.54l-32.11-9c-0.63-0.18-1.14-0.85-1.14-1.51l0,0c0-0.66,0.51-1.05,1.14-0.87l32.11,9
		c0.63,0.18,1.14,0.85,1.14,1.51l0,0C527.75,717.32,527.24,717.72,526.61,717.54z"/>
	<path d="M526.61,721.19l-32.11-9c-0.63-0.18-1.14-0.85-1.14-1.51l0,0c0-0.66,0.51-1.05,1.14-0.87l32.11,9
		c0.63,0.18,1.14,0.85,1.14,1.51l0,0C527.75,720.97,527.24,721.36,526.61,721.19z"/>
	<path d="M526.61,724.84l-32.11-9c-0.63-0.18-1.14-0.85-1.14-1.51l0,0c0-0.66,0.51-1.05,1.14-0.87l32.11,9
		c0.63,0.18,1.14,0.85,1.14,1.51l0,0C527.75,724.62,527.24,725.01,526.61,724.84z"/>
	<path d="M526.61,728.48l-32.11-9c-0.63-0.18-1.14-0.85-1.14-1.51l0,0c0-0.66,0.51-1.05,1.14-0.87l32.11,9
		c0.63,0.18,1.14,0.85,1.14,1.51l0,0C527.75,728.27,527.24,728.66,526.61,728.48z"/>
	<path d="M526.61,732.13l-32.11-9c-0.63-0.18-1.14-0.85-1.14-1.51v0c0-0.66,0.51-1.05,1.14-0.87l32.11,9
		c0.63,0.18,1.14,0.85,1.14,1.51l0,0C527.75,731.92,527.24,732.31,526.61,732.13z"/>
	<path d="M526.61,735.78l-32.11-9c-0.63-0.18-1.14-0.85-1.14-1.51l0,0c0-0.66,0.51-1.05,1.14-0.87l32.11,9
		c0.63,0.18,1.14,0.85,1.14,1.51v0C527.75,735.56,527.24,735.96,526.61,735.78z"/>
	<path d="M526.61,739.43l-32.11-9c-0.63-0.18-1.14-0.85-1.14-1.51l0,0c0-0.66,0.51-1.05,1.14-0.87l32.11,9
		c0.63,0.18,1.14,0.85,1.14,1.51l0,0C527.75,739.21,527.24,739.6,526.61,739.43z"/>
	<ellipse transform="matrix(0.8039 -0.5947 0.5947 0.8039 -313.8475 440.175)" cx="510.64" cy="696.06" rx="10.06" ry="13.27"/>
	<path class="st30" d="M503.56,684.87l14.15,3.96c-0.55-0.61-1.13-1.19-1.76-1.71l-10.64-2.98
		C504.7,684.32,504.11,684.57,503.56,684.87z"/>
	<path class="st30" d="M502.37,685.7c-0.37,0.31-0.71,0.65-1.02,1.03c0.04,0.02,0.08,0.03,0.12,0.04l18.17,5.09
		c0.09,0.03,0.18,0.03,0.25,0.02c-0.3-0.53-0.63-1.05-0.99-1.55L502.37,685.7z"/>
	<path class="st30" d="M500.13,688.78l21.02,5.89c-0.16-0.46-0.34-0.92-0.54-1.37l-19.94-5.59
		C500.47,688.05,500.29,688.4,500.13,688.78z"/>
	<path class="st30" d="M499.48,691.08l22.32,6.25c-0.07-0.47-0.16-0.94-0.28-1.41l-21.76-6.1
		C499.64,690.23,499.55,690.65,499.48,691.08z"/>
	<path class="st30" d="M499.34,692.9c0,0.17,0.01,0.35,0.01,0.52l22.57,6.32c0.01-0.17,0.01-0.34,0.01-0.52
		c0-0.23-0.01-0.47-0.02-0.7l-22.56-6.32C499.35,692.43,499.34,692.66,499.34,692.9z"/>
	<path class="st30" d="M499.45,694.61c0.06,0.47,0.15,0.94,0.26,1.4l21.86,6.12c0.11-0.39,0.19-0.8,0.25-1.23
		c-0.06-0.04-0.12-0.07-0.18-0.08l-22.16-6.21C499.47,694.61,499.46,694.61,499.45,694.61z"/>
	<path class="st30" d="M500.06,697.27c0.15,0.46,0.32,0.91,0.52,1.36l20.11,5.63c0.19-0.33,0.36-0.68,0.51-1.04
		c-0.06-0.03-0.11-0.06-0.18-0.08l-20.94-5.87C500.08,697.27,500.07,697.27,500.06,697.27z"/>
	<path class="st30" d="M501.26,700.02c0.29,0.53,0.61,1.05,0.96,1.56l16.84,4.72c0.33-0.29,0.64-0.62,0.92-0.97
		c-0.1-0.09-0.21-0.16-0.34-0.2l-18.17-5.09C501.39,700.02,501.32,700.01,501.26,700.02z"/>
	<path class="st30" d="M517.92,707.13l-14.56-4.08c0.52,0.6,1.07,1.16,1.66,1.68l11.23,3.15
		C516.84,707.7,517.4,707.45,517.92,707.13z"/>
	<ellipse transform="matrix(0.8039 -0.5947 0.5947 0.8039 -294.553 434.2965)" cx="511.37" cy="663.86" rx="6.82" ry="8.99"/>
	
		<ellipse transform="matrix(0.8039 -0.5947 0.5947 0.8039 -295.2696 433.7211)" class="st31" cx="510.14" cy="664.66" rx="6.82" ry="8.99"/>
	<polygon points="510.65,668.38 509.29,668 508.53,657.04 509.29,656.77 511.1,657.28 	"/>
	<polygon class="st32" points="510.65,668.38 508.53,667.79 508.53,657.04 510.65,657.63 	"/>
	
		<ellipse transform="matrix(0.8039 -0.5947 0.5947 0.8039 -291.6773 432.1744)" class="st33" cx="509.59" cy="658.44" rx="0.4" ry="0.53"/>
	<ellipse transform="matrix(0.8039 -0.5947 0.5947 0.8039 -283.6014 430.6859)" cx="511.37" cy="645.45" rx="6.82" ry="8.99"/>
	
		<ellipse transform="matrix(0.8039 -0.5947 0.5947 0.8039 -284.3181 430.1105)" class="st31" cx="510.14" cy="646.25" rx="6.82" ry="8.99"/>
	<polygon points="510.65,649.97 509.29,649.59 508.53,638.62 509.29,638.36 511.1,638.87 	"/>
	<polygon class="st32" points="510.65,649.97 508.53,649.38 508.53,638.62 510.65,639.21 	"/>
	
		<ellipse transform="matrix(0.8039 -0.5947 0.5947 0.8039 -280.7257 428.5638)" class="st33" cx="509.59" cy="640.03" rx="0.4" ry="0.53"/>
	<linearGradient id="SVGID_10_" gradientUnits="userSpaceOnUse" x1="354.2394" y1="654.483" x2="480.4043" y2="654.483">
		<stop  offset="0" style="stop-color:#5F3189"/>
		<stop  offset="1" style="stop-color:#A14C97"/>
	</linearGradient>
	<path class="st44" d="M480.06,673.43c0,26.29-28.27,39.68-63.14,29.91s-61.8-38.63-62.48-65.1c-0.5-19.42-0.76-29.64,8.14-33.68
		c9.47-4.3,5.99-2.59,54,9.92c53.01,13.81,51.74,15.13,57.49,23.58C482.55,650.5,480.06,662.63,480.06,673.43z"/>
	
		<rect x="452.84" y="532.82" transform="matrix(-0.8165 0.5773 -0.5773 -0.8165 1145.8107 745.9293)" class="st0" width="3.07" height="44.43"/>
	
		<rect x="518.92" y="511.84" transform="matrix(0.8165 0.5773 -0.5773 0.8165 398.1155 -203.858)" class="st0" width="1.74" height="25.18"/>
	<circle class="st0" cx="527.88" cy="512.86" r="3.38"/>
	
		<rect x="428.55" y="527.07" transform="matrix(0.2629 0.9648 -0.9648 0.2629 837.2149 -16.5273)" class="st0" width="1.74" height="25.18"/>
	<circle class="st0" cx="415.79" cy="543.3" r="3.38"/>
	<path d="M506.17,580.47c0,12.07-13.88,13.26-31.63,13.26c-17.75,0-32.65-1.19-32.65-13.26s14.39-21.86,32.14-21.86
		S506.17,568.4,506.17,580.47z"/>
	
		<rect x="498.91" y="529.55" transform="matrix(0.8165 0.5773 -0.5773 0.8165 410.3445 -187.6744)" class="st0" width="3.07" height="44.43"/>
	<polygon class="st30" points="575.19,677.61 546.02,698.03 546.02,655.52 575.19,635.1 	"/>
	<path d="M571.64,675.69l-22.23,15.57c-0.51,0.36-0.94,0.23-0.94-0.28v-0.86c0-0.51,0.42-1.23,0.94-1.59l22.23-15.57
		c0.51-0.36,0.94-0.23,0.94,0.28v0.86C572.58,674.61,572.16,675.32,571.64,675.69z"/>
	<path d="M571.64,671.32l-22.23,15.57c-0.51,0.36-0.94,0.23-0.94-0.28v-0.86c0-0.51,0.42-1.23,0.94-1.59l22.23-15.57
		c0.51-0.36,0.94-0.23,0.94,0.28v0.86C572.58,670.24,572.16,670.96,571.64,671.32z"/>
	<path d="M571.64,666.95l-22.23,15.57c-0.51,0.36-0.94,0.23-0.94-0.28v-0.86c0-0.51,0.42-1.23,0.94-1.59l22.23-15.57
		c0.51-0.36,0.94-0.23,0.94,0.28v0.86C572.58,665.87,572.16,666.59,571.64,666.95z"/>
	<path d="M571.64,662.58l-22.23,15.57c-0.51,0.36-0.94,0.23-0.94-0.28v-0.86c0-0.51,0.42-1.23,0.94-1.59l22.23-15.57
		c0.51-0.36,0.94-0.23,0.94,0.28v0.86C572.58,661.5,572.16,662.22,571.64,662.58z"/>
	<path d="M571.64,658.21l-22.23,15.57c-0.51,0.36-0.94,0.23-0.94-0.28v-0.86c0-0.51,0.42-1.23,0.94-1.59l22.23-15.57
		c0.51-0.36,0.94-0.23,0.94,0.28v0.86C572.58,657.14,572.16,657.85,571.64,658.21z"/>
	<path d="M571.64,653.85l-22.23,15.57c-0.51,0.36-0.94,0.23-0.94-0.28v-0.86c0-0.51,0.42-1.23,0.94-1.59l22.23-15.57
		c0.51-0.36,0.94-0.23,0.94,0.28v0.86C572.58,652.77,572.16,653.48,571.64,653.85z"/>
	<path d="M571.64,649.48l-22.23,15.57c-0.51,0.36-0.94,0.23-0.94-0.28v-0.86c0-0.51,0.42-1.23,0.94-1.59l22.23-15.57
		c0.51-0.36,0.94-0.23,0.94,0.28v0.86C572.58,648.4,572.16,649.12,571.64,649.48z"/>
	<path d="M571.64,645.11l-22.23,15.57c-0.51,0.36-0.94,0.23-0.94-0.28v-0.86c0-0.51,0.42-1.23,0.94-1.59l22.23-15.57
		c0.51-0.36,0.94-0.23,0.94,0.28v0.86C572.58,644.03,572.16,644.75,571.64,645.11z"/>
	
		<ellipse transform="matrix(0.5786 -0.8156 0.8156 0.5786 -304.2304 723.702)" class="st35" cx="548.24" cy="656.27" rx="1.76" ry="0.89"/>
	
		<ellipse transform="matrix(0.5786 -0.8156 0.8156 0.5786 -280.0774 736.3698)" class="st35" cx="572.58" cy="639.23" rx="1.76" ry="0.89"/>
	
		<ellipse transform="matrix(0.5786 -0.8156 0.8156 0.5786 -310.9951 752.3439)" class="st35" cx="572.58" cy="677.14" rx="1.76" ry="0.89"/>
	
		<ellipse transform="matrix(0.5786 -0.8156 0.8156 0.5786 -334.9158 739.7979)" class="st35" cx="548.48" cy="694.01" rx="1.76" ry="0.89"/>
</g>
<g id="Calque_3">
	<polygon class="st26" points="621.01,973.51 601.46,973.59 610.8,984.27 619.4,984.44 627.18,978.15 630.37,967.57 	"/>
	<polygon class="st26" points="814.9,965.77 795.34,965.85 804.68,976.53 813.28,976.7 821.06,970.41 824.25,959.83 	"/>
	<polygon class="st26" points="885.62,899.66 876.07,896 879.61,908.27 883.79,910.08 888.18,905.4 890.74,895.62 	"/>
	<g>
		<path class="st15" d="M847.85,963.93l-270.74,14.68c-3.7,0.2-6.73-2.62-6.73-6.27V804.68c0-9.08,3.09-7.06,6.79-7.26L847.85,783
			c3.7-0.2,6.73,2.62,6.73,6.27v167.66C854.58,964.81,856.18,963.5,847.85,963.93z"/>
	</g>
	<g>
		<path class="st27" d="M891.57,889.46l-37.42,74.31c-0.44,0-0.14,0-0.16-2.69V788.94c0-1.99-4.66,0.35-4.38-0.45l40.7-65.42
			c0.44,0,2.06,2.77,2.06,4.76v158.02C892.38,887.84,892.1,888.33,891.57,889.46z"/>
	</g>
	<g>
		<path class="st27" d="M837.55,797.57l-265.2,4.01c-2.13-0.2-2.32-1.5-0.43-2.89l52.98-69.53c1.9-1.39,5.19-2.37,7.32-2.17
			l257.42-3.63c2.13,0.2,2.32,1.5,0.43,2.89l-44,68.84C840.42,800.14,839.68,797.77,837.55,797.57z"/>
	</g>
	<polygon class="st28" points="855.5,962.87 569.86,974.36 569.86,798.48 855.5,786.99 	"/>
	<path d="M773.09,952.9l-180.75,7.27c-6.89,0.28-12.48-5.34-12.48-12.55V824.41c0-7.21,5.59-13.27,12.48-13.55l180.75-7.27
		c6.89-0.28,12.48,5.34,12.48,12.55v123.22C785.57,946.56,779.98,952.62,773.09,952.9z"/>
	<linearGradient id="SVGID_11_" gradientUnits="userSpaceOnUse" x1="589.4529" y1="881.8809" x2="775.9775" y2="881.8809">
		<stop  offset="0" style="stop-color:#1F244A"/>
		<stop  offset="0.1866" style="stop-color:#2D2751"/>
		<stop  offset="0.5353" style="stop-color:#502F65"/>
		<stop  offset="1" style="stop-color:#883B84"/>
	</linearGradient>
	<path class="st45" d="M742.9,947.15L622.53,952c-18.27,0.73-33.08-14.15-33.08-33.25v-66.23c0-19.1,14.81-35.17,33.08-35.91
		l120.37-4.84c18.27-0.73,33.08,14.15,33.08,33.25v66.23C775.98,930.34,761.17,946.42,742.9,947.15z"/>
	<polygon class="st30" points="847.24,858.37 795.19,860.46 795.19,802.7 847.24,800.61 	"/>
	<polygon class="st30" points="847.24,949.92 795.19,952.01 795.19,871.81 847.24,869.72 	"/>
	<path d="M845.05,914.9l-47.67,1.92c-0.94,0.04-1.69-0.72-1.69-1.7v0c0-0.98,0.76-1.8,1.69-1.84l47.67-1.92
		c0.94-0.04,1.69,0.72,1.69,1.7l0,0C846.74,914.04,845.99,914.86,845.05,914.9z"/>
	<path d="M845.05,920.32l-47.67,1.92c-0.94,0.04-1.69-0.72-1.69-1.7l0,0c0-0.98,0.76-1.8,1.69-1.84l47.67-1.92
		c0.94-0.04,1.69,0.72,1.69,1.7l0,0C846.74,919.45,845.99,920.28,845.05,920.32z"/>
	<path d="M845.05,925.73l-47.67,1.92c-0.94,0.04-1.69-0.72-1.69-1.7l0,0c0-0.98,0.76-1.8,1.69-1.84l47.67-1.92
		c0.94-0.04,1.69,0.72,1.69,1.7l0,0C846.74,924.87,845.99,925.69,845.05,925.73z"/>
	<path d="M845.05,931.15l-47.67,1.92c-0.94,0.04-1.69-0.72-1.69-1.7l0,0c0-0.98,0.76-1.8,1.69-1.84l47.67-1.92
		c0.94-0.04,1.69,0.72,1.69,1.7l0,0C846.74,930.29,845.99,931.11,845.05,931.15z"/>
	<path d="M845.05,936.56l-47.67,1.92c-0.94,0.04-1.69-0.72-1.69-1.7l0,0c0-0.98,0.76-1.8,1.69-1.84l47.67-1.92
		c0.94-0.04,1.69,0.72,1.69,1.7l0,0C846.74,935.7,845.99,936.52,845.05,936.56z"/>
	<path d="M845.05,941.98l-47.67,1.92c-0.94,0.04-1.69-0.72-1.69-1.7l0,0c0-0.98,0.76-1.8,1.69-1.84l47.67-1.92
		c0.94-0.04,1.69,0.72,1.69,1.7l0,0C846.74,941.12,845.99,941.94,845.05,941.98z"/>
	<path d="M845.05,947.39l-47.67,1.92c-0.94,0.04-1.69-0.72-1.69-1.7l0,0c0-0.98,0.76-1.8,1.69-1.84l47.67-1.92
		c0.94-0.04,1.69,0.72,1.69,1.7v0C846.74,946.53,845.99,947.36,845.05,947.39z"/>
	<ellipse transform="matrix(0.3452 -0.9385 0.9385 0.3452 -298.0732 1353.9871)" cx="821.34" cy="890.62" rx="17.67" ry="16.65"/>
	<path class="st30" d="M810.83,877.37l21.01-0.85c-0.81-0.65-1.68-1.22-2.61-1.7l-15.79,0.64
		C812.52,876.02,811.64,876.66,810.83,877.37z"/>
	<path class="st30" d="M809.06,879.16c-0.55,0.63-1.05,1.31-1.51,2.02c0.06,0.01,0.11,0.01,0.17,0.01l26.97-1.09
		c0.13-0.01,0.26-0.04,0.38-0.1c-0.45-0.65-0.94-1.26-1.46-1.83L809.06,879.16z"/>
	<path class="st30" d="M805.74,884.8l31.2-1.26c-0.23-0.61-0.5-1.2-0.8-1.77l-29.6,1.19C806.24,883.55,805.97,884.17,805.74,884.8z"
		/>
	<path class="st30" d="M804.77,888.53l33.13-1.33c-0.1-0.67-0.24-1.32-0.41-1.96l-32.3,1.3
		C805.01,887.19,804.87,887.85,804.77,888.53z"/>
	<path class="st30" d="M804.56,891.29c0,0.26,0.01,0.52,0.02,0.77l33.51-1.35c0.01-0.26,0.02-0.51,0.02-0.77
		c0-0.35-0.01-0.69-0.03-1.03l-33.48,1.35C804.58,890.6,804.56,890.94,804.56,891.29z"/>
	<path class="st30" d="M804.74,893.78c0.09,0.67,0.22,1.32,0.38,1.96l32.44-1.31c0.16-0.64,0.28-1.28,0.37-1.94
		c-0.09-0.02-0.18-0.04-0.27-0.04l-32.89,1.32C804.76,893.78,804.75,893.78,804.74,893.78z"/>
	<path class="st30" d="M805.64,897.44c0.22,0.61,0.48,1.2,0.77,1.77l29.86-1.2c0.28-0.58,0.53-1.18,0.75-1.79
		c-0.08-0.02-0.17-0.04-0.26-0.04l-31.08,1.25C805.66,897.44,805.65,897.44,805.64,897.44z"/>
	<path class="st30" d="M807.41,900.95c0.43,0.66,0.91,1.27,1.43,1.85l25-1.01c0.49-0.59,0.95-1.22,1.36-1.87
		c-0.15-0.09-0.32-0.14-0.5-0.13l-26.97,1.09C807.62,900.88,807.51,900.91,807.41,900.95z"/>
	<path class="st30" d="M832.14,903.59l-21.61,0.87c0.77,0.65,1.59,1.22,2.47,1.71l16.67-0.67
		C830.55,904.94,831.37,904.3,832.14,903.59z"/>
	<ellipse transform="matrix(0.3452 -0.9385 0.9385 0.3452 -252.1725 1323.4805)" cx="822.42" cy="842.47" rx="11.98" ry="11.29"/>
	
		<ellipse transform="matrix(0.3452 -0.9385 0.9385 0.3452 -255.0316 1322.9254)" class="st31" cx="820.6" cy="844.24" rx="11.98" ry="11.29"/>
	<polygon points="821.35,849.52 819.33,849.6 818.21,833.68 819.33,832.93 822.03,832.83 	"/>
	<polygon class="st32" points="821.35,849.52 818.21,849.65 818.21,833.68 821.35,833.56 	"/>
	
		<ellipse transform="matrix(0.3452 -0.9385 0.9385 0.3452 -247.1434 1316.2837)" class="st33" cx="819.78" cy="835.26" rx="0.71" ry="0.67"/>
	<ellipse transform="matrix(0.3452 -0.9385 0.9385 0.3452 -226.5178 1305.582)" cx="822.42" cy="815.13" rx="11.98" ry="11.29"/>
	
		<ellipse transform="matrix(0.3452 -0.9385 0.9385 0.3452 -229.3769 1305.0271)" class="st31" cx="820.6" cy="816.9" rx="11.98" ry="11.29"/>
	<polygon points="821.35,822.19 819.33,822.27 818.21,806.35 819.33,805.6 822.03,805.49 	"/>
	<polygon class="st32" points="821.35,822.19 818.21,822.31 818.21,806.35 821.35,806.22 	"/>
	
		<ellipse transform="matrix(0.3452 -0.9385 0.9385 0.3452 -221.4887 1298.3854)" class="st33" cx="819.78" cy="807.93" rx="0.71" ry="0.67"/>
	<linearGradient id="SVGID_12_" gradientUnits="userSpaceOnUse" x1="589.1695" y1="879.0115" x2="776.4576" y2="879.0115">
		<stop  offset="0" style="stop-color:#5F3189"/>
		<stop  offset="1" style="stop-color:#A14C97"/>
	</linearGradient>
	<path class="st46" d="M775.95,871.55c0,39.02-41.97,72.35-93.74,74.43s-91.74-27.96-92.75-66.93
		c-0.74-28.59-1.13-43.64,12.09-53.87c14.06-10.88,8.89-6.69,80.17-10.96c78.69-4.71,76.81-2.15,85.35,7.66
		C779.65,836.33,775.95,855.52,775.95,871.55z"/>
	<path class="st0" d="M692.85,684.63l-0.83,0.59l-18.97-26.83c0.77-0.88,1.24-2.01,1.24-3.27c0-2.77-2.24-5.01-5.01-5.01
		s-5.01,2.24-5.01,5.01c0,2.77,2.24,5.01,5.01,5.01c0.57,0,1.11-0.12,1.62-0.29l19,26.87l-0.78,0.55l38.07,53.85l3.72-2.63
		L692.85,684.63z"/>
	<path d="M786.92,750.63c0,17.92-20.6,19.68-46.96,19.68s-48.48-1.76-48.48-19.68c0-17.92,21.36-32.44,47.72-32.44
		S786.92,732.71,786.92,750.63z"/>
	<path class="st0" d="M819.13,645.25c-2.77,0-5.01,2.25-5.01,5.01c0,1.26,0.48,2.4,1.25,3.28l-18.96,26.81l-0.83-0.59l-38.07,53.85
		l3.72,2.63l38.07-53.85l-0.78-0.55l18.99-26.86c0.51,0.18,1.05,0.29,1.62,0.29c2.77,0,5.01-2.25,5.01-5.01
		S821.9,645.25,819.13,645.25z"/>
	<polygon class="st30" points="885.49,853.13 863.96,883.45 863.96,820.35 885.49,790.03 	"/>
	<path d="M882.87,850.28l-16.4,23.11c-0.38,0.54-0.69,0.35-0.69-0.42v-1.27c0-0.76,0.31-1.83,0.69-2.36l16.4-23.11
		c0.38-0.54,0.69-0.35,0.69,0.42v1.27C883.56,848.68,883.25,849.74,882.87,850.28z"/>
	<path d="M882.87,843.79l-16.4,23.11c-0.38,0.54-0.69,0.35-0.69-0.42v-1.27c0-0.76,0.31-1.83,0.69-2.36l16.4-23.11
		c0.38-0.54,0.69-0.35,0.69,0.42v1.27C883.56,842.2,883.25,843.26,882.87,843.79z"/>
	<path d="M882.87,837.31l-16.4,23.11c-0.38,0.54-0.69,0.35-0.69-0.42v-1.27c0-0.76,0.31-1.83,0.69-2.36l16.4-23.11
		c0.38-0.54,0.69-0.35,0.69,0.42v1.27C883.56,835.71,883.25,836.77,882.87,837.31z"/>
	<path d="M882.87,830.83l-16.4,23.11c-0.38,0.54-0.69,0.35-0.69-0.42v-1.27c0-0.76,0.31-1.83,0.69-2.36l16.4-23.11
		c0.38-0.54,0.69-0.35,0.69,0.42v1.27C883.56,829.23,883.25,830.29,882.87,830.83z"/>
	<path d="M882.87,824.34l-16.4,23.11c-0.38,0.54-0.69,0.35-0.69-0.42v-1.27c0-0.76,0.31-1.83,0.69-2.36l16.4-23.11
		c0.38-0.54,0.69-0.35,0.69,0.42v1.27C883.56,822.74,883.25,823.81,882.87,824.34z"/>
	<path d="M882.87,817.86l-16.4,23.11c-0.38,0.54-0.69,0.35-0.69-0.42v-1.27c0-0.76,0.31-1.83,0.69-2.36l16.4-23.11
		c0.38-0.54,0.69-0.35,0.69,0.42v1.27C883.56,816.26,883.25,817.32,882.87,817.86z"/>
	<path d="M882.87,811.37l-16.4,23.11c-0.38,0.54-0.69,0.35-0.69-0.42v-1.27c0-0.76,0.31-1.83,0.69-2.36l16.4-23.11
		c0.38-0.54,0.69-0.35,0.69,0.42v1.27C883.56,809.78,883.25,810.84,882.87,811.37z"/>
	<path d="M882.87,804.89L866.47,828c-0.38,0.54-0.69,0.35-0.69-0.42v-1.27c0-0.76,0.31-1.83,0.69-2.36l16.4-23.11
		c0.38-0.54,0.69-0.35,0.69,0.42v1.27C883.56,803.29,883.25,804.35,882.87,804.89z"/>
	
		<ellipse transform="matrix(0.2524 -0.9676 0.9676 0.2524 -147.7639 1451.6464)" class="st35" cx="865.6" cy="821.45" rx="2.33" ry="0.73"/>
	
		<ellipse transform="matrix(0.2524 -0.9676 0.9676 0.2524 -109.8643 1450.1118)" class="st35" cx="883.56" cy="796.16" rx="2.33" ry="0.73"/>
	
		<ellipse transform="matrix(0.2524 -0.9676 0.9676 0.2524 -164.3142 1492.1785)" class="st35" cx="883.56" cy="852.43" rx="2.33" ry="0.73"/>
	
		<ellipse transform="matrix(0.2524 -0.9676 0.9676 0.2524 -201.8493 1493.6982)" class="st35" cx="865.78" cy="877.48" rx="2.33" ry="0.73"/>
</g>
<g id="Calque_5">
	<polygon class="st26" points="663.31,776.64 649.18,776.7 655.93,784.42 662.14,784.54 667.76,780 670.07,772.35 	"/>
	<polygon class="st26" points="803.42,771.04 789.29,771.1 796.04,778.82 802.25,778.95 807.88,774.4 810.18,766.75 	"/>
	<polygon class="st26" points="854.53,723.27 847.63,720.63 850.19,729.49 853.2,730.8 856.38,727.42 858.23,720.35 	"/>
	<g>
		<path class="st15" d="M827.24,769.72l-195.66,10.61c-2.67,0.14-4.86-1.9-4.86-4.53V654.63c0-6.56,2.23-5.1,4.9-5.25l195.61-10.42
			c2.67-0.14,4.86,1.9,4.86,4.53v121.16C832.1,770.35,833.25,769.4,827.24,769.72z"/>
	</g>
	<g>
		<path class="st27" d="M858.83,715.9l-27.04,53.7c-0.32,0-0.1,0-0.12-1.95V643.26c0-1.44-3.37,0.25-3.16-0.33l29.41-47.28
			c0.32,0,1.49,2,1.49,3.44v114.19C859.41,714.73,859.21,715.08,858.83,715.9z"/>
	</g>
	<g>
		<path class="st27" d="M819.79,649.49l-191.65,2.9c-1.54-0.14-1.68-1.08-0.31-2.09l38.29-50.25c1.37-1.01,3.75-1.71,5.29-1.57
			l186.03-2.62c1.54,0.14,1.68,1.08,0.31,2.09l-31.8,49.75C821.87,651.35,821.33,649.64,819.79,649.49z"/>
	</g>
	<polygon class="st28" points="832.76,768.95 626.34,777.25 626.34,650.15 832.76,641.85 	"/>
	<path d="M773.21,761.75L642.59,767c-4.98,0.2-9.02-3.86-9.02-9.07v-89.05c0-5.21,4.04-9.59,9.02-9.79l130.62-5.26
		c4.98-0.2,9.02,3.86,9.02,9.07v89.05C782.23,757.16,778.19,761.55,773.21,761.75z"/>
	<linearGradient id="SVGID_13_" gradientUnits="userSpaceOnUse" x1="640.5006" y1="710.4218" x2="775.295" y2="710.4218">
		<stop  offset="0" style="stop-color:#1F244A"/>
		<stop  offset="0.1866" style="stop-color:#2D2751"/>
		<stop  offset="0.5353" style="stop-color:#502F65"/>
		<stop  offset="1" style="stop-color:#883B84"/>
	</linearGradient>
	<path class="st47" d="M751.39,757.59l-86.99,3.5c-13.2,0.53-23.9-10.23-23.9-24.03V689.2c0-13.8,10.7-25.42,23.9-25.95l86.99-3.5
		c13.2-0.53,23.9,10.23,23.9,24.03v47.86C775.29,745.44,764.59,757.06,751.39,757.59z"/>
	<polygon class="st30" points="826.79,693.43 789.18,694.95 789.18,653.2 826.79,651.69 	"/>
	<polygon class="st30" points="826.79,759.59 789.18,761.1 789.18,703.14 826.79,701.63 	"/>
	<path d="M825.21,734.28l-34.45,1.39c-0.68,0.03-1.22-0.52-1.22-1.23l0,0c0-0.71,0.55-1.3,1.22-1.33l34.45-1.39
		c0.68-0.03,1.22,0.52,1.22,1.23l0,0C826.44,733.66,825.89,734.26,825.21,734.28z"/>
	<path d="M825.21,738.2l-34.45,1.39c-0.68,0.03-1.22-0.52-1.22-1.23l0,0c0-0.71,0.55-1.3,1.22-1.33l34.45-1.39
		c0.68-0.03,1.22,0.52,1.22,1.23l0,0C826.44,737.58,825.89,738.17,825.21,738.2z"/>
	<path d="M825.21,742.11l-34.45,1.39c-0.68,0.03-1.22-0.52-1.22-1.23l0,0c0-0.71,0.55-1.3,1.22-1.33l34.45-1.39
		c0.68-0.03,1.22,0.52,1.22,1.23l0,0C826.44,741.49,825.89,742.08,825.21,742.11z"/>
	<path d="M825.21,746.02l-34.45,1.39c-0.68,0.03-1.22-0.52-1.22-1.23l0,0c0-0.71,0.55-1.3,1.22-1.33l34.45-1.39
		c0.68-0.03,1.22,0.52,1.22,1.23l0,0C826.44,745.4,825.89,746,825.21,746.02z"/>
	<path d="M825.21,749.94l-34.45,1.39c-0.68,0.03-1.22-0.52-1.22-1.23l0,0c0-0.71,0.55-1.3,1.22-1.33l34.45-1.39
		c0.68-0.03,1.22,0.52,1.22,1.23l0,0C826.44,749.32,825.89,749.91,825.21,749.94z"/>
	<path d="M825.21,753.85l-34.45,1.39c-0.68,0.03-1.22-0.52-1.22-1.23l0,0c0-0.71,0.55-1.3,1.22-1.33l34.45-1.39
		c0.68-0.03,1.22,0.52,1.22,1.23l0,0C826.44,753.23,825.89,753.82,825.21,753.85z"/>
	<path d="M825.21,757.77l-34.45,1.39c-0.68,0.03-1.22-0.52-1.22-1.23l0,0c0-0.71,0.55-1.3,1.22-1.33l34.45-1.39
		c0.68-0.03,1.22,0.52,1.22,1.23l0,0C826.44,757.14,825.89,757.74,825.21,757.77z"/>
	<ellipse transform="matrix(0.3452 -0.9385 0.9385 0.3452 -143.5659 1227.6876)" cx="808.08" cy="716.73" rx="12.77" ry="12.03"/>
	<path class="st30" d="M800.48,707.16l15.18-0.61c-0.59-0.47-1.22-0.88-1.89-1.23l-11.41,0.46
		C801.7,706.18,801.07,706.65,800.48,707.16z"/>
	<path class="st30" d="M799.21,708.46c-0.39,0.46-0.76,0.95-1.09,1.46c0.04,0.01,0.08,0.01,0.12,0.01l19.49-0.78
		c0.1,0,0.19-0.03,0.27-0.07c-0.32-0.47-0.68-0.91-1.06-1.32L799.21,708.46z"/>
	<path class="st30" d="M796.8,712.53l22.54-0.91c-0.17-0.44-0.36-0.87-0.58-1.28l-21.39,0.86
		C797.16,711.63,796.97,712.07,796.8,712.53z"/>
	<path class="st30" d="M796.1,715.23l23.94-0.96c-0.07-0.48-0.17-0.95-0.3-1.41l-23.35,0.94
		C796.28,714.26,796.18,714.74,796.1,715.23z"/>
	<path class="st30" d="M795.95,717.22c0,0.19,0.01,0.37,0.01,0.56l24.22-0.97c0.01-0.19,0.01-0.37,0.01-0.56
		c0-0.25-0.01-0.5-0.02-0.74l-24.2,0.97C795.96,716.72,795.95,716.97,795.95,717.22z"/>
	<path class="st30" d="M796.08,719.02c0.07,0.48,0.16,0.95,0.27,1.41l23.45-0.94c0.11-0.46,0.2-0.93,0.27-1.4
		c-0.06-0.02-0.13-0.03-0.2-0.03l-23.77,0.96C796.09,719.02,796.09,719.02,796.08,719.02z"/>
	<path class="st30" d="M796.73,721.67c0.16,0.44,0.35,0.87,0.55,1.28l21.58-0.87c0.2-0.42,0.38-0.85,0.54-1.29
		c-0.06-0.02-0.12-0.03-0.19-0.03l-22.46,0.9C796.75,721.66,796.74,721.67,796.73,721.67z"/>
	<path class="st30" d="M798.01,724.2c0.31,0.47,0.66,0.92,1.03,1.34l18.07-0.73c0.36-0.43,0.68-0.88,0.99-1.35
		c-0.11-0.07-0.23-0.1-0.36-0.1l-19.49,0.78C798.16,724.15,798.08,724.17,798.01,724.2z"/>
	<path class="st30" d="M815.88,726.11l-15.62,0.63c0.55,0.47,1.15,0.88,1.78,1.23l12.05-0.48
		C814.73,727.08,815.33,726.62,815.88,726.11z"/>
	<ellipse transform="matrix(0.3452 -0.9385 0.9385 0.3452 -110.3952 1205.6416)" cx="808.86" cy="681.94" rx="8.65" ry="8.16"/>
	
		<ellipse transform="matrix(0.3452 -0.9385 0.9385 0.3452 -112.4614 1205.2405)" class="st31" cx="807.54" cy="683.22" rx="8.65" ry="8.16"/>
	<polygon points="808.09,687.04 806.63,687.1 805.81,675.59 806.63,675.05 808.57,674.97 	"/>
	<polygon class="st32" points="808.09,687.04 805.81,687.13 805.81,675.59 808.09,675.5 	"/>
	
		<ellipse transform="matrix(0.3452 -0.9385 0.9385 0.3452 -106.7609 1200.4408)" class="st33" cx="806.95" cy="676.73" rx="0.51" ry="0.48"/>
	<ellipse transform="matrix(0.3452 -0.9385 0.9385 0.3452 -91.8555 1192.7072)" cx="808.86" cy="662.18" rx="8.65" ry="8.16"/>
	
		<ellipse transform="matrix(0.3452 -0.9385 0.9385 0.3452 -93.9217 1192.306)" class="st31" cx="807.54" cy="663.46" rx="8.65" ry="8.16"/>
	<polygon points="808.09,667.28 806.63,667.34 805.81,655.84 806.63,655.3 808.57,655.22 	"/>
	<polygon class="st32" points="808.09,667.28 805.81,667.37 805.81,655.84 808.09,655.75 	"/>
	
		<ellipse transform="matrix(0.3452 -0.9385 0.9385 0.3452 -88.2212 1187.5063)" class="st33" cx="806.95" cy="656.98" rx="0.51" ry="0.48"/>
	<linearGradient id="SVGID_14_" gradientUnits="userSpaceOnUse" x1="640.2958" y1="708.3481" x2="775.6419" y2="708.3481">
		<stop  offset="0" style="stop-color:#5F3189"/>
		<stop  offset="1" style="stop-color:#A14C97"/>
	</linearGradient>
	<path class="st48" d="M775.28,702.96c0,28.2-30.33,52.28-67.74,53.79c-37.41,1.51-66.3-20.2-67.03-48.37
		c-0.53-20.66-0.82-31.54,8.73-38.93c10.16-7.86,6.43-4.84,57.93-7.92c56.86-3.41,55.51-1.55,61.68,5.53
		C777.95,677.51,775.28,691.38,775.28,702.96z"/>
	<path class="st0" d="M715.22,567.87l-0.6,0.42l-13.71-19.39c0.55-0.64,0.9-1.46,0.9-2.36c0-2-1.62-3.62-3.62-3.62
		c-2,0-3.62,1.62-3.62,3.62c0,2,1.62,3.62,3.62,3.62c0.41,0,0.8-0.08,1.17-0.21l13.73,19.42l-0.57,0.4l27.51,38.92l2.69-1.9
		L715.22,567.87z"/>
	<path d="M783.2,615.57c0,12.95-14.89,14.22-33.93,14.22s-35.03-1.27-35.03-14.22s15.44-23.45,34.48-23.45
		S783.2,602.62,783.2,615.57z"/>
	<path class="st0" d="M806.48,539.41c-2,0-3.62,1.62-3.62,3.62c0,0.91,0.35,1.73,0.9,2.37l-13.7,19.37l-0.6-0.42l-27.51,38.92
		l2.69,1.9l27.51-38.92l-0.57-0.4l13.72-19.41c0.37,0.13,0.76,0.21,1.17,0.21c2,0,3.62-1.62,3.62-3.62
		C810.11,541.04,808.48,539.41,806.48,539.41z"/>
	<polygon class="st30" points="854.43,689.65 838.88,711.56 838.88,665.95 854.43,644.04 	"/>
	<path d="M852.54,687.58l-11.85,16.7c-0.27,0.39-0.5,0.25-0.5-0.3v-0.92c0-0.55,0.22-1.32,0.5-1.71l11.85-16.7
		c0.27-0.39,0.5-0.25,0.5,0.3v0.92C853.04,686.43,852.82,687.2,852.54,687.58z"/>
	<path d="M852.54,682.9l-11.85,16.7c-0.27,0.39-0.5,0.25-0.5-0.3v-0.92c0-0.55,0.22-1.32,0.5-1.71l11.85-16.7
		c0.27-0.39,0.5-0.25,0.5,0.3v0.92C853.04,681.74,852.82,682.51,852.54,682.9z"/>
	<path d="M852.54,678.21l-11.85,16.7c-0.27,0.39-0.5,0.25-0.5-0.3v-0.92c0-0.55,0.22-1.32,0.5-1.71l11.85-16.7
		c0.27-0.39,0.5-0.25,0.5,0.3v0.92C853.04,677.06,852.82,677.83,852.54,678.21z"/>
	<path d="M852.54,673.53l-11.85,16.7c-0.27,0.39-0.5,0.25-0.5-0.3V689c0-0.55,0.22-1.32,0.5-1.71l11.85-16.7
		c0.27-0.39,0.5-0.25,0.5,0.3v0.92C853.04,672.37,852.82,673.14,852.54,673.53z"/>
	<path d="M852.54,668.84l-11.85,16.7c-0.27,0.39-0.5,0.25-0.5-0.3v-0.92c0-0.55,0.22-1.32,0.5-1.71l11.85-16.7
		c0.27-0.39,0.5-0.25,0.5,0.3v0.92C853.04,667.69,852.82,668.45,852.54,668.84z"/>
	<path d="M852.54,664.15l-11.85,16.7c-0.27,0.39-0.5,0.25-0.5-0.3v-0.92c0-0.55,0.22-1.32,0.5-1.71l11.85-16.7
		c0.27-0.39,0.5-0.25,0.5,0.3v0.92C853.04,663,852.82,663.77,852.54,664.15z"/>
	<path d="M852.54,659.47l-11.85,16.7c-0.27,0.39-0.5,0.25-0.5-0.3v-0.92c0-0.55,0.22-1.32,0.5-1.71l11.85-16.7
		c0.27-0.39,0.5-0.25,0.5,0.3v0.92C853.04,658.31,852.82,659.08,852.54,659.47z"/>
	<path d="M852.54,654.78l-11.85,16.7c-0.27,0.39-0.5,0.25-0.5-0.3v-0.92c0-0.55,0.22-1.32,0.5-1.71l11.85-16.7
		c0.27-0.39,0.5-0.25,0.5,0.3v0.92C853.04,653.63,852.82,654.4,852.54,654.78z"/>
	
		<ellipse transform="matrix(0.2524 -0.9676 0.9676 0.2524 -17.1661 1311.2877)" class="st35" cx="840.07" cy="666.75" rx="1.68" ry="0.53"/>
	
		<ellipse transform="matrix(0.2524 -0.9676 0.9676 0.2524 10.2226 1310.1787)" class="st35" cx="853.04" cy="648.47" rx="1.68" ry="0.53"/>
	
		<ellipse transform="matrix(0.2524 -0.9676 0.9676 0.2524 -29.1263 1340.5786)" class="st35" cx="853.04" cy="689.14" rx="1.68" ry="0.53"/>
	
		<ellipse transform="matrix(0.2524 -0.9676 0.9676 0.2524 -56.2516 1341.677)" class="st35" cx="840.19" cy="707.24" rx="1.68" ry="0.53"/>
</g>
</svg>
