<?xml version="1.0" encoding="utf-8"?>
<!-- Generator: Adobe Illustrator 23.0.1, SVG Export Plug-In . SVG Version: 6.00 Build 0)  -->
<svg version="1.1" xmlns="http://www.w3.org/2000/svg" xmlns:xlink="http://www.w3.org/1999/xlink" x="0px" y="0px"
	 viewBox="0 0 1920 1080" style="enable-background:new 0 0 1920 1080;" xml:space="preserve">
<style type="text/css">
	.st0{display:none;}
	.st1{display:inline;}
	.st2{fill:#B26900;}
	.st3{fill:#7C3E00;}
	.st4{fill:#EFD170;}
	.st5{fill:#6B3500;}
	.st6{fill:#3F1E00;}
	.st7{fill:#494949;}
	.st8{fill:#E0E0E0;}
	.st9{fill:#AA0000;}
	.st10{fill:#F4D34A;}
	.st11{fill:#DBDBDB;}
	.st12{fill:#1E1C1A;}
	.st13{fill:#4F2903;}
	.st14{fill:#844B00;}
	.st15{fill:#CE7500;}
	.st16{fill:#757370;}
	.st17{fill:#282827;}
	.st18{fill:#4F4D4A;}
	.st19{fill:#636363;}
	.st20{fill:#BA0000;}
	.st21{fill:#565656;}
	.st22{fill:#CECECE;}
</style>
<g id="Calque_1" class="st0">
	<g class="st1">
		<path class="st2" d="M1869.93,388h-485.86c-6.64,0-12.07-5.43-12.07-12.07V71.07c0-6.64,5.43-12.07,12.07-12.07h485.86
			c6.64,0,12.07,5.43,12.07,12.07v304.86C1882,382.57,1876.57,388,1869.93,388z"/>
	</g>
	<g class="st1">
		<path class="st3" d="M1795.63,266h-339.25c-21.66,0-39.38-17.72-39.38-39.38v-94.25c0-21.66,17.72-39.38,39.38-39.38h339.25
			c21.66,0,39.38,17.72,39.38,39.38v94.25C1835,248.28,1817.28,266,1795.63,266z"/>
	</g>
	<g class="st1">
		<circle cx="1526" cy="180" r="74"/>
	</g>
	<g class="st1">
		<circle cx="1727" cy="179" r="74"/>
	</g>
	<g class="st1">
		<path class="st3" d="M1814.91,370h-377.81c-11.05,0-20.09-9.04-20.09-20.09v-46.82c0-11.05,9.04-20.09,20.09-20.09h377.81
			c11.05,0,20.09,9.04,20.09,20.09v46.82C1835,360.96,1825.96,370,1814.91,370z"/>
	</g>
	<g class="st1">
		<circle class="st4" cx="1472" cy="327" r="20"/>
	</g>
	<g class="st1">
		<circle class="st5" cx="1472" cy="327" r="11"/>
	</g>
	<g class="st1">
		<circle class="st4" cx="1781" cy="327" r="20"/>
	</g>
	<g class="st1">
		<circle class="st5" cx="1781" cy="327" r="11"/>
	</g>
	<g class="st1">
		<rect x="1526" y="297" class="st6" width="201" height="60"/>
	</g>
	<g class="st1">
		<circle class="st7" cx="1526" cy="180" r="43"/>
	</g>
	<g class="st1">
		<circle class="st7" cx="1727" cy="180" r="43"/>
	</g>
	<g class="st1">
		<rect x="1526" y="325" class="st8" width="201" height="5"/>
	</g>
	<g class="st1">
		<rect x="1530" y="301" class="st8" width="5" height="53"/>
	</g>
	<g class="st1">
		<rect x="1561" y="301" class="st8" width="5" height="53"/>
	</g>
	<g class="st1">
		<rect x="1546" y="313" class="st8" width="3" height="29"/>
	</g>
	<g class="st1">
		<rect x="1592" y="301" class="st8" width="5" height="53"/>
	</g>
	<g class="st1">
		<rect x="1577" y="313" class="st8" width="3" height="29"/>
	</g>
	<g class="st1">
		<rect x="1624" y="301" class="st8" width="5" height="53"/>
	</g>
	<g class="st1">
		<path d="M1611,314v27h-1v-27H1611 M1612,313h-3v29h3V313L1612,313z"/>
	</g>
	<g class="st1">
		<rect x="1655" y="301" class="st8" width="5" height="53"/>
	</g>
	<g class="st1">
		<rect x="1640" y="313" class="st8" width="3" height="29"/>
	</g>
	<g class="st1">
		<rect x="1687" y="301" class="st8" width="5" height="53"/>
	</g>
	<g class="st1">
		<rect x="1672" y="313" class="st8" width="3" height="29"/>
	</g>
	<g class="st1">
		<rect x="1718" y="301" class="st8" width="5" height="53"/>
	</g>
	<g class="st1">
		<rect x="1703" y="313" class="st8" width="3" height="29"/>
	</g>
	<g class="st1">
		<rect x="1603" y="297" class="st9" width="9" height="60"/>
	</g>
	<g class="st1">
		<circle class="st10" cx="1472" cy="327" r="9"/>
	</g>
	<g class="st1">
		<circle class="st10" cx="1781" cy="327" r="9"/>
	</g>
	<g class="st1">
		<rect x="1418" y="206" class="st11" width="417" height="2"/>
	</g>
	<g class="st1">
		<rect x="1418" y="211" class="st11" width="417" height="2"/>
	</g>
	<g class="st1">
		<rect x="1418" y="216" class="st11" width="417" height="2"/>
	</g>
	<g class="st1">
		<rect x="1418" y="221" class="st11" width="417" height="2"/>
	</g>
	<g class="st1">
		<rect x="1418" y="226" class="st11" width="417" height="2"/>
	</g>
	<g class="st1">
		<rect x="1418" y="231" class="st11" width="416" height="2"/>
	</g>
	<g class="st1">
		<rect x="1419" y="236" class="st11" width="414" height="2"/>
	</g>
	<g class="st1">
		<polygon class="st11" points="1421,243 1420,241 1832,241 1831,243 		"/>
	</g>
	<g class="st1">
		<polygon class="st11" points="1424,248 1423,246 1829,246 1828.01,248 		"/>
	</g>
	<g class="st1">
		<polygon class="st11" points="1428,253 1426,251 1826,251 1824.03,253 		"/>
	</g>
	<g class="st1">
		<polygon class="st11" points="1433,258 1431,256 1821,256 1819.05,258 		"/>
	</g>
	<g class="st1">
		<polygon class="st11" points="1442,263 1439,261 1813,261 1810.14,263 		"/>
	</g>
	<g class="st1">
		<rect x="1417" y="176" class="st11" width="418" height="2"/>
	</g>
	<g class="st1">
		<rect x="1417" y="181" class="st11" width="418" height="2"/>
	</g>
	<g class="st1">
		<rect x="1417" y="186" class="st11" width="418" height="2"/>
	</g>
	<g class="st1">
		<rect x="1417" y="191" class="st11" width="418" height="2"/>
	</g>
	<g class="st1">
		<rect x="1417" y="196" class="st11" width="418" height="2"/>
	</g>
	<g class="st1">
		<rect x="1417" y="201" class="st11" width="418" height="2"/>
	</g>
	<g class="st1">
		<rect x="1418" y="146" class="st11" width="417" height="2"/>
	</g>
	<g class="st1">
		<rect x="1418" y="151" class="st11" width="417" height="2"/>
	</g>
	<g class="st1">
		<rect x="1418" y="156" class="st11" width="417" height="2"/>
	</g>
	<g class="st1">
		<rect x="1418" y="161" class="st11" width="417" height="2"/>
	</g>
	<g class="st1">
		<rect x="1418" y="166" class="st11" width="417" height="2"/>
	</g>
	<g class="st1">
		<rect x="1418" y="171" class="st11" width="417" height="2"/>
	</g>
	<g class="st1">
		<polygon class="st11" points="1420,118 1421,116 1831.01,116 1832,118 		"/>
	</g>
	<g class="st1">
		<rect x="1419" y="121" class="st11" width="414" height="2"/>
	</g>
	<g class="st1">
		<rect x="1418" y="126" class="st11" width="416" height="2"/>
	</g>
	<g class="st1">
		<rect x="1417" y="131" class="st11" width="417" height="2"/>
	</g>
	<g class="st1">
		<rect x="1417" y="136" class="st11" width="417" height="2"/>
	</g>
	<g class="st1">
		<rect x="1417" y="141" class="st11" width="417" height="2"/>
	</g>
	<g class="st1">
		<polygon class="st11" points="1439,98 1441.84,96 1810,96 1813,98 		"/>
	</g>
	<g class="st1">
		<polygon class="st11" points="1431,103 1433,101 1819.07,101 1821,103 		"/>
	</g>
	<g class="st1">
		<polygon class="st11" points="1426,108 1428,106 1824.04,106 1826,108 		"/>
	</g>
	<g class="st1">
		<polygon class="st11" points="1423,113 1424,111 1828.01,111 1829,113 		"/>
	</g>
	<g class="st1">
		<g>
			<path class="st12" d="M1795.63,94c21.16,0,38.38,17.21,38.38,38.38v94.25c0,21.16-17.21,38.38-38.38,38.38h-339.25
				c-21.16,0-38.38-17.21-38.38-38.38v-94.25c0-21.16,17.21-38.38,38.38-38.38H1795.63 M1795.63,93h-339.25
				c-21.66,0-39.38,17.72-39.38,39.38v94.25c0,21.66,17.72,39.38,39.38,39.38h339.25c21.66,0,39.38-17.72,39.38-39.38v-94.25
				C1835,110.72,1817.28,93,1795.63,93L1795.63,93z"/>
		</g>
	</g>
</g>
<g id="Calque_2">
	<polygon class="st13" points="161.52,839.51 126.43,829.31 137.51,853.39 152.83,858.25 170.11,851.1 181.43,833.82 	"/>
	<polygon class="st13" points="513.13,928.3 478.03,918.1 489.12,942.19 504.43,947.05 521.71,939.9 533.04,922.62 	"/>
	<polygon class="st13" points="710.54,831.06 674.64,824.23 687.95,847.15 703.66,850.55 720.19,841.79 729.82,823.51 	"/>
	<g>
		<path class="st2" d="M588.56,954.2l-506-134.66c-6.91-1.84-12.57-8.93-12.57-15.75V490.44c0-16.96,5.77-11.34,12.68-9.5
			l505.89,135.11c6.91,1.84,12.57,8.93,12.57,15.75v313.34C601.13,959.86,604.12,958.37,588.56,954.2z"/>
	</g>
	<g>
		<path class="st14" d="M740.97,818L600.28,956.88c-1.67,0-0.53,0-0.6-5.04V630.13c0-3.71-4.16-8.21-3.1-9.7l139.67-145.37
			c1.67,0,7.75,5.18,7.75,8.89v327.29C744,814.96,742.94,815.89,740.97,818z"/>
	</g>
	<g>
		<path class="st14" d="M593.16,622.15L73.68,485.28c-4.11-1.66-4.12-4.96-0.02-7.32l219.18-113.81c4.1-2.36,10.81-2.94,14.92-1.28
			L736.7,475.09c4.11,1.66,4.12,4.96,0.02,7.32l-126.2,138.36C598.05,630.02,597.27,623.81,593.16,622.15z"/>
	</g>
	<polygon class="st15" points="602.85,956.79 69,807.24 69,478.54 602.85,628.09 	"/>
	<path d="M448.83,888.82l-337.81-94.63c-12.88-3.61-23.32-17.45-23.32-30.92V532.98c0-13.47,10.44-21.46,23.32-17.85l337.81,94.63
		c12.88,3.61,23.32,17.45,23.32,30.92v230.29C472.16,884.44,461.71,892.43,448.83,888.82z"/>
	<path class="st16" d="M392.41,860l-224.97-63.02c-34.14-9.56-61.82-46.25-61.82-81.94V591.26c0-35.69,27.68-56.87,61.82-47.31
		l224.97,63.02c34.14,9.56,61.82,46.25,61.82,81.94v123.78C454.23,848.38,426.55,869.57,392.41,860z"/>
	<polygon class="st17" points="587.41,756.54 490.14,729.29 490.14,621.33 587.41,648.58 	"/>
	<polygon class="st17" points="587.41,927.64 490.14,900.39 490.14,750.5 587.41,777.75 	"/>
	<path d="M583.32,860.88l-89.1-24.96c-1.75-0.49-3.17-2.37-3.17-4.2l0,0c0-1.83,1.42-2.91,3.17-2.42l89.1,24.96
		c1.75,0.49,3.17,2.37,3.17,4.2v0C586.49,860.29,585.07,861.37,583.32,860.88z"/>
	<path d="M583.32,871l-89.1-24.96c-1.75-0.49-3.17-2.37-3.17-4.2l0,0c0-1.83,1.42-2.91,3.17-2.42l89.1,24.96
		c1.75,0.49,3.17,2.37,3.17,4.2v0C586.49,870.41,585.07,871.49,583.32,871z"/>
	<path d="M583.32,881.13l-89.1-24.96c-1.75-0.49-3.17-2.37-3.17-4.2l0,0c0-1.83,1.42-2.91,3.17-2.42l89.1,24.96
		c1.75,0.49,3.17,2.37,3.17,4.2v0C586.49,880.53,585.07,881.62,583.32,881.13z"/>
	<path d="M583.32,891.25l-89.1-24.96c-1.75-0.49-3.17-2.37-3.17-4.2l0,0c0-1.83,1.42-2.91,3.17-2.42l89.1,24.96
		c1.75,0.49,3.17,2.37,3.17,4.2v0C586.49,890.65,585.07,891.74,583.32,891.25z"/>
	<path d="M583.32,901.37l-89.1-24.96c-1.75-0.49-3.17-2.37-3.17-4.2l0,0c0-1.83,1.42-2.91,3.17-2.42l89.1,24.96
		c1.75,0.49,3.17,2.37,3.17,4.2v0C586.49,900.77,585.07,901.86,583.32,901.37z"/>
	<path d="M583.32,911.49l-89.1-24.96c-1.75-0.49-3.17-2.37-3.17-4.2l0,0c0-1.83,1.42-2.91,3.17-2.42l89.1,24.96
		c1.75,0.49,3.17,2.37,3.17,4.2v0C586.49,910.89,585.07,911.98,583.32,911.49z"/>
	<path d="M583.32,921.61l-89.1-24.96c-1.75-0.49-3.17-2.37-3.17-4.2l0,0c0-1.83,1.42-2.91,3.17-2.42l89.1,24.96
		c1.75,0.49,3.17,2.37,3.17,4.2v0C586.49,921.02,585.07,922.1,583.32,921.61z"/>
	<ellipse transform="matrix(0.8039 -0.5947 0.5947 0.8039 -370.8738 477.6793)" cx="539" cy="801.3" rx="27.91" ry="36.81"/>
	<path class="st17" d="M519.37,770.26l39.26,11c-1.52-1.7-3.15-3.29-4.87-4.74l-29.51-8.27
		C522.52,768.73,520.89,769.41,519.37,770.26z"/>
	<path class="st17" d="M516.06,772.55c-1.02,0.86-1.96,1.82-2.82,2.87c0.1,0.05,0.21,0.09,0.32,0.12l50.41,14.12
		c0.25,0.07,0.49,0.08,0.7,0.04c-0.83-1.48-1.75-2.92-2.74-4.3L516.06,772.55z"/>
	<path class="st17" d="M509.85,781.08l58.3,16.33c-0.44-1.28-0.93-2.55-1.49-3.79l-55.33-15.5
		C510.78,779.06,510.29,780.05,509.85,781.08z"/>
	<path class="st17" d="M508.04,787.48l61.92,17.35c-0.19-1.31-0.45-2.61-0.77-3.91l-60.37-16.91
		C508.49,785.12,508.23,786.28,508.04,787.48z"/>
	<path class="st17" d="M507.65,792.52c0,0.48,0.02,0.97,0.04,1.46l62.63,17.54c0.02-0.47,0.04-0.95,0.04-1.44
		c0-0.65-0.02-1.3-0.06-1.94l-62.58-17.53C507.68,791.24,507.65,791.87,507.65,792.52z"/>
	<path class="st17" d="M507.98,797.28c0.17,1.3,0.41,2.59,0.71,3.88l60.64,16.99c0.3-1.09,0.53-2.23,0.7-3.4
		c-0.16-0.1-0.33-0.18-0.51-0.23l-61.47-17.22C508.01,797.28,508,797.28,507.98,797.28z"/>
	<path class="st17" d="M509.67,804.66c0.42,1.27,0.9,2.53,1.43,3.77l55.8,15.63c0.52-0.92,0.99-1.88,1.4-2.89
		c-0.15-0.1-0.32-0.18-0.49-0.22l-58.09-16.27C509.71,804.66,509.69,804.66,509.67,804.66z"/>
	<path class="st17" d="M512.98,812.28c0.81,1.48,1.7,2.93,2.66,4.32l46.73,13.09c0.92-0.82,1.77-1.71,2.55-2.69
		c-0.27-0.26-0.59-0.46-0.94-0.55l-50.41-14.12C513.36,812.27,513.16,812.26,512.98,812.28z"/>
	<path class="st17" d="M559.19,832.02l-40.38-11.31c1.43,1.67,2.98,3.23,4.61,4.67l31.16,8.73
		C556.22,833.58,557.76,832.88,559.19,832.02z"/>
	<ellipse transform="matrix(0.8039 -0.5947 0.5947 0.8039 -317.3436 461.3703)" cx="541.03" cy="711.96" rx="18.92" ry="24.95"/>
	
		<ellipse transform="matrix(0.8039 -0.5947 0.5947 0.8039 -319.3317 459.7739)" class="st18" cx="537.62" cy="714.18" rx="18.92" ry="24.95"/>
	<polygon points="539.03,724.51 535.25,723.45 533.16,693.02 535.25,692.3 540.29,693.71 	"/>
	<polygon class="st19" points="539.03,724.51 533.16,722.86 533.16,693.02 539.03,694.67 	"/>
	
		<ellipse transform="matrix(0.8039 -0.5947 0.5947 0.8039 -309.3652 455.4826)" class="st20" cx="536.09" cy="696.92" rx="1.12" ry="1.48"/>
	<ellipse transform="matrix(0.8039 -0.5947 0.5947 0.8039 -286.9598 451.3531)" cx="541.03" cy="660.87" rx="18.92" ry="24.95"/>
	
		<ellipse transform="matrix(0.8039 -0.5947 0.5947 0.8039 -288.9479 449.7567)" class="st18" cx="537.62" cy="663.09" rx="18.92" ry="24.95"/>
	<polygon points="539.03,673.42 535.25,672.36 533.16,641.94 535.25,641.21 540.29,642.62 	"/>
	<polygon class="st19" points="539.03,673.42 533.16,671.77 533.16,641.94 539.03,643.58 	"/>
	
		<ellipse transform="matrix(0.8039 -0.5947 0.5947 0.8039 -278.9814 445.4654)" class="st20" cx="536.09" cy="645.83" rx="1.12" ry="1.48"/>
	<path class="st21" d="M454.18,738.5c0,72.93-78.43,110.09-175.18,82.98c-96.75-27.1-171.46-107.18-173.34-180.61
		c-1.38-53.89-2.11-82.24,22.59-93.44c26.28-11.92,16.62-7.18,149.83,27.51c147.06,38.3,143.56,41.97,159.51,65.41
		C461.09,674.89,454.18,708.54,454.18,738.5z"/>
	
		<rect x="378.65" y="348.41" transform="matrix(-0.8165 0.5773 -0.5773 -0.8165 932.2876 523.7898)" class="st22" width="8.52" height="123.26"/>
	
		<rect x="561.98" y="290.19" transform="matrix(0.8165 0.5773 -0.5773 0.8165 291.2382 -266.1736)" class="st22" width="4.83" height="69.87"/>
	<circle class="st22" cx="586.83" cy="293.03" r="9.37"/>
	
		<rect x="326.82" y="299.27" transform="matrix(-0.8165 0.5773 -0.5773 -0.8165 791.0063 417.0315)" class="st22" width="4.83" height="69.87"/>
	<circle class="st22" cx="306.8" cy="302.12" r="9.37"/>
	<path d="M526.62,480.61c0,33.49-38.51,36.78-87.76,36.78s-90.6-3.29-90.6-36.78s39.93-60.63,89.18-60.63
		S526.62,447.12,526.62,480.61z"/>
	
		<rect x="506.45" y="339.32" transform="matrix(0.8165 0.5773 -0.5773 0.8165 325.1662 -221.274)" class="st22" width="8.52" height="123.26"/>
	<polygon class="st17" points="718.1,750.1 637.17,806.77 637.17,688.83 718.1,632.16 	"/>
	<path d="M708.26,744.76l-61.67,43.18c-1.43,1-2.6,0.65-2.6-0.78v-2.38c0-1.43,1.17-3.42,2.6-4.42l61.67-43.18
		c1.43-1,2.6-0.65,2.6,0.78v2.38C710.85,741.78,709.68,743.76,708.26,744.76z"/>
	<path d="M708.26,732.65l-61.67,43.18c-1.43,1-2.6,0.65-2.6-0.78v-2.38c0-1.43,1.17-3.41,2.6-4.42l61.67-43.18
		c1.43-1,2.6-0.65,2.6,0.78v2.38C710.85,729.66,709.68,731.65,708.26,732.65z"/>
	<path d="M708.26,720.53l-61.67,43.18c-1.43,1-2.6,0.65-2.6-0.78v-2.38c0-1.43,1.17-3.42,2.6-4.42l61.67-43.18
		c1.43-1,2.6-0.65,2.6,0.78v2.38C710.85,717.54,709.68,719.53,708.26,720.53z"/>
	<path d="M708.26,708.41l-61.67,43.18c-1.43,1-2.6,0.65-2.6-0.78v-2.38c0-1.43,1.17-3.41,2.6-4.42l61.67-43.18
		c1.43-1,2.6-0.65,2.6,0.78v2.38C710.85,705.42,709.68,707.41,708.26,708.41z"/>
	<path d="M708.26,696.29l-61.67,43.18c-1.43,1-2.6,0.65-2.6-0.78v-2.38c0-1.43,1.17-3.42,2.6-4.42l61.67-43.18
		c1.43-1,2.6-0.65,2.6,0.78v2.38C710.85,693.3,709.68,695.29,708.26,696.29z"/>
	<path d="M708.26,684.17l-61.67,43.18c-1.43,1-2.6,0.65-2.6-0.78v-2.38c0-1.43,1.17-3.42,2.6-4.42l61.67-43.18
		c1.43-1,2.6-0.65,2.6,0.78v2.38C710.85,681.19,709.68,683.17,708.26,684.17z"/>
	<path d="M708.26,672.05l-61.67,43.18c-1.43,1-2.6,0.65-2.6-0.78v-2.38c0-1.43,1.17-3.41,2.6-4.42l61.67-43.18
		c1.43-1,2.6-0.65,2.6,0.78v2.38C710.85,669.07,709.68,671.05,708.26,672.05z"/>
	<path d="M708.26,659.94l-61.67,43.18c-1.43,1-2.6,0.65-2.6-0.78v-2.38c0-1.43,1.17-3.42,2.6-4.42l61.67-43.18
		c1.43-1,2.6-0.65,2.6,0.78v2.38C710.85,656.95,709.68,658.94,708.26,659.94z"/>
	
		<ellipse transform="matrix(0.5786 -0.8156 0.8156 0.5786 -292.4006 815.8519)" class="st16" cx="643.34" cy="690.89" rx="4.88" ry="2.46"/>
	
		<ellipse transform="matrix(0.5786 -0.8156 0.8156 0.5786 -225.3911 850.9972)" class="st16" cx="710.85" cy="643.62" rx="4.88" ry="2.46"/>
	
		<ellipse transform="matrix(0.5786 -0.8156 0.8156 0.5786 -311.1685 895.3154)" class="st16" cx="710.85" cy="748.79" rx="4.88" ry="2.46"/>
	
		<ellipse transform="matrix(0.5786 -0.8156 0.8156 0.5786 -377.5338 860.5081)" class="st16" cx="643.98" cy="795.61" rx="4.88" ry="2.46"/>
</g>
</svg>
