<?xml version="1.0" encoding="utf-8"?>
<!-- Generator: Adobe Illustrator 23.0.1, SVG Export Plug-In . SVG Version: 6.00 Build 0)  -->
<svg version="1.1" id="Calque_1" xmlns="http://www.w3.org/2000/svg" xmlns:xlink="http://www.w3.org/1999/xlink" x="0px" y="0px"
	 viewBox="0 0 849.98 599.97" style="enable-background:new 0 0 849.98 599.97;" xml:space="preserve">
<style type="text/css">
	.st0{fill:#A9A9A9;}
	.st1{fill:#E5E4E4;}
	.st2{fill:#CFCCCC;}
</style>
<title>plane</title>
<path class="st0" d="M231.06,285.24c0,0,2,1.23,1.34,1.62c-8.22,4.78-66.76,35.76-85.16,28.87L231.06,285.24z"/>
<path class="st0" d="M252.42,277.3c0,0,56.6-35.12,49.76-45.7l-55.84,43.99L252.42,277.3z"/>
<path class="st0" d="M459.91,314.76c0,0,58.54-64.47,52.97-78.9c-5.57-14.43-59.16,76.45-59.16,76.45L459.91,314.76z"/>
<path class="st1" d="M517.43,370.95c-13.94,18.77-112.1,10.58-112.1,10.58S122.46,482.59,117.64,474.4s211.14-103.42,211.14-103.42
	l-32.23-10.1c-21.16,8.17-47.62,0.48-50.03-7.64c-2.04-6.91,14.72-13.24,19.76-14.99l1.4-0.46c-1.91-1.94,0.5-8.17,0.5-8.17
	s-19.48-22.83-37.21-44.33c-3.31-4.02-6.57-8-9.61-11.77c-11.54-14.27-20.22-25.67-18.66-25.67c4.34,0,16.83,3.37,16.83,3.37
	s7.26,5.91,17.59,14.13c3.92,3.12,8.3,6.58,12.83,10.17l0,0c23.41,18.35,52.27,40.13,55.64,38.72c5.78-2.39,102.95-5.76,102.95-5.76
	s91.9-86.12,102.95-76.02c11.06,10.1-56.29,79.87-56.29,79.87s2.91,1.54,7.51,4.14c6.24,3.5,15.56,9.07,24.84,15.43
	C506.42,344.68,524.93,360.88,517.43,370.95z"/>
<path class="st1" d="M221.41,273.47c0,0-86.01,40.02-72.77,42.16c13.24,2.14,82.42-30.39,82.42-30.39l19.1-9.75
	c0,0,55.35-37.98,52.06-43.89c-3.29-5.9-64.96,33.72-64.96,33.72L221.41,273.47z"/>
<path d="M487.7,331.86c-0.44,3.5-9.6,11.59-9.6,11.59s-65.65,21.88-67.81,5.83c-2.16-16.05,31.74-24.04,39.13-25.58
	c6.36-1.32,11.98-6.01,13.44-7.3C469.12,319.98,478.44,325.46,487.7,331.86z"/>
<ellipse transform="matrix(0.0828 -0.9966 0.9966 0.0828 -61.956 619.3038)" cx="305.47" cy="343.31" rx="7.74" ry="3.33"/>
<ellipse transform="matrix(0.0828 -0.9966 0.9966 0.0828 -52.1342 635.0875)" cx="318.95" cy="345.87" rx="7.74" ry="3.33"/>
<ellipse transform="matrix(0.0828 -0.9966 0.9966 0.0828 -41.4335 651.1188)" cx="333.01" cy="348.07" rx="7.74" ry="3.33"/>
<ellipse transform="matrix(0.0828 -0.9966 0.9966 0.0828 -31.0797 666.4622)" cx="346.53" cy="350.12" rx="7.74" ry="3.33"/>
<ellipse transform="matrix(0.0828 -0.9966 0.9966 0.0828 -20.4186 682.5029)" cx="360.57" cy="352.34" rx="7.74" ry="3.33"/>
<ellipse transform="matrix(0.0828 -0.9966 0.9966 0.0828 -9.0252 697.1463)" cx="374.22" cy="353.48" rx="7.74" ry="3.33"/>
<path class="st0" d="M120.02,474.88c0,0,80.85-5.95,186.91-48.99s99.85-44.33,99.85-44.33L120.02,474.88z"/>
<path class="st2" d="M418.68,377.56c0,0,83.27,5.46,94.57-8.3C524.54,355.5,418.68,377.56,418.68,377.56z"/>
</svg>
