<?xml version="1.0" encoding="utf-8"?>
<!-- Generator: Adobe Illustrator 23.0.1, SVG Export Plug-In . SVG Version: 6.00 Build 0)  -->
<svg version="1.1" xmlns="http://www.w3.org/2000/svg" xmlns:xlink="http://www.w3.org/1999/xlink" x="0px" y="0px"
	 viewBox="0 0 1000 1000" style="enable-background:new 0 0 1000 1000;" xml:space="preserve">
<style type="text/css">
	.st0{display:none;}
	.st1{display:inline;fill:#153242;}
	.st2{display:inline;fill:#F1F3F2;}
	.st3{display:inline;fill:#BCBDBF;}
	.st4{display:inline;fill:#00AFEF;}
	.st5{display:inline;fill:#124E80;}
	.st6{display:inline;fill:#FAFAFF;}
	.st7{display:inline;fill:#FFFFFF;}
	.st8{fill:#0044ED;}
	.st9{fill:#25D63A;}
	.st10{fill:#4BD823;}
	.st11{fill:#FFFFFF;}
	.st12{fill:#ECEAED;}
	.st13{fill:#D7423C;}
	.st14{fill:#EEEDEB;}
	.st15{fill:#3B4068;}
	.st16{fill:#9D499F;}
	.st17{fill:#E5AF80;}
	.st18{fill:#FAFAFA;}
	.st19{fill:#E1DFEC;}
	.st20{fill:#E9B681;}
	.st21{fill:#E4AD75;}
	.st22{fill:#6E4C29;}
	.st23{fill:#2D2D2D;}
	.st24{fill:#E3BD8C;}
	.st25{fill:#AC884C;}
	.st26{fill:#AC884A;}
	.st27{fill:#E2B389;}
	.st28{fill:#8FD2EF;}
	.st29{fill:#D84444;}
	.st30{fill:#E5B088;}
	.st31{fill:#3E2E15;}
	.st32{fill:#EBF3FF;}
	.st33{fill:#E3B48A;}
	.st34{fill:#D0D8EF;}
	.st35{fill:#CD9879;}
	.st36{fill:#E9B58E;}
	.st37{fill:#E6F2B4;}
	.st38{fill:#FDFDF1;}
	.st39{fill:#473622;}
	.st40{fill:#DBA57F;}
	.st41{fill:#F4F6E8;}
	.st42{fill:#FFFFFB;}
	.st43{fill:#3F4342;}
	.st44{fill:#A84C3D;}
	.st45{fill:#A53E34;}
	.st46{fill:#EEB790;}
	.st47{fill:#E46D13;}
	.st48{fill:#FFDE59;}
	.st49{fill:#E8B07F;}
	.st50{fill:#3F3A37;}
	.st51{fill:#E2A983;}
	.st52{fill:#E5A16E;}
</style>
<g id="Calque_5">
</g>
<g id="Calque_1" class="st0">
	<image style="overflow:visible;" width="1000" height="1080" xlink:href="1928D4DD.jpg"  transform="matrix(1 0 0 1 0 -40)">
	</image>
</g>
<g id="People">
	
		<image style="display:none;overflow:visible;" width="500" height="350" xlink:href="1928D4DF.jpg"  transform="matrix(1.2587 0 0 1.2587 181.0966 279.7979)">
	</image>
</g>
<g id="Satellitte" class="st0">
	<circle class="st1" cx="743.53" cy="147.4" r="2.67"/>
	<rect x="745.85" y="147.02" class="st1" width="3.58" height="1.04"/>
	<path class="st2" d="M809.43,168.67l-43.66-4.09c-2.54-0.24-4.4-2.49-4.16-5.02l1.69-18.04c0.24-2.54,2.49-4.4,5.02-4.16
		l43.66,4.09c2.54,0.24,4.4,2.49,4.16,5.02l-1.69,18.04C814.21,167.04,811.96,168.9,809.43,168.67z"/>
	<path class="st3" d="M803.3,162.45l-16.71-1.57c-2.54-0.24-4.4-2.49-4.16-5.02l0.71-7.57c0.24-2.54,2.49-4.4,5.02-4.16l16.71,1.57
		c2.54,0.24,4.4,2.49,4.16,5.02l-0.71,7.57C808.08,160.82,805.84,162.68,803.3,162.45z"/>
	<path class="st4" d="M800.48,175.35l-7.95,65.28c-0.31,2.53-2.61,4.33-5.14,4.02l-18.83-2.29c-2.53-0.31-4.33-2.61-4.02-5.14
		l7.95-65.28c0.31-2.53,2.61-4.33,5.14-4.02l18.83,2.29C798.99,170.52,800.79,172.82,800.48,175.35z"/>
	<path class="st4" d="M747.11,164.71l4.51-34.62C751.62,130.09,774.31,150.16,747.11,164.71z"/>
	<polygon class="st5" points="777.29,243.42 778.88,243.61 788.24,169.21 786.65,169.02 	"/>
	<polygon class="st5" points="799.12,186.55 770.99,184.27 771.16,182.92 799.29,185.19 	"/>
	<polygon class="st5" points="797.36,200.98 769.24,198.7 769.4,197.35 797.53,199.62 	"/>
	<polygon class="st5" points="795.56,215.76 767.44,213.48 767.6,212.13 795.73,214.4 	"/>
	<polygon class="st5" points="793.92,229.27 765.79,226.99 765.96,225.64 794.08,227.91 	"/>
	<path class="st4" d="M813.68,68.93l-5.49,65.53c-0.21,2.54-2.44,4.42-4.98,4.21l-18.9-1.58c-2.54-0.21-4.42-2.44-4.21-4.98
		l5.49-65.53c0.21-2.54,2.44-4.42,4.98-4.21l18.9,1.58C812,64.16,813.89,66.39,813.68,68.93z"/>
	<polygon class="st5" points="793.06,137.82 794.65,137.95 801.21,63.26 799.62,63.12 	"/>
	<polygon class="st5" points="812.73,80.17 784.54,78.95 784.66,77.59 812.85,78.81 	"/>
	<polygon class="st5" points="811.52,94.66 783.33,93.44 783.44,92.08 811.64,93.3 	"/>
	<polygon class="st5" points="810.28,109.5 782.09,108.28 782.2,106.92 810.39,108.14 	"/>
	<polygon class="st5" points="809.14,123.06 780.95,121.84 781.07,120.48 809.26,121.7 	"/>
	
		<rect x="508.37" y="205.93" transform="matrix(0.866 -0.5 0.5 0.866 -34.5797 285.6385)" class="st6" width="14.69" height="2.84"/>
	
		<rect x="533.03" y="193.45" transform="matrix(0.8869 -0.462 0.462 0.8869 -28.9034 271.7011)" class="st6" width="14.69" height="2.84"/>
	
		<rect x="557.76" y="182.76" transform="matrix(0.9061 -0.4231 0.4231 0.9061 -24.8565 256.3694)" class="st6" width="14.69" height="2.84"/>
	
		<rect x="584.67" y="172.87" transform="matrix(0.9316 -0.3634 0.3634 0.9316 -22.8642 227.0337)" class="st6" width="14.69" height="2.84"/>
	
		<rect x="610.56" y="164.87" transform="matrix(0.9602 -0.2793 0.2793 0.9602 -21.8539 179.2185)" class="st6" width="14.69" height="2.84"/>
	
		<rect x="637.34" y="157.08" transform="matrix(0.9602 -0.2793 0.2793 0.9602 -18.6115 186.3894)" class="st6" width="14.69" height="2.84"/>
	
		<rect x="663.96" y="151.59" transform="matrix(0.9844 -0.1762 0.1762 0.9844 -16.4569 120.6668)" class="st6" width="14.69" height="2.84"/>
	
		<rect x="690.87" y="147.37" transform="matrix(0.9922 -0.1244 0.1244 0.9922 -13.0855 88.0065)" class="st6" width="14.69" height="2.84"/>
	
		<rect x="825.63" y="165.03" transform="matrix(0.866 0.5 -0.5 0.866 194.8218 -394.1887)" class="st6" width="14.69" height="2.84"/>
	
		<rect x="849.05" y="180.96" transform="matrix(0.787 0.6169 -0.6169 0.787 294.8754 -489.4647)" class="st6" width="14.69" height="2.84"/>
	
		<rect x="867.96" y="200.88" transform="matrix(0.6103 0.7921 -0.7921 0.6103 501.3265 -614.5355)" class="st6" width="14.69" height="2.84"/>
	
		<rect x="880.98" y="224.45" transform="matrix(0.3573 0.934 -0.934 0.3573 781.8831 -684.52)" class="st6" width="14.69" height="2.84"/>
	
		<rect x="889.41" y="251.28" transform="matrix(0.1213 0.9926 -0.9926 0.1213 1038.8401 -668.084)" class="st6" width="14.69" height="2.84"/>
	
		<rect x="891.89" y="278.41" transform="matrix(-1.836970e-16 1 -1 -1.836970e-16 1179.0616 -619.4017)" class="st6" width="14.69" height="2.84"/>
	
		<rect x="890.35" y="306.08" transform="matrix(-0.1742 0.9847 -0.9847 -0.1742 1356.8629 -522.9059)" class="st6" width="14.69" height="2.84"/>
	
		<rect x="885.26" y="332.77" transform="matrix(-0.1742 0.9847 -0.9847 -0.1742 1377.168 -486.5525)" class="st6" width="14.69" height="2.84"/>
	
		<rect x="876.97" y="359.24" transform="matrix(-0.2624 0.965 -0.965 -0.2624 1464.3944 -398.0122)" class="st6" width="14.69" height="2.84"/>
	
		<rect x="866.64" y="384.91" transform="matrix(-0.3568 0.9342 -0.9342 -0.3568 1546.7081 -292.299)" class="st6" width="14.69" height="2.84"/>
	
		<rect x="855.29" y="410.08" transform="matrix(-0.4525 0.8918 -0.8918 -0.4525 1619.9214 -171.5944)" class="st6" width="14.69" height="2.84"/>
	
		<rect x="841.91" y="433.93" transform="matrix(-0.5 0.866 -0.866 -0.5 1650.9089 -82.4509)" class="st6" width="14.69" height="2.84"/>
	
		<rect x="827.15" y="457.06" transform="matrix(-0.5352 0.8447 -0.8447 -0.5352 1668.4218 -1.0231)" class="st6" width="14.69" height="2.84"/>
	
		<rect x="811.37" y="479.68" transform="matrix(-0.5894 0.8078 -0.8078 -0.5894 1689.9109 103.2729)" class="st6" width="14.69" height="2.84"/>
	
		<rect x="794.06" y="501.57" transform="matrix(-0.6248 0.7808 -0.7808 -0.6248 1694.8224 191.4756)" class="st6" width="14.69" height="2.84"/>
	
		<rect x="776.6" y="522.59" transform="matrix(-0.6556 0.7551 -0.7551 -0.6556 1693.5698 275.529)" class="st6" width="14.69" height="2.84"/>
	
		<rect x="758.13" y="542.73" transform="matrix(-0.7071 0.7071 -0.7071 -0.7071 1691.5189 387.6517)" class="st6" width="14.69" height="2.84"/>
	
		<rect x="738.64" y="562.84" transform="matrix(-0.7071 0.7071 -0.7071 -0.7071 1672.4674 435.7676)" class="st6" width="14.69" height="2.84"/>
	
		<rect x="539.02" y="708.12" transform="matrix(-0.925 0.38 -0.38 -0.925 1321.3865 1158.198)" class="st6" width="14.69" height="2.84"/>
	
		<rect x="514.37" y="720.44" transform="matrix(-0.925 0.38 -0.38 -0.925 1278.6119 1191.2972)" class="st6" width="14.69" height="2.84"/>
	
		<rect x="463.71" y="742.18" transform="matrix(-0.925 0.38 -0.38 -0.925 1189.3654 1252.3828)" class="st6" width="14.69" height="2.84"/>
	
		<rect x="437.86" y="751.67" transform="matrix(-0.9473 0.3203 -0.3203 -0.9473 1108.1556 1323.9103)" class="st6" width="14.69" height="2.84"/>
	
		<rect x="410.82" y="759.95" transform="matrix(-0.9735 0.2286 -0.2286 -0.9735 999.336 1406.9542)" class="st6" width="14.69" height="2.84"/>
	
		<rect x="384.22" y="766.2" transform="matrix(-0.9848 0.1735 -0.1735 -0.9848 910.3492 1455.6694)" class="st6" width="14.69" height="2.84"/>
	
		<rect x="357.14" y="770.97" transform="matrix(-0.9971 0.0756 -0.0756 -0.9971 786.3246 1515.0016)" class="st6" width="14.69" height="2.84"/>
	
		<rect x="329.54" y="774.13" transform="matrix(-0.9971 0.0756 -0.0756 -0.9971 731.4427 1523.4065)" class="st6" width="14.69" height="2.84"/>
	
		<rect x="305.36" y="775.11" transform="matrix(-1 -1.224647e-16 1.224647e-16 -1 622.5323 1553.0581)" class="st6" width="11.81" height="2.84"/>
	
		<rect x="247.61" y="769.41" transform="matrix(-0.9795 -0.2015 0.2015 -0.9795 349.3853 1577.2053)" class="st6" width="14.69" height="2.84"/>
	
		<rect x="221.67" y="759.21" transform="matrix(-0.914 -0.4058 0.4058 -0.914 121.7405 1547.0574)" class="st6" width="6.36" height="2.84"/>
	
		<rect x="196.96" y="748.26" transform="matrix(-0.8224 -0.5688 0.5688 -0.8224 -54.1104 1482.4611)" class="st6" width="14.69" height="2.84"/>
	
		<rect x="176.23" y="731.02" transform="matrix(-0.7071 -0.7071 0.7071 -0.7071 -204.5249 1380.1609)" class="st6" width="14.69" height="2.84"/>
	
		<rect x="159.43" y="708.11" transform="matrix(-0.5 -0.866 0.866 -0.5 -364.3035 1208.7289)" class="st6" width="14.69" height="2.84"/>
	
		<rect x="148.97" y="683.39" transform="matrix(-0.2829 -0.9592 0.9592 -0.2829 -456.3005 1028.4608)" class="st6" width="14.69" height="2.84"/>
	
		<rect x="143.63" y="655.79" transform="matrix(6.123234e-17 -1 1 6.123234e-17 -506.2361 808.1813)" class="st6" width="14.69" height="2.84"/>
	
		<rect x="143.63" y="628.63" transform="matrix(6.123234e-17 -1 1 6.123234e-17 -479.0725 781.0177)" class="st6" width="14.69" height="2.84"/>
	
		<rect x="146.68" y="601.35" transform="matrix(0.1246 -0.9922 0.9922 0.1246 -463.2435 680.4632)" class="st6" width="14.69" height="2.84"/>
	
		<rect x="153.38" y="574.26" transform="matrix(0.3083 -0.9513 0.9513 0.3083 -436.4633 551.0872)" class="st6" width="14.69" height="2.84"/>
	
		<rect x="162.64" y="548.76" transform="matrix(0.3083 -0.9513 0.9513 0.3083 -405.8023 542.2466)" class="st6" width="14.69" height="2.84"/>
	
		<rect x="173.8" y="523.16" transform="matrix(0.4499 -0.8931 0.8931 0.4499 -368.8419 450.3747)" class="st6" width="14.69" height="2.84"/>
	
		<rect x="186.18" y="498.58" transform="matrix(0.4499 -0.8931 0.8931 0.4499 -340.0809 447.9102)" class="st6" width="14.69" height="2.84"/>
	
		<rect x="199.91" y="475.02" transform="matrix(0.5 -0.866 0.866 0.5 -308.9807 417.7057)" class="st6" width="14.69" height="2.84"/>
	
		<rect x="215.33" y="452.22" transform="matrix(0.6297 -0.7768 0.7768 0.6297 -269.9488 340.9629)" class="st6" width="14.69" height="2.84"/>
	
		<rect x="231.73" y="430.26" transform="matrix(0.6297 -0.7768 0.7768 0.6297 -246.8124 345.5725)" class="st6" width="14.69" height="2.84"/>
	
		<rect x="718.52" y="145.53" transform="matrix(0.9968 -0.0796 0.0796 0.9968 -9.402 58.1354)" class="st6" width="11.37" height="2.84"/>
</g>
<g id="Satelitte_2" class="st0">
	<circle class="st1" cx="250.46" cy="541.44" r="1.99"/>
	
		<rect x="246.64" y="539.24" transform="matrix(-0.8267 -0.5627 0.5627 -0.8267 149.3381 1125.2588)" class="st1" width="2.67" height="0.77"/>
	<path class="st2" d="M219.63,501.39l23.41,19.37c1.96,1.62,2.24,4.53,0.61,6.49l-7.12,8.61c-1.62,1.96-4.53,2.24-6.49,0.61
		l-23.41-19.37c-1.96-1.62-2.24-4.53-0.61-6.49l7.12-8.61C214.76,500.05,217.67,499.77,219.63,501.39z"/>
	<path class="st3" d="M220.8,507.81l7.85,6.49c1.96,1.62,2.24,4.53,0.61,6.49l-2.12,2.57c-1.62,1.96-4.53,2.24-6.49,0.61l-7.85-6.49
		c-1.96-1.62-2.24-4.53-0.61-6.49l2.12-2.57C215.93,506.46,218.84,506.18,220.8,507.81z"/>
	<path class="st4" d="M227.83,499.4l30.77-35.17c1.68-1.92,4.59-2.11,6.51-0.43l8.89,7.78c1.92,1.68,2.11,4.59,0.43,6.51
		l-30.77,35.17c-1.68,1.92-4.59,2.11-6.51,0.43l-8.89-7.78C226.35,504.23,226.15,501.32,227.83,499.4z"/>
	<path class="st4" d="M255.52,529.26l-17.32,19.46C238.2,548.72,232.63,526.81,255.52,529.26z"/>
	<polygon class="st5" points="269.95,468.03 269.05,467.24 232.03,509.21 232.93,510 	"/>
	<polygon class="st5" points="232.6,493.95 249,507.16 248.33,507.93 231.93,494.71 	"/>
	<polygon class="st5" points="239.75,485.78 256.14,498.99 255.47,499.76 239.07,486.54 	"/>
	<polygon class="st5" points="247.06,477.41 263.46,490.63 262.79,491.4 246.39,478.18 	"/>
	<polygon class="st5" points="253.75,469.77 270.15,482.99 269.48,483.75 253.08,470.54 	"/>
	<path class="st4" d="M174.97,559.49l29.43-36.31c1.6-1.98,4.51-2.28,6.49-0.68l9.18,7.44c1.98,1.6,2.28,4.51,0.68,6.49
		l-29.43,36.31c-1.6,1.98-4.51,2.28-6.49,0.68l-9.18-7.44C173.67,564.37,173.36,561.47,174.97,559.49z"/>
	<polygon class="st5" points="215.88,526.55 214.95,525.8 179.54,569.13 180.47,569.88 	"/>
	<polygon class="st5" points="179.53,553.86 196.41,566.45 195.77,567.24 178.89,554.65 	"/>
	<polygon class="st5" points="186.36,545.43 203.24,558.02 202.6,558.81 185.72,546.22 	"/>
	<polygon class="st5" points="193.36,536.8 210.24,549.39 209.6,550.18 192.72,537.59 	"/>
	<polygon class="st5" points="199.76,528.91 216.64,541.5 216,542.29 199.11,529.7 	"/>
	
		<rect x="331.95" y="282.3" transform="matrix(0.99 -0.1413 0.1413 0.99 -36.6497 50.5584)" class="st7" width="11.49" height="2.11"/>
	
		<rect x="309.7" y="287.39" transform="matrix(0.9613 -0.2755 0.2755 0.9613 -67.2572 98.0605)" class="st7" width="11.49" height="2.11"/>
	
		<rect x="288.67" y="293.42" transform="matrix(0.9613 -0.2755 0.2755 0.9613 -69.7303 92.5024)" class="st7" width="11.49" height="2.11"/>
	
		<rect x="267.58" y="301.13" transform="matrix(0.9104 -0.4138 0.4138 0.9104 -100.5397 140.1791)" class="st7" width="11.49" height="2.11"/>
	
		<rect x="246.92" y="310.52" transform="matrix(0.9104 -0.4138 0.4138 0.9104 -106.2762 132.4729)" class="st7" width="11.49" height="2.11"/>
	
		<rect x="227.51" y="321.75" transform="matrix(0.8191 -0.5737 0.5737 0.8191 -142.9924 192.2276)" class="st7" width="11.49" height="2.11"/>
	
		<rect x="209.62" y="334.99" transform="matrix(0.7454 -0.6667 0.6667 0.7454 -169.1867 229.139)" class="st7" width="11.49" height="2.11"/>
	
		<rect x="193.76" y="350.59" transform="matrix(0.6243 -0.7812 0.7812 0.6243 -199.7462 287.9788)" class="st7" width="11.49" height="2.11"/>
	
		<rect x="180.45" y="369.13" transform="matrix(0.4554 -0.8903 0.8903 0.4554 -228.1713 367.3965)" class="st7" width="11.49" height="2.11"/>
	
		<rect x="172" y="389.53" transform="matrix(0.2042 -0.9789 0.9789 0.2042 -240.9085 484.8394)" class="st7" width="11.49" height="2.11"/>
	
		<rect x="168.4" y="411.9" transform="matrix(6.123234e-17 -1 1 6.123234e-17 -238.8095 587.0956)" class="st7" width="11.49" height="2.11"/>
	
		<rect x="169.69" y="433.99" transform="matrix(-0.273 -0.962 0.962 -0.273 -195.1838 722.5888)" class="st7" width="11.49" height="2.11"/>
	
		<rect x="176.07" y="455.59" transform="matrix(-0.4016 -0.9158 0.9158 -0.4016 -163.3651 806.5507)" class="st7" width="11.49" height="2.11"/>
	
		<rect x="185.78" y="475.38" transform="matrix(-0.5 -0.866 0.866 -0.5 -125.318 880.5236)" class="st7" width="11.49" height="2.11"/>
	
		<rect x="264.33" y="554.05" transform="matrix(-0.8267 -0.5627 0.5627 -0.8267 181.0018 1165.9727)" class="st7" width="11.49" height="2.11"/>
	
		<rect x="198.71" y="493.51" transform="matrix(-0.6103 -0.7922 0.7922 -0.6103 -62.5604 958.3555)" class="st7" width="11.49" height="2.11"/>
	
		<rect x="283.48" y="566.05" transform="matrix(-0.8267 -0.5627 0.5627 -0.8267 209.2222 1198.6655)" class="st7" width="11.49" height="2.11"/>
	
		<rect x="759.72" y="623.73" transform="matrix(0.9242 -0.3819 0.3819 0.9242 -180.5925 339.7126)" class="st7" width="11.49" height="2.11"/>
	
		<rect x="779.96" y="615.36" transform="matrix(0.9242 -0.3819 0.3819 0.9242 -175.864 346.8082)" class="st7" width="11.49" height="2.11"/>
	
		<rect x="800.45" y="605.51" transform="matrix(0.843 -0.538 0.538 0.843 -199.7119 528.9819)" class="st7" width="11.49" height="2.11"/>
	
		<rect x="819.18" y="593.27" transform="matrix(0.748 -0.6637 0.6637 0.748 -186.5646 697.3272)" class="st7" width="11.49" height="2.11"/>
	
		<rect x="836.42" y="578.87" transform="matrix(0.6815 -0.7318 0.7318 0.6815 -156.1747 800.9933)" class="st7" width="11.49" height="2.11"/>
	
		<rect x="851.31" y="561.69" transform="matrix(0.5 -0.866 0.866 0.5 -58.8206 1023.6049)" class="st7" width="11.49" height="2.11"/>
	
		<rect x="862.11" y="542.32" transform="matrix(0.2474 -0.9689 0.9689 0.2474 126.6772 1249.8287)" class="st7" width="11.49" height="2.11"/>
	
		<rect x="868.44" y="520.72" transform="matrix(0.0612 -0.9981 0.9981 0.0612 299.9166 1362.4034)" class="st7" width="11.49" height="2.11"/>
	
		<rect x="869.39" y="498.95" transform="matrix(-0.0827 -0.9966 0.9966 -0.0827 449.1888 1413.4741)" class="st7" width="11.49" height="2.11"/>
	
		<rect x="865.77" y="476.72" transform="matrix(-0.3198 -0.9475 0.9475 -0.3198 697.5668 1456.3179)" class="st7" width="11.49" height="2.11"/>
	
		<rect x="857.59" y="455.56" transform="matrix(-0.4388 -0.8986 0.8986 -0.4388 831.8231 1432.7473)" class="st7" width="11.49" height="2.11"/>
	
		<rect x="846.94" y="436.78" transform="matrix(-0.5509 -0.8346 0.8346 -0.5509 956.5746 1390.402)" class="st7" width="10.87" height="2.11"/>
	
		<rect x="836.86" y="422.22" transform="matrix(-0.6099 -0.7925 0.7925 -0.6099 1021.115 1349.17)" class="st7" width="11.49" height="2.11"/>
	
		<rect x="817.41" y="402.27" transform="matrix(-0.7071 -0.7071 0.7071 -0.7071 1120.0247 1270.5698)" class="st7" width="11.49" height="2.11"/>
	
		<rect x="783.35" y="373.16" transform="matrix(-0.7967 -0.6043 0.6043 -0.7967 1189.9272 1148.6616)" class="st7" width="9.58" height="2.11"/>
	
		<rect x="764.28" y="361.14" transform="matrix(-0.8231 -0.5679 0.5679 -0.8231 1198.1519 1097.6102)" class="st7" width="11.49" height="2.11"/>
	
		<rect x="744.76" y="349.79" transform="matrix(-0.866 -0.5 0.5 -0.866 1225.0309 1029.941)" class="st7" width="11.49" height="2.11"/>
	
		<rect x="303.39" y="577.29" transform="matrix(-0.8905 -0.455 0.455 -0.8905 321.2802 1234.0131)" class="st7" width="11.49" height="2.11"/>
</g>
<g id="Satelitte_3" class="st0">
	<circle class="st1" cx="794.05" cy="379.98" r="1.99"/>
	
		<rect x="795.2" y="381.4" transform="matrix(0.8267 0.5627 -0.5627 0.8267 352.8808 -382.0168)" class="st1" width="2.67" height="0.77"/>
	<path class="st2" d="M824.87,420.02l-23.41-19.37c-1.96-1.62-2.24-4.53-0.61-6.49l7.12-8.61c1.62-1.96,4.53-2.24,6.49-0.61
		l23.41,19.37c1.96,1.62,2.24,4.53,0.61,6.49l-7.12,8.61C829.75,421.37,826.84,421.65,824.87,420.02z"/>
	<path class="st3" d="M823.71,413.61l-7.85-6.49c-1.96-1.62-2.24-4.53-0.61-6.49l2.12-2.57c1.62-1.96,4.53-2.24,6.49-0.61l7.85,6.49
		c1.96,1.62,2.24,4.53,0.61,6.49L830.2,413C828.58,414.96,825.67,415.24,823.71,413.61z"/>
	<path class="st4" d="M816.68,422.02l-30.77,35.17c-1.68,1.92-4.59,2.11-6.51,0.43l-8.89-7.78c-1.92-1.68-2.11-4.59-0.43-6.51
		l30.77-35.17c1.68-1.92,4.59-2.11,6.51-0.43l8.89,7.78C818.16,417.19,818.36,420.1,816.68,422.02z"/>
	<path class="st4" d="M788.99,392.16l17.32-19.46C806.31,372.69,811.88,394.61,788.99,392.16z"/>
	<polygon class="st5" points="774.56,453.39 775.46,454.18 812.47,412.21 811.58,411.42 	"/>
	<polygon class="st5" points="811.91,427.47 795.51,414.26 796.18,413.49 812.58,426.71 	"/>
	<polygon class="st5" points="804.76,435.64 788.37,422.42 789.04,421.66 805.43,434.87 	"/>
	<polygon class="st5" points="797.45,444 781.05,430.79 781.72,430.02 798.12,443.24 	"/>
	<polygon class="st5" points="790.76,451.65 774.36,438.43 775.03,437.66 791.43,450.88 	"/>
	<path class="st4" d="M869.54,361.93l-29.43,36.31c-1.6,1.98-4.51,2.28-6.49,0.68l-9.18-7.44c-1.98-1.6-2.28-4.51-0.68-6.49
		l29.43-36.31c1.6-1.98,4.51-2.28,6.49-0.68l9.18,7.44C870.84,357.05,871.15,359.95,869.54,361.93z"/>
	<polygon class="st5" points="828.63,394.87 829.56,395.62 864.97,352.29 864.04,351.53 	"/>
	<polygon class="st5" points="864.98,367.56 848.1,354.97 848.74,354.18 865.62,366.77 	"/>
	<polygon class="st5" points="858.15,375.99 841.26,363.4 841.91,362.61 858.79,375.2 	"/>
	<polygon class="st5" points="851.15,384.62 834.27,372.03 834.91,371.24 851.79,383.83 	"/>
	<polygon class="st5" points="844.75,392.51 827.87,379.92 828.51,379.13 845.4,391.72 	"/>
</g>
<g id="Satelitte_4" class="st0">
	<circle class="st1" cx="300.98" cy="774.02" r="2.67"/>
	
		<rect x="295.07" y="773.36" transform="matrix(-1 -9.039537e-11 9.039537e-11 -1 593.7273 1547.7637)" class="st1" width="3.58" height="1.04"/>
	<path class="st2" d="M235.08,752.75l43.66,4.09c2.54,0.24,4.4,2.49,4.16,5.02l-1.69,18.04c-0.24,2.54-2.49,4.4-5.02,4.16
		l-43.66-4.09c-2.54-0.24-4.4-2.49-4.16-5.02l1.69-18.04C230.3,754.38,232.55,752.51,235.08,752.75z"/>
	<path class="st3" d="M241.21,758.97l16.71,1.57c2.54,0.24,4.4,2.49,4.16,5.02l-0.71,7.57c-0.24,2.54-2.49,4.4-5.02,4.16
		l-16.71-1.57c-2.54-0.24-4.4-2.49-4.16-5.02l0.71-7.57C236.43,760.6,238.67,758.73,241.21,758.97z"/>
	<path class="st4" d="M244.03,746.07l7.95-65.28c0.31-2.53,2.61-4.33,5.14-4.02l18.83,2.29c2.53,0.31,4.33,2.61,4.02,5.14
		l-7.95,65.28c-0.31,2.53-2.61,4.33-5.14,4.02l-18.83-2.29C245.52,750.9,243.72,748.6,244.03,746.07z"/>
	<path class="st4" d="M297.4,756.71l-4.51,34.62C292.89,791.33,270.2,771.25,297.4,756.71z"/>
	<polygon class="st5" points="267.22,678 265.63,677.81 256.27,752.21 257.86,752.4 	"/>
	<polygon class="st5" points="245.39,734.87 273.52,737.15 273.35,738.5 245.22,736.23 	"/>
	<polygon class="st5" points="247.15,720.44 275.27,722.72 275.11,724.07 246.98,721.79 	"/>
	<polygon class="st5" points="248.95,705.66 277.07,707.94 276.91,709.29 248.78,707.01 	"/>
	<polygon class="st5" points="250.59,692.15 278.72,694.43 278.55,695.78 250.42,693.5 	"/>
	<path class="st4" d="M230.83,852.49l5.49-65.53c0.21-2.54,2.44-4.42,4.98-4.21l18.9,1.58c2.54,0.21,4.42,2.44,4.21,4.98
		l-5.49,65.53c-0.21,2.54-2.44,4.42-4.98,4.21l-18.9-1.58C232.51,857.26,230.62,855.03,230.83,852.49z"/>
	<polygon class="st5" points="251.45,783.6 249.86,783.46 243.3,858.16 244.89,858.29 	"/>
	<polygon class="st5" points="231.78,841.25 259.97,842.46 259.85,843.82 231.66,842.61 	"/>
	<polygon class="st5" points="232.99,826.76 261.18,827.98 261.07,829.34 232.87,828.12 	"/>
	<polygon class="st5" points="234.23,811.92 262.42,813.14 262.31,814.5 234.12,813.28 	"/>
	<polygon class="st5" points="235.36,798.36 263.56,799.58 263.44,800.94 235.25,799.72 	"/>
</g>
<g id="Planète">
	<path class="st8" d="M438.95,550.11c0,38.62-12.02,74.43-32.52,103.89c-32.9,47.29-87.65,78.25-149.63,78.25
		c-100.6,0-182.14-81.55-182.14-182.14s81.55-182.14,182.14-182.14S438.95,449.52,438.95,550.11z"/>
	<path class="st9" d="M196.24,713.67c0,0,63.19,26.33,128.02-3.62c0,0-10.53-5.92-16.45-4.94s-14.81,1.97-15.14,5.59
		c-0.33,3.62-2.3-3.62-11.85-0.99l3.29-4.72c0,0-6.91-3.51-7.24-2.19c-0.33,1.32-5.92,12.51-7.24,12.18s-9.87-4.61-16.13-3.95
		c-6.25,0.66,8.23-9.21,13.49-11.19c0,0-5.7-9.43-7.24-1.21c0,0-24.56,3.14-25.18,1.74c-0.62-1.4-0.99-5.64-1.52-5.64
		c-0.53,0-5.8,2.55-7.45,5.8s-16.29,2.34-16.37,2.02c-0.08-0.33,0-4.11-1.23-3.13c-1.23,0.99-4.07,5.55-5.64,5.47
		s-7.65-0.78-7.53,0.82S194.47,713.63,196.24,713.67z"/>
	<path class="st9" d="M135.31,440.42c-0.17-0.32-0.15-0.71,0.01-1.03c2.22-4.35,21.07-38.01,83.12-59.19
		c6.95-1.99,16.72-1.06,17.32,1.97c0.6,3.03-5.67,5.02-5.83,5.66s0.27,4.76-5.78,7.03c-0.76,2.81-0.32,9.59-4.73,10.52
		s-8.3-2.54-4.49-4.63c3.81-2.1,1.27-5.51-1.1-5.08s-11.35,3.54-9.01,6.84c2.34,3.3,1.96,7.28-3.92,5.92s-6.58-7.59-16.03-0.57
		c-2.45,3.68-5.93,6.24-9.23,5.64c-3.3-0.6-13.47,9.76-18.61,10.62s-2.83,8.34-7.05,11.63C145.95,438.88,137.2,444.11,135.31,440.42
		z"/>
	<path class="st9" d="M230.47,404.55c0,0,4.83-9.21,7.68-11.19c2.85-1.97,0.66-9,5.7-8.78c5.05,0.22,15.36,8.56,23.91,3.73
		c8.56-4.83-8.34-7.24-8.34-7.24l2.63-3.51c0,0,114.69,0,157.8,114.88c0,0-8.89-6.42-9.63-12.67c-0.74-6.25-9.54-5.84-9.46-4.77
		s1.48,4.94,2.06,5.02c0.58,0.08-0.58,7.73,0.41,8.8c0.99,1.07,7.57,12.18-6.09,19.33c-13.66,7.16-6.17-6.17-19.75-9.46
		c0,0,0-19.5-13.25-17.11c0,0,0.08,12.67,0.99,12.51c0.9-0.16,3.29-1.07,4.44,0.08c1.15,1.15,7.57,15.27,7.49,16.07
		c-0.08,0.8,4.52-0.6,5.51,0.71s-2.3,6.01-0.74,6.75s5.92,5.1,15.47,0c9.54-5.1,1.15,19.83-0.41,19.91s0.16,9.38-0.08,10.2
		c-0.25,0.82-8.97,6.91-8.97,11.76s-0.74,7.49-3.62,9.21c-2.88,1.73,0.99,19.25,0.58,20.16c-0.41,0.91-6.42,7.16-5.92,7.32
		c0.49,0.16,4.2,3.29,4.03,4.69c-0.16,1.4-9.95,7.24-9.95,11.27c0,4.03-6.31,1.4-6.36,2.66c-0.05,1.26,1.54,12.78-15.47,22.87
		c0,0,5.05,3.4-5.16,7.13s-10.2,10.97-13.38,9.98c-3.18-0.99-5.81-0.88-6.69-4.61c-0.88-3.73-5.7-9.54-5.59-11.52
		c0.11-1.97,2.19-19.42-11.3-23.04c0,0,4.72-9,3.62-14.15c0,0,8.01-3.29,8.01-5.81s4.43-5.98-12.35-26.22c0,0-0.16-20.07,0.83-24.52
		c0.99-4.44-10.86-5.43-13.49-1.65c-2.63,3.78-5.1-8.89-6.91-8.72s-26,9.54-33.24,7.57c-7.24-1.97-12.67,1.15-12.83-2.63
		c-0.16-3.78-4.61-11.02-7.24-10.53c-2.63,0.49,0.99-11.26-6.91-12.79c-7.9-1.53,0.16-5.97,0-6.63c-0.16-0.66,0-4.11,4.11-4.94
		c4.11-0.82-6.25-13.99-5.43-16.45s14.32-15.3,14.64-16.45c0.33-1.15,2.47-9.71,11.52-9.05c9.05,0.66,11.19-9.87,12.67-9.87
		c1.48,0,27.4-2.32,29.29-2.63c1.51-0.25-0.82,11.02,0.99,11.02s61.05-0.16,60.88-3.46c-0.16-3.29,1.81-29.29-19.25-33.9
		c-7.08,4.77-6.58,2.3-8.23,6.58c-1.65,4.28-5.61-0.66-7.25-0.66c-1.64,0-3.69,10.37-2.95,11.6c0.74,1.23-3.29,0.16-3.37-0.9
		c-0.08-1.07-10.2-13.41-25.26-6.09c-15.06,7.32-31.26,8.14-31.43,6.83c-0.16-1.32,9.71-9.87,20.32-11.11
		c10.61-1.23-4.2-3.54-5.02-4.44s1.81-8.72-7.32-9.05s-9.71-2.14-9.87-10.78c-0.16-8.64-16.51,3.13-17.51,1.97
		C239.03,406.71,229.65,407.48,230.47,404.55z"/>
	<path class="st10" d="M84.34,530.65c-0.61-1.21,21.05-67.07,45.29-85.07c0,0,7.22,3.84,9.19,3.35c1.97-0.49,9.34,3.19,9.34,3.19
		s0.04-3.23,3,0c2.96,3.23,13.82,6.19,14.81,7.67c0.99,1.48-8.39,3.46-5.92,5.92s4.1,10.14,6,9.76c1.9-0.38,3.84-5.05,11.51,0
		c7.67,5.05,7.94,16.06,7.94,16.06s-23.97,4.27-24.46,6.75s-8.47,1.13-12.87,3.78c-4.41,2.65-18.84,0.45-18.54,4.76
		c0.31,4.31-9.6,0.69-13.04,2.01s-6.15,3.94-6.27,4.85s-8.52,2.82-8.02,5.81c0.49,2.99-3.95,10.3-3.95,10.3s-5.38-0.44-6.25,0
		c-0.88,0.44-3.92,2.19-4.69,1.63S84.34,530.65,84.34,530.65z"/>
	<path class="st10" d="M83.88,533.95c-4.4,39.58,4.02,90.11,51.31,140.09c0,0,9.55,3.97,9.55,0s0-0.52-1.97-5.95
		c-1.97-5.43-13.33-14.18-9.38-18.69s0.99-11.55,2.96-14.2s-0.49-7.09,0.99-11.53c1.48-4.44-2.47-3.13,0.99-7.49
		s-2.47-7.3,3.46-14.22s5-6.61,6.94-12.2c1.94-5.58,1.45-10.52,5.4-12c3.95-1.48,12.34-14.71,8.89-22.41s-6.84-16.09-14.28-15.6
		s-9.91-4.83-12.37-8.34c-2.47-3.51-2.68-2.51-9.24-5.48c-6.56-2.97,0.84-4.55-9.03-4.5c-9.87,0.05-8.89,3.93-13.82,3.96
		c-4.94,0.04-4.44-0.45-10.37,0.54C87.97,526.91,85.85,518.42,83.88,533.95z"/>
</g>
<g id="Nuages">
	<path class="st11" d="M188.14,687.93h99.06c0,0,13.33-5.43,10.53-17.44s-15.8-12.51-15.8-12.51s-1.15-10.86-7.73-10.53
		c0,0,2.47-11.52-3.78-14.15c-6.25-2.63-12.51-3.78-16.29,2.47c0,0-12.67-12.95-26.99-4.58s-10.53,14.95-10.53,14.95
		s-10.2-8.72-17.77-1.15c-7.57,7.57-6.91,13.17-6.91,13.17s-14.48,0.66-14.81,13.49C176.78,684.48,188.14,687.93,188.14,687.93z"/>
	<path class="st11" d="M119.07,499.56h100.54c0,0,24.85-14.81,2.63-27.97c0,0,0.99-14.97-13.82-13.16c0,0-2.3-17.77-19.09-9.54
		c0,0-13.66-14.32-27.48,0.33c0,0-7.73-15.47-18.76-10.37c-11.02,5.1-13.99,10.04-12.01,19.42c0,0-13.82,3.46-10.86,11.35
		C120.22,469.62,94.55,478.67,119.07,499.56z"/>
	<path class="st11" d="M346.98,582.66h101.69c0,0,17.77-9.87,4.94-24.52c0,0,0.66-22.21-19.25-21.39c0,0-6.58-13.16-20.4-6.75
		c0,0-22.05-16.29-29.62,7.08c0,0-23.37-1.48-21.39,15.63c0,0-26.16-2.8-25.67,11.68C337.76,578.88,343.85,582.66,346.98,582.66z"/>
</g>
<g id="Personne_1">
	<path class="st12" d="M101.69,627.93c0,0,1.51,0.06,1.33-0.41c-0.18-0.47-2.81-5.22-2.94-5.27c-0.13-0.05-1.25,1.03-1.23,1.07
		C98.88,623.36,101.69,627.93,101.69,627.93z"/>
	<path class="st13" d="M99.62,628.61c0,0,2.38-0.34,2.24-0.77s-2.54-5.02-2.65-4.96c-0.11,0.06-1.63,1.19-1.57,1.36
		C97.72,624.42,99.62,628.61,99.62,628.61z"/>
	<path class="st14" d="M109.37,638.85c0,0-0.91,0.48-0.91,0.58c0,0.1,6.47,11.45,6.47,11.45c0.07,0,0.86-0.53,0.77-0.67
		C115.64,650.09,109.37,638.85,109.37,638.85z"/>
	<path class="st13" d="M108.61,645.5c0,0,4.8,3.11,5.59,5.27c0.09,0.23,1.33,0.6,0.68-0.7c-0.62-1.27-6.04-10.87-6.26-10.8
		c-0.22,0.07-2.55,1.68-2.55,1.68L108.61,645.5z"/>
	<path class="st15" d="M65.07,657.83c0,0,17.65-3.33,20.16-4.93c2.51-1.61,22.57-6.07,23.49-6.93c0.91-0.86-0.58-4.52-1.54-5.38
		c-0.96-0.86-27.76,6.6-28.02,6.4s-12.9,1.64-13.19,1.12c-0.3-0.53-0.71-1.12-0.39-1.29c0.32-0.17,16.62-8.28,17.22-8.71
		c0.59-0.43,17.16-9.37,17.09-9.59c-0.07-0.22,0.14-2.37-1.82-4.56c0,0-24.18,10.22-24.83,10.93c-0.65,0.71-14.89,5.6-15.84,6.69"/>
	<path class="st16" d="M35.92,665.98c0,0,4.19,10.3,12.24,5.45l7.63-4.25l1.19-4.7l8.49-4.19c0,0,0.22-8.8-8.09-16.73l-12.89,7.19
		l-7.69-0.78c0,0-9.61,4.18-3.77,12.52C38.87,668.84,35.92,665.98,35.92,665.98z"/>
	<path class="st17" d="M40.59,652.02c0.34-0.31-2.68-3.88-3.81-4.02c-0.02,0,10.08-4.63,10.77-3.77c0.69,0.86,2.37,6.21-1.04,11.29
		c-2.16,1.43-4.63,1.31-2.79,4.25c0,0-2.65,1.39-0.96-3.51C44.44,651.36,46.49,648.52,40.59,652.02z"/>
	<polygon class="st18" points="44.89,661.77 51.13,658.28 48.42,654.35 42.46,657.67 	"/>
	
		<rect x="43.39" y="657.63" transform="matrix(-0.4874 -0.8732 0.8732 -0.4874 -509.3824 1017.26)" class="st19" width="1.03" height="1.03"/>
	<path class="st20" d="M49.2,670.85c0,0,10.18-3.57,9.24-5.57c-0.94-1.99-3.19-7.45-9.59-10.99c-0.13-0.07-0.28-0.09-0.42-0.04
		c-1.09,0.33-5.72,1.9-2,3.52c4.19,1.82-0.19,2.55-0.04,3.1c0.15,0.54,0.59,1.24,4.52-0.96c0,0,2.56,4.04,2.28,4.46
		c-0.29,0.42-4.52,2.16-4.51,2.36C48.68,666.92,50.7,669.41,49.2,670.85z"/>
	<path class="st21" d="M37.42,665.94c-0.03,0.12-2.46,1.37-2.46,1.37s0.83,0.86-2.35,2.7c0,0-0.06,2.5-2.59,2.76
		s-8.46-7.81-8.46-7.81c0.06,0.06,4.55-4.1,6.3-2.89c0,0,2.79-1.66,3.61-0.31l3.09-1.62C34.57,660.14,38.77,660.95,37.42,665.94z"/>
	<path class="st22" d="M29.8,672.86c0,0-5.06,5.49-8.84-1.04s3.52-8.99,3.52-8.99s0.21,1.25,2.36-0.05c0,0,1.66-0.2-2.26,1.99
		c-3.92,2.19,1.41,2.72,4.33,7.27c0,0,2.43-1.67,2.52-1.55c0.09,0.12-1.22,1.58-1.72,1.79C29.21,672.5,30.16,672.52,29.8,672.86z"/>
</g>
<g id="Personne_2">
	
		<rect x="364.17" y="770.16" transform="matrix(-0.4566 0.8897 -0.8897 -0.4566 1221.7729 797.8888)" class="st23" width="6.11" height="3.78"/>
	<rect x="364.48" y="770.36" transform="matrix(-0.4566 0.8897 -0.8897 -0.4566 1221.7729 797.8888)" width="5.48" height="3.39"/>
	<path class="st24" d="M346.66,700.33c0,0-0.02-0.03-0.05-0.09c-0.12-0.19-0.41-0.64-0.48-0.61c-0.09,0.04-5.25,4-5.28,4.07
		c-0.03,0.07,0.19,1.03,0.6,0.77"/>
	<path class="st25" d="M347.88,703.08c0,0-0.9-3.25-1.35-3.07s-5.46,4.13-5.49,4.32s3,2.24,3.38,2.14
		C344.8,706.36,347.88,703.08,347.88,703.08z"/>
	<path class="st24" d="M333.97,710.18c0,0-0.46-0.82-0.55-0.78c-0.09,0.03-11.38,8.65-11.33,8.71c0.09,0.11,0.67,1.05,0.85,0.93
		C323.18,718.88,333.97,710.18,333.97,710.18z"/>
	<path class="st26" d="M335.45,712.37c0,0-1.46-2.57-1.65-2.42c-0.19,0.15-11.43,8.56-11.31,8.72s0.55,0.88,0.9,0.65
		c0.35-0.22,7.51-2.97,7.8-2.76C331.48,716.77,335.45,712.37,335.45,712.37z"/>
	<path class="st27" d="M366.6,757.25c0,0-4.93-3.92-5.09-4.13c-0.17-0.22-2-3.83-2.72-3.53c-0.72,0.3-0.53,1.45-0.46,1.65
		c0.07,0.2-2.1-1.67-1.31-2.98c0.79-1.3-1.59-0.68-1.84,0.12c-0.25,0.8-1,2.86,3.31,6.21s15.33,14.26,15.33,14.26L366.6,757.25z"/>
	<path class="st28" d="M377.64,744.19c0,0-16.1-19.36-16.51-20.68c-0.42-1.33-10.26-19.36-13.2-21.03c0,0-4.6,3.24-4.61,3.56
		c-0.02,0.32,14.85,26,16.65,30.59s-10.73-8.63-13.57-12.42c-2.84-3.79-10.67-12.15-11.09-12.13c-0.42,0.02-5.59,3.32-5.29,4.95
		s19.13,24.47,19.56,24.58c0.43,0.1,14.88,15.14,15.84,14.92C366.38,756.29,377.64,744.19,377.64,744.19z"/>
	<path class="st29" d="M393.35,772.82c0,0,8.3-9.87,2.14-12.57c-6.16-2.7-6.31-2.46-6.31-2.46l-11.89-14.63
		c0,0-12.41,6.06-13.6,12.27l13.01,18.1c0,0,4.31,7.9,8.98,4.39C390.33,774.41,393.35,772.82,393.35,772.82z"/>
	<path class="st27" d="M389.36,757.81c0,0-4.65,2.52-3.57,5.93c0,0-8.11-4.45-8.41-4.22c-0.3,0.23-7.68,7.67-7.84,7.82
		c-1.3,1.3-0.14,1.99-1.24,3.89c-0.39-0.03,0.26-1.34-0.25-1.96c-0.2-0.24-0.53-0.22-0.79-0.04c-0.5,0.35-1.29,0.98-1.43,1.46
		c-0.39,1.28-1.68-0.1,1.82-5.19c2.09-2.87,6.42-10.33,7.51-10.95C376.23,753.94,387.27,756.34,389.36,757.81z"/>
	<path class="st30" d="M394.13,772.26c0,0-14.87-1.97-8.46,5.66c0,0,1.93-0.69,2.7,0.15c0,0-1.82,1.89-1.65,2.15
		c0.17,0.26,2.19,7.81,4.33,9.99c2.14,2.19,9.02-3.06,9.02-3.06l0.3-5.56c0,0-2.24-3.12-3.63-2.56
		C396.72,779.04,391.72,773.99,394.13,772.26z"/>
	<path class="st31" d="M396.09,778.35c0,0,3.26-0.53,6.42,5.45c3.15,5.99-8.27,12.04-9.46,10.97c-1.18-1.07-2.76-4.38-2.14-4.72
		c0.61-0.34,4.8-1.75,5.5-1.64c0.7,0.11,3.06-1.26-0.06-7.04c0,0,0-0.88,0.6-0.23c0.57,0.62,1.43,3.12,2.75,1.07
		c0.14-0.21,0.19-0.47,0.14-0.72c-0.13-0.65-0.74-1.87-3.05-2.38L396.09,778.35z"/>
</g>
<g id="Personne_3">
	<path class="st32" d="M427.62,489.22c0,0-1.07,0.44-0.84,0.81c0.43,0.69,1.32,2.27,1.67,2.31c0.35,0.04,0.88-0.43,0.88-0.43
		L427.62,489.22z"/>
	<path class="st33" d="M449.54,463.33c0,0-15.67,9.23-20.47,10.04c-3.25,1.24-6.87,2.5-10.7,0.29c-0.42-0.19-1.05,0.56,0.58,2.1
		c0.13,0.13,0.1,0.37,0.26,0.43c1.91,0.71,4.49,0.17,5.93,1.92c1.54,1.88,2.35-1.07,2.54-1.34c0.41-0.56,10.22,0.15,15.7-3.79
		s14.64-3.21,14.78-3.84c0.14-0.63-24.87,17.39-25.49,17.45c-0.62,0.06-5.09,2.35-4.97,2.78c0.12,0.43,1.38,2.49,1.59,2.52
		c0.21,0.03,7.09-4.93,7.74-5.12c0.67-0.19,7.5-2.36,8.53-3.21c0.91-0.75,11.84-7.44,12.31-7.81c0.47-0.37,3.25-8.55,1.61-9.5
		C457.84,465.33,449.54,463.33,449.54,463.33z"/>
	
		<rect x="422.23" y="477.29" transform="matrix(0.5371 0.8435 -0.8435 0.5371 599.8555 -134.8116)" class="st34" width="1.05" height="3.68"/>
	<path class="st32" d="M424.8,479.74c0,0-1.46-3.8-6.26-3.11c0,0-1.43-1.21-1.7-2.21c-0.26-1,0.48-1.26,0.63-1.07
		s1.6,2.77,1.76,2.75c0.16-0.02,4-0.23,6.96,2.59L424.8,479.74z"/>
	<path class="st32" d="M419.44,474.19c0,0,1.17,2.08,1.18,2.24s0.44,0.03,0.44,0.03s-0.94-2-1.08-2.07S419.44,474.19,419.44,474.19z
		"/>
	<path class="st32" d="M422.62,477.02c0,0-0.32-1.84-0.53-2.18c-0.22-0.34,0.73-0.02,0.76,0.06s0.4,2.2,0.19,2.23
		C422.83,477.16,422.62,477.02,422.62,477.02z"/>
	<path class="st32" d="M423.97,474.81c0,0,1.47,2.08,0.23,3.2l0.56,0.48c0,0,1.24-0.85,0.25-3.84
		C425.01,474.64,423.99,474.45,423.97,474.81z"/>
	<path class="st32" d="M425.05,476.07c0,0,2.36,0.96,2.6,0.76s-0.33,0.9-0.39,0.9c-0.06,0-2.32-1.23-2.32-1.23L425.05,476.07z"/>
	<path class="st35" d="M471.09,440.53c0,0,2.11-4.08,2.14-4.32c0.03-0.25,0.61-3.71,1.73-3.86c1.12-0.15-1.14,4.17-1,4.39
		c0.08,0.13,1.68-0.03,2.44,0.73c0.21,0.21,0.21-3.05,0.44-3.1c0.58-0.1,0.11,3.19-0.03,3.35c-0.17,0.18-1.42,0.21-1.42,0.21
		s-2.19,2.85-2.04,2.85"/>
	
		<rect x="473.17" y="432.89" transform="matrix(-0.2951 0.9555 -0.9555 -0.2951 1031.5382 108.1019)" class="st23" width="5.45" height="3.37"/>
	<rect x="473.45" y="433.07" transform="matrix(-0.2951 0.9555 -0.9555 -0.2951 1031.5382 108.1019)" width="4.89" height="3.03"/>
	<path class="st36" d="M484.31,444.33l-3.81,2.93l4.83,7.09l12.94-5.74l-0.11-12.03c0,0-4-0.2-4.38,0.17
		c-0.39,0.37-4.09,2.98-4.09,2.98l-1.95,3.8l-0.68,1.91L484.31,444.33z"/>
	<path class="st35" d="M476.37,437.62c0.2,0.06-0.11-2.46,0.12-2.82c0.25-0.39,0.61-0.03,0.61,0.35c0,0.56-0.1,2.63-0.3,2.57
		S476.23,437.69,476.37,437.62"/>
	<path class="st37" d="M487.09,445.86c0,0-2.05-5.37-11.62-1.4c-2.82,0.73-4.77,2.41-1.8-3.91c0,0-2.73-0.07-2.75-0.31
		c-0.02-0.23-4.92,6.87-2.65,8.18s5.75,0.5,6.12,0.87c0.45,0.44-6.54,6.08-26.25,13.41c0,0,4.8,11.6,9.65,15.16
		c0,0,17.01-10,17.19-13.11s8.11-5.16,8.33-4.81c0.23,0.36-4.01,6.63-4.35,7.01s-3.07-0.12-3.13-0.34
		c-0.05-0.22-0.46,1.79-0.67,2.17s3.69,1.4,4.37,1.29c0.68-0.1,13.24-11.01,11.36-15.8c0,0-5.49,0.71-6.17-0.61
		c-0.67-1.32,2.83-2.34,2.97-2.52c0.14-0.17-4.64,0.54-5.26-2.64C481.84,445.34,487.09,445.86,487.09,445.86z"/>
	<path class="st38" d="M484.31,453.67l-17.76,9.73c0,0-8.94,3.96-7.69,6.48c0.96,1.92,3.02,6.44,7.12,6.41
		c0.13,0,0.26-0.03,0.37-0.08c2.19-0.94,7.55-4.53,7.39-7.99l1.98-1.34l0.07-0.23l0.22,0.1l5.5-3.55l1.35-2.13l-9.35,5.71
		l-4.77-2.53l19.18-10.01L484.31,453.67z"/>
	<path class="st39" d="M487.05,445.43c0,0,1.72-11.41,11.14-9.55c2.27,2.38,12.05,11.64-7.29,18.4c-6.21,0.38-8.27,0.73-8.24,0.05
		c0.02-0.68,9.96-6.76,9.9-6.85s7.3-0.49,3.15-2.5c0,0,0.99-7.47,1.28-7.59c0.23-0.1-8.34-0.95-8.48,8.69l-0.74,0.47L487.05,445.43z
		"/>
	<path class="st40" d="M475.74,466.87c-0.17,0.68-0.34,1.3-0.51,1.82c0,0-5.64-1.54-5.71-1.75c-0.07-0.21-2.52,1.29-4.34-2.7
		c-0.33-2.13,3.79-0.06,3.79-0.06l0.57-0.34c0,0,1.36,1.1,1.6,1.19C471.39,465.13,475.74,466.87,475.74,466.87z"/>
	<path class="st38" d="M475.72,466.94"/>
	<path class="st38" d="M475.59,466.81"/>
	<path class="st35" d="M478.42,435.92"/>
	<path class="st41" d="M464.15,464.59c0.42-0.31-2.52,3.59,5.61,9.54c-0.4,0.3-0.78,0.58-1.14,0.81c0,0-4.93-2.25-6.84-8.96
		C462.54,465.49,463.32,465.03,464.15,464.59z"/>
	<path class="st32" d="M428.22,488.85c0,0,1.4,0.79,1.81,2.6l0.44-0.3c0,0-0.59-1.8-1.68-2.67L428.22,488.85z"/>
	<path class="st32" d="M429.43,488.12c0,0,1.37,0.72,1.78,2.54l0.44-0.3c0,0-0.53-1.69-1.62-2.56
		C429.83,487.88,429.64,488.01,429.43,488.12z"/>
	<path class="st32" d="M430.7,487.45c0,0,1.25,0.6,1.66,2.42l0.48-0.33c0,0-0.43-1.52-1.52-2.39
		C431.13,487.22,430.93,487.35,430.7,487.45z"/>
</g>
<g id="Personne_4">
	<path class="st42" d="M143.76,408.23c-0.07,0.05-0.08,1.84,1.09,1.02c0.97-0.68,2.28-1.53,2.83-1.88c0.16-0.1,0.21-0.31,0.12-0.48
		c-0.15-0.28-0.42-0.64-0.86-0.65C146.22,406.23,143.76,408.23,143.76,408.23z"/>
	<path class="st43" d="M142.27,405.41c0,0,1.46,2.11,1.29,2.42s0.02,1.14,0.84,0.59s2.89-1.79,2.97-1.93
		c0.08-0.13-0.2-0.78-0.65-0.76c-0.45,0.02-1.62-1.12-1.94-1.81C144.45,403.24,142.27,405.41,142.27,405.41z"/>
	<path class="st42" d="M156.72,399.74c0,0,0.31,1.05,0.97,0.64c0.66-0.41,10.1-5.62,7.19-6.04S156.72,399.74,156.72,399.74z"/>
	<path class="st43" d="M155.68,397.8c0,0,0.57,2.88,1.72,2.01c1.15-0.87,7.46-4.81,7.62-5.19c0.16-0.38,0.45-1.39-6.3,1.49
		C155.63,397.23,155.68,397.8,155.68,397.8z"/>
	<path class="st44" d="M123.98,373.79c0,0,0.19-2.03,0.39-2.05c0.2-0.02,0.46-2.28,0.46-2.28l10.61-5.5c0,0,10.14,10.86,10.58,11.97
		c0.44,1.11,12.47,20.11,12.47,20.11l-3.01,1.99c0,0-11.22-11.73-12.77-15.63c-1.5-2.68-8.42-9.15-8.87-9.13
		c-0.45,0.02,9.55,28.71,11.62,31.01l-3.35,2.17c0,0-7.98-15.52-8.59-16.1C132.93,389.77,124.48,373.96,123.98,373.79z"/>
	<path class="st45" d="M125.97,373.73c0,0,0.12,0.59,0.33,0.5s1.56-1.94,1.19-4.48c0,0-0.33-0.26-0.51,0.18
		C126.8,370.37,125.97,373.73,125.97,373.73"/>
	<path class="st46" d="M110.5,342.98c0,0,2.55,3.13,1.74,3.78c-0.81,0.65,4.76,2.94,4.76,2.94l4.63-4.42l-3.37-2.55
		c0,0-0.48-2.49-0.77-2.81s-2.81-4.67-3.12-4.76c-0.31-0.09-7.37-0.22-7.37-0.22l-0.35,2.28c0,0,0.51,3.31,0.72,3.39
		c0.2,0.08,1.31,2.26,2.73,1.73L110.5,342.98z"/>
	<path class="st47" d="M105.2,337.96c0,0-2.09-4.97,5.64-6.25c3.6,1.19,5.88,3.59,5.69,3.86c-0.19,0.27-5.92-2.32-8.19,2.51
		c0,0,1.97,3.14,2.13,3.15c0.15,0.01,1.79,2.1,2.37,1.42c0.58-0.67,0.28-1.94,0.75-2.28c0.47-0.34,3.09-1.39,3.27-1.62
		c0.18-0.23,2.59,3.36,0.84,5.07c-1.75,1.71-5.42,1.61-7.12-0.73c-1.67-2.3-1.83-3.3-3.23-2.49
		C107.34,340.59,106.41,340.11,105.2,337.96z"/>
	<path class="st48" d="M109.08,356.48c0,0,4.01-0.48,7.01,4.39s7.67,12.96,7.98,12.99c0.61,0.06-0.02-3.78,2.24-4.95
		c2.67-1.38,9.67-1.15,11.25-3.73c-0.2-0.3-7.05-8.1-9.65-13.9c-2.6-5.8,0.25-6.67,0.25-6.67s-5-5.89-9.77-1.85
		c0,0,3.4,3.59-0.13,4.98c-3.53,1.39-5.93-0.91-5.93-0.91S105.56,350.85,109.08,356.48z"/>
	<path class="st49" d="M109.05,356.44c0,0,3.37,10.73,6.46,11.75c3.09,1.02,8.32,2.98,8.6,3.31s1.9,2.45,2.2,2.49
		s1.32-3.7,1.01-3.93s-8.27-2.24-10-5.5c-1.73-3.26-1.96-4.77-2.1-4.93C115.07,359.47,113.3,356.12,109.05,356.44z"/>
	<polygon class="st50" points="123.51,349.8 121.63,345.03 125,342.93 127.42,348.47 	"/>
	<path class="st51" d="M127.91,344.34c0,0,8.84,4.87,7.75,6.97c-1.09,2.11-5.23,1.86-8.9-0.93c-1.01,0.45-1.96,0.7-2.41,0.3
		c-0.45-0.4-1.5-0.96-1.05-1.95c0.44-0.99-1.19-0.42-1.48-0.52s-1.34-1.16,0.58-0.94c1.98,0.23,4.41,0.63,4.38-0.04
		c-0.02-0.37-1.15-2.47-0.84-2.71c0.31-0.24,1.23,1.37,1.17,1.16C127,345.31,128.06,344.82,127.91,344.34z"/>
	<path class="st49" d="M128.1,347.78c0,0,8.65,1.42,7.56,3.53c-1.09,2.11-5.23,1.86-8.9-0.93c-1.01,0.45-2.41,1.12-2.86,0.73
		c-0.45-0.4-1.05-1.39-0.61-2.37c0.44-0.99-1.19-0.42-1.48-0.52s-1.34-1.16,0.58-0.94c1.98,0.23,4.41,0.63,4.38-0.04
		c-0.02-0.37-1.15-2.47-0.84-2.71c0.31-0.24,0.98,1.05,1.17,1.16C127.24,345.77,128.31,348.31,128.1,347.78z"/>
	<path class="st52" d="M130.83,340.54"/>
</g>
</svg>
