<?xml version="1.0" encoding="utf-8"?>
<!-- Generator: Adobe Illustrator 23.0.1, SVG Export Plug-In . SVG Version: 6.00 Build 0)  -->
<svg version="1.1" id="Calque_2_-_copie" xmlns="http://www.w3.org/2000/svg" xmlns:xlink="http://www.w3.org/1999/xlink" x="0px"
	 y="0px" viewBox="0 0 382.82 305.67" style="enable-background:new 0 0 382.82 305.67;" xml:space="preserve">
<style type="text/css">
	.st0{fill:#FFECB0;}
	.st1{fill:#F8CA41;}
	.st2{fill:#61594E;}
	.st3{fill:#FFFFFF;}
	.st4{fill:#504431;}
	.st5{fill:#463019;}
	.st6{fill:#B35629;}
	.st7{fill:#493219;}
	.st8{fill:#98451E;}
	.st9{fill:#FFFCF1;}
	.st10{fill:#893D1A;}
	.st11{fill:#FDE5AC;}
	.st12{fill:#A28F7B;}
	.st13{fill:#A84A23;}
	.st14{fill:#9E988A;}
	.st15{fill:#AD9C84;}
	.st16{fill:#998574;}
	.st17{fill:#D2A17F;}
	.st18{fill:#C09474;}
	.st19{fill:#C99A7A;}
	.st20{fill:#B8A790;}
	.st21{fill:#C6C2BB;}
</style>
<title>military_plane</title>
<circle class="st0" cx="131.33" cy="91.51" r="60.69"/>
<path class="st1" d="M195.9,98.81c-0.04,0.14-1.68,6.57-1.64,6.26c0.04-0.31-0.46-4.38-0.46-4.38l-3.93,15.78L193.87,95l0.53,7.19
	L195.9,98.81z"/>
<path class="st2" d="M176.26,104.5c-0.98-1.42-2.59-2.28-4.32-2.28c0,0-8.15-9.68-14.08-7.98c0,0-7.19-5.01-10.19-1.49
	c-1.11-0.67-2.43-0.91-3.7-0.68c-1.93,0.46,1.49,1.82,0.91,1.6c-0.57-0.22-4.33-1.93-3.99,0c0.34,1.93,1.24,2.63-1.37,2.4
	c-2.61-0.23,2.06,4.89,2.06,4.89s3.19,1.25,3.53,0.46c0.34-0.8,4.1,4.45,7.62,2.05c0,0,4.9,3.99,6.95,3.76s2.99-0.29,2.99-0.29
	s4.64,2.78,7.49,2.84c0,0,3.87,4.94,7.98,5.46c4.11,0.52,3.95-2.8,3.95-2.8s2.99,3.85,6.39,2.51c0,0,3.19,5.33,6.39,5.59
	c3.19,0.26,0-5.59,0-5.59s2.96,1.84,4.44,2.08c1.48,0.23,0.69-2.08,0.69-2.08s5,1.74,4.66-2.03s-7.62-7.51-7.62-7.51
	s-1.47-0.39-0.68,1.11c0.79,1.5-7.9-6.92-11.7-6.58c0,0-9.03-5.01-11.88-3.87s8.2,9.67,8.2,9.67S177.11,103.7,176.26,104.5z"/>
<path class="st3" d="M272.1,111.59c0,0,3.11-1.02,4.53,5.18c1.42,6.2-3.58,11.86-3.58,11.86s-1.93,2.11-3.99,1.22
	c0,0,1.11,0.3,2.63-1.01c2.62-2.43,4.13-5.83,4.17-9.4C275.85,114.87,275.43,113.3,272.1,111.59z"/>
<path class="st4" d="M252.08,191.76c-0.18-0.31-2.72-4.22-5.76-4.4c0,0-4.79-2.91-8.98-1.86l-13.45-6.07c0,0-2.91-9.97-12.82-14.68
	c-9.92-4.71-27.37-11.43-27.37-11.43s-10.38-2.55-19.02,2.34l-18.8-6.27c0,0-8.95-21.35-9.03-21.67c-0.36-1.2-1.2-2.2-2.32-2.76
	c-1.8-0.96-8.18-4.57-8.18-4.57s-3.71,0.1-4.57,2.76s-4.25,17.63-4.25,17.63s-2.55-2.33-4.89-0.21c-2.34,2.12-4.04,6.48-4.04,6.48
	s-2.04,4.79,8.78,13.01c0,0-89.54-33.2-77.7-22.51l2.96,1.86c0,0-6.82-0.61,0.25,2.8c7.07,3.42,65.8,35.33,65.8,35.33
	s-3.99,3.42,0.12,5.97c4.11,2.55,8.04,5,8.04,5c0.97,1.23,2.08,2.33,3.31,3.29c1.46,0.97,10.97,6.09,12.31,5.72
	c1.34-0.37,2.8,1.71,2.8,1.71l2.67-0.37c0,0,6.58,5,9.14,3.19c2.56-1.8-7.19-7.92-7.19-7.92l-1.09-1.83c0,0,21.08,13.64,32.53,17.05
	l10.72,5c2.2,0.11,4.39-0.22,6.46-0.97l25.34,13.76c0,0,1.7,4.51,4.75,5.73s6.21,2.67,10.24,1.95l11.58,4.38
	c2.13,1.15,4.54,1.66,6.95,1.46l1.46,2.56c0,0,4.75,0.97,5.48,1.71s4.14,4.14,7.56,2.4s4.26-0.73,4.26-0.73l4.38,1.83l2.56,0.25
	l5.72,3.65c0,0,2.07-0.49,2.07-1.09s-2.07-4.63-3.99-5.49c-1.92-0.85,28.63,8.29,28.63,8.29s-4.71-3.73-0.61-2.55
	c0.85,0.24,10.59,2.8,5.48-1.34c-5.12-4.14-37.28-21.21-37.28-21.21s-0.37-3.9-1.6-4.63c-1.34-0.67-2.72-1.24-4.14-1.7
	c0,0,8.05-17.06-0.61-24.37C258.11,190.93,252.08,191.76,252.08,191.76z"/>
<path class="st5" d="M219.6,176.96l-15.31-6.26c0,0-4.79-10.72-11.94-13.89C192.36,156.81,216.67,165.07,219.6,176.96z"/>
<path class="st5" d="M190.26,158.81c0,0,5.73,4.13,5.59,8.19l-12.69-4.87C183.17,162.13,184.91,159.24,190.26,158.81z"/>
<path class="st5" d="M189.03,158l-5.59-2.77c-3.22,0.12-6.29,1.41-8.62,3.63l6.53,2.83C181.35,161.7,185.27,157.7,189.03,158z"/>
<path class="st5" d="M180.29,154.61c0,0-5.98,1.6-7.03,3.76l-4.99-1.91C168.28,156.47,175.48,153.2,180.29,154.61z"/>
<path class="st5" d="M148.31,175.14c0,0-38.99-25.12-39.69-28.31c0,0-4.15,1.67,8.34,13.33
	C116.97,160.15,145.53,174.28,148.31,175.14z"/>
<path class="st5" d="M134.82,136.27c0,0-1.87-7.32-5.97-8.09c-4.1-0.77-3.99,5.64-3.99,5.64s1.54,6.16,5.84,7.12
	C134.99,141.91,134.82,136.27,134.82,136.27z"/>
<path class="st1" d="M131.55,134.92c0,0-3.27-2.05-4.56-1.54c-1.29,0.51,4.04,2.63,4.04,2.63S131.68,136.4,131.55,134.92z"/>
<path class="st1" d="M161.86,160.35c0,0-3.27-2.05-4.55-1.53s4.04,2.63,4.04,2.63S161.99,161.83,161.86,160.35z"/>
<path class="st1" d="M160.74,161.85c0,0-3.27-2.05-4.55-1.54s4.04,2.63,4.04,2.63S160.88,163.32,160.74,161.85z"/>
<path class="st1" d="M130.15,136.3c0,0-1.16-0.73-1.6-0.54c-0.44,0.18,1.43,0.93,1.43,0.93S130.2,136.82,130.15,136.3z"/>
<path class="st5" d="M137.73,191.68c0,0-3.88-4.97-2.02-8.85L42.22,139.5c0,0-7.04-1.51-0.84,2.52s66.11,35.69,66.11,35.69
	s-3.57,4.34-1.25,5.74c2.32,1.4,10.18,5.15,10.18,5.15s0.69-2.98,2.55-1.89c1.86,1.09,13.5,7.91,13.5,8.38s-0.46,2.53-0.46,2.53
	s11.11,7.35,14.63,4.5S137.73,191.68,137.73,191.68z"/>
<path class="st5" d="M214.57,211.95l-17.83-9.43c0,0-4.79,8.92-8.26,10.84l25.34,13.76C213.82,227.12,211.81,216.43,214.57,211.95z"
	/>
<path class="st6" d="M188.48,213.4c0,0,8.18-5.21,8.65-13.01c0.47-7.8-1.32-7.89-3.48-9.3c-2.16-1.41-8.64-3.66-8.64-3.66
	s-3.29-0.47-5.54,1.13c-2.25,1.6-11.47,10.09-8.18,20.82c0,0,9.23,4.79,10.72,5C184.23,214.72,186.48,214.38,188.48,213.4z"/>
<path class="st7" d="M188.62,211.04c0,0-4.71,2.15-4.94-1.92c-0.23-4.07,0.87-9.18,5.41-12.38c4.53-3.2,6.39,0.41,6.39,0.41
	S198.04,206.04,188.62,211.04z"/>
<path class="st8" d="M192.87,201.04c0,0,0-0.08-0.08-0.22c-0.3-0.8-1.6-3.27-4.56,0.75c-3.48,4.69-0.34,6.18-0.34,6.18
	s1.64,0.73,3.62-2.17S192.87,201.04,192.87,201.04z"/>
<path class="st9" d="M192.97,205.77c0,0,1.52-2.4,0.65-4.1s-3.39,1.6-3.39,1.6s-1.6,2.49-0.21,3.86
	C191.41,208.49,192.97,205.77,192.97,205.77z"/>
<path class="st5" d="M134.42,168.69c0,0,26.94,18.57,10.21,19.77l-12.59-1.47l0.49-2.16c0,0,8.38,2.22,10.17-2.16
	c1.79-4.38-17.37-18.36-17.37-18.36L134.42,168.69z"/>
<path class="st10" d="M181.18,201.34c0,0-8.5,4.98-9.13-2.88c0,0-2.68,3.99-0.74,10.88l10.51,4.92
	C181.81,214.25,177.03,209.2,181.18,201.34z"/>
<path class="st9" d="M181.92,191.61c0,0-11.46,12.02-6.11,19.82l-2.63-1.13c0,0-4.14-8.73,5.82-19.16c2.04-2.23,4.98-3.4,7.98-3.19
	l2.72,1.13C189.71,189.07,184.17,189.45,181.92,191.61z"/>
<path class="st5" d="M118.22,136.26c0,0,11.47,8.83,18.94,10.56l-20.06-5.93L118.22,136.26z"/>
<path class="st11" d="M214.09,204.41c0,0-3.27-2.06-4.56-1.54c-1.29,0.52,4.05,2.63,4.05,2.63S214.22,205.89,214.09,204.41z"/>
<path class="st11" d="M212.97,205.89c0,0-3.27-2.05-4.56-1.54s4.04,2.63,4.04,2.63S213.1,207.37,212.97,205.89z"/>
<polygon class="st12" points="224.71,185.78 224.59,184.14 223.28,185.29 221.67,184.59 222.3,186.11 220.81,187.38 222.78,187.3 
	223.4,188.74 224.27,187.01 226.24,186.69 "/>
<polygon class="st12" points="217.57,182.49 217.44,180.85 216.13,182 214.53,181.3 215.14,182.82 213.66,184.1 215.64,184.01 
	216.25,185.46 217.11,183.73 219.09,183.4 "/>
<polygon class="st12" points="210.66,179.66 210.54,178.01 209.23,179.16 207.62,178.47 208.24,179.99 206.76,181.26 208.73,181.18 
	209.34,182.61 210.22,180.89 212.19,180.56 "/>
<image style="overflow:visible;enable-background:new    ;" width="432" height="432" xlink:href="EAFDD800.png"  transform="matrix(0.1916 0 0 0.1916 129.9361 132.0587)">
</image>
<circle class="st1" cx="171.29" cy="173.18" r="9.25"/>
<circle class="st3" cx="171.33" cy="173.37" r="5.37"/>
<path class="st5" d="M185.02,187.39c0,0-30.43-12.92-36.3-12.31c0,0,21.2,13.08,21.38,17.28c0.18,4.2-21.36-4.65-21.36-4.65
	l-12.61-4.97c0,0-2.32,5.34,2.02,8.85c4.34,3.5,27.15,16.47,33.14,17.76c-1.61-5.24-0.55-10.93,2.82-15.24
	C179.84,186.86,181.54,187.37,185.02,187.39z"/>
<polygon class="st1" points="162.69,170.21 116.37,148.27 162.2,171.66 "/>
<path class="st1" d="M97.7,158.16c0,0,8.67,2.98,9.45,6.08s-11.74-4.73-11.74-4.73S94.99,157.97,97.7,158.16z"/>
<path class="st5" d="M304.84,251.5c0,0,6.07,3.74-2.54,2.13c-8.61-1.61-25.48-7.86-25.48-7.86s3.93,2.32,4.42,4.09
	c0.49,1.77-0.33,2.33-7.32-0.09c-6.99-2.42-11.02-3.7-11.02-3.7l7.8-7.56L304.84,251.5z"/>
<path class="st13" d="M267.17,248.45c0,0,8.18-5.21,8.65-13.01c0.47-7.79-1.32-7.9-3.47-9.3c-2.16-1.41-8.65-3.66-8.65-3.66
	s-3.28-0.47-5.54,1.13c-2.26,1.6-11.47,10.1-8.18,20.83c0,0,9.23,4.79,10.72,5C262.91,249.77,265.16,249.43,267.17,248.45z"/>
<path class="st10" d="M259.88,236.43c0,0-8.49,4.99-9.13-2.87c0,0-2.69,3.99-0.75,10.88l10.48,4.89
	C260.49,249.33,255.72,244.29,259.88,236.43z"/>
<path class="st9" d="M260.6,226.7c0,0-11.46,12.02-6.1,19.82l-2.63-1.13c0,0-4.14-8.74,5.82-19.16c2.04-2.23,4.97-3.4,7.98-3.19
	l2.73,1.13C268.4,224.17,262.86,224.58,260.6,226.7z"/>
<path class="st7" d="M267.3,246.13c0,0-4.71,2.15-4.94-1.92c-0.23-4.06,0.88-9.19,5.41-12.39c4.53-3.2,6.39,0.41,6.39,0.41
	S276.72,241.14,267.3,246.13z"/>
<path class="st8" d="M271.56,236.14c0,0,0-0.09-0.07-0.22c-0.3-0.8-1.6-3.28-4.57,0.74c-3.48,4.69-0.34,6.19-0.34,6.19
	s1.64,0.73,3.62-2.18S271.56,236.14,271.56,236.14z"/>
<path class="st9" d="M271.65,240.86c0,0,1.52-2.4,0.66-4.1c-0.85-1.71-3.4,1.6-3.4,1.6s-1.6,2.48-0.2,3.85
	C270.11,243.57,271.65,240.86,271.65,240.86z"/>
<path class="st13" d="M255.51,240.9c0,0,16.21-10.33,17.13-25.76s-2.6-15.62-6.87-18.41s-17.12-7.28-17.12-7.28
	s-6.51-0.93-10.97,2.24c-4.46,3.16-22.71,19.96-16.19,41.24c0,0,18.28,9.51,21.23,9.89C247.08,243.49,251.54,242.83,255.51,240.9z"
	/>
<path class="st7" d="M255.78,236.31c0,0-9.33,4.26-9.78-3.8c-0.46-8.06,1.72-18.19,10.71-24.52c8.98-6.33,12.66,0.8,12.66,0.8
	S274.43,226.41,255.78,236.31z"/>
<path class="st8" d="M264.2,216.51c0,0-0.05-0.16-0.14-0.42c-0.6-1.6-3.13-6.48-9.04,1.48c-6.89,9.28-0.67,12.25-0.67,12.25
	s3.25,1.44,7.19-4.3C265.47,219.77,264.2,216.51,264.2,216.51z"/>
<path class="st9" d="M264.39,225.89c0,0,3.01-4.79,1.3-8.14c-1.71-3.35-6.72,3.11-6.72,3.11s-3.11,4.92-0.41,7.63
	C261.27,231.21,264.39,225.89,264.39,225.89z"/>
<path class="st10" d="M241.04,217.1c0,0-16.82,9.87-18.07-5.7c0,0-5.33,7.93-1.49,21.56l20.83,9.72
	C242.32,242.68,232.84,232.67,241.04,217.1z"/>
<path class="st9" d="M242.52,197.84c0,0-22.69,23.81-12.09,39.25l-5.21-2.24c0,0-8.18-17.29,11.51-37.94c0,0,5.21-6.7,15.81-6.32
	l5.39,2.24C257.93,192.82,246.98,193.57,242.52,197.84z"/>
<path class="st14" d="M270.73,191.38c0,0,11.25,0.1,9.05,21.86c-2.2,21.76-24.75,34.69-24.75,34.69s-8.61,4.73-14.37-0.42
	c0,0,3.27,2.2,9.68-0.42s19.16-11.03,24.07-25.96S279.67,200.63,270.73,191.38z"/>
<path class="st14" d="M278.32,222.71c0,0,5.98,0.06,4.79,11.62s-13.13,18.44-13.13,18.44s-4.57,2.51-7.65-0.22
	c0,0,1.73,1.17,5.14-0.22c3.41-1.4,10.16-5.86,12.77-13.8C282.85,230.58,283.04,227.63,278.32,222.71z"/>
<path class="st1" d="M149.24,201.83l0.14-3.5c0,0,0.8-0.63,1.05,1.19c0.18,0.76,0.22,1.54,0.14,2.31l8.52-4.4l-3.58,3.47
	c0.81-0.36,1.66-0.65,2.51-0.88c-0.11,0.18-2.4,3.14-2.4,3.14s6.1,1.83,7.19,1.94c1.09,0.11-3.25,0.84-3.25,0.84
	s9.46,2.99,10.08,3.11s-7.19,0.22-5.51,0.65c1.68,0.44,25.97,16.29,25.97,16.29L174.43,218c0,0,9.52,7.19,8.78,7.11
	s-12.75-4.53-12.75-4.53l34.33,26.07l-44.37-31.34c0,0,14.95,4.87,14.63,4.63c-0.32-0.24-3.91-3.35-4.56-3.67s-7.83-4.24-7.83-4.24
	l2.08,3.99l-7.06-5.68l0.49,2.79c0,0-4.48-5.03-4.72-4.71c-0.24,0.32-1.76,3.35-1.76,3.35l-0.8-3.19l-0.32,4.71l-1.52-8.47
	l-7.75,3.92l6.79-5.44l-0.56-1.52L149.24,201.83z"/>
<path class="st11" d="M155.98,218.64c0.99,0.85,6.61,5.05,5.97,4.97c-0.64-0.07-5.69-1.99-5.48-1.85s14.86,11.66,14.86,11.66
	s-20.97-14.71-20.61-14.64s7.74,3.27,7.54,2.84C158.05,221.2,155.98,218.64,155.98,218.64z"/>
<path class="st1" d="M126.72,206.74c0.38-0.16-6.97,5.69,1.77,4.48c8.74-1.21-5.54,1.38-5.54,1.38S116.69,210.94,126.72,206.74z"/>
<path class="st1" d="M282.07,251.15c0.05-0.14,1.54-8.83,1.54-2.24c0,0.1,0,2.7,0.74,1.91c1.06-0.89,2.3-1.54,3.63-1.91
	c0.23,0.1-0.93,1.72-0.93,1.72s2.15-0.61,1.92-0.33c-0.23,0.28-1.49,1.96-1.49,1.96l5.13,1.3l-2.33,0.98l7.41,2.47h-4.15
	c0.14,0,20.22,12.81,19.9,12.72c-0.32-0.1-20.76-10.48-20.76-10.48s2.56,3.87,1.92,3.35s-5.59-4.65-5.59-4.65l0.28,2.14l-3.68-3.68
	l-2.48,3.54l-0.74-6.43l-6.48,3.35l5.5-4.47l-0.19-1.12L282.07,251.15z"/>
<path class="st11" d="M261.41,254.32c-0.42,0.24-4.47,3.4-3.44,4.43c1.03,1.03,5.87-0.14,5.87-0.14s-4.61-0.05-4.43-1.21
	C259.59,256.23,261.41,254.32,261.41,254.32z"/>
<path class="st11" d="M276.13,263.5c0.61,0.56,4.06,3.68,4.06,3.68s-3.87-1.31-3.5-1.03s11.14,8.73,11.14,8.73l-15.97-11.38
	l5.31,1.81L276.13,263.5z"/>
<path class="st15" d="M263.32,112.8c-0.09-0.1-1.24-1.29-2.32-1.17c-1.05-0.39-2.21-0.41-3.27-0.06l-5.13-1.25
	c-1.19-2.09-3.15-3.64-5.47-4.3c-3.79-1-10.38-2.21-10.38-2.21s-3.82-0.21-6.52,2.08l-7.02-0.96c0,0-4.54-6.91-4.6-7.01
	c-0.22-0.39-0.58-0.68-1.01-0.8c-0.69-0.22-3.19-1.07-3.19-1.07s-1.29,0.29-1.42,1.28s-0.33,6.47-0.33,6.47
	c-0.56-0.36-1.29-0.26-1.72,0.25c-0.49,0.78-0.82,1.64-0.99,2.55c0,0-0.4,1.8,3.94,3.99c0,0-33.64-5.74-28.74-2.77l1.17,0.46
	c0,0-2.4,0.24,0.27,0.97c2.67,0.73,25.44,8.06,25.44,8.06s-1.18,1.46,0.44,2.09l3.19,1.22c0.42,0.37,0.88,0.68,1.37,0.93
	c0.57,0.25,4.26,1.42,4.7,1.2s1.09,0.42,1.09,0.42l0.92-0.3c0,0,2.64,1.32,3.42,0.51s-3.05-2.31-3.05-2.31l-0.5-0.57
	c0,0,8.3,3.39,12.55,3.84l4.1,1.05c0.78-0.12,1.53-0.39,2.2-0.8l9.81,3.19c0,0,0.89,1.48,2.04,1.7c1.21,0.37,2.51,0.37,3.72,0
	l4.36,0.8c0.82,0.26,1.7,0.28,2.53,0.06l0.69,0.8c0.69-0.01,1.37,0.07,2.04,0.24c0.3,0.21,1.73,1.18,2.82,0.36
	c1.09-0.82,1.39-0.57,1.39-0.57l1.66,0.35l0.92-0.08l2.25,0.9c0,0,0.69-0.3,0.65-0.52c-0.4-0.73-1.02-1.31-1.77-1.66
	c-0.74-0.17,10.6,1.02,10.6,1.02s-1.9-1-0.38-0.86c0.31,0,3.9,0.29,1.84-0.8c-2.07-1.09-14.5-4.98-14.5-4.98s-0.38-1.35-0.86-1.52
	c-0.52-0.15-1.06-0.26-1.6-0.33c0,0,1.7-6.51-1.82-8.51C265.33,112.18,263.32,112.8,263.32,112.8z"/>
<path class="st16" d="M250.94,109.78l-5.79-1.19c0,0-2.4-3.45-5.11-4.09C240.04,104.5,249.12,105.79,250.94,109.78z"/>
<path class="st16" d="M239.44,105.34c0,0,2.28,1.07,2.51,2.51l-4.79-0.87C237.63,106.11,238.47,105.5,239.44,105.34z"/>
<path class="st16" d="M238.95,105.14l-2.15-0.61c-1.13,0.26-2.12,0.93-2.79,1.88l2.48,0.56
	C236.49,106.97,237.62,105.27,238.95,105.14z"/>
<path class="st16" d="M235.66,104.52c0,0-2,0.96-2.22,1.79l-1.88-0.34C231.56,105.97,233.88,104.35,235.66,104.52z"/>
<path class="st16" d="M225.92,113.78c0,0-15.35-6.24-15.81-7.32c0,0-1.35,0.86,3.81,4.13C213.92,110.59,224.89,113.67,225.92,113.78
	z"/>
<path class="st11" d="M229.54,107.76c0,0-1.29-0.5-1.71-0.24c-0.42,0.26,1.6,0.66,1.6,0.66S229.7,108.27,229.54,107.76z"/>
<path class="st11" d="M229.27,108.35c0,0-1.29-0.5-1.7-0.24c-0.42,0.26,1.6,0.65,1.6,0.65S229.42,108.87,229.27,108.35z"/>
<path class="st16" d="M223.3,120.29c0,0-1.68-1.49-1.29-2.98l-35.7-9.04c0,0-2.57-0.06-0.13,0.94c2.44,1.01,25.55,8.17,25.55,8.17
	s-0.97,1.76-0.06,2.09c0.91,0.34,3.91,1.14,3.91,1.14s0-1.09,0.8-0.8s5.27,1.88,5.29,2.04c0.02,0.16,0,0.92,0,0.92
	s4.38,1.85,5.43,0.62C228.16,122.17,223.3,120.29,223.3,120.29z"/>
<path class="st16" d="M251.48,122.38l-6.88-2.13c0,0-1.1,3.45-2.19,4.35l9.81,3.19C252.23,127.8,250.81,124.15,251.48,122.38z"/>
<path class="st17" d="M242.41,124.61c0,0,2.53-2.4,2.18-5.14s-0.98-2.68-1.84-3.03c-1.07-0.32-2.17-0.56-3.27-0.71
	c-0.7,0.05-1.36,0.33-1.88,0.8c-0.69,0.71-3.36,4.3-1.49,7.86c1.34,0.43,2.71,0.78,4.1,1.05
	C241.01,125.39,241.78,125.1,242.41,124.61z"/>
<path class="st18" d="M242.32,123.79c0,0-1.51,1.07-1.86-0.34c-0.49-1.65-0.08-3.44,1.08-4.71c1.38-1.42,2.28-0.28,2.28-0.28
	C244.65,120.36,244.03,122.59,242.32,123.79z"/>
<path class="st19" d="M243.12,119.99c-0.01-0.03-0.02-0.05-0.04-0.07c-0.16-0.26-0.8-1.05-1.55,0.57c-0.92,1.88,0.29,2.2,0.29,2.2
	s0.62,0.14,1.13-1.01C243.44,120.52,243.12,119.99,243.12,119.99z"/>
<path class="st9" d="M243.49,121.66c0,0,0.37-0.96-0.04-1.49s-1.09,0.8-1.09,0.8s-0.38,0.97,0.18,1.37
	C243.11,122.73,243.49,121.66,243.49,121.66z"/>
<path class="st16" d="M220.62,112.42c0,0,10.69,4.74,4.89,6.27l-4.52,0.32v-0.8c0,0,3.09,0.22,3.43-1.44s-7.31-5.29-7.31-5.29
	L220.62,112.42z"/>
<path class="st18" d="M239.05,120.87c0,0-2.65,2.32-3.39-0.41c-0.39,1.3-0.23,2.7,0.46,3.87l3.99,1.03
	C240.11,125.37,238.12,123.91,239.05,120.87z"/>
<path class="st9" d="M238.67,117.41c0,0-3.19,4.98-0.8,7.36l-1-0.22c0,0-2.03-2.8,0.8-7.11c0.57-0.92,1.52-1.53,2.59-1.65l1.03,0.22
	C241.3,116,239.32,116.5,238.67,117.41z"/>
<path class="st11" d="M250.81,119.78c0,0-1.29-0.51-1.7-0.24c-0.42,0.27,1.6,0.65,1.6,0.65S250.96,120.29,250.81,119.78z"/>
<path class="st11" d="M250.52,120.38c0,0-1.29-0.51-1.7-0.25s1.6,0.66,1.6,0.66S250.66,120.88,250.52,120.38z"/>
<polygon class="st12" points="253.32,112.54 253.17,111.96 252.79,112.46 252.17,112.31 252.49,112.81 252.06,113.35 252.75,113.19 
	253.06,113.66 253.24,113 253.91,112.75 "/>
<polygon class="st12" points="250.59,111.85 250.44,111.28 250.06,111.77 249.45,111.64 249.76,112.13 249.33,112.67 250.02,112.51 
	250.33,112.98 250.52,112.31 251.19,112.07 "/>
<polygon class="st12" points="247.98,111.32 247.83,110.74 247.44,111.24 246.84,111.09 247.15,111.59 246.72,112.13 247.4,111.97 
	247.72,112.44 247.91,111.78 248.57,111.53 "/>
<circle class="st20" cx="233.74" cy="111.68" r="4.45"/>
<circle class="st11" cx="233.73" cy="111.64" r="3.31"/>
<circle class="st3" cx="233.75" cy="111.7" r="1.92"/>
<path class="st12" d="M239.48,115.72c0,0-11.54-2.53-13.57-1.94c0,0,8.31,3.19,8.65,4.65c0.34,1.46-7.8-0.22-7.8-0.22l-4.79-0.9
	c-0.26,1.17,0.26,2.37,1.29,2.98c1.76,0.94,10.61,3.99,12.77,4.05c-0.9-1.74-0.9-3.8,0-5.54
	C237.63,115.88,238.26,115.95,239.48,115.72z"/>
<polygon class="st11" points="230.51,111.16 212.79,106.52 230.43,111.71 "/>
<path class="st11" d="M211.86,110.77c0,0,3.24,0.47,3.72,1.51c0.48,1.04-4.45-0.88-4.45-0.88S210.89,110.88,211.86,110.77z"/>
<path class="st17" d="M267.77,129.86c0,0,5.01-4.69,4.32-10.18c-0.69-5.49-1.95-5.31-3.63-6.01c-1.68-0.7-6.49-1.41-6.49-1.41
	c-1.36,0.08-2.65,0.61-3.68,1.51c-1.36,1.41-6.65,8.52-2.96,15.55c0,0,7.05,2.13,8.11,2.07C265,131.33,266.52,130.8,267.77,129.86z"
	/>
<path class="st18" d="M267.56,128.23c0,0-2.99,2.12-3.69-0.69c-0.69-2.8-0.59-6.5,2.15-9.32c2.74-2.82,4.49-0.55,4.49-0.55
	S273.46,123.52,267.56,128.23z"/>
<path class="st9" d="M260.36,115.6c0,0-6.39,9.86-1.65,14.58l-1.97-0.44c0,0-3.99-5.53,1.54-14.08c1.12-1.81,3.01-3.02,5.13-3.27
	l2.06,0.42C265.47,112.8,261.65,113.8,260.36,115.6z"/>
<path class="st9" d="M210.79,114.4c0,0,1.5-2.2-8.89-5.71c-10.4-3.5,2.4,0.44,2.4,0.44s8.61,2.51,8.99,5.48c0,0-0.42,1.78-7,0.67
	C206.32,115.3,210.09,115.32,210.79,114.4z"/>
<path class="st21" d="M269.85,111.46c0,0,3.99-0.71,4.62,7.08s-6.39,13.81-6.39,13.81s-2.71,2.24-5.09,0.8c0,0,1.29,0.56,3.37-0.8
	c3.62-2.49,6.06-6.36,6.74-10.71C273.86,116.1,273.6,114.12,269.85,111.46z"/>
<path class="st11" d="M227.88,123.18l-0.18-1.24c0,0,0.23-0.27,0.45,0.35c0.11,0.25,0.18,0.52,0.2,0.8l2.7-2.1l-1.02,1.45
	c0.25-0.18,0.52-0.33,0.8-0.47c0,0.07-0.64,1.26-0.64,1.26s2.27,0.24,2.66,0.2c0.39-0.04-1.09,0.51-1.09,0.51s3.51,0.43,3.74,0.42
	s-2.51,0.55-1.9,0.6s10.2,3.99,10.2,3.99l-6.01-1.79c1.22,0.58,2.41,1.22,3.56,1.92c-0.26,0-4.79-0.76-4.79-0.76l13.75,6.89
	l-17.64-8.06c0,0,5.59,0.73,5.45,0.66c-0.14-0.06-1.6-0.92-1.84-0.99l-3.03-0.97l1,1.26l-2.82-1.56l0.35,0.95
	c-0.61-0.5-1.27-0.95-1.96-1.34c-0.06,0.13-0.4,1.29-0.4,1.29l-0.49-1.07l0.2,1.68l-1.09-2.87l-2.46,1.89l2.03-2.36l-0.3-0.5
	L227.88,123.18z"/>
<path class="st11" d="M225.26,125.91c0.12-0.09-2.07,2.45,0.92,1.45c2.99-1-1.86,0.8-1.86,0.8S222.02,128.04,225.26,125.91z"/>
<path class="st4" d="M263.32,112.8c-0.09-0.1-1.24-1.29-2.32-1.17c-1.05-0.39-2.21-0.41-3.27-0.06l-5.13-1.25
	c-1.19-2.09-3.15-3.64-5.47-4.3c-3.79-1-10.38-2.21-10.38-2.21s-3.82-0.21-6.52,2.08l-7.02-0.96c0,0-4.54-6.91-4.6-7.01
	c-0.22-0.39-0.58-0.68-1.01-0.8c-0.69-0.22-3.19-1.07-3.19-1.07s-1.29,0.29-1.42,1.28s-0.33,6.47-0.33,6.47
	c-0.56-0.36-1.29-0.26-1.72,0.25c-0.49,0.78-0.82,1.64-0.99,2.55c0,0-0.4,1.8,3.94,3.99c0,0-33.64-5.74-28.74-2.77l1.17,0.46
	c0,0-2.4,0.24,0.27,0.97c2.67,0.73,25.44,8.06,25.44,8.06s-1.18,1.46,0.44,2.09l3.19,1.22c0.42,0.37,0.88,0.68,1.37,0.93
	c0.57,0.25,4.26,1.42,4.7,1.2s1.09,0.42,1.09,0.42l0.92-0.3c0,0,2.64,1.32,3.42,0.51s-3.05-2.31-3.05-2.31l-0.5-0.57
	c0,0,8.3,3.39,12.55,3.84l4.1,1.05c0.78-0.12,1.53-0.39,2.2-0.8l9.81,3.19c0,0,0.89,1.48,2.04,1.7c1.21,0.37,2.51,0.37,3.72,0
	l4.36,0.8c0.82,0.26,1.7,0.28,2.53,0.06l0.69,0.8c0.69-0.01,1.37,0.07,2.04,0.24c0.3,0.21,1.73,1.18,2.82,0.36
	c1.09-0.82,1.39-0.57,1.39-0.57l1.66,0.35l0.92-0.08l2.25,0.9c0,0,0.69-0.3,0.65-0.52c-0.4-0.73-1.02-1.31-1.77-1.66
	c-0.74-0.17,10.6,1.02,10.6,1.02s-1.9-1-0.38-0.86c0.31,0,3.9,0.29,1.84-0.8c-2.07-1.09-14.5-4.98-14.5-4.98s-0.38-1.35-0.86-1.52
	c-0.52-0.15-1.06-0.26-1.6-0.33c0,0,1.7-6.51-1.82-8.51C265.33,112.18,263.32,112.8,263.32,112.8z"/>
<path class="st5" d="M250.94,109.78l-5.79-1.19c0,0-2.4-3.45-5.11-4.09C240.04,104.5,249.12,105.79,250.94,109.78z"/>
<path class="st5" d="M239.44,105.34c0,0,2.28,1.07,2.51,2.51l-4.79-0.87C237.63,106.11,238.47,105.5,239.44,105.34z"/>
<path class="st5" d="M238.95,105.14l-2.15-0.61c-1.13,0.26-2.12,0.93-2.79,1.88l2.48,0.56
	C236.49,106.97,237.62,105.27,238.95,105.14z"/>
<path class="st5" d="M235.66,104.52c0,0-2,0.96-2.22,1.79l-1.88-0.34C231.56,105.97,233.88,104.35,235.66,104.52z"/>
<path class="st5" d="M225.92,113.78c0,0-15.35-6.24-15.81-7.32c0,0-1.35,0.86,3.81,4.13C213.92,110.59,224.89,113.67,225.92,113.78z
	"/>
<path class="st1" d="M229.54,107.76c0,0-1.29-0.5-1.71-0.24c-0.42,0.26,1.6,0.66,1.6,0.66S229.7,108.27,229.54,107.76z"/>
<path class="st1" d="M229.27,108.35c0,0-1.29-0.5-1.7-0.24c-0.42,0.26,1.6,0.65,1.6,0.65S229.42,108.87,229.27,108.35z"/>
<path class="st5" d="M223.3,120.29c0,0-1.68-1.49-1.29-2.98l-35.7-9.04c0,0-2.57-0.06-0.13,0.94c2.44,1.01,25.55,8.17,25.55,8.17
	s-0.97,1.76-0.06,2.09c0.91,0.34,3.91,1.14,3.91,1.14s0-1.09,0.8-0.8s5.27,1.88,5.29,2.04c0.02,0.16,0,0.92,0,0.92
	s4.38,1.85,5.43,0.62C228.16,122.17,223.3,120.29,223.3,120.29z"/>
<path class="st5" d="M251.48,122.38l-6.88-2.13c0,0-1.1,3.45-2.19,4.35l9.81,3.19C252.23,127.8,250.81,124.15,251.48,122.38z"/>
<path class="st6" d="M242.41,124.61c0,0,2.53-2.4,2.18-5.14s-0.98-2.68-1.84-3.03c-1.07-0.32-2.17-0.56-3.27-0.71
	c-0.7,0.05-1.36,0.33-1.88,0.8c-0.69,0.71-3.36,4.3-1.49,7.86c1.34,0.43,2.71,0.78,4.1,1.05
	C241.01,125.39,241.78,125.1,242.41,124.61z"/>
<path class="st7" d="M242.32,123.79c0,0-1.51,1.07-1.86-0.34c-0.49-1.65-0.08-3.44,1.08-4.71c1.38-1.42,2.28-0.28,2.28-0.28
	C244.65,120.36,244.03,122.59,242.32,123.79z"/>
<path class="st8" d="M243.12,119.99c-0.01-0.03-0.02-0.05-0.04-0.07c-0.16-0.26-0.8-1.05-1.55,0.57c-0.92,1.88,0.29,2.2,0.29,2.2
	s0.62,0.14,1.13-1.01C243.44,120.52,243.12,119.99,243.12,119.99z"/>
<path class="st9" d="M243.49,121.66c0,0,0.37-0.96-0.04-1.49s-1.09,0.8-1.09,0.8s-0.38,0.97,0.18,1.37
	C243.11,122.73,243.49,121.66,243.49,121.66z"/>
<path class="st5" d="M220.62,112.42c0,0,10.69,4.74,4.89,6.27l-4.52,0.32v-0.8c0,0,3.09,0.22,3.43-1.44s-7.31-5.29-7.31-5.29
	L220.62,112.42z"/>
<path class="st10" d="M239.05,120.87c0,0-2.65,2.32-3.39-0.41c-0.39,1.3-0.23,2.7,0.46,3.87l3.99,1.03
	C240.11,125.37,238.12,123.91,239.05,120.87z"/>
<path class="st9" d="M238.67,117.41c0,0-3.19,4.98-0.8,7.36l-1-0.22c0,0-2.03-2.8,0.8-7.11c0.57-0.92,1.52-1.53,2.59-1.65l1.03,0.22
	C241.3,116,239.32,116.5,238.67,117.41z"/>
<path class="st1" d="M250.81,119.78c0,0-1.29-0.51-1.7-0.24c-0.42,0.27,1.6,0.65,1.6,0.65S250.96,120.29,250.81,119.78z"/>
<path class="st11" d="M250.52,120.38c0,0-1.29-0.51-1.7-0.25s1.6,0.66,1.6,0.66S250.66,120.88,250.52,120.38z"/>
<polygon class="st12" points="253.32,112.54 253.17,111.96 252.79,112.46 252.17,112.31 252.49,112.81 252.06,113.35 252.75,113.19 
	253.06,113.66 253.24,113 253.91,112.75 "/>
<polygon class="st12" points="250.59,111.85 250.44,111.28 250.06,111.77 249.45,111.64 249.76,112.13 249.33,112.67 250.02,112.51 
	250.33,112.98 250.52,112.31 251.19,112.07 "/>
<polygon class="st12" points="247.98,111.32 247.83,110.74 247.44,111.24 246.84,111.09 247.15,111.59 246.72,112.13 247.4,111.97 
	247.72,112.44 247.91,111.78 248.57,111.53 "/>
<circle class="st20" cx="233.74" cy="111.68" r="4.45"/>
<circle class="st1" cx="233.73" cy="111.64" r="3.31"/>
<circle class="st3" cx="233.75" cy="111.7" r="1.92"/>
<path class="st5" d="M239.48,115.72c0,0-11.54-2.53-13.57-1.94c0,0,8.31,3.19,8.65,4.65c0.34,1.46-7.8-0.22-7.8-0.22l-4.79-0.9
	c-0.26,1.17,0.26,2.37,1.29,2.98c1.76,0.94,10.61,3.99,12.77,4.05c-0.9-1.74-0.9-3.8,0-5.54
	C237.63,115.88,238.26,115.95,239.48,115.72z"/>
<polygon class="st11" points="230.51,111.16 212.79,106.52 230.43,111.71 "/>
<path class="st11" d="M211.86,110.77c0,0,3.24,0.47,3.72,1.51c0.48,1.04-4.45-0.88-4.45-0.88S210.89,110.88,211.86,110.77z"/>
<path class="st13" d="M267.77,129.86c0,0,5.01-4.69,4.32-10.18c-0.69-5.49-1.95-5.31-3.63-6.01c-1.68-0.7-6.49-1.41-6.49-1.41
	c-1.36,0.08-2.65,0.61-3.68,1.51c-1.36,1.41-6.65,8.52-2.96,15.55c0,0,7.05,2.13,8.11,2.07C265,131.33,266.52,130.8,267.77,129.86z"
	/>
<path class="st7" d="M267.56,128.23c0,0-2.99,2.12-3.69-0.69c-0.69-2.8-0.59-6.5,2.15-9.32c2.74-2.82,4.49-0.55,4.49-0.55
	S273.46,123.52,267.56,128.23z"/>
<path class="st9" d="M260.36,115.6c0,0-6.39,9.86-1.65,14.58l-1.97-0.44c0,0-3.99-5.53,1.54-14.08c1.12-1.81,3.01-3.02,5.13-3.27
	l2.06,0.42C265.47,112.8,261.65,113.8,260.36,115.6z"/>
<path class="st9" d="M210.79,114.4c0,0,1.5-2.2-8.89-5.71c-10.4-3.5,2.4,0.44,2.4,0.44s8.61,2.51,8.99,5.48c0,0-0.42,1.78-7,0.67
	C206.32,115.3,210.09,115.32,210.79,114.4z"/>
<path class="st14" d="M269.85,111.46c0,0,3.99-0.71,4.62,7.08s-6.39,13.81-6.39,13.81s-2.71,2.24-5.09,0.8c0,0,1.29,0.56,3.37-0.8
	c3.62-2.49,6.06-6.36,6.74-10.71C273.86,116.1,273.6,114.12,269.85,111.46z"/>
<path class="st1" d="M227.88,123.18l-0.18-1.24c0,0,0.23-0.27,0.45,0.35c0.11,0.25,0.18,0.52,0.2,0.8l2.7-2.1l-1.02,1.45
	c0.25-0.18,0.52-0.33,0.8-0.47c0,0.07-0.64,1.26-0.64,1.26s2.27,0.24,2.66,0.2c0.39-0.04-1.09,0.51-1.09,0.51s3.51,0.43,3.74,0.42
	s-2.51,0.55-1.9,0.6s10.2,3.99,10.2,3.99l-6.01-1.79c1.22,0.58,2.41,1.22,3.56,1.92c-0.26,0-4.79-0.76-4.79-0.76l13.75,6.89
	l-17.64-8.06c0,0,5.59,0.73,5.45,0.66c-0.14-0.06-1.6-0.92-1.84-0.99l-3.03-0.97l1,1.26l-2.82-1.56l0.35,0.95
	c-0.61-0.5-1.27-0.95-1.96-1.34c-0.06,0.13-0.4,1.29-0.4,1.29l-0.49-1.07l0.2,1.68l-1.09-2.87l-2.46,1.89l2.03-2.36l-0.3-0.5
	L227.88,123.18z"/>
<path class="st11" d="M225.26,125.91c0.12-0.09-2.07,2.45,0.92,1.45c2.99-1-1.86,0.8-1.86,0.8S222.02,128.04,225.26,125.91z"/>
<path class="st8" d="M270.84,121.28c0,0-1.19-2.87-3.45,0.53s0.89,4.61,1.65,4.5C269.8,126.21,271.53,121.82,270.84,121.28z"/>
<path class="st3" d="M270.26,125.7c0,0,1.96-2.83,1.49-3.89s-2.24-0.06-2.95,1.73C268.08,125.34,269.46,125.98,270.26,125.7z"/>
<path class="st1" d="M204.67,121.63c0.14,0.18,7.09,8.93,6.71,8.56c-0.38-0.37-6.32-3.85-6.32-3.85l17.13,21.33l-24.69-27.21
	l10.11,6.59L204.67,121.63z"/>
<path class="st1" d="M217.65,133.72c0,0,2.83,4.28-0.51,3.19c-3.34-1.09-2.78-4.61-2.78-4.61S217.46,132.23,217.65,133.72z"/>
<path class="st1" d="M183.85,119.46c-0.3,0.13-5.45,5.07-5.33,4.34c0.12-0.73,2.98-4.52,1.99-3.78
	c-0.99,0.74-11.84,10.29-11.84,10.29l15.17-14.64l-2.54,4.73L183.85,119.46z"/>
<path class="st11" d="M162.04,95.29c-0.16,0.06-2.73,2.53-2.67,2.16s1.49-2.26,0.99-1.88c-0.5,0.38-5.92,5.14-5.92,5.14l7.6-7.32
	l-1.28,2.4L162.04,95.29z"/>
<path class="st1" d="M171.21,122.99c0.13-0.43,1.8-1.54-0.37-1.42s-0.8,1.68-0.8,1.68L171.21,122.99z"/>
<polygon class="st1" points="242.41,125.9 344.23,155.23 344.23,157.54 235.46,125.37 "/>
<path class="st9" d="M91.15,165.04c0,0,5.37-3.76-15.48-20.85s5.21,3.14,5.21,3.14s17.63,13.25,15.92,20.4c0,0-2.53,3.73-16.69-4.55
	C80.12,163.17,88.76,166.48,91.15,165.04z"/>
</svg>
