<?xml version="1.0" encoding="utf-8"?>
<!-- Generator: Adobe Illustrator 23.0.1, SVG Export Plug-In . SVG Version: 6.00 Build 0)  -->
<svg version="1.1" xmlns="http://www.w3.org/2000/svg" xmlns:xlink="http://www.w3.org/1999/xlink" x="0px" y="0px"
	 viewBox="0 0 2000 2000" style="enable-background:new 0 0 2000 2000;" xml:space="preserve">
<style type="text/css">
	.st0{fill:#FFFFFF;}
	.st1{fill:#020304;}
	.st2{fill:#323232;}
	.st3{fill:#676766;}
	.st4{fill:none;stroke:#020304;stroke-miterlimit:10;}
	.st5{fill:none;stroke:#676766;stroke-miterlimit:10;}
	.st6{fill:none;stroke:#676766;stroke-width:0.5;stroke-miterlimit:10;}
	.st7{fill:none;stroke:#676766;stroke-width:0.75;stroke-miterlimit:10;}
	.st8{fill:#FCDBC5;}
	.st9{fill:#E5C6B7;}
</style>
<g id="Calque_4">
</g>
<g id="Calque_2">
	<g id="XMLID_1_">
		<g>
			<path class="st0" d="M534.34,1307.43c5.84,5.6,0,6.55,0,6.55c-10.6,2.14-20.01-16.08-20.01-16.08s0.94-0.65,2.25-1.65
				c2.08-1.6,5.12-4.06,6.88-6.18c0.41-0.5,0.75-0.98,0.99-1.42C524.45,1288.65,528.5,1301.83,534.34,1307.43z"/>
			<path class="st1" d="M519.41,1283.06c0,0,3.53,5.45,4.05,7.01c-1.76,2.12-4.8,4.58-6.88,6.18l-0.01-0.01
				c-0.17-0.84-3.48-6.52-3.48-6.52l-0.01-0.01c1.32-0.84,2.54-1.97,3.6-3.15C517.78,1285.36,518.71,1284.1,519.41,1283.06z"/>
			<path class="st0" d="M520.9,1280.67c0,0-0.54,1.01-1.48,2.39c-0.71,1.04-1.64,2.3-2.73,3.5l-0.11-0.1
				c-4.92-7.66-20.13-19.29-21.71-20.48c0.87-2.31,1.5-4.97,1.64-7.96c0.04-0.94,0.04-1.92-0.04-2.92
				C496.47,1255.1,511.68,1263.59,520.9,1280.67z"/>
			<path class="st0" d="M516.57,1286.46l0.11,0.1c-1.06,1.18-2.29,2.31-3.6,3.15c-0.87,0.56-1.77,0.99-2.7,1.23
				c0,0-10.05-8.92-22.22-14.77c0,0,0.47-0.4,1.19-1.19c1.44-1.57,3.89-4.66,5.52-9C496.44,1267.17,511.65,1278.8,516.57,1286.46z"
				/>
			<path class="st1" d="M494.87,1265.98c-1.63,4.34-4.08,7.44-5.52,9c-1.96-2.79-6.59-4.38-6.59-4.38c2.77-3.11,4.44-6.49,5.43-9.64
				c0.66-2.11,1.02-4.11,1.2-5.86h0.01c0,0,3.83,1.64,7.11,2.92h0.01C496.37,1261,495.73,1263.67,494.87,1265.98z"/>
			<path class="st0" d="M489.37,1248.84c0,0,0.4,2.56,0.01,6.26c-0.18,1.75-0.54,3.75-1.2,5.86l-0.02-0.01
				c-14.86-12.12-51.04-22.48-51.04-22.48l-0.53-0.06c0.45-4.17,0.77-8.47,0.72-11.8c-0.02-1.15-0.08-2.18-0.19-3.06
				C437.12,1223.54,475.12,1232.32,489.37,1248.84z M446.14,1234.3c0.09-1.99-1.46-3.68-3.46-3.77c-2-0.09-3.69,1.46-3.78,3.45
				c-0.09,2,1.46,3.69,3.46,3.78C444.36,1237.85,446.05,1236.3,446.14,1234.3z"/>
			<path class="st0" d="M488.16,1260.95l0.02,0.01c-0.99,3.15-2.66,6.53-5.43,9.64c-1.12,1.27-2.43,2.49-3.95,3.64
				c0,0-26.9-14.73-44.27-20.67c0,0,0.49-2.88,1.05-6.95c0.34-2.43,0.71-5.29,1.02-8.21l0.53,0.06
				C437.12,1238.47,473.3,1248.83,488.16,1260.95z"/>
			<path class="st0" d="M456.11,1326.86c0,0-2.64,7.99-4.38,15.1c-1.25,5.09,1.85,10.93-4.66,8.6c-10.01-3.58-5.44-23.7-5.44-23.7
				c0.68-0.27,1.5-0.46,2.38-0.58c3.24-0.45,7.46-0.06,9.97,0.26C455.27,1326.72,456.11,1326.86,456.11,1326.86z"/>
			<path class="st1" d="M453.65,1317.53l0.37,8.64l-0.05,0.37c-2.51-0.32-6.73-0.71-9.97-0.26l-0.01-0.11l-0.43-6.88
				c2.27-0.04,4.49-0.4,6.45-0.87c1.34-0.32,2.56-0.68,3.6-1.03L453.65,1317.53z"/>
			<path class="st0" d="M457.14,1315.99c0,0-1.37,0.67-3.54,1.41c-1.03,0.35-2.26,0.72-3.6,1.03l-0.06-0.29
				c-0.25-9.93-7.6-23.85-7.6-23.85l-0.13-0.26c1.52-0.78,3.15-1.79,4.82-3.08c0.88-0.68,1.78-1.44,2.68-2.29
				C449.72,1288.65,456.5,1298.59,457.14,1315.99z"/>
			<path class="st0" d="M443.56,1319.29c-1.21,0.02-2.44-0.04-3.67-0.23c0,0-0.96-14.62-6.51-22.3c0,0,1.08-0.04,2.85-0.47
				c1.55-0.38,3.63-1.06,5.98-2.27l0.13,0.26c0,0,7.35,13.93,7.6,23.85l0.06,0.29C448.05,1318.9,445.84,1319.25,443.56,1319.29z"/>
			<path class="st1" d="M443.56,1279.88c0,0,3.83,8.8,3.48,11.06c-1.67,1.29-3.3,2.3-4.82,3.08c-2.35,1.21-4.43,1.89-5.98,2.27
				c-0.02-1.67-3.71-9.38-3.83-9.63c1.76-0.77,4.14-1.9,6.51-3.36C440.54,1282.31,442.16,1281.16,443.56,1279.88z"/>
			<path class="st0" d="M442.68,1230.53c1.99,0.09,3.54,1.78,3.46,3.77c-0.09,2-1.78,3.54-3.78,3.46c-2-0.09-3.54-1.78-3.46-3.78
				C439,1231.99,440.68,1230.45,442.68,1230.53z"/>
			<path class="st0" d="M446.66,1276.17c-0.77,1.33-1.85,2.57-3.1,3.71c-1.4,1.28-3.02,2.43-4.65,3.43l-0.15-0.24
				c-4.86-9.13-21.08-27.35-21.08-27.35l-0.02-0.25c2.91-0.25,5.81-0.46,8.72-0.63l0.01-0.01c0.04-0.14,0.51-1.98,1.09-5.12
				C427.48,1249.71,443.7,1269.74,446.66,1276.17z"/>
			<path class="st0" d="M432.41,1286.66c-1.68,0.72-2.79,1.12-2.79,1.12c-2.99-5.42-6.45-10.03-9.93-13.9
				c0.25-0.33,0.44-0.62,0.54-0.86c0.79-1.87-10.29-10.51-17.6-15.95c2.82-0.33,6.82-0.8,10.75-1.22c0.01,0,0.01,0,0.02,0
				c1.43-0.14,2.85-0.27,4.28-0.39l0.02,0.25c0,0,16.22,18.23,21.08,27.35l0.15,0.24C436.55,1284.76,434.17,1285.9,432.41,1286.66z"
				/>
			<path class="st1" d="M437.32,1226.61c0.05,3.34-0.27,7.63-0.72,11.8c-0.31,2.92-0.68,5.78-1.02,8.21c-2.34-0.6-7.35-0.03-7.57,0
				c0.47-3.03,0.94-6.8,1.25-11.1c0.2-2.77,0.33-5.75,0.34-8.91h7.52H437.32z"/>
			<path class="st0" d="M429.61,1226.61c-0.02,3.16-0.15,6.14-0.34,8.91c-16.6-5.58-59.27-3.09-59.27-3.09v0.01
				c-5.89-2.05-13.84-2.05-24.59,1.71c-11.88,1.23-62.93,20.06-62.93,20.06c-2.07-7.76-2.96-15.16-3.34-20.09
				c-0.29-3.71-0.29-6.02-0.29-6.02l45.4-19.12c78.26-2.09,104.84,5.08,104.84,5.08C429.48,1218.46,429.63,1222.67,429.61,1226.61z"
				/>
			<path class="st0" d="M424.71,1286.66c4.24,3.99,4.33,21.95,4.33,21.95c-1.02-0.09-2.17-0.11-3.36-0.08
				c-1.06,0.02-2.14,0.08-3.18,0.15l-0.02-0.3c-0.31-6.23-4.24-18.04-4.24-18.04l-0.11-0.26c2.02-0.82,3.83-1.79,5.03-2.48
				C424.13,1287.04,424.71,1286.66,424.71,1286.66z"/>
			<path class="st0" d="M428.01,1246.62c-0.18,1.14-0.36,2.17-0.53,3.09v0.01l-1.09,5.12l-0.01,0.01c-0.99-0.2-6.89,0.35-13,1.01
				c-0.01,0-0.02,0-0.02,0c-3.61,0.34-7.21,0.75-10.79,1.19c-3.51-2.61-6.14-4.48-6.14-4.48l-10.11,2.75
				c-1.02-6.44-4.5-18.78-16.34-22.88v-0.01c0,0,42.67-2.49,59.27,3.09C428.95,1239.82,428.48,1243.58,428.01,1246.62z
				 M394.83,1241.64c0.09-1.99-1.46-3.68-3.46-3.78c-1.99-0.09-3.68,1.46-3.77,3.45c-0.09,2,1.46,3.69,3.45,3.78
				C393.05,1245.18,394.74,1243.63,394.83,1241.64z"/>
			<path class="st0" d="M426.4,1254.83l1.09-5.12C426.91,1252.85,426.43,1254.69,426.4,1254.83z"/>
			<path class="st0" d="M413.4,1255.85c6.1-0.66,12.01-1.21,13-1.01c-2.91,0.17-5.81,0.38-8.72,0.63
				C416.25,1255.58,414.82,1255.71,413.4,1255.85z"/>
			<path class="st1" d="M425.68,1308.53c0,0,0.03,5.94-0.71,8.09c-1.58-0.2-4.13-0.47-6.47-0.38v-0.01c0.66-1.33,0-7.18,0-7.18
				c1.11-0.12,2.51-0.26,3.99-0.37C423.54,1308.6,424.63,1308.54,425.68,1308.53z"/>
			<path class="st0" d="M426.54,1316.84c0,0-2.15,6.5-3.57,12.29c-1.02,4.13,1.51,8.89-3.79,7c-8.16-2.92-4.43-19.29-4.43-19.29
				c1-0.39,2.34-0.57,3.76-0.61c2.34-0.09,4.88,0.18,6.47,0.38C425.94,1316.74,426.54,1316.84,426.54,1316.84z"/>
			<path class="st0" d="M422.49,1308.38l0.02,0.3c-1.48,0.11-2.88,0.25-3.99,0.37c-1.47,0.17-2.44,0.31-2.44,0.31
				c-0.16-8.73-5.73-17.71-5.73-17.71c0.89,0.09,1.83,0.04,2.79-0.11c1.68-0.26,3.41-0.81,5.02-1.46l0.11,0.26
				C418.25,1290.34,422.18,1302.15,422.49,1308.38z"/>
			<path class="st1" d="M417.1,1276.55c0,0,5.72,9.42,6.07,11.05c-1.2,0.7-3.01,1.66-5.03,2.48c-1.6,0.64-3.34,1.2-5.02,1.46v-0.01
				c-0.04-1.17-4.51-7.61-4.69-7.86C410.55,1282.04,414.37,1279.06,417.1,1276.55z"/>
			<path class="st0" d="M402.62,1257.07c7.31,5.44,18.39,14.08,17.6,15.95c-0.1,0.24-0.29,0.53-0.54,0.86
				c-10.32-11.44-20.95-16.34-20.95-16.34s0.05-0.01,0.14-0.02C399.31,1257.47,400.69,1257.3,402.62,1257.07z"/>
			<path class="st0" d="M408.43,1283.67c-0.97,0.74-1.58,1.2-1.58,1.2c-1.77-3.86-9.43-12.08-9.43-12.08
				c-4.73,7.37-8.93,13.58-12.65,18.81c-0.28-1.37-0.61-2.68-0.68-2.95c-0.01-0.04-0.01-0.05-0.01-0.05s3.55-2.18,1.77-6.33
				c-3.58-8.32-6.52-16.09-6.94-21.24l7.8-1.71l0.03-0.01c3.95-0.64,7.96-1.23,12-1.78c0,0,10.62,4.9,20.95,16.34
				c-0.57,0.74-1.49,1.67-2.58,2.67C414.37,1279.06,410.55,1282.04,408.43,1283.67z"/>
			<path class="st0" d="M408.63,1332.28c0,0,12.56,19.47,6.39,33.08c-2.81,6.17-6.77,8.13-10.27,8.41l-0.06-0.99
				c4.7-26.76-4.82-34.15-4.82-34.15l-0.32-0.49l6.72-4.33L408.63,1332.28z"/>
			<path class="st1" d="M406.27,1333.81l-6.72,4.33l-7.24,4.68c-0.7-1.46-5.07-8.12-5.23-8.37c1.79-0.86,4.19-2.3,7.37-4.72
				c1.88-1.43,4.03-3.2,6.48-5.4C401.05,1324.58,404.48,1331.2,406.27,1333.81z"/>
			<path class="st0" d="M399.87,1338.63c0,0,9.52,7.38,4.82,34.15l0.06,0.99c-4.21,0.34-7.74-1.71-7.74-1.71
				c1.57-21.04-6.38-28.16-6.38-28.16l1.68-1.08l7.24-4.68L399.87,1338.63z"/>
			<path class="st0" d="M402.58,1257.05c0.01,0.01,0.03,0.02,0.04,0.03c-1.93,0.23-3.31,0.4-3.74,0.45
				C400.11,1257.36,401.35,1257.2,402.58,1257.05z"/>
			<path class="st0" d="M393.08,1297.25c6.38,12.41,12.51,22.72,12.51,22.72c-1.67,1.61-3.22,3.05-4.67,4.34c0,0,0,0,0,0.01
				c-2.45,2.19-4.6,3.96-6.48,5.4l-0.28-0.37c-6.74-8.92-12.66-18.13-17.66-26.7c1.63-2.05,3.39-4.36,5.29-6.94
				c2.03-0.36,3.26-0.48,3.37-0.75C390.93,1294.4,393.08,1297.25,393.08,1297.25z"/>
			<path class="st0" d="M402.58,1257.05c-1.23,0.15-2.47,0.32-3.7,0.48c-0.09,0.01-0.14,0.02-0.14,0.02
				c-4.04,0.54-8.04,1.14-12,1.78c0,0-0.04-1.58-0.42-4l10.11-2.75C396.44,1252.57,399.07,1254.43,402.58,1257.05z"/>
			<path class="st0" d="M391.37,1237.86c2,0.09,3.54,1.78,3.46,3.78c-0.09,1.99-1.78,3.54-3.78,3.46c-1.99-0.09-3.54-1.78-3.45-3.78
				C387.69,1239.32,389.38,1237.77,391.37,1237.86z"/>
			<path class="st0" d="M387.08,1334.45c-3.39,1.62-4.55,1.12-4.55,1.12c-6.9-6.99-12.89-13.62-18.07-19.78
				c2.84-2.43,6.76-6.45,12.05-13.13c5,8.56,10.92,17.78,17.66,26.7l0.28,0.37C391.27,1332.14,388.87,1333.59,387.08,1334.45z"/>
			<path class="st1" d="M386.74,1259.32l-0.03,0.01c-3.39,0.55-6.74,1.13-10.04,1.73c1.07-2.24,1.69-3.58,1.69-3.58l7.97-2.16
				C386.71,1257.74,386.74,1259.32,386.74,1259.32z"/>
			<path class="st1" d="M386.71,1259.33l-7.8,1.71c0-0.03-0.01-0.05-0.01-0.08c-0.56,0-1.33,0.06-2.28,0.19
				c0.01-0.03,0.02-0.06,0.04-0.08C379.97,1260.45,383.32,1259.88,386.71,1259.33z"/>
			<path class="st1" d="M386.33,1255.32l-7.97,2.16c0,0-0.62,1.34-1.69,3.58c-0.54,0.11-1.09,0.2-1.64,0.31
				c-0.01,0-0.02,0-0.04,0.01c-3.68,0.57-9.01,1.68-14.6,2.95c-0.08,0.02-0.17,0.04-0.26,0.05c-9.27,2.01-17.89,4.13-25.59,6.17
				c-0.08,0.02-0.11,0.03-0.11,0.03c-1.3,0.34-2.57,0.68-3.81,1.02l-0.04,0.01c0,0-25.7-23.26,14.81-37.45
				c10.75-3.76,18.7-3.76,24.59-1.71C381.83,1236.53,385.31,1248.88,386.33,1255.32z"/>
			<path class="st0" d="M385.85,1282.28c1.78,4.14-1.77,6.33-1.77,6.33c-3.76-0.46-9,1.03-13.76,2.96
				c-1.74-3.27-3.31-6.35-4.69-9.17c4.51-8.02,8.52-16.11,10.79-20.82l2.5-0.54C379.33,1266.19,382.27,1273.96,385.85,1282.28z"/>
			<path class="st1" d="M384.77,1291.6c0.3,1.45,0.55,2.96,0.39,3.36l-0.53-3.16C384.67,1291.74,384.72,1291.67,384.77,1291.6z"/>
			<path class="st1" d="M384.63,1291.81l0.53,3.16c-0.11,0.27-1.34,0.4-3.37,0.75C382.7,1294.48,383.64,1293.17,384.63,1291.81z"/>
			<path class="st1" d="M384.77,1291.6c-0.05,0.07-0.1,0.13-0.15,0.2l-0.53-3.15C384.17,1288.92,384.49,1290.23,384.77,1291.6z"/>
			<path class="st1" d="M384.1,1288.66l0.53,3.15c-0.98,1.37-1.92,2.67-2.84,3.91c-2,0.34-4.78,0.93-8.04,2.11
				c-1.2-2.15-2.34-4.24-3.43-6.27c4.76-1.93,10-3.41,13.76-2.96L384.1,1288.66z"/>
			<path class="st1" d="M384.1,1288.66l-0.01-0.05C384.08,1288.6,384.09,1288.62,384.1,1288.66z"/>
			<path class="st0" d="M378.91,1260.95c0,0.03,0.01,0.05,0.01,0.08l-2.5,0.54c0.08-0.15,0.15-0.3,0.22-0.44
				C377.58,1261.02,378.35,1260.95,378.91,1260.95z"/>
			<path class="st0" d="M373.75,1297.83c3.26-1.18,6.04-1.77,8.04-2.11c-1.9,2.58-3.66,4.89-5.29,6.94
				C375.55,1301.02,374.63,1299.41,373.75,1297.83z"/>
			<path class="st1" d="M376.67,1261.06c-0.02,0.02-0.03,0.05-0.04,0.08c-0.49,0.06-1.02,0.13-1.6,0.23
				C375.58,1261.26,376.13,1261.16,376.67,1261.06z"/>
			<path class="st0" d="M357.96,1265.61l-23.46,5.13c-0.05-0.12-0.07-0.18-0.07-0.18s0.04-0.01,0.11-0.03
				c1.29-0.33,13.97-3.55,25.59-6.17c0.09-0.02,0.18-0.04,0.26-0.05c4.72-1.02,9.6-2.01,14.6-2.95c0.01-0.01,0.02-0.01,0.04-0.01
				c0.57-0.09,1.11-0.17,1.6-0.23c-0.07,0.14-0.14,0.29-0.22,0.44L357.96,1265.61z"/>
			<path class="st0" d="M357.96,1265.61l18.45-4.03c-2.26,4.71-6.28,12.8-10.79,20.82C361.13,1273.3,358.5,1266.92,357.96,1265.61z"
				/>
			<path class="st0" d="M373.75,1297.83c0.88,1.58,1.81,3.19,2.75,4.83c-5.29,6.68-9.21,10.7-12.05,13.13
				c-4.33-5.14-8.1-9.96-11.35-14.39c3.95-4.51,8.44-11.72,12.53-19c1.39,2.82,2.96,5.9,4.69,9.17c-6.43,2.59-12.02,5.98-12.02,6.44
				c0,0.81,3.8,6.05,3.8,6.05C366.29,1301.01,370.29,1299.08,373.75,1297.83z"/>
			<path class="st1" d="M370.32,1291.56c1.08,2.02,2.22,4.12,3.43,6.27c-3.46,1.25-7.46,3.18-11.65,6.23c0,0-3.8-5.24-3.8-6.05
				C358.3,1297.54,363.89,1294.15,370.32,1291.56z"/>
			<path class="st0" d="M375,1261.37c-5,0.94-9.89,1.92-14.6,2.95C365.99,1263.06,371.32,1261.94,375,1261.37z"/>
			<path class="st0" d="M364.45,1315.79c-5.07,4.32-6.72,3.54-6.72,3.54c-0.49-0.3-0.96-0.63-1.41-0.98
				c-3.23-2.48-5.42-5.93-6.75-8.58c-1.15-2.3-1.67-4.01-1.67-4.01c1.54-0.64,3.3-2.19,5.2-4.36
				C356.36,1305.83,360.12,1310.64,364.45,1315.79z"/>
			<path class="st0" d="M357.96,1265.61c0.53,1.31,3.17,7.69,7.66,16.78c-4.09,7.28-8.58,14.49-12.53,19
				c-12.96-17.6-17.95-29.11-18.6-30.65L357.96,1265.61z"/>
			<path class="st1" d="M360.14,1264.37c-11.62,2.62-24.3,5.84-25.59,6.17C342.24,1268.5,350.87,1266.38,360.14,1264.37z"/>
			<path class="st1" d="M349.57,1309.77c1.33,2.65,3.52,6.1,6.75,8.58c-2.22,2.7-13.1,5.64-13.1,5.64v-12.1
				C343.23,1311.89,346.77,1311.19,349.57,1309.77z"/>
			<path class="st0" d="M343.23,1323.99v2.32c0,0-14.25,4.39-22.07,2.68c0,0,3.32-19.4,22.07-19.72v2.62V1323.99z"/>
			<path class="st1" d="M334.5,1270.74l-3.88,0.84c1.24-0.33,2.51-0.67,3.81-1.02C334.43,1270.57,334.46,1270.63,334.5,1270.74z"/>
			<path class="st0" d="M345.39,1234.15c-40.51,14.19-14.81,37.45-14.81,37.45c-19.86,5.41-32.63,9.98-32.63,9.98
				c-1.92-1.56-3.64-3.34-5.19-5.28c-5.04-6.32-8.25-14.38-10.31-22.08C282.46,1254.21,333.52,1235.38,345.39,1234.15z
				 M303.57,1259.2c0.09-2-1.46-3.69-3.46-3.78s-3.69,1.46-3.78,3.46c-0.09,1.99,1.46,3.68,3.46,3.77
				C301.79,1262.74,303.48,1261.19,303.57,1259.2z"/>
			<path class="st0" d="M300.11,1255.42c1.99,0.09,3.54,1.78,3.46,3.78c-0.09,1.99-1.78,3.54-3.78,3.45
				c-1.99-0.09-3.54-1.78-3.46-3.77C296.42,1256.88,298.12,1255.33,300.11,1255.42z"/>
			<path class="st1" d="M292.77,1276.29c-7.43,2.84-14.68,8.58-14.68,8.58c-2.27-4.57-5.82-12.49-8.55-22.21
				c-2.17-7.73-3.82-16.6-3.91-25.82c0,0,7.4-2.51,13.21-2.68l0.29-0.02c0.38,4.93,1.27,12.33,3.34,20.09
				C284.51,1261.92,287.73,1269.97,292.77,1276.29z"/>
			<path class="st0" d="M278.09,1284.87c1.36,2.74,2.26,4.27,2.26,4.27c-86.84,56.72-174.69,91.47-174.69,91.47v-26.97
				c0,0,29.65-13.43,60-33.5c0,0,2.16-9.45-1.16-15.43c0,0-0.33-1.09-0.92-2.67c0,0,70.19-34.57,105.95-39.39
				C272.27,1272.37,275.81,1280.3,278.09,1284.87z"/>
			<path class="st0" d="M265.79,1230.9c-0.13,1.99-0.18,3.96-0.16,5.93c0.09,9.23,1.74,18.09,3.91,25.82
				c-35.76,4.82-105.95,39.39-105.95,39.39c-1.47-3.97-4.55-10.98-7.87-11.1l-50.05,22.3v-40.68
				C121.72,1261.52,265.79,1230.9,265.79,1230.9z M185.52,1285.62c0.09-1.99-1.46-3.68-3.46-3.77c-2-0.09-3.69,1.46-3.78,3.45
				c-0.09,1.99,1.46,3.68,3.46,3.77C183.73,1289.16,185.42,1287.62,185.52,1285.62z M173.84,1290.95c0-2-1.62-3.62-3.62-3.62
				c-1.99,0-3.61,1.62-3.61,3.62c0,1.99,1.62,3.61,3.61,3.61C172.22,1294.56,173.84,1292.94,173.84,1290.95z"/>
			<path class="st0" d="M182.06,1281.85c1.99,0.09,3.54,1.78,3.46,3.77c-0.09,2-1.78,3.54-3.78,3.46c-1.99-0.09-3.54-1.78-3.46-3.77
				C178.37,1283.31,180.06,1281.76,182.06,1281.85z"/>
			<path class="st0" d="M170.22,1287.33c2,0,3.62,1.62,3.62,3.62c0,1.99-1.62,3.61-3.62,3.61c-1.99,0-3.61-1.62-3.61-3.61
				C166.6,1288.95,168.22,1287.33,170.22,1287.33z"/>
			<path class="st2" d="M164.51,1304.71c3.31,5.97,1.16,15.43,1.16,15.43c-30.35,20.07-60,33.5-60,33.5v-18.08L164.51,1304.71z"/>
			<path class="st3" d="M164.51,1304.71l-58.85,30.85v-22.31l50.05-22.3c3.33,0.12,6.4,7.13,7.87,11.1
				C164.17,1303.62,164.51,1304.71,164.51,1304.71z"/>
		</g>
		<g>
			<path class="st4" d="M265.63,1236.83c0,0,7.4-2.51,13.21-2.68"/>
			<path class="st4" d="M278.09,1284.87c0,0,7.25-5.74,14.68-8.58"/>
			<path class="st4" d="M173.84,1290.95c0,1.99-1.62,3.61-3.62,3.61c-1.99,0-3.61-1.62-3.61-3.61c0-2,1.62-3.62,3.61-3.62
				C172.22,1287.33,173.84,1288.95,173.84,1290.95z"/>
			<path class="st4" d="M185.52,1285.62c-0.09,2-1.78,3.54-3.78,3.46c-1.99-0.09-3.54-1.78-3.46-3.77c0.09-2,1.78-3.54,3.78-3.45
				C184.05,1281.94,185.6,1283.63,185.52,1285.62z"/>
			<path class="st5" d="M163.59,1302.04c0,0,70.19-34.57,105.95-39.39"/>
			<path class="st5" d="M282.46,1254.21c0,0,51.05-18.83,62.93-20.06"/>
			<path class="st5" d="M369.99,1232.43c0,0,42.67-2.49,59.27,3.09"/>
			<path class="st5" d="M373.75,1297.83c0.88,1.58,1.81,3.19,2.75,4.83c5,8.56,10.92,17.78,17.66,26.7"/>
			<path class="st5" d="M357.86,1265.36c0,0,0.04,0.09,0.1,0.25c0.53,1.31,3.17,7.69,7.66,16.78c1.39,2.82,2.96,5.9,4.69,9.17"/>
			<path class="st6" d="M418.25,1290.34c0,0,3.93,11.81,4.24,18.04"/>
			<path class="st4" d="M482.75,1270.6c0,0,4.63,1.6,6.59,4.38"/>
			<path class="st4" d="M489.39,1255.1c0,0,3.83,1.64,7.11,2.92"/>
			<path class="st5" d="M437.12,1238.47c0,0,36.18,10.36,51.04,22.48"/>
			<path class="st5" d="M494.73,1265.87c0,0,0.05,0.04,0.13,0.11c1.58,1.19,16.78,12.83,21.71,20.48"/>
			<polyline class="st4" points="443.99,1326.18 443.56,1319.29 443.56,1319.27 			"/>
			<line class="st4" x1="454.02" y1="1326.18" x2="453.65" y2="1317.53"/>
			<path class="st7" d="M520.42,1293.68c0,0,9.24,16.36,9.62,18.57"/>
			<path class="st4" d="M303.57,1259.2c-0.09,1.99-1.78,3.54-3.78,3.45c-1.99-0.09-3.54-1.78-3.46-3.77c0.09-2,1.78-3.54,3.78-3.46
				S303.65,1257.2,303.57,1259.2z"/>
			<path class="st4" d="M394.83,1241.64c-0.09,1.99-1.78,3.54-3.78,3.46c-1.99-0.09-3.54-1.78-3.45-3.78
				c0.09-1.99,1.78-3.54,3.77-3.45C393.37,1237.95,394.92,1239.64,394.83,1241.64z"/>
			<path class="st4" d="M446.14,1234.3c-0.09,2-1.78,3.54-3.78,3.46c-2-0.09-3.54-1.78-3.46-3.78c0.09-1.99,1.78-3.54,3.78-3.45
				C444.68,1230.62,446.23,1232.31,446.14,1234.3z"/>
			<path class="st4" d="M428,1246.62C428,1246.62,428,1246.62,428,1246.62c0.23-0.03,5.23-0.6,7.58,0"/>
			<polyline class="st4" points="429.26,1226.61 429.61,1226.61 437.12,1226.61 			"/>
			<path class="st4" d="M513.09,1289.72c0,0,3.31,5.68,3.48,6.52"/>
			<path class="st4" d="M519.41,1283.06c0,0,3.53,5.45,4.05,7.01"/>
			<path class="st4" d="M387.07,1334.44C387.07,1334.44,387.07,1334.44,387.07,1334.44c0.17,0.26,4.54,6.92,5.24,8.38"/>
			<path class="st4" d="M400.92,1324.33c0.13,0.25,3.56,6.87,5.35,9.48"/>
			<path class="st4" d="M408.43,1283.66C408.43,1283.66,408.43,1283.66,408.43,1283.66c0.18,0.26,4.65,6.7,4.69,7.87"/>
			<path class="st4" d="M417.1,1276.55c0,0,5.72,9.42,6.07,11.05"/>
			<path class="st4" d="M418.51,1309.05c0,0,0.66,5.85,0,7.18"/>
			<path class="st4" d="M425.68,1308.53c0,0,0.03,5.94-0.71,8.09"/>
			<path class="st4" d="M432.41,1286.66C432.41,1286.66,432.41,1286.66,432.41,1286.66c0.12,0.26,3.81,7.97,3.83,9.63"/>
			<path class="st4" d="M443.56,1279.88c0,0,3.83,8.8,3.48,11.06"/>
			<path class="st4" d="M343.23,1311.89c0,0,3.54-0.7,6.34-2.12"/>
			<path class="st4" d="M343.23,1323.99c0,0,10.88-2.94,13.1-5.64"/>
			<path class="st5" d="M324.56,1322.73c0,0,7.97-4.33,16.89-3.35"/>
			<path class="st5" d="M399.87,1338.63c0,0,9.52,7.38,4.82,34.15"/>
			<path class="st6" d="M420.75,1318.29c0,0-4.61,6.41-4.02,11.07"/>
			<path class="st6" d="M447.82,1327.4c0,0-4.09,10.87-2.51,19.2"/>
			<path class="st6" d="M442.35,1294.29c0,0,7.35,13.93,7.6,23.85"/>
			<path class="st6" d="M417.69,1255.71c0,0,16.22,18.23,21.08,27.35"/>
		</g>
	</g>
</g>
<g id="Calque_3">
	<path class="st8" d="M933.17,1317.74c0,0-74.8,13.57-100.69,2.26c0,0-42.48-3.02-66.61-15.08c0,0-2.26-3.52-37.7-1.76
		c0,0-16.59-9.55-77.41-17.59c0,0-38.96,13.32-53.29,13.07c0,0-28.4,11.56-39.71,11.06c0,0-5.03,10.31,7.79,16.34
		c0,0,8.52,4.09,35.65-7.14c0,0,25.63-1.42,54.01-2.99c0,0,14.4,5.35,21.94,5.6c7.54,0.25-31.92,39.46-43.73,44.99
		c0,0-6.03,42.23-18.6,57.56c0,0,7.54,6.54,18.6-2.26c0,0,9.8-9.3,12.32-16.59l2.76,0.25c0,0,6.03,29.66,6.03,34.18
		c0,0,11.81,5.03,16.09-9.8s-2.51-31.92-2.51-31.92s5.03-8.8,12.06-12.57c0,0,12.47-0.66,16.65,1.9c0,0,16.66-11.78,38.62-22.67
		c8.62-1.11,20.8-1.47,30.03-4.4c10-3.17,18.36-7.98,30.09-10.63c51.06,7.19,137.62,0.95,137.62,0.95"/>
	<path class="st9" d="M933.17,1349.48l-140.07-2.13c0,0-26.29,17.85-65.68,16.86c0,0-21.01,21.99-38.24,21.17
		c0,0-8.53,12.47-7.22,17.4c1.31,4.92,6.89,17.56,15.1,28.56c0,0,6.73,1.48,4.76-13.46c-1.97-14.94,6.57-24.46,6.57-24.46
		s13.13-22.16,20.19-24.95c0,0,24.27,17.45,77.93-9.38c0,0,58.56,37.85,126.67,51.27V1349.48z"/>
	<path class="st9" d="M644.58,1404.16c0,0,2.61-21.74,9.57-27.54c6.96-5.8,33.48-15.8,40.15-28.7c0,0-16.23-24.64-15.65-27.25
		c0.58-2.61,9.86-3.04,21.16,3.48s15.8,10.29,15.8,10.29l3.91-2.46c0,0,0.72,2.46-1.88,5.07c-2.61,2.61-14.35,24.49-31.02,29.28
		c-16.67,4.78-29.13,16.52-29.13,16.52s-6.67,10.44-8.99,21.31C646.47,1405.76,644.58,1404.16,644.58,1404.16z"/>
	<path class="st9" d="M558.92,1320.94c0,0,26.84,1.41,39.15-6.78c0,0,28.78,3.9,56.93-3.4c0,0,18.22,8.8,29.29,8.39
		c2.2,1.09-6.34,2.71-6.34,2.71s-10.74-1.13-22.74-5.95l-54.01,2.99c0,0-21.48,10.42-35.24,7.29
		C561.78,1325.06,558.92,1320.94,558.92,1320.94z"/>
	<path class="st0" d="M557.71,1308.98c0,0,7.5-5.31,26.17-4.57C583.88,1304.4,579.67,1311.08,557.71,1308.98z"/>
	<path class="st0" d="M621.56,1408.46c0,0,5.58,2.53,3.92,6.19s-6.19,10.37-11.24,10.28
		C609.19,1424.84,621.56,1408.46,621.56,1408.46z"/>
	<path class="st0" d="M685.9,1367.82c0,0,5.66,6.52,6.58,7.2c0.92,0.68-8.86,6.52-15.68,4.74c-6.83-1.78-1.97-7.32-1.97-7.32
		S683.07,1367.88,685.9,1367.82z"/>
</g>
</svg>
