<?xml version="1.0" encoding="utf-8"?>
<!-- Generator: Adobe Illustrator 23.0.1, SVG Export Plug-In . SVG Version: 6.00 Build 0)  -->
<svg version="1.1" xmlns="http://www.w3.org/2000/svg" xmlns:xlink="http://www.w3.org/1999/xlink" x="0px" y="0px"
	 viewBox="0 0 1000 1000" style="enable-background:new 0 0 1000 1000;" xml:space="preserve">
<style type="text/css">
	.st0{fill:url(#SVGID_1_);}
	.st1{fill:#153242;}
	.st2{fill:#FFED00;}
	.st3{fill:#FFFFFF;}
	.st4{fill:#16135B;}
	.st5{fill:#ADADAD;}
	.st6{fill:#FAFAFF;}
	.st7{fill:#F6F6F6;}
	.st8{opacity:0.17;}
	.st9{fill:url(#SVGID_2_);}
	.st10{fill:#0044ED;}
	.st11{fill:url(#SVGID_3_);}
	.st12{fill:url(#SVGID_4_);}
	.st13{fill:url(#SVGID_5_);}
	.st14{fill:url(#SVGID_6_);}
	.st15{fill:url(#SVGID_7_);}
	.st16{fill:url(#SVGID_8_);}
	.st17{fill:url(#SVGID_9_);}
	.st18{fill:url(#SVGID_10_);}
	.st19{fill:url(#SVGID_11_);}
	.st20{fill:#DDBCA6;}
	.st21{fill:#F7CEB1;}
	.st22{fill:#84653C;}
	.st23{fill:#D59589;}
	.st24{fill:#212127;}
	.st25{opacity:0.1;fill:#161211;}
	.st26{fill:#040404;}
	.st27{fill:#2F2421;}
	.st28{fill:#161211;}
	.st29{fill:#242A32;}
	.st30{fill:#7A5440;}
	.st31{fill:#F9D4D6;}
	.st32{fill:#EFBABA;}
	.st33{fill:#FACCB1;}
	.st34{fill-rule:evenodd;clip-rule:evenodd;fill:#D7282B;}
	.st35{fill-rule:evenodd;clip-rule:evenodd;fill:#46AC44;}
	.st36{fill-rule:evenodd;clip-rule:evenodd;fill:#5D7FBE;}
	.st37{fill-rule:evenodd;clip-rule:evenodd;fill:#F3C300;}
	.st38{opacity:0.05;}
</style>
<g id="Calque_5">
	<linearGradient id="SVGID_1_" gradientUnits="userSpaceOnUse" x1="135.3563" y1="88.3943" x2="147.3086" y2="88.3943">
		<stop  offset="0" style="stop-color:#5F3189"/>
		<stop  offset="1" style="stop-color:#A14C97"/>
	</linearGradient>
	<circle class="st0" cx="141.33" cy="88.39" r="5.98"/>
</g>
<g id="Calque_1">
	
		<image style="display:none;overflow:visible;" width="1000" height="1080" xlink:href="1928D4DA.jpg"  transform="matrix(1 0 0 1 0 -40)">
	</image>
</g>
<g id="Satellitte">
	<circle class="st1" cx="184.36" cy="683.59" r="2.81"/>
	
		<rect x="178.51" y="681.29" transform="matrix(-0.9272 -0.3746 0.3746 -0.9272 92.2419 1381.5941)" class="st1" width="3.77" height="1.09"/>
	<path class="st2" d="M128.2,636.73l41.44,21.44c2.26,1.17,3.15,3.95,1.98,6.22l-8.99,17.37c-1.17,2.26-3.95,3.15-6.22,1.98
		l-41.44-21.44c-2.26-1.17-3.15-3.95-1.98-6.22l8.99-17.37C123.16,636.44,125.94,635.56,128.2,636.73z"/>
	<path class="st3" d="M131.73,645.22l16.13,8.34c2.26,1.17,3.15,3.95,1.98,6.22l-3.9,7.54c-1.17,2.26-3.95,3.15-6.22,1.98
		l-16.13-8.34c-2.26-1.17-3.15-3.95-1.98-6.22l3.9-7.54C126.69,644.93,129.47,644.05,131.73,645.22z"/>
	<path class="st4" d="M139.67,634.05l33.74-61.01c1.23-2.23,4.04-3.04,6.27-1.8l17.91,9.9c2.23,1.23,3.04,4.04,1.8,6.27
		l-33.74,61.01c-1.23,2.23-4.04,3.04-6.27,1.8l-17.91-9.9C139.24,639.09,138.44,636.28,139.67,634.05z"/>
	<path class="st4" d="M187.69,665.28l-18.06,32.02C169.64,697.3,155.41,668.75,187.69,665.28z"/>
	<polygon class="st5" points="189.28,576.54 187.8,575.73 149.32,644.66 150.79,645.48 	"/>
	<polygon class="st5" points="145.54,623.45 172.09,636.76 171.4,638.02 144.84,624.71 	"/>
	<polygon class="st5" points="152.94,610.05 179.5,623.37 178.81,624.63 152.25,611.31 	"/>
	<polygon class="st5" points="160.53,596.33 187.09,609.65 186.39,610.91 159.83,597.59 	"/>
	<polygon class="st5" points="167.46,583.79 194.02,597.11 193.33,598.37 166.77,585.05 	"/>
	<path class="st4" d="M84.83,732.74l31.42-62.24c1.15-2.27,3.92-3.19,6.2-2.04l18.27,9.22c2.27,1.15,3.19,3.92,2.04,6.2
		l-31.42,62.24c-1.15,2.27-3.92,3.19-6.2,2.04l-18.27-9.22C84.59,737.79,83.68,735.02,84.83,732.74z"/>
	<polygon class="st5" points="132.24,673.41 130.73,672.65 94.87,742.98 96.37,743.74 	"/>
	<polygon class="st5" points="279.1,562.4 293.38,568.89 293.03,569.57 278.76,563.07 	"/>
	<polygon class="st5" points="282.74,555.18 297.02,561.68 296.68,562.36 282.4,555.86 	"/>
	<polygon class="st5" points="104.25,694.26 131.29,706.57 130.65,707.85 103.6,695.55 	"/>
	<polygon class="st5" points="110.71,681.47 137.75,693.78 137.1,695.06 110.06,682.75 	"/>
	
		<rect x="454.6" y="557.91" transform="matrix(-0.9903 0.1392 -0.1392 -0.9903 990.6561 1048.1246)" class="st6" width="8.17" height="1.58"/>
	
		<rect x="439.29" y="559.2" transform="matrix(-0.9954 0.0961 -0.0961 -0.9954 938.5289 1074.7697)" class="st6" width="8.17" height="1.58"/>
	
		<rect x="424.32" y="559.57" transform="matrix(-0.9986 0.0528 -0.0528 -0.9986 885.8066 1097.297)" class="st6" width="8.17" height="1.58"/>
	
		<rect x="408.39" y="559.06" transform="matrix(-0.9999 -0.0121 0.0121 -0.9999 818.1444 1124.6445)" class="st6" width="8.17" height="1.58"/>
	
		<rect x="393.38" y="557.79" transform="matrix(-0.9949 -0.1007 0.1007 -0.9949 736.6469 1154.3489)" class="st6" width="8.17" height="1.58"/>
	
		<rect x="377.95" y="556.23" transform="matrix(-0.9949 -0.1007 0.1007 -0.9949 706.0275 1149.6801)" class="st6" width="8.17" height="1.58"/>
	
		<rect x="249.35" y="705.11" transform="matrix(-0.9787 -0.2054 0.2054 -0.9787 363.5517 1450.9342)" class="st6" width="15.47" height="2.99"/>
	
		<rect x="221.42" y="698.61" transform="matrix(-0.9666 -0.2564 0.2564 -0.9666 271.1578 1435.5542)" class="st6" width="15.47" height="2.99"/>
	
		<rect x="96.82" y="628.22" transform="matrix(-0.6157 -0.788 0.788 -0.6157 -327.2936 1099.798)" class="st6" width="15.47" height="2.99"/>
	
		<rect x="80.24" y="603.44" transform="matrix(-0.4986 -0.8668 0.8668 -0.4986 -392.5082 982.8377)" class="st6" width="15.47" height="2.99"/>
	
		<rect x="69.64" y="576.53" transform="matrix(-0.2692 -0.9631 0.9631 -0.2692 -458.4841 808.1181)" class="st6" width="15.47" height="2.99"/>
	
		<rect x="66.23" y="548.39" transform="matrix(0.0186 -0.9998 0.9998 0.0186 -477.1989 613.6071)" class="st6" width="15.47" height="2.99"/>
	
		<rect x="68.58" y="518.86" transform="matrix(0.2594 -0.9658 0.9658 0.2594 -446.0286 459.0798)" class="st6" width="15.47" height="2.99"/>
	
		<rect x="76.86" y="491.41" transform="matrix(0.3746 -0.9272 0.9272 0.3746 -404.1023 386.6949)" class="st6" width="15.47" height="2.99"/>
	
		<rect x="89.28" y="465.01" transform="matrix(0.5304 -0.8478 0.8478 0.5304 -349.9185 301.3148)" class="st6" width="15.47" height="2.99"/>
	
		<rect x="104.78" y="440.96" transform="matrix(0.5304 -0.8478 0.8478 0.5304 -322.2546 303.1594)" class="st6" width="15.47" height="2.99"/>
	
		<rect x="123.31" y="418.39" transform="matrix(0.6048 -0.7964 0.7964 0.6048 -282.5954 270.3009)" class="st6" width="15.47" height="2.99"/>
	
		<rect x="143.52" y="397.4" transform="matrix(0.6808 -0.7325 0.7325 0.6808 -243.9069 238.1393)" class="st6" width="15.47" height="2.99"/>
	
		<rect x="164.52" y="377.31" transform="matrix(0.7536 -0.6573 0.6573 0.7536 -206.5582 206.5681)" class="st6" width="15.47" height="2.99"/>
	
		<rect x="186.99" y="359.3" transform="matrix(0.788 -0.6157 0.6157 0.788 -180.8468 196.3676)" class="st6" width="15.47" height="2.99"/>
	
		<rect x="210.52" y="342.55" transform="matrix(0.8127 -0.5827 0.5827 0.8127 -159.587 191.6161)" class="st6" width="15.47" height="2.99"/>
	
		<rect x="234.85" y="326.69" transform="matrix(0.8491 -0.5282 0.5282 0.8491 -136.7486 177.6571)" class="st6" width="15.47" height="2.99"/>
	
		<rect x="260.38" y="312.15" transform="matrix(0.8718 -0.4899 0.4899 0.8718 -119.2795 171.5789)" class="st6" width="15.47" height="2.99"/>
	
		<rect x="285.71" y="298.51" transform="matrix(0.8907 -0.4546 0.4546 0.8907 -104.3055 166.1829)" class="st6" width="15.47" height="2.99"/>
	
		<rect x="311.69" y="286.13" transform="matrix(0.9205 -0.3907 0.3907 0.9205 -86.9922 147.6731)" class="st6" width="15.47" height="2.99"/>
	
		<rect x="338.65" y="274.19" transform="matrix(0.9205 -0.3907 0.3907 0.9205 -80.1813 157.2574)" class="st6" width="15.47" height="2.99"/>
	
		<rect x="590.81" y="211.1" transform="matrix(1 -5.862734e-03 5.862734e-03 1 -1.2361 3.5128)" class="st6" width="15.47" height="2.99"/>
	
		<rect x="619.74" y="208.79" transform="matrix(1 -5.862734e-03 5.862734e-03 1 -1.2221 3.6823)" class="st6" width="15.47" height="2.99"/>
	
		<rect x="677.76" y="207.56" transform="matrix(1 -5.862734e-03 5.862734e-03 1 -1.2138 4.0225)" class="st6" width="15.47" height="2.99"/>
	
		<rect x="650.03" y="207.72" transform="matrix(1 -5.862734e-03 5.862734e-03 1 -1.2153 3.8599)" class="st6" width="15.47" height="2.99"/>
	
		<rect x="706.74" y="208.49" transform="matrix(0.9983 0.0579 -0.0579 0.9983 13.3589 -41.0223)" class="st6" width="15.47" height="2.99"/>
	
		<rect x="736.4" y="211.07" transform="matrix(0.9883 0.1527 -0.1527 0.9883 41.1806 -111.127)" class="st6" width="15.47" height="2.99"/>
	
		<rect x="764.83" y="215.46" transform="matrix(0.9781 0.2081 -0.2081 0.9781 62.059 -156.0163)" class="st6" width="15.47" height="2.99"/>
	
		<rect x="793.15" y="221.49" transform="matrix(0.9529 0.3034 -0.3034 0.9529 105.4198 -232.5031)" class="st6" width="15.47" height="2.99"/>
	
		<rect x="821.34" y="229.28" transform="matrix(0.9529 0.3034 -0.3034 0.9529 109.1149 -240.6895)" class="st6" width="15.47" height="2.99"/>
	
		<rect x="848.26" y="238.43" transform="matrix(0.9272 0.3746 -0.3746 0.9272 152.0962 -302.6199)" class="st6" width="12.43" height="2.99"/>
	
		<rect x="899.46" y="266.21" transform="matrix(0.8327 0.5537 -0.5537 0.8327 299.9997 -457.542)" class="st6" width="15.47" height="2.99"/>
	
		<rect x="929.21" y="288.04" transform="matrix(0.6954 0.7186 -0.7186 0.6954 492.0784 -581.9423)" class="st6" width="6.7" height="2.99"/>
	
		<rect x="940.56" y="306.83" transform="matrix(0.5495 0.8355 -0.8355 0.5495 684.8463 -653.4033)" class="st6" width="15.47" height="2.99"/>
	
		<rect x="954" y="331.83" transform="matrix(0.3907 0.9205 -0.9205 0.3907 892.7795 -682.1917)" class="st6" width="15.47" height="2.99"/>
	
		<rect x="961.36" y="360.82" transform="matrix(0.1392 0.9903 -0.9903 0.1392 1193.0114 -647.7719)" class="st6" width="15.47" height="2.99"/>
	
		<rect x="961.82" y="389.08" transform="matrix(-0.097 0.9953 -0.9953 -0.097 1452.3557 -536.512)" class="st6" width="15.47" height="2.99"/>
	
		<rect x="956.15" y="418.13" transform="matrix(-0.3746 0.9272 -0.9272 -0.3746 1714.0354 -316.8816)" class="st6" width="15.47" height="2.99"/>
	
		<rect x="945.44" y="444.65" transform="matrix(-0.3746 0.9272 -0.9272 -0.3746 1723.8945 -270.4977)" class="st6" width="15.47" height="2.99"/>
	
		<rect x="931.7" y="470.07" transform="matrix(-0.4873 0.8733 -0.8733 -0.4873 1808.9767 -119.0374)" class="st6" width="15.47" height="2.99"/>
	
		<rect x="914.47" y="493.87" transform="matrix(-0.6422 0.7665 -0.7665 -0.6422 1894.1769 106.6105)" class="st6" width="15.47" height="2.99"/>
	
		<rect x="895.38" y="515.12" transform="matrix(-0.6422 0.7665 -0.7665 -0.6422 1879.1139 156.139)" class="st6" width="15.47" height="2.99"/>
	
		<rect x="874.38" y="535.7" transform="matrix(-0.7517 0.6595 -0.6595 -0.7517 1899.4799 359.1926)" class="st6" width="15.47" height="2.99"/>
	
		<rect x="852.6" y="554.81" transform="matrix(-0.7517 0.6595 -0.6595 -0.7517 1873.9342 407.0309)" class="st6" width="15.47" height="2.99"/>
	
		<rect x="829.91" y="572.4" transform="matrix(-0.788 0.6157 -0.6157 -0.788 1851.0498 510.4224)" class="st6" width="15.47" height="2.99"/>
	
		<rect x="805.87" y="588.58" transform="matrix(-0.8749 0.4844 -0.4844 -0.8749 1811.2128 712.2003)" class="st6" width="15.47" height="2.99"/>
	
		<rect x="781.2" y="603.55" transform="matrix(-0.8749 0.4844 -0.4844 -0.8749 1772.2015 752.2215)" class="st6" width="15.47" height="2.99"/>
	
		<rect x="755.55" y="616.44" transform="matrix(-0.8749 0.4844 -0.4844 -0.8749 1730.3622 788.8123)" class="st6" width="15.47" height="2.99"/>
	
		<rect x="729.98" y="630.6" transform="matrix(-0.8749 0.4844 -0.4844 -0.8749 1689.2755 827.7452)" class="st6" width="15.47" height="2.99"/>
	
		<rect x="709.21" y="641.53" transform="matrix(-0.8749 0.4844 -0.4844 -0.8749 1655.632 858.3044)" class="st6" width="15.47" height="2.99"/>
	
		<rect x="197.06" y="690.16" transform="matrix(-0.9541 -0.2996 0.2996 -0.9541 189.5674 1412.3629)" class="st6" width="11.97" height="2.99"/>
</g>
<g id="Satelitte_2">
	<circle class="st1" cx="821.11" cy="493.4" r="2.1"/>
	
		<rect x="821.41" y="495.74" transform="matrix(0.5557 0.8314 -0.8314 0.5557 778.0657 -463.6383)" class="st1" width="2.81" height="0.81"/>
	<path class="st2" d="M835.52,544.86l-15.45-28.57c-1.21-2.24-0.38-5.04,1.86-6.25l10.78-5.83c2.24-1.21,5.04-0.38,6.25,1.86
		l15.45,28.57c1.21,2.24,0.38,5.04-1.86,6.25l-10.78,5.83C839.53,547.94,836.73,547.11,835.52,544.86z"/>
	<path class="st3" d="M837.44,539.13l-6.4-11.84c-0.92-1.7-0.29-3.81,1.41-4.73l5.49-2.97c1.7-0.92,3.81-0.29,4.73,1.41l6.4,11.84
		c0.92,1.7,0.29,3.81-1.41,4.73l-5.49,2.97C840.48,541.46,838.36,540.83,837.44,539.13z"/>
	<path class="st4" d="M826.84,543.25l-44.35,22.42c-2.27,1.15-5.05,0.24-6.2-2.04l-5.83-11.54c-1.15-2.27-0.24-5.05,2.04-6.2
		l44.35-22.42c2.27-1.15,5.05-0.24,6.2,2.04l5.83,11.54C830.02,539.33,829.11,542.11,826.84,543.25z"/>
	<path class="st4" d="M811.36,503.29l24.58-12.17C835.95,491.12,832.74,514.71,811.36,503.29z"/>
	<polygon class="st5" points="773.12,557.38 773.69,558.5 826.38,532.13 825.82,531.01 	"/>
	<polygon class="st5" points="819.81,546.81 809.01,527.44 809.97,526.95 820.77,546.32 	"/>
	<polygon class="st5" points="809.61,551.96 798.82,532.59 799.78,532.11 810.57,551.48 	"/>
	<polygon class="st5" points="799.17,557.24 788.38,537.87 789.34,537.39 800.13,556.76 	"/>
	<polygon class="st5" points="789.63,562.06 778.84,542.7 779.79,542.21 790.59,561.58 	"/>
	<path class="st4" d="M902.14,505.44l-43.48,24.07c-2.23,1.23-5.04,0.43-6.27-1.8l-6.26-11.31c-1.23-2.23-0.43-5.04,1.8-6.27
		l43.48-24.07c2.23-1.23,5.04-0.43,6.27,1.8l6.26,11.31C905.17,501.4,904.37,504.2,902.14,505.44z"/>
	<polygon class="st5" points="848.99,521.57 849.6,522.67 901.26,494.34 900.66,493.24 	"/>
	<polygon class="st5" points="895.25,509.25 883.73,490.3 884.67,489.78 896.18,508.73 	"/>
	<polygon class="st5" points="885.25,514.79 873.74,495.84 874.68,495.32 886.19,514.27 	"/>
	<polygon class="st5" points="875.02,520.45 863.5,501.5 864.44,500.98 875.96,519.93 	"/>
	<polygon class="st5" points="865.66,525.63 854.15,506.68 855.09,506.16 866.6,525.11 	"/>
	
		<rect x="563.08" y="556.01" transform="matrix(-0.9708 -0.2398 0.2398 -0.9708 982.5292 1232.7561)" class="st7" width="6.39" height="1.17"/>
	
		<rect x="575.61" y="558.02" transform="matrix(-0.9945 -0.1047 0.1047 -0.9945 1095.9546 1174.7314)" class="st7" width="6.39" height="1.17"/>
	
		<rect x="587.7" y="559.29" transform="matrix(-0.9945 -0.1047 0.1047 -0.9945 1119.9355 1178.5355)" class="st7" width="6.39" height="1.17"/>
	
		<rect x="600.18" y="559.71" transform="matrix(-0.9991 0.0426 -0.0426 -0.9991 1230.076 1094.369)" class="st7" width="6.39" height="1.17"/>
	
		<rect x="612.78" y="559.17" transform="matrix(-0.9991 0.0426 -0.0426 -0.9991 1255.2488 1092.7573)" class="st7" width="6.39" height="1.17"/>
	
		<rect x="625.13" y="557.42" transform="matrix(-0.9743 0.2251 -0.2251 -0.9743 1366.139 960.256)" class="st7" width="6.39" height="1.17"/>
	
		<rect x="768.31" y="706.64" transform="matrix(-0.9408 0.3389 -0.3389 -0.9408 1742.7498 1111.1947)" class="st7" width="12.1" height="2.22"/>
	
		<rect x="750.42" y="709.69" transform="matrix(-1 -1.224647e-16 1.224647e-16 -1 1512.9401 1421.6086)" class="st7" width="12.1" height="2.22"/>
	
		<rect x="731.22" y="706.64" transform="matrix(-0.9663 -0.2575 0.2575 -0.9663 1267.4474 1581.4711)" class="st7" width="12.1" height="2.22"/>
	
		<rect x="711.47" y="699.63" transform="matrix(-0.9263 -0.3768 0.3768 -0.9263 1118.1553 1620.1859)" class="st7" width="12.1" height="2.22"/>
	
		<rect x="692.39" y="690.46" transform="matrix(-0.866 -0.5 0.5 -0.866 957.5227 1639.7095)" class="st7" width="12.1" height="2.22"/>
	
		<rect x="675.47" y="680.69" transform="matrix(-0.866 -0.5 0.5 -0.866 930.8259 1613.0127)" class="st7" width="12.1" height="2.22"/>
	
		<rect x="658.53" y="670.91" transform="matrix(-0.866 -0.5 0.5 -0.866 904.1044 1586.2913)" class="st7" width="12.1" height="2.22"/>
	
		<rect x="789.94" y="697.66" transform="matrix(-0.8715 0.4905 -0.4905 -0.8715 1832.3907 917.3205)" class="st7" width="12.1" height="2.22"/>
	
		<rect x="810.25" y="684.81" transform="matrix(-0.7557 0.6549 -0.6549 -0.7557 1882.3951 669.6796)" class="st7" width="12.1" height="2.22"/>
	
		<rect x="826.55" y="668.23" transform="matrix(-0.556 0.8312 -0.8312 -0.556 1851.8728 349.4805)" class="st7" width="12.1" height="2.22"/>
	
		<rect x="838.88" y="647.82" transform="matrix(-0.3746 0.9272 -0.9272 -0.3746 1763.1244 108.6141)" class="st7" width="12.1" height="2.22"/>
	
		<rect x="846.34" y="625.74" transform="matrix(-0.1072 0.9942 -0.9942 -0.1072 1567.0272 -153.3962)" class="st7" width="12.1" height="2.22"/>
	
		<rect x="848.62" y="602.14" transform="matrix(0.0293 0.9996 -0.9996 0.0293 1432.6222 -268.7328)" class="st7" width="12.1" height="2.22"/>
	
		<rect x="846.95" y="578.99" transform="matrix(0.1392 0.9903 -0.9903 0.1392 1308.739 -345.3362)" class="st7" width="12.1" height="2.22"/>
	
		<rect x="801.3" y="471.21" transform="matrix(0.5557 0.8314 -0.8314 0.5557 751.3809 -461.3635)" class="st7" width="12.1" height="2.22"/>
	
		<rect x="811.13" y="484.92" transform="matrix(0.5557 0.8314 -0.8314 0.5557 766.6503 -462.5113)" class="st7" width="9.84" height="2.22"/>
	
		<rect x="841.48" y="556.19" transform="matrix(0.2691 0.9631 -0.9631 0.2691 1156.2281 -408.9256)" class="st7" width="12.1" height="2.22"/>
	
		<rect x="787.34" y="451.94" transform="matrix(0.5557 0.8314 -0.8314 0.5557 729.1629 -458.3197)" class="st7" width="12.1" height="2.22"/>
	
		<rect x="345.18" y="207.81" transform="matrix(-1 7.905894e-03 -7.905894e-03 -1 704.1082 415.0548)" class="st7" width="12.1" height="2.22"/>
	
		<rect x="366.21" y="210.52" transform="matrix(-0.9918 -0.1278 0.1278 -0.9918 714.418 469.1049)" class="st7" width="12.1" height="2.22"/>
	
		<rect x="387.16" y="214.78" transform="matrix(-0.9676 -0.2526 0.2526 -0.9676 719.1506 524.0795)" class="st7" width="12.1" height="2.22"/>
	
		<rect x="407.24" y="221.06" transform="matrix(-0.9272 -0.3746 0.3746 -0.9272 713.2596 582.9911)" class="st7" width="12.1" height="2.22"/>
	
		<rect x="322.13" y="207.99" transform="matrix(-1 7.905894e-03 -7.905894e-03 -1 657.9993 415.6016)" class="st7" width="12.1" height="2.22"/>
	
		<rect x="298.24" y="209.53" transform="matrix(-0.9831 0.183 -0.183 -0.9831 641.9896 362.0291)" class="st7" width="12.1" height="2.22"/>
	
		<rect x="275.12" y="214.09" transform="matrix(-0.9421 0.3352 -0.3352 -0.9421 618.2099 323.692)" class="st7" width="12.1" height="2.22"/>
	
		<rect x="252.62" y="221.35" transform="matrix(-0.906 0.4232 -0.4232 -0.906 587.1693 314.5388)" class="st7" width="12.1" height="2.22"/>
	
		<rect x="231.3" y="232.25" transform="matrix(-0.788 0.6157 -0.6157 -0.788 568.0558 271.1153)" class="st7" width="12.1" height="2.22"/>
	
		<rect x="213.12" y="246.9" transform="matrix(-0.5923 0.8057 -0.8057 -0.5923 548.8032 218.3292)" class="st7" width="12.1" height="2.22"/>
	
		<rect x="198.42" y="265.49" transform="matrix(-0.4306 0.9025 -0.9025 -0.4306 533.1321 196.8568)" class="st7" width="12.1" height="2.22"/>
	
		<rect x="188.9" y="286.36" transform="matrix(-0.2967 0.955 -0.955 -0.2967 527.3243 186.5862)" class="st7" width="12.1" height="2.22"/>
	
		<rect x="183.68" y="309.49" transform="matrix(-0.0584 0.9983 -0.9983 -0.0584 510.8769 139.3321)" class="st7" width="12.1" height="2.22"/>
	
		<rect x="183.32" y="333.38" transform="matrix(0.0702 0.9975 -0.9975 0.0702 509.7367 122.1058)" class="st7" width="12.1" height="2.22"/>
	
		<rect x="186.94" y="356.03" transform="matrix(0.1982 0.9802 -0.9802 0.1982 504.5309 97.5239)" class="st7" width="11.44" height="2.22"/>
	
		<rect x="190.4" y="374.09" transform="matrix(0.2687 0.9632 -0.9632 0.2687 505.0818 85.1789)" class="st7" width="12.1" height="2.22"/>
	
		<rect x="201.52" y="401.24" transform="matrix(0.3907 0.9205 -0.9205 0.3907 496.8347 54.0743)" class="st5" width="12.1" height="2.22"/>
	
		<rect x="225.23" y="443.47" transform="matrix(0.5123 0.8588 -0.8588 0.5123 494.0941 19.0514)" class="st7" width="10.08" height="2.22"/>
	
		<rect x="237.16" y="462.35" transform="matrix(0.5504 0.8349 -0.8349 0.5504 496.2727 5.3052)" class="st7" width="12.1" height="2.22"/>
	
		<rect x="251.75" y="481.12" transform="matrix(0.6157 0.788 -0.788 0.6157 479.0874 -17.8065)" class="st7" width="12.1" height="2.22"/>
	
		<rect x="772.34" y="433.12" transform="matrix(0.6552 0.7554 -0.7554 0.6552 596.41 -438.3094)" class="st7" width="12.1" height="2.22"/>
</g>
<g id="Satelitte_3">
	<circle class="st1" cx="226.78" cy="436.62" r="2.1"/>
	
		<rect x="223.66" y="433.47" transform="matrix(-0.5557 -0.8314 0.8314 -0.5557 -10.5788 862.0946)" class="st1" width="2.81" height="0.81"/>
	<path class="st2" d="M212.36,385.16l15.45,28.57c1.21,2.24,0.38,5.04-1.86,6.25l-10.78,5.83c-2.24,1.21-5.04,0.38-6.25-1.86
		l-15.45-28.57c-1.21-2.24-0.38-5.04,1.86-6.25l10.78-5.83C208.35,382.08,211.15,382.92,212.36,385.16z"/>
	<path class="st3" d="M210.44,390.89l6.4,11.84c0.92,1.7,0.29,3.81-1.41,4.73l-5.49,2.97c-1.7,0.92-3.81,0.29-4.73-1.41l-6.4-11.84
		c-0.92-1.7-0.29-3.81,1.41-4.73l5.49-2.97C207.41,388.56,209.52,389.19,210.44,390.89z"/>
	<path class="st4" d="M221.05,386.77l44.35-22.42c2.27-1.15,5.05-0.24,6.2,2.04l5.83,11.54c1.15,2.27,0.24,5.05-2.04,6.2
		l-44.35,22.42c-2.27,1.15-5.05,0.24-6.2-2.04l-5.83-11.54C217.86,390.69,218.77,387.91,221.05,386.77z"/>
	<path class="st4" d="M236.52,426.73l-24.58,12.17C211.94,438.9,215.14,415.31,236.52,426.73z"/>
	<polygon class="st5" points="274.76,372.64 274.19,371.52 221.5,397.89 222.07,399.01 	"/>
	<polygon class="st5" points="228.08,383.21 238.87,402.58 237.91,403.07 227.12,383.7 	"/>
	<polygon class="st5" points="238.27,378.06 249.06,397.43 248.11,397.91 237.31,378.54 	"/>
	<polygon class="st5" points="248.71,372.78 259.51,392.15 258.55,392.63 247.75,373.26 	"/>
	<polygon class="st5" points="258.26,367.96 269.05,387.33 268.09,387.81 257.3,368.44 	"/>
	<path class="st4" d="M145.75,424.58l43.48-24.07c2.23-1.23,5.04-0.43,6.27,1.8l6.26,11.31c1.23,2.23,0.43,5.04-1.8,6.27
		l-43.48,24.07c-2.23,1.23-5.04,0.43-6.27-1.8l-6.26-11.31C142.71,428.62,143.52,425.82,145.75,424.58z"/>
	<polygon class="st5" points="198.89,408.45 198.28,407.35 146.62,435.68 147.23,436.78 	"/>
	<polygon class="st5" points="152.64,420.77 164.15,439.72 163.21,440.24 151.7,421.29 	"/>
	<polygon class="st5" points="162.63,415.23 174.15,434.18 173.21,434.7 161.69,415.75 	"/>
	<polygon class="st5" points="172.87,409.57 184.38,428.52 183.44,429.04 171.93,410.09 	"/>
	<polygon class="st5" points="182.22,404.39 193.74,423.34 192.8,423.86 181.28,404.91 	"/>
</g>
<g id="Satelitte_4">
	<circle class="st1" cx="863.52" cy="246.43" r="2.81"/>
	
		<rect x="865.6" y="247.64" transform="matrix(0.9272 0.3746 -0.3746 0.9272 156.14 -306.8939)" class="st1" width="3.77" height="1.09"/>
	<path class="st2" d="M919.68,293.29l-41.44-21.44c-2.26-1.17-3.15-3.95-1.98-6.22l8.99-17.37c1.17-2.26,3.95-3.15,6.22-1.98
		l41.44,21.44c2.26,1.17,3.15,3.95,1.98,6.22l-8.99,17.37C924.73,293.58,921.94,294.46,919.68,293.29z"/>
	<path class="st3" d="M916.15,284.8l-16.13-8.34c-2.26-1.17-3.15-3.95-1.98-6.22l3.9-7.54c1.17-2.26,3.95-3.15,6.22-1.98l16.13,8.34
		c2.26,1.17,3.15,3.95,1.98,6.22l-3.9,7.54C921.2,285.09,918.41,285.98,916.15,284.8z"/>
	<path class="st4" d="M908.21,295.97l-33.74,61.01c-1.23,2.23-4.04,3.04-6.27,1.8l-17.91-9.9c-2.23-1.23-3.04-4.04-1.8-6.27
		l33.74-61.01c1.23-2.23,4.04-3.04,6.27-1.8l17.91,9.9C908.64,290.93,909.45,293.74,908.21,295.97z"/>
	<path class="st4" d="M860.19,264.74l18.06-32.02C878.24,232.73,892.48,261.27,860.19,264.74z"/>
	<polygon class="st5" points="858.61,353.48 860.08,354.29 898.56,285.36 897.09,284.54 	"/>
	<polygon class="st5" points="902.35,306.57 875.79,293.26 876.48,292 903.04,305.32 	"/>
	<polygon class="st5" points="894.94,319.97 868.38,306.65 869.08,305.39 895.64,318.71 	"/>
	<polygon class="st5" points="887.36,333.69 860.8,320.37 861.49,319.11 888.05,332.43 	"/>
	<polygon class="st5" points="880.42,346.23 853.86,332.91 854.56,331.65 881.12,344.97 	"/>
	<path class="st4" d="M963.06,197.28l-31.42,62.24c-1.15,2.27-3.92,3.19-6.2,2.04l-18.27-9.22c-2.27-1.15-3.19-3.92-2.04-6.2
		l31.42-62.24c1.15-2.27,3.92-3.19,6.2-2.04l18.27,9.22C963.29,192.23,964.21,195.01,963.06,197.28z"/>
	<polygon class="st5" points="915.65,256.62 917.15,257.37 953.02,187.04 951.51,186.28 	"/>
	<polygon class="st5" points="957.59,208.1 930.55,195.79 931.2,194.51 958.24,206.82 	"/>
	<polygon class="st5" points="950.7,221.76 923.66,209.45 924.3,208.17 951.35,220.48 	"/>
	<polygon class="st5" points="943.63,235.76 916.59,223.45 917.24,222.17 944.28,234.48 	"/>
	<polygon class="st5" points="937.18,248.55 910.13,236.24 910.78,234.96 937.82,247.27 	"/>
</g>
<g id="Planète">
	<g class="st8">
		
			<image style="overflow:visible;" width="1070" height="1069" xlink:href="1928D4D4.png"  transform="matrix(0.24 0 0 0.24 2.64 15.36)">
		</image>
	</g>
	<linearGradient id="SVGID_2_" gradientUnits="userSpaceOnUse" x1="51.013" y1="143.6041" x2="211.0795" y2="143.6041">
		<stop  offset="0" style="stop-color:#5F3189"/>
		<stop  offset="1" style="stop-color:#A14C97"/>
	</linearGradient>
	<path class="st9" d="M211.08,143.6c0,11.24-2.32,21.95-6.51,31.66c-2.36,5.46-5.31,10.61-8.76,15.37
		c-12.36,16.99-31.24,28.93-52.98,32.13c-3.84,0.58-7.78,0.87-11.79,0.87c-44.2,0-80.03-35.84-80.03-80.04
		c0-14.18,3.7-27.51,10.17-39.06c13.69-24.45,39.84-40.98,69.86-40.98C175.25,63.57,211.08,99.4,211.08,143.6z"/>
	<path class="st10" d="M778.23,465.01c0,53.91-16.78,103.9-45.4,145.04C686.9,676.08,610.47,719.3,523.94,719.3
		c-140.44,0-254.29-113.85-254.29-254.29S383.5,210.73,523.94,210.73S778.23,324.57,778.23,465.01z"/>
	<linearGradient id="SVGID_3_" gradientUnits="userSpaceOnUse" x1="437.4326" y1="687.606" x2="618.1063" y2="687.606">
		<stop  offset="0" style="stop-color:#5F3189"/>
		<stop  offset="1" style="stop-color:#A14C97"/>
	</linearGradient>
	<path class="st11" d="M439.39,693.35c0,0,88.21,36.75,178.72-5.05c0,0-14.7-8.27-22.97-6.89c-8.27,1.38-20.67,2.76-21.13,7.81
		s-3.22-5.05-16.54-1.38l4.59-6.59c0,0-9.65-4.9-10.11-3.06c-0.46,1.84-8.27,17.46-10.11,17c-1.84-0.46-13.78-6.43-22.51-5.51
		c-8.73,0.92,11.49-12.86,18.84-15.62c0,0-7.96-13.17-10.11-1.68c0,0-34.28,4.38-35.15,2.43c-0.86-1.95-1.38-7.87-2.12-7.87
		c-0.75,0-8.1,3.56-10.39,8.1s-22.74,3.27-22.86,2.81c-0.11-0.46,0-5.74-1.72-4.36s-5.69,7.75-7.87,7.64
		c-2.18-0.11-10.68-1.09-10.51,1.15C437.61,684.5,436.92,693.29,439.39,693.35z"/>
	<linearGradient id="SVGID_4_" gradientUnits="userSpaceOnUse" x1="348.3668" y1="268.0797" x2="494.6075" y2="268.0797">
		<stop  offset="0" style="stop-color:#5F3189"/>
		<stop  offset="1" style="stop-color:#A14C97"/>
	</linearGradient>
	<path class="st12" d="M348.55,308.45c4.56-5.07,35.2-51.08,121.83-80.66c9.7-2.78,23.35-1.48,24.18,2.75
		c0.83,4.24-7.92,7.01-8.14,7.9s0.38,6.65-8.07,9.82c-1.06,3.92-0.44,13.39-6.61,14.68c-6.17,1.29-11.58-3.54-6.27-6.47
		c5.31-2.93,1.77-7.69-1.53-7.1s-15.85,4.94-12.58,9.55c3.26,4.61,2.74,10.16-5.47,8.26s-9.18-10.59-22.38-0.8
		c-3.42,5.14-8.27,8.71-12.88,7.87s-18.81,13.63-25.98,14.83c-7.17,1.2-3.95,11.64-9.84,16.24
		C369.17,309.73,346.09,311.18,348.55,308.45z"/>
	<linearGradient id="SVGID_5_" gradientUnits="userSpaceOnUse" x1="479.562" y1="417.7528" x2="751.5708" y2="417.7528">
		<stop  offset="0" style="stop-color:#5F3189"/>
		<stop  offset="1" style="stop-color:#A14C97"/>
	</linearGradient>
	<path class="st13" d="M487.17,261.79c0,0,6.74-12.86,10.72-15.62c3.98-2.76,0.92-12.56,7.96-12.25
		c7.04,0.31,21.44,11.95,33.39,5.21s-11.64-10.11-11.64-10.11l3.68-4.9c0,0,160.11,0,220.3,160.38c0,0-12.4-8.96-13.44-17.69
		c-1.03-8.73-13.32-8.15-13.21-6.66c0.11,1.49,2.07,6.89,2.87,7.01c0.8,0.11-0.8,10.8,0.57,12.29c1.38,1.49,10.57,17-8.5,26.99
		c-19.07,9.99-8.61-8.61-27.57-13.21c0,0,0-27.22-18.49-23.89c0,0,0.11,17.69,1.38,17.46s4.59-1.49,6.2,0.11
		c1.61,1.61,10.57,21.32,10.45,22.43c-0.11,1.11,6.32-0.84,7.7,1c1.38,1.84-3.22,8.38-1.03,9.42c2.18,1.03,8.27,7.12,21.59,0
		c13.32-7.12,1.61,27.68-0.57,27.8s0.23,13.09-0.11,14.24c-0.34,1.15-12.52,9.65-12.52,16.42c0,6.78-1.03,10.45-5.05,12.86
		s1.38,26.88,0.8,28.14c-0.57,1.26-8.96,9.99-8.27,10.22c0.69,0.23,5.86,4.59,5.63,6.55c-0.23,1.95-13.9,10.11-13.9,15.74
		c0,5.63-8.81,1.95-8.88,3.71c-0.08,1.76,2.14,17.84-21.59,31.93c0,0,7.04,4.75-7.2,9.95c-14.24,5.21-14.24,15.31-18.68,13.94
		c-4.44-1.38-8.12-1.23-9.34-6.43c-1.23-5.21-7.96-13.32-7.81-16.08c0.15-2.76,3.06-27.11-15.77-32.16c0,0,6.59-12.56,5.05-19.76
		c0,0,11.18-4.59,11.18-8.12s6.18-8.35-17.24-36.6c0,0-0.22-28.03,1.16-34.23c1.38-6.2-15.16-7.58-18.84-2.3
		c-3.68,5.28-7.12-12.4-9.65-12.17c-2.53,0.23-36.29,13.32-46.4,10.57c-10.11-2.76-17.69,1.61-17.92-3.68
		c-0.23-5.28-6.43-15.39-10.11-14.7s1.38-15.72-9.65-17.85c-11.03-2.13,0.23-8.33,0-9.25c-0.23-0.92,0-5.74,5.74-6.89
		c5.74-1.15-8.73-19.53-7.58-22.97c1.15-3.45,19.99-21.36,20.44-22.97c0.46-1.61,3.45-13.55,16.08-12.63
		c12.63,0.92,15.62-13.78,17.69-13.78s38.25-3.24,40.89-3.68c2.11-0.34-1.15,15.39,1.38,15.39c2.53,0,85.22-0.23,84.99-4.82
		c-0.23-4.59,2.53-40.89-26.88-47.32c-9.88,6.66-9.19,3.22-11.49,9.19c-2.3,5.97-7.84-0.92-10.12-0.92s-5.16,14.47-4.12,16.19
		c1.03,1.72-4.59,0.23-4.71-1.26c-0.11-1.49-14.24-18.72-35.26-8.5c-21.02,10.22-43.65,11.37-43.88,9.53
		c-0.23-1.84,13.55-13.78,28.37-15.51c14.82-1.72-5.86-4.94-7.01-6.2c-1.15-1.26,2.53-12.17-10.22-12.63
		c-12.75-0.46-13.55-2.99-13.78-15.05c-0.23-12.06-23.05,4.36-24.45,2.76C499.11,264.81,486.02,265.89,487.17,261.79z"/>
	<linearGradient id="SVGID_6_" gradientUnits="userSpaceOnUse" x1="283.139" y1="375.7256" x2="424.3803" y2="375.7256">
		<stop  offset="0" style="stop-color:#5F3189"/>
		<stop  offset="1" style="stop-color:#A14C97"/>
	</linearGradient>
	<path class="st14" d="M283.16,437.83c-0.85-1.68,26.71-100.3,60.55-125.43c0,0,12.75,12.02,15.51,11.33
		c2.76-0.69,13.04,4.45,13.04,4.45s0.05-4.51,4.19,0c4.13,4.51,19.3,8.65,20.67,10.71s-11.72,4.82-8.27,8.27
		c3.45,3.45,5.72,14.16,8.37,13.63c2.65-0.53,5.36-7.05,16.07,0c10.71,7.05,11.09,22.42,11.09,22.42s-33.46,5.96-34.15,9.42
		c-0.69,3.46-11.82,1.58-17.97,5.28s-26.31,0.62-25.88,6.64s-13.41,0.96-18.2,2.8s-8.58,5.5-8.76,6.77
		c-0.18,1.27-11.89,3.94-11.2,8.12c0.69,4.18-5.51,14.39-5.51,14.39s-7.5-0.61-8.73,0c-1.23,0.61-5.48,3.05-6.55,2.27
		C286.35,438.12,283.16,437.83,283.16,437.83z"/>
	<linearGradient id="SVGID_7_" gradientUnits="userSpaceOnUse" x1="281.0908" y1="532.7272" x2="394.1245" y2="532.7272">
		<stop  offset="0" style="stop-color:#5F3189"/>
		<stop  offset="1" style="stop-color:#A14C97"/>
	</linearGradient>
	<path class="st15" d="M282.52,442.45c-6.14,55.26,5.61,125.81,71.63,195.57c0,0,13.33,5.55,13.33,0s0-0.73-2.76-8.31
		s-18.61-19.8-13.09-26.09c5.51-6.29,1.38-16.13,4.13-19.83c2.76-3.7-0.69-9.9,1.38-16.1c2.07-6.2-3.45-4.37,1.38-10.45
		c4.82-6.09-3.45-10.19,4.82-19.85s6.99-9.23,9.69-17.03s2.02-14.69,7.53-16.76c5.51-2.07,17.23-20.53,12.4-31.29
		c-4.82-10.75-9.55-22.47-19.94-21.78s-13.83-6.74-17.28-11.64c-3.45-4.9-3.74-3.5-12.89-7.65c-9.16-4.14,1.18-6.35-12.6-6.28
		c-13.78,0.07-12.4,5.48-19.3,5.53c-6.89,0.05-6.2-0.62-14.47,0.75C288.24,432.62,285.27,420.77,282.52,442.45z"/>
	<linearGradient id="SVGID_8_" gradientUnits="userSpaceOnUse" x1="51.013" y1="163.6559" x2="153.0037" y2="163.6559">
		<stop  offset="0" style="stop-color:#5F3189"/>
		<stop  offset="1" style="stop-color:#A14C97"/>
	</linearGradient>
	<path class="st16" d="M153,183.7c0,14.19-3.7,27.52-10.17,39.07c-3.84,0.58-7.78,0.87-11.79,0.87c-44.2,0-80.03-35.84-80.03-80.04
		c0-14.18,3.7-27.51,10.17-39.06c3.85-0.58,7.79-0.87,11.79-0.87C117.17,103.67,153,139.5,153,183.7z"/>
	<linearGradient id="SVGID_9_" gradientUnits="userSpaceOnUse" x1="88.7836" y1="173.1087" x2="102.0084" y2="173.1087">
		<stop  offset="0" style="stop-color:#5F3189"/>
		<stop  offset="1" style="stop-color:#A14C97"/>
	</linearGradient>
	<circle class="st17" cx="95.4" cy="173.11" r="6.61"/>
	<linearGradient id="SVGID_10_" gradientUnits="userSpaceOnUse" x1="86.7985" y1="110.9728" x2="107.9104" y2="110.9728">
		<stop  offset="0" style="stop-color:#5F3189"/>
		<stop  offset="1" style="stop-color:#A14C97"/>
	</linearGradient>
	<circle class="st18" cx="97.35" cy="110.97" r="10.56"/>
	<linearGradient id="SVGID_11_" gradientUnits="userSpaceOnUse" x1="189.7275" y1="181.8704" x2="204.5729" y2="181.8704">
		<stop  offset="0" style="stop-color:#5F3189"/>
		<stop  offset="1" style="stop-color:#A14C97"/>
	</linearGradient>
	<path class="st19" d="M204.57,175.26c-2.36,5.46-5.31,10.61-8.76,15.37c-3.55-1.21-6.09-4.57-6.09-8.52c0-4.98,4.03-9.01,9.01-9.01
		C200.96,173.11,203,173.92,204.57,175.26z"/>
	<g>
		<path class="st20" d="M524.55,173.82l-0.17,3.33c0,0,0.1,0.99-2.12,1.12c-2.03,0.12-2.03-1.43-2.03-1.43l0.13-5.08L524.55,173.82z
			"/>
		<path class="st21" d="M520.87,155.24c-4.57,0.86-3.59,5.51-3.59,5.51s0.12,1.24,0.2,3.75c-0.37-0.51-0.99-0.72-1.63-0.44
			c-1.35,0.58-0.35,4.84,1.7,4.47c0.09,1.19,0.2,2.12,0.36,2.44c0.58,1.21,3.12,3.06,5.37,3.35c2.25,0.29,5.08-1.21,5.08-3.87
			c0-2.65,0.03-9.78,0.03-9.78S528.9,153.72,520.87,155.24z"/>
		<g>
			<path class="st22" d="M523.34,162.01c-0.59,0.38-0.93,0.6-1.19,0.76c-0.26,0.15-0.4,0.24-0.48,0.24
				c-0.08,0.01-0.07-0.1-0.24-0.27c-0.18-0.19-0.51-0.33-1.23-0.46c-0.36-0.59-0.32-1.21,0.04-1.67c0.35-0.46,0.94-0.71,1.45-0.69
				c0.52,0.01,0.95,0.22,1.25,0.57C523.23,160.83,523.43,161.3,523.34,162.01z"/>
		</g>
		<g>
			<path class="st22" d="M525.7,161.94c-0.17-0.67-0.03-1.13,0.23-1.49c0.27-0.34,0.73-0.56,1.27-0.52c0.55,0.02,1.14,0.41,1.33,0.9
				c0.22,0.49,0.11,1.02-0.35,1.52c-0.69,0.06-1.05,0.16-1.23,0.33c-0.17,0.16-0.06,0.33-0.01,0.33c0.05,0,0.01-0.12-0.18-0.29
				C526.58,162.54,526.27,162.31,525.7,161.94z"/>
		</g>
		<g>
			<path class="st23" d="M523.77,163.29l0.24,1.01c0.07,0.33,0.12,0.66,0.17,0.99c0.09,0.66,0.15,1.33,0.15,2.01l0,0.48l-0.33-0.16
				c-0.19-0.09-0.37-0.21-0.55-0.38c0.22-0.1,0.44-0.15,0.64-0.18l-0.33,0.32c-0.19-0.66-0.3-1.34-0.33-2.03
				C523.42,164.67,523.47,163.95,523.77,163.29z"/>
		</g>
		<g>
			<path class="st23" d="M520.91,169.63c0.87,0.09,1.65,0.25,2.43,0.36c0.79,0.12,1.54,0.16,2.41,0.16
				c-0.35,0.27-0.76,0.46-1.2,0.54c-0.44,0.08-0.88,0.08-1.32,0.03C522.38,170.58,521.55,170.25,520.91,169.63z"/>
		</g>
		<path class="st23" d="M516.62,164.53c0,0-1.84,0.68-0.19,2.97S516.62,164.53,516.62,164.53z"/>
		<ellipse class="st24" cx="521.12" cy="164.01" rx="0.61" ry="1.02"/>
		<ellipse class="st24" cx="525.99" cy="163.87" rx="0.61" ry="1.02"/>
	</g>
	<g>
		<g>
			<path class="st25" d="M503.42,250.79c0,0.87,8.28,1.58,18.49,1.58c10.21,0,18.49-0.71,18.49-1.58c0-0.87-8.28-1.58-18.49-1.58
				C511.7,249.21,503.42,249.92,503.42,250.79z"/>
			<g>
				<polygon class="st26" points="516.9,242.37 515.98,247.93 513.82,247.93 514.54,241.88 				"/>
				<path class="st27" d="M513.17,245.29c0,0-1.23,1.6-3.1,2.16c-1.87,0.56-3.56,1.28-3.42,2.4c0,0,2.78,1.36,7.29-0.15v0.48
					l2.96-0.13v-3.93l-2.46,0.17l0.18-0.39L513.17,245.29z"/>
				<g>
					<path class="st28" d="M511.98,249.76c-4.04,1.04-5.07-0.11-5.31-0.19c-0.03,0.1-0.04,0.2-0.02,0.29c0,0,2.78,1.36,7.29-0.15
						v0.48l2.96-0.13v-0.78C515.85,249.33,514.96,248.99,511.98,249.76z"/>
				</g>
				<g>
					<path class="st28" d="M513.58,247.59c-0.04,0-0.08-0.02-0.11-0.06c-0.61-0.91-1.29-1.16-1.29-1.16
						c-0.07-0.02-0.1-0.1-0.08-0.17c0.02-0.07,0.1-0.1,0.17-0.08c0.03,0.01,0.77,0.28,1.42,1.26c0.04,0.06,0.02,0.14-0.04,0.18
						C513.63,247.58,513.6,247.59,513.58,247.59z"/>
				</g>
				<g>
					<path class="st28" d="M512.9,247.89c-0.04,0-0.08-0.02-0.11-0.06c-0.61-0.91-1.29-1.16-1.29-1.16c-0.07-0.02-0.1-0.1-0.08-0.17
						c0.02-0.07,0.1-0.1,0.17-0.08c0.03,0.01,0.77,0.28,1.42,1.26c0.04,0.06,0.02,0.14-0.04,0.18
						C512.95,247.88,512.92,247.89,512.9,247.89z"/>
				</g>
				<g>
					<path class="st28" d="M512.22,248.19c-0.04,0-0.08-0.02-0.11-0.06c-0.6-0.9-1.29-1.16-1.29-1.16c-0.07-0.02-0.1-0.1-0.08-0.17
						c0.02-0.07,0.1-0.1,0.17-0.08c0.03,0.01,0.77,0.28,1.42,1.26c0.04,0.06,0.02,0.14-0.04,0.18
						C512.27,248.18,512.25,248.19,512.22,248.19z"/>
				</g>
			</g>
			<g>
				<polygon class="st26" points="526.98,242.37 527.9,247.93 530.06,247.93 529.34,241.88 				"/>
				<path class="st27" d="M530.72,245.29c0,0,1.23,1.6,3.1,2.16c1.87,0.56,3.76,1.28,3.62,2.4c0,0-2.99,1.36-7.5-0.15v0.48
					l-2.96-0.13v-3.93l2.46,0.17l-0.18-0.39L530.72,245.29z"/>
				<g>
					<path class="st28" d="M532.52,249.96c2.84,0.45,4.66-0.32,4.9-0.4c0.03,0.1,0.04,0.2,0.02,0.29c0,0-2.99,1.36-7.5-0.15v0.48
						l-2.96-0.13v-0.99C528.04,249.13,529.79,249.54,532.52,249.96z"/>
				</g>
				<g>
					<path class="st28" d="M530.31,247.59c0.04,0,0.08-0.02,0.11-0.06c0.61-0.91,1.29-1.16,1.29-1.16c0.07-0.02,0.1-0.1,0.08-0.17
						c-0.02-0.07-0.1-0.1-0.17-0.08c-0.03,0.01-0.77,0.28-1.42,1.26c-0.04,0.06-0.02,0.14,0.04,0.18
						C530.26,247.58,530.28,247.59,530.31,247.59z"/>
				</g>
				<g>
					<path class="st28" d="M530.98,247.89c0.04,0,0.08-0.02,0.11-0.06c0.61-0.91,1.29-1.16,1.29-1.16c0.07-0.02,0.1-0.1,0.08-0.17
						c-0.02-0.07-0.1-0.1-0.17-0.08c-0.03,0.01-0.77,0.28-1.42,1.26c-0.04,0.06-0.02,0.14,0.04,0.18
						C530.93,247.88,530.96,247.89,530.98,247.89z"/>
				</g>
				<g>
					<path class="st28" d="M531.66,248.19c0.04,0,0.08-0.02,0.11-0.06c0.6-0.9,1.29-1.16,1.29-1.16c0.07-0.02,0.1-0.1,0.08-0.17
						c-0.02-0.07-0.1-0.1-0.17-0.08c-0.03,0.01-0.77,0.28-1.42,1.26c-0.04,0.06-0.02,0.14,0.04,0.18
						C531.61,248.18,531.64,248.19,531.66,248.19z"/>
				</g>
			</g>
			<path class="st29" d="M522.23,198.4c-1.79-0.07-4.8-0.43-4.8-0.43l-2.25,26.83l-2.25,19.65c0,0,1.09,1.5,5.19,0.82l3.07-19.24
				l2.46-18.29h1.36l1.16,37.53c0,0,1.77,1.36,5.05,0.14l-0.41-48.21C529.94,197.54,526.8,198.59,522.23,198.4z"/>
		</g>
		<g>
			<g>
				<path class="st30" d="M528.84,198.81c1.1-0.27,1.64-0.63,1.65-0.63c0.32-0.12,0.28,0.23,0.32,0.61c0.05,0.5-0.03,0.76-0.32,0.86
					c-0.05,0.02-0.31,0.32-1.41,0.62C529,199.78,528.92,199.3,528.84,198.81z"/>
				<path class="st30" d="M520.92,199.23c1.23,0.13,2.57,0.15,4.03,0.11c1.12-0.03,2.13-0.17,2.98-0.33
					c-0.03,0.51,0.03,1.01,0.1,1.51c-0.86,0.18-1.89,0.32-3.06,0.36c-0.47,0.01-0.94,0.02-1.39,0.01c-1.01-0.02-1.95-0.08-2.83-0.19
					C520.85,200.21,520.91,199.72,520.92,199.23z"/>
				<path class="st30" d="M517.32,199.11c0.06-0.37,0.1-0.7,0.43-0.58c0.72,0.27,1.51,0.47,2.37,0.6c-0.03,0.48-0.09,0.97-0.16,1.45
					c-0.89-0.16-1.71-0.38-2.49-0.7C517.25,199.78,517.26,199.48,517.32,199.11z"/>
			</g>
			<path class="st5" d="M522.94,199.12l-0.04,1.97l2.86-0.17l0.03-1.83L522.94,199.12z M523.42,199.45l1.89-0.02l-0.02,1.21
				l-1.89,0.11L523.42,199.45z"/>
		</g>
		<path class="st31" d="M532.2,177.24c0,0-0.44,13.56-1.32,20.44c0,0-3.36,1.5-8.71,1.29c-3.78-0.15-4.87-0.96-4.87-0.96l-5.42-22.3
			c0,0,2.72-1.32,8.48-1.31c0,0-0.01-0.18,1.29,0.51c1,0.53,1.34,4.15,1.34,4.15s0.19-3.64,0.76-3.94c0.87-0.46,0.71-0.36,1.43-0.55
			c2.17,0.15,4.43,0.81,6.96,1.23L532.2,177.24z"/>
		<polygon class="st32" points="526.75,174.41 525.35,177.51 523.77,175.11 526.26,173.46 		"/>
		<polygon class="st32" points="518.61,174.33 520.49,177.37 521.82,174.91 519.06,173.12 		"/>
		<path class="st33" d="M549.03,168.1c0,0,0.22-5.84,0.7-5.84c0.49,0,0.65,1.35,0.59,2.32c-0.05,0.97,3.73-1.68,3.13,0.54
			c0,0,1.13,0.16,0.27,1.46c0,0,1.08,0.81-0.16,1.41c0,0,1.08,0.54-0.54,1.19c-1.62,0.65-2.49,1.35-2.49,1.35L549.03,168.1z"/>
		<path class="st33" d="M505.17,192.59c0,0,4.09,8.44,9.9,10.47l0.25-2.78c0,0-3.14-2.66-5.85-7.39
			C506.76,188.15,505.17,192.59,505.17,192.59z"/>
		<path class="st33" d="M513.88,202.51c0,0,3.19,2.73,2.42-2.92c0,0,4.2-0.88,0.43-1.19c0,0,4.14-1.64-0.29-0.84
			c0,0,3.29-3.74-1.57-0.05c0,0-0.97,0.85-0.75,3.33L513.88,202.51z"/>
		<path class="st31" d="M511.89,175.71l-8.21,16.88c0,0,4.57,7.07,7.94,8.87l2.15-3.21c0,0-3.8-4.9-4.66-6.89l5.09-7.57
			L511.89,175.71z"/>
		<path class="st31" d="M530.04,181.99l11.3,1.61c0,0,6.63-8.28,10.19-12.81l-2.89-2.53c0,0-7.94,8.21-9.7,9.48l-7.21-2.02
			L530.04,181.99z"/>
		<path class="st22" d="M515.31,159.76c0,0-2.85-1.73-1.73-3.15c0.61-0.77,1.06-0.52,1.35-0.13c-0.25-0.67-0.38-1.59,0.52-1.97
			c0.7-0.3,1.11-0.02,1.35,0.35c-0.15-0.77-0.09-1.75,1.09-2.08c1.6-0.44,1.91,1.09,1.98,1.76c-0.01-0.71,0.12-2.46,1.67-2.7
			c1.3-0.2,1.45,0.87,1.41,1.62c0.31-0.93,1.27-2.27,2.54-1.84c1.65,0.56,0.49,2.33,0.49,2.33c0.83-0.94,2.33-1.01,2.93-0.08
			c0.6,0.94-0.64,1.92-0.64,1.92s2.25,0.08,1.84,2.59c-0.41,2.52-3.87,0.11-3.87,0.11c0.26,0.71,0.23,1.28-0.56,1.46
			c-0.79,0.19-1.16-1.2-1.16-1.2s0.19,1.09-1.16,1.39c-1.35,0.3-1.43-0.94-1.43-0.94c-0.55,1.22-1.49,0.89-1.95,0.63
			c-0.49,1.86-1.9,2.44-1.9,2.44v4.77l-0.55-0.08l-0.39-2.1c0,0-0.3-0.5-0.85-0.58c0,0,0,0,0-0.01c-0.46-0.02-1.15-0.15-1.3-0.72
			c-0.16-0.63,0.31-1.15,0.58-1.4c-0.01-0.03-0.01-0.06-0.02-0.08c-1.3,0.33-2.33-0.97-1.79-1.94
			C514.29,159.12,515.31,159.76,515.31,159.76z"/>
	</g>
	<g>
		<path class="st34" d="M526.29,180.57c0.07-0.16,0.18-0.31,0.3-0.44c0.28-0.29,0.62-0.48,1.02-0.55c0.56-0.09,1.07,0.04,1.5,0.42
			c0.03,0.02,0.03,0.04,0,0.07c-0.15,0.15-0.3,0.3-0.46,0.46c-0.02,0.02-0.03,0.03-0.05,0.01c-0.38-0.35-1.01-0.35-1.42,0.03
			c-0.14,0.13-0.24,0.29-0.3,0.46c-0.01-0.01-0.02-0.01-0.03-0.02C526.67,180.87,526.48,180.72,526.29,180.57z"/>
		<path class="st35" d="M526.88,181.75c0.05,0.14,0.12,0.27,0.22,0.38c0.26,0.29,0.58,0.41,0.96,0.37c0.18-0.02,0.34-0.08,0.49-0.17
			c0.01,0.01,0.03,0.03,0.04,0.04c0.18,0.14,0.36,0.28,0.53,0.42c-0.2,0.19-0.43,0.31-0.69,0.38c-0.61,0.16-1.18,0.06-1.68-0.34
			c-0.21-0.16-0.37-0.37-0.49-0.61C526.48,182.06,526.68,181.91,526.88,181.75z"/>
		<path class="st36" d="M529.14,182.79c-0.18-0.14-0.36-0.28-0.53-0.42c-0.02-0.01-0.03-0.03-0.04-0.04
			c0.12-0.09,0.22-0.2,0.29-0.34c0.03-0.05,0.04-0.11,0.06-0.17c0.01-0.04,0.01-0.06-0.04-0.06c-0.3,0-0.59,0-0.89,0
			c-0.06,0-0.06,0-0.06-0.06c0-0.2,0-0.4,0-0.6c0-0.04,0.01-0.05,0.05-0.05c0.55,0,1.09,0,1.64,0c0.03,0,0.05,0,0.05,0.04
			c0.07,0.48,0.01,0.93-0.24,1.35C529.35,182.57,529.25,182.69,529.14,182.79z"/>
		<path class="st37" d="M526.88,181.75c-0.2,0.16-0.4,0.31-0.6,0.47c-0.1-0.18-0.15-0.38-0.18-0.58c-0.05-0.35,0-0.69,0.15-1.01
			c0.01-0.02,0.02-0.03,0.03-0.05c0.19,0.15,0.38,0.29,0.57,0.44c0.01,0.01,0.02,0.01,0.03,0.02
			C526.81,181.27,526.81,181.51,526.88,181.75z"/>
	</g>
	<g class="st38">
		
			<image style="overflow:visible;" width="1326" height="1326" xlink:href="1928D4D2.png"  transform="matrix(0.24 0 0 0.24 -27.36 -15.6)">
		</image>
	</g>
</g>
<g id="Calque_9">
</g>
<g id="Nuages">
</g>
</svg>
