<?xml version="1.0" encoding="utf-8"?>
<!-- Generator: Adobe Illustrator 23.0.1, SVG Export Plug-In . SVG Version: 6.00 Build 0)  -->
<svg version="1.1" xmlns="http://www.w3.org/2000/svg" xmlns:xlink="http://www.w3.org/1999/xlink" x="0px" y="0px"
	 viewBox="0 0 2000 2000" style="enable-background:new 0 0 2000 2000;" xml:space="preserve">
<style type="text/css">
	.st0{fill:#FFFFFF;}
	.st1{fill:#020304;}
	.st2{fill:#323232;}
	.st3{fill:#676766;}
	.st4{fill:none;stroke:#020304;stroke-miterlimit:10;}
	.st5{fill:none;stroke:#676766;stroke-miterlimit:10;}
	.st6{fill:none;stroke:#676766;stroke-width:0.5;stroke-miterlimit:10;}
	.st7{fill:none;stroke:#676766;stroke-width:0.75;stroke-miterlimit:10;}
	.st8{fill:#FCDBC5;}
	.st9{fill:#E5C6B7;}
</style>
<g id="Calque_4">
</g>
<g id="Calque_2">
	<g id="XMLID_1_">
		<g>
			<path class="st0" d="M1025.01,966.43c9.78,9.38,0,10.98,0,10.98c-17.76,3.58-33.53-26.94-33.53-26.94s1.57-1.09,3.77-2.76
				c3.49-2.67,8.58-6.81,11.53-10.35c0.69-0.83,1.26-1.64,1.67-2.38C1008.44,934.97,1015.23,957.05,1025.01,966.43z"/>
			<path class="st1" d="M1000,925.61c0,0,5.92,9.14,6.78,11.74c-2.95,3.55-8.04,7.68-11.53,10.35l-0.01-0.01
				c-0.28-1.41-5.84-10.93-5.84-10.93l-0.01-0.01c2.2-1.4,4.25-3.3,6.03-5.28C997.26,929.46,998.81,927.35,1000,925.61z"/>
			<path class="st0" d="M1002.49,921.6c0,0-0.91,1.68-2.49,4.01c-1.19,1.74-2.74,3.85-4.57,5.87l-0.19-0.17
				c-8.25-12.83-33.72-32.32-36.37-34.32c1.45-3.87,2.52-8.34,2.74-13.33c0.07-1.58,0.06-3.21-0.06-4.9
				C961.56,878.76,987.04,892.99,1002.49,921.6z"/>
			<path class="st0" d="M995.24,931.31l0.19,0.17c-1.78,1.98-3.83,3.88-6.03,5.28c-1.45,0.94-2.97,1.66-4.52,2.06
				c0,0-16.84-14.95-37.23-24.75c0,0,0.78-0.68,1.99-1.99c2.41-2.62,6.51-7.81,9.25-15.08
				C961.52,898.99,986.99,918.48,995.24,931.31z"/>
			<path class="st1" d="M958.87,896.99c-2.73,7.28-6.84,12.46-9.25,15.08c-3.29-4.67-11.05-7.35-11.05-7.35
				c4.63-5.21,7.43-10.88,9.09-16.15c1.11-3.54,1.71-6.89,2.02-9.81h0.01c0,0,6.42,2.74,11.91,4.9h0.01
				C961.39,888.65,960.32,893.12,958.87,896.99z"/>
			<path class="st0" d="M949.67,868.27c0,0,0.68,4.29,0.02,10.49c-0.3,2.93-0.91,6.28-2.02,9.81l-0.03-0.01
				c-24.9-20.3-85.5-37.67-85.5-37.67l-0.88-0.1c0.75-6.99,1.29-14.18,1.2-19.77c-0.03-1.92-0.13-3.65-0.32-5.13
				C862.13,825.89,925.79,840.6,949.67,868.27z M877.24,843.92c0.15-3.34-2.45-6.17-5.79-6.32c-3.35-0.15-6.18,2.44-6.33,5.78
				c-0.15,3.35,2.44,6.18,5.79,6.33C874.25,849.86,877.08,847.27,877.24,843.92z"/>
			<path class="st0" d="M947.64,888.57l0.03,0.01c-1.66,5.27-4.46,10.94-9.09,16.15c-1.88,2.13-4.07,4.17-6.62,6.09
				c0,0-45.07-24.67-74.17-34.63c0,0,0.81-4.83,1.76-11.64c0.57-4.07,1.19-8.86,1.7-13.75l0.88,0.1
				C862.13,850.9,922.74,868.26,947.64,888.57z"/>
			<path class="st0" d="M893.94,999c0,0-4.42,13.38-7.35,25.3c-2.1,8.52,3.1,18.31-7.81,14.41c-16.78-6-9.12-39.71-9.12-39.71
				c1.15-0.45,2.51-0.76,3.99-0.97c5.43-0.75,12.5-0.1,16.7,0.44C892.54,998.75,893.94,999,893.94,999z"/>
			<path class="st1" d="M889.82,983.37l0.62,14.48l-0.09,0.63c-4.2-0.54-11.27-1.19-16.7-0.44l-0.02-0.19l-0.71-11.53
				c3.81-0.07,7.52-0.67,10.8-1.45c2.24-0.53,4.29-1.15,6.02-1.73L889.82,983.37z"/>
			<path class="st0" d="M895.67,980.77c0,0-2.29,1.13-5.93,2.36c-1.73,0.59-3.78,1.2-6.02,1.73l-0.11-0.49
				c-0.41-16.63-12.73-39.96-12.73-39.96l-0.22-0.44c2.55-1.31,5.28-3,8.08-5.16c1.48-1.14,2.99-2.41,4.49-3.84
				C883.23,934.97,894.59,951.63,895.67,980.77z"/>
			<path class="st0" d="M872.92,986.31c-2.03,0.04-4.09-0.07-6.14-0.38c0,0-1.61-24.5-10.9-37.37c0,0,1.8-0.07,4.77-0.79
				c2.6-0.64,6.08-1.77,10.02-3.8l0.22,0.44c0,0,12.32,23.33,12.73,39.96l0.11,0.49C880.44,985.65,876.73,986.25,872.92,986.31z"/>
			<path class="st1" d="M872.92,920.28c0,0,6.43,14.74,5.83,18.53c-2.8,2.16-5.53,3.85-8.08,5.16c-3.94,2.03-7.42,3.16-10.02,3.8
				c-0.03-2.79-6.21-15.71-6.42-16.13c2.95-1.28,6.93-3.18,10.9-5.62C867.85,924.35,870.57,922.43,872.92,920.28z"/>
			<path class="st0" d="M871.45,837.61c3.34,0.15,5.94,2.98,5.79,6.32c-0.16,3.35-2.99,5.94-6.33,5.79
				c-3.35-0.15-5.94-2.98-5.79-6.33C865.27,840.05,868.1,837.46,871.45,837.61z"/>
			<path class="st0" d="M878.11,914.06c-1.28,2.23-3.1,4.31-5.19,6.22c-2.35,2.15-5.06,4.06-7.79,5.74l-0.24-0.4
				c-8.14-15.29-35.31-45.83-35.31-45.83l-0.03-0.41c4.87-0.41,9.74-0.76,14.6-1.05l0.01-0.02c0.06-0.24,0.85-3.31,1.82-8.57
				C845.98,869.74,873.14,903.29,878.11,914.06z"/>
			<path class="st0" d="M854.23,931.64c-2.81,1.21-4.68,1.87-4.68,1.87c-5.01-9.08-10.8-16.81-16.63-23.28
				c0.42-0.55,0.73-1.04,0.9-1.44c1.32-3.13-17.25-17.61-29.49-26.72c4.73-0.56,11.43-1.34,18.01-2.05c0.01,0,0.02,0,0.04,0
				c2.39-0.24,4.78-0.45,7.17-0.65l0.03,0.41c0,0,27.17,30.54,35.31,45.83l0.24,0.4C861.16,928.46,857.18,930.36,854.23,931.64z"/>
			<path class="st1" d="M862.46,831.02c0.09,5.59-0.45,12.78-1.2,19.77c-0.52,4.89-1.14,9.68-1.7,13.75c-3.93-1-12.31-0.05-12.68,0
				c0.78-5.08,1.58-11.39,2.1-18.6c0.33-4.63,0.55-9.64,0.58-14.93h12.6H862.46z"/>
			<path class="st0" d="M849.54,831.02c-0.03,5.29-0.24,10.29-0.58,14.93c-27.82-9.34-99.3-5.17-99.3-5.17v0.01
				c-9.87-3.43-23.19-3.44-41.2,2.87c-19.9,2.07-105.44,33.61-105.44,33.61c-3.47-13-4.96-25.4-5.59-33.65
				c-0.48-6.21-0.48-10.08-0.48-10.08l76.06-32.03c131.12-3.5,175.65,8.51,175.65,8.51C849.33,817.37,849.58,824.42,849.54,831.02z"
				/>
			<path class="st0" d="M841.34,931.63c7.1,6.69,7.25,36.78,7.25,36.78c-1.7-0.15-3.63-0.18-5.62-0.14
				c-1.77,0.03-3.58,0.13-5.33,0.25l-0.03-0.5c-0.52-10.43-7.1-30.22-7.1-30.22l-0.19-0.44c3.39-1.38,6.42-3,8.43-4.16
				C840.37,932.28,841.34,931.63,841.34,931.63z"/>
			<path class="st0" d="M846.87,864.55c-0.3,1.91-0.6,3.63-0.88,5.18v0.01l-1.82,8.57l-0.01,0.02c-1.66-0.33-11.55,0.59-21.77,1.69
				c-0.02,0-0.03,0-0.04,0c-6.05,0.58-12.09,1.25-18.08,2c-5.89-4.38-10.29-7.5-10.29-7.5l-16.93,4.6
				c-1.7-10.78-7.53-31.47-27.38-38.34v-0.01c0,0,71.49-4.17,99.3,5.17C848.44,853.16,847.65,859.47,846.87,864.55z M791.27,856.21
				c0.15-3.34-2.44-6.17-5.79-6.33c-3.34-0.15-6.17,2.45-6.32,5.79c-0.16,3.35,2.44,6.18,5.78,6.33
				C788.29,862.14,791.13,859.55,791.27,856.21z"/>
			<path class="st0" d="M844.16,878.31l1.82-8.57C845.01,875,844.22,878.08,844.16,878.31z"/>
			<path class="st0" d="M822.38,880.03c10.23-1.11,20.12-2.03,21.77-1.69c-4.87,0.28-9.74,0.64-14.6,1.05
				C827.16,879.58,824.77,879.79,822.38,880.03z"/>
			<path class="st1" d="M842.97,968.27c0,0,0.05,9.95-1.19,13.55c-2.65-0.34-6.91-0.78-10.83-0.64v-0.01c1.11-2.22,0-12.03,0-12.03
				c1.86-0.21,4.2-0.44,6.69-0.62C839.38,968.4,841.19,968.3,842.97,968.27z"/>
			<path class="st0" d="M844.41,982.21c0,0-3.59,10.89-5.98,20.6c-1.7,6.92,2.53,14.9-6.35,11.72c-13.66-4.89-7.42-32.32-7.42-32.32
				c1.67-0.66,3.92-0.95,6.3-1.03c3.92-0.15,8.18,0.29,10.83,0.64C843.39,982.03,844.41,982.21,844.41,982.21z"/>
			<path class="st0" d="M837.61,968.03l0.03,0.5c-2.49,0.18-4.83,0.41-6.69,0.62c-2.47,0.28-4.09,0.52-4.09,0.52
				c-0.27-14.63-9.61-29.67-9.61-29.67c1.49,0.15,3.07,0.06,4.67-0.19c2.81-0.43,5.72-1.36,8.4-2.44l0.19,0.44
				C830.51,937.81,837.09,957.6,837.61,968.03z"/>
			<path class="st1" d="M828.59,914.7c0,0,9.58,15.78,10.17,18.51c-2.02,1.17-5.04,2.78-8.43,4.16c-2.68,1.08-5.59,2.01-8.4,2.44
				v-0.01c-0.06-1.96-7.56-12.75-7.86-13.17C817.62,923.9,824.01,918.91,828.59,914.7z"/>
			<path class="st0" d="M804.33,882.07c12.24,9.11,30.81,23.58,29.49,26.72c-0.17,0.4-0.48,0.89-0.9,1.44
				c-17.3-19.17-35.09-27.38-35.09-27.38s0.08-0.01,0.24-0.03C798.78,882.74,801.1,882.46,804.33,882.07z"/>
			<path class="st0" d="M814.06,926.63c-1.63,1.24-2.65,2.01-2.65,2.01c-2.96-6.46-15.8-20.24-15.8-20.24
				c-7.92,12.35-14.97,22.75-21.19,31.52c-0.47-2.29-1.02-4.49-1.14-4.94c-0.01-0.06-0.02-0.09-0.02-0.09s5.95-3.65,2.97-10.6
				c-6-13.94-10.93-26.95-11.63-35.59l13.07-2.86l0.05-0.01c6.62-1.07,13.33-2.07,20.1-2.98c0,0,17.8,8.21,35.09,27.38
				c-0.96,1.23-2.5,2.79-4.33,4.47C824.01,918.91,817.62,923.9,814.06,926.63z"/>
			<path class="st0" d="M814.4,1008.08c0,0,21.05,32.62,10.71,55.42c-4.7,10.34-11.34,13.61-17.2,14.09l-0.11-1.67
				c7.87-44.84-8.08-57.21-8.08-57.21l-0.53-0.82l11.25-7.26L814.4,1008.08z"/>
			<path class="st1" d="M810.44,1010.63l-11.25,7.26l-12.14,7.84c-1.18-2.45-8.49-13.6-8.77-14.03c3-1.44,7.02-3.86,12.34-7.91
				c3.14-2.4,6.75-5.37,10.85-9.04C801.7,995.17,807.44,1006.26,810.44,1010.63z"/>
			<path class="st0" d="M799.72,1018.71c0,0,15.96,12.37,8.08,57.21l0.11,1.67c-7.05,0.58-12.97-2.87-12.97-2.87
				c2.63-35.25-10.7-47.18-10.7-47.18l2.81-1.81l12.14-7.84L799.72,1018.71z"/>
			<path class="st0" d="M804.26,882.02c0.02,0.02,0.05,0.03,0.07,0.05c-3.23,0.38-5.54,0.67-6.27,0.75
				C800.13,882.55,802.19,882.28,804.26,882.02z"/>
			<path class="st0" d="M788.34,949.39c10.7,20.79,20.96,38.07,20.96,38.07c-2.79,2.69-5.4,5.11-7.83,7.28c0,0,0,0,0,0.01
				c-4.1,3.67-7.71,6.64-10.85,9.04l-0.47-0.62c-11.29-14.95-21.21-30.38-29.59-44.73c2.73-3.44,5.68-7.3,8.86-11.63
				c3.4-0.6,5.46-0.8,5.64-1.26C784.75,944.61,788.34,949.39,788.34,949.39z"/>
			<path class="st0" d="M804.26,882.02c-2.07,0.25-4.13,0.53-6.2,0.8c-0.16,0.02-0.24,0.03-0.24,0.03
				c-6.77,0.91-13.48,1.91-20.1,2.98c0,0-0.06-2.65-0.7-6.71l16.93-4.6C793.97,874.52,798.37,877.65,804.26,882.02z"/>
			<path class="st0" d="M785.48,849.88c3.35,0.16,5.94,2.99,5.79,6.33c-0.15,3.34-2.98,5.94-6.33,5.79
				c-3.34-0.15-5.94-2.98-5.78-6.33C779.31,852.33,782.14,849.73,785.48,849.88z"/>
			<path class="st0" d="M778.29,1011.7c-5.68,2.71-7.63,1.87-7.63,1.87c-11.56-11.7-21.6-22.81-30.27-33.13
				c4.76-4.06,11.32-10.81,20.19-22c8.37,14.35,18.3,29.78,29.59,44.73l0.47,0.62C785.31,1007.84,781.28,1010.26,778.29,1011.7z"/>
			<path class="st1" d="M777.73,885.83l-0.05,0.01c-5.68,0.92-11.29,1.89-16.83,2.9c1.79-3.75,2.83-5.99,2.83-5.99l13.35-3.62
				C777.67,883.18,777.73,885.83,777.73,885.83z"/>
			<path class="st1" d="M777.68,885.84l-13.07,2.86c0-0.05-0.01-0.09-0.01-0.14c-0.94,0-2.23,0.11-3.82,0.31
				c0.02-0.05,0.04-0.1,0.07-0.14C766.39,887.73,772,886.76,777.68,885.84z"/>
			<path class="st1" d="M777.03,879.12l-13.35,3.62c0,0-1.04,2.24-2.83,5.99c-0.91,0.18-1.83,0.34-2.74,0.52
				c-0.02,0-0.04,0-0.06,0.01c-6.16,0.96-15.09,2.82-24.47,4.94c-0.14,0.03-0.28,0.06-0.43,0.09c-15.52,3.36-29.98,6.91-42.88,10.33
				c-0.13,0.03-0.19,0.05-0.19,0.05c-2.17,0.58-4.3,1.15-6.38,1.7l-0.07,0.02c0,0-43.06-38.96,24.81-62.74
				c18.01-6.31,31.33-6.3,41.2-2.87C769.5,847.66,775.33,868.34,777.03,879.12z"/>
			<path class="st0" d="M776.24,924.3c2.99,6.94-2.97,10.6-2.97,10.6c-6.31-0.76-15.07,1.72-23.06,4.96
				c-2.91-5.48-5.54-10.64-7.86-15.36c7.55-13.43,14.28-26.99,18.07-34.88l4.19-0.91C765.31,897.34,770.23,910.36,776.24,924.3z"/>
			<path class="st1" d="M774.43,939.92c0.5,2.43,0.92,4.97,0.65,5.63l-0.89-5.29C774.26,940.14,774.34,940.04,774.43,939.92z"/>
			<path class="st1" d="M774.18,940.26l0.89,5.29c-0.19,0.46-2.24,0.67-5.64,1.26C770.96,944.74,772.54,942.55,774.18,940.26z"/>
			<path class="st1" d="M774.43,939.92c-0.09,0.12-0.17,0.23-0.24,0.34l-0.89-5.28C773.41,935.43,773.96,937.63,774.43,939.92z"/>
			<path class="st1" d="M773.29,934.98l0.89,5.28c-1.65,2.29-3.22,4.48-4.75,6.55c-3.35,0.58-8.01,1.56-13.48,3.54
				c-2.02-3.6-3.93-7.11-5.74-10.5c7.98-3.23,16.75-5.72,23.06-4.96L773.29,934.98z"/>
			<path class="st1" d="M773.29,934.98l-0.02-0.09C773.27,934.89,773.28,934.92,773.29,934.98z"/>
			<path class="st0" d="M764.6,888.57c0,0.05,0.01,0.09,0.01,0.14l-4.19,0.91c0.13-0.25,0.24-0.5,0.36-0.73
				C762.37,888.67,763.66,888.57,764.6,888.57z"/>
			<path class="st0" d="M755.95,950.35c5.47-1.98,10.13-2.96,13.48-3.54c-3.18,4.33-6.13,8.19-8.86,11.63
				C758.98,955.7,757.43,952.99,755.95,950.35z"/>
			<path class="st1" d="M760.85,888.74c-0.03,0.04-0.05,0.09-0.07,0.14c-0.81,0.1-1.71,0.23-2.67,0.38
				C759.02,889.09,759.94,888.92,760.85,888.74z"/>
			<path class="st0" d="M729.51,896.37l-39.3,8.6c-0.08-0.2-0.12-0.29-0.12-0.29s0.06-0.02,0.19-0.05
				c2.16-0.55,23.41-5.95,42.88-10.33c0.15-0.03,0.29-0.06,0.43-0.09c7.9-1.71,16.08-3.37,24.47-4.94c0.02-0.01,0.04-0.01,0.06-0.01
				c0.96-0.16,1.86-0.28,2.67-0.38c-0.12,0.24-0.24,0.48-0.36,0.73L729.51,896.37z"/>
			<path class="st0" d="M729.51,896.37l30.91-6.76c-3.79,7.88-10.52,21.45-18.07,34.88C734.82,909.26,730.4,898.57,729.51,896.37z"
				/>
			<path class="st0" d="M755.95,950.35c1.48,2.64,3.03,5.35,4.61,8.09c-8.86,11.19-15.43,17.93-20.19,22
				c-7.26-8.62-13.57-16.69-19.02-24.11c6.61-7.56,14.13-19.64,20.99-31.83c2.32,4.72,4.96,9.88,7.86,15.36
				c-10.77,4.34-20.14,10.02-20.14,10.79c0,1.36,6.37,10.14,6.37,10.14C743.46,955.68,750.16,952.45,755.95,950.35z"/>
			<path class="st1" d="M750.21,939.85c1.81,3.39,3.72,6.9,5.74,10.5c-5.8,2.1-12.5,5.33-19.51,10.43c0,0-6.37-8.78-6.37-10.14
				C730.08,949.87,739.44,944.19,750.21,939.85z"/>
			<path class="st0" d="M758.05,889.27c-8.38,1.57-16.56,3.22-24.47,4.94C742.96,892.09,751.89,890.23,758.05,889.27z"/>
			<path class="st0" d="M740.38,980.44c-8.49,7.24-11.26,5.93-11.26,5.93c-0.82-0.51-1.61-1.06-2.36-1.64
				c-5.42-4.16-9.08-9.93-11.31-14.38c-1.93-3.85-2.79-6.72-2.79-6.72c2.58-1.07,5.53-3.66,8.71-7.31
				C726.82,963.75,733.12,971.82,740.38,980.44z"/>
			<path class="st0" d="M729.51,896.37c0.89,2.19,5.31,12.89,12.84,28.12c-6.86,12.19-14.38,24.27-20.99,31.83
				c-21.71-29.49-30.07-48.77-31.16-51.35L729.51,896.37z"/>
			<path class="st1" d="M733.15,894.3c-19.47,4.39-40.72,9.78-42.88,10.33C703.17,901.21,717.63,897.66,733.15,894.3z"/>
			<path class="st1" d="M715.44,970.35c2.23,4.45,5.9,10.22,11.31,14.38c-3.71,4.52-21.94,9.45-21.94,9.45V973.9
				C704.82,973.9,710.75,972.73,715.44,970.35z"/>
			<path class="st0" d="M704.82,994.18v3.88c0,0-23.87,7.36-36.97,4.49c0,0,5.56-32.5,36.97-33.04v4.4V994.18z"/>
			<path class="st1" d="M690.2,904.97l-6.49,1.41c2.08-0.56,4.2-1.13,6.38-1.7C690.09,904.68,690.13,904.78,690.2,904.97z"/>
			<path class="st0" d="M708.45,843.66c-67.87,23.78-24.81,62.74-24.81,62.74c-33.27,9.06-54.67,16.72-54.67,16.72
				c-3.21-2.61-6.09-5.59-8.69-8.85c-8.44-10.59-13.83-24.08-17.27-36.99C603.02,877.27,688.55,845.73,708.45,843.66z
				 M638.37,885.63c0.15-3.35-2.45-6.18-5.79-6.33s-6.18,2.44-6.33,5.79c-0.15,3.34,2.45,6.17,5.79,6.32
				C635.4,891.56,638.23,888.97,638.37,885.63z"/>
			<path class="st0" d="M632.58,879.3c3.34,0.15,5.94,2.98,5.79,6.33c-0.15,3.34-2.98,5.94-6.33,5.78
				c-3.34-0.15-5.94-2.98-5.79-6.32C626.4,881.74,629.24,879.15,632.58,879.3z"/>
			<path class="st1" d="M620.28,914.27c-12.45,4.75-24.59,14.37-24.59,14.37c-3.81-7.65-9.75-20.93-14.32-37.22
				c-3.63-12.95-6.41-27.81-6.55-43.26c0,0,12.39-4.2,22.13-4.5l0.48-0.04c0.64,8.26,2.13,20.66,5.59,33.65
				C606.45,890.18,611.84,903.68,620.28,914.27z"/>
			<path class="st0" d="M595.69,928.64c2.27,4.58,3.79,7.15,3.79,7.15c-145.5,95.03-292.67,153.25-292.67,153.25v-45.18
				c0,0,49.68-22.51,100.53-56.13c0,0,3.61-15.84-1.94-25.85c0,0-0.56-1.83-1.54-4.47c0,0,117.6-57.92,177.51-65.99
				C585.94,907.7,591.88,920.99,595.69,928.64z"/>
			<path class="st0" d="M575.09,838.22c-0.23,3.33-0.3,6.64-0.27,9.93c0.15,15.46,2.92,30.31,6.55,43.26
				c-59.91,8.07-177.51,65.99-177.51,65.99c-2.47-6.65-7.62-18.39-13.19-18.59l-83.86,37.37v-68.16
				C333.72,889.53,575.09,838.22,575.09,838.22z M440.6,929.9c0.15-3.34-2.45-6.17-5.79-6.32c-3.35-0.15-6.18,2.44-6.33,5.79
				c-0.15,3.34,2.45,6.17,5.79,6.32S440.44,933.25,440.6,929.9z M421.03,938.82c0-3.35-2.71-6.06-6.06-6.06
				c-3.34,0-6.05,2.71-6.05,6.06c0,3.34,2.71,6.05,6.05,6.05C418.31,944.87,421.03,942.16,421.03,938.82z"/>
			<path class="st0" d="M434.81,923.58c3.34,0.15,5.94,2.98,5.79,6.32c-0.16,3.35-2.99,5.94-6.33,5.79s-5.94-2.98-5.79-6.32
				C428.63,926.02,431.46,923.43,434.81,923.58z"/>
			<path class="st0" d="M414.96,932.76c3.35,0,6.06,2.71,6.06,6.06c0,3.34-2.71,6.05-6.06,6.05c-3.34,0-6.05-2.71-6.05-6.05
				C408.91,935.47,411.62,932.76,414.96,932.76z"/>
			<path class="st2" d="M405.39,961.88c5.55,10.01,1.94,25.85,1.94,25.85c-50.85,33.62-100.53,56.13-100.53,56.13v-30.29
				L405.39,961.88z"/>
			<path class="st3" d="M405.39,961.88l-98.59,51.68v-37.38l83.86-37.37c5.57,0.2,10.72,11.94,13.19,18.59
				C404.84,960.05,405.39,961.88,405.39,961.88z"/>
		</g>
		<g>
			<path class="st4" d="M574.82,848.16c0,0,12.39-4.2,22.13-4.5"/>
			<path class="st4" d="M595.69,928.64c0,0,12.14-9.62,24.59-14.37"/>
			<path class="st4" d="M421.03,938.82c0,3.34-2.71,6.05-6.06,6.05c-3.34,0-6.05-2.71-6.05-6.05c0-3.35,2.71-6.06,6.05-6.06
				C418.31,932.76,421.03,935.47,421.03,938.82z"/>
			<path class="st4" d="M440.6,929.9c-0.16,3.35-2.99,5.94-6.33,5.79s-5.94-2.98-5.79-6.32c0.15-3.35,2.98-5.94,6.33-5.79
				C438.15,923.73,440.74,926.56,440.6,929.9z"/>
			<path class="st5" d="M403.86,957.41c0,0,117.6-57.92,177.51-65.99"/>
			<path class="st5" d="M603.02,877.27c0,0,85.53-31.55,105.44-33.61"/>
			<path class="st5" d="M749.66,840.78c0,0,71.49-4.17,99.3,5.17"/>
			<path class="st5" d="M755.95,950.35c1.48,2.64,3.03,5.35,4.61,8.09c8.37,14.35,18.3,29.78,29.59,44.73"/>
			<path class="st5" d="M729.34,895.95c0,0,0.06,0.15,0.17,0.42c0.89,2.19,5.31,12.89,12.84,28.12c2.32,4.72,4.96,9.88,7.86,15.36"
				/>
			<path class="st6" d="M830.51,937.81c0,0,6.58,19.78,7.1,30.22"/>
			<path class="st4" d="M938.58,904.73c0,0,7.76,2.67,11.05,7.35"/>
			<path class="st4" d="M949.7,878.76c0,0,6.42,2.74,11.91,4.9"/>
			<path class="st5" d="M862.13,850.9c0,0,60.61,17.37,85.5,37.67"/>
			<path class="st5" d="M958.65,896.81c0,0,0.08,0.06,0.23,0.18c2.64,2,28.12,21.49,36.37,34.32"/>
			<polyline class="st4" points="873.63,997.84 872.92,986.31 872.92,986.28 			"/>
			<line class="st4" x1="890.44" y1="997.84" x2="889.82" y2="983.37"/>
			<path class="st7" d="M1001.69,943.4c0,0,15.48,27.4,16.11,31.12"/>
			<path class="st4" d="M638.37,885.63c-0.15,3.34-2.98,5.94-6.33,5.78c-3.34-0.15-5.94-2.98-5.79-6.32
				c0.15-3.35,2.99-5.94,6.33-5.79S638.52,882.28,638.37,885.63z"/>
			<path class="st4" d="M791.27,856.21c-0.15,3.34-2.98,5.94-6.33,5.79c-3.34-0.15-5.94-2.98-5.78-6.33
				c0.15-3.34,2.98-5.94,6.32-5.79C788.83,850.04,791.42,852.87,791.27,856.21z"/>
			<path class="st4" d="M877.24,843.92c-0.16,3.35-2.99,5.94-6.33,5.79c-3.35-0.15-5.94-2.98-5.79-6.33
				c0.15-3.34,2.98-5.93,6.33-5.78C874.79,837.75,877.38,840.58,877.24,843.92z"/>
			<path class="st4" d="M846.86,864.55C846.86,864.55,846.86,864.55,846.86,864.55c0.38-0.05,8.77-1,12.69,0"/>
			<polyline class="st4" points="848.96,831.02 849.54,831.02 862.13,831.02 			"/>
			<path class="st4" d="M989.4,936.76c0,0,5.55,9.52,5.84,10.93"/>
			<path class="st4" d="M1000,925.61c0,0,5.92,9.14,6.78,11.74"/>
			<path class="st4" d="M778.28,1011.69C778.28,1011.69,778.28,1011.69,778.28,1011.69c0.28,0.43,7.6,11.59,8.78,14.04"/>
			<path class="st4" d="M801.48,994.75c0.23,0.42,5.96,11.51,8.96,15.89"/>
			<path class="st4" d="M814.06,926.62C814.06,926.62,814.06,926.62,814.06,926.62c0.29,0.43,7.8,11.22,7.86,13.18"/>
			<path class="st4" d="M828.59,914.7c0,0,9.58,15.78,10.17,18.51"/>
			<path class="st4" d="M830.95,969.14c0,0,1.11,9.8,0,12.03"/>
			<path class="st4" d="M842.97,968.27c0,0,0.05,9.95-1.19,13.55"/>
			<path class="st4" d="M854.23,931.63C854.23,931.63,854.23,931.63,854.23,931.63c0.21,0.43,6.39,13.35,6.42,16.14"/>
			<path class="st4" d="M872.92,920.28c0,0,6.43,14.74,5.83,18.53"/>
			<path class="st4" d="M704.82,973.9c0,0,5.94-1.18,10.63-3.56"/>
			<path class="st4" d="M704.82,994.18c0,0,18.23-4.93,21.94-9.45"/>
			<path class="st5" d="M673.55,992.06c0,0,13.36-7.26,28.3-5.61"/>
			<path class="st5" d="M799.72,1018.71c0,0,15.96,12.37,8.08,57.21"/>
			<path class="st6" d="M834.7,984.63c0,0-7.73,10.74-6.74,18.54"/>
			<path class="st6" d="M880.06,999.9c0,0-6.85,18.22-4.21,32.17"/>
			<path class="st6" d="M870.88,944.41c0,0,12.32,23.33,12.73,39.96"/>
			<path class="st6" d="M829.58,879.79c0,0,27.17,30.54,35.31,45.83"/>
		</g>
	</g>
</g>
<g id="Calque_3">
	<path class="st8" d="M1693.19,983.71c0,0-125.32,22.74-168.69,3.79c0,0-71.17-5.05-111.59-25.27c0,0-3.79-5.9-63.16-2.95
		c0,0-27.79-16-129.7-29.48c0,0-65.27,22.32-89.27,21.9c0,0-47.58,19.37-66.53,18.53c0,0-8.42,17.27,13.05,27.37
		c0,0,14.27,6.85,59.72-11.96c0,0,42.94-2.37,90.49-5.01c0,0,24.12,8.96,36.75,9.39c12.63,0.42-53.48,66.11-73.27,75.38
		c0,0-10.11,70.74-31.16,96.43c0,0,12.63,10.95,31.16-3.79c0,0,16.42-15.58,20.63-27.79l4.63,0.42c0,0,10.11,49.69,10.11,57.27
		c0,0,19.79,8.42,26.95-16.42s-4.21-53.48-4.21-53.48s8.42-14.74,20.21-21.06c0,0,20.9-1.1,27.9,3.19c0,0,27.91-19.74,64.7-37.98
		c14.44-1.85,34.86-2.47,50.31-7.37c16.75-5.31,30.76-13.37,50.41-17.8c85.55,12.04,230.56,1.58,230.56,1.58"/>
	<path class="st9" d="M1693.19,1036.89l-234.67-3.56c0,0-44.04,29.9-110.04,28.25c0,0-35.2,36.85-64.07,35.47
		c0,0-14.3,20.9-12.1,29.15s11.55,29.42,25.3,47.85c0,0,11.27,2.47,7.97-22.55c-3.3-25.02,11-40.97,11-40.97s22-37.12,33.82-41.8
		c0,0,40.66,29.24,130.57-15.72c0,0,98.12,63.42,212.22,85.89V1036.89z"/>
	<path class="st9" d="M1209.7,1128.5c0,0,4.37-36.42,16.03-46.14s56.09-26.47,67.26-48.08c0,0-27.2-41.28-26.23-45.65
		s16.51-5.1,35.45,5.83c18.94,10.93,26.47,17.24,26.47,17.24l6.56-4.13c0,0,1.21,4.13-3.16,8.5s-24.04,41.04-51.96,49.05
		c-27.92,8.01-48.81,27.68-48.81,27.68s-11.17,17.48-15.06,35.7C1212.86,1131.17,1209.7,1128.5,1209.7,1128.5z"/>
	<path class="st9" d="M1066.19,989.07c0,0,44.97,2.36,65.58-11.36c0,0,48.22,6.54,95.38-5.69c0,0,30.53,14.75,49.07,14.05
		c3.68,1.82-10.63,4.55-10.63,4.55s-18-1.89-38.1-9.96l-90.49,5.01c0,0-35.99,17.46-59.05,12.22
		C1070.98,995.98,1066.19,989.07,1066.19,989.07z"/>
	<path class="st0" d="M1064.17,969.03c0,0,12.57-8.89,43.84-7.66C1108.01,961.36,1100.96,972.55,1064.17,969.03z"/>
	<path class="st0" d="M1171.13,1135.7c0,0,9.34,4.23,6.57,10.36c-2.77,6.13-10.36,17.37-18.83,17.23
		C1150.4,1163.15,1171.13,1135.7,1171.13,1135.7z"/>
	<path class="st0" d="M1278.93,1067.61c0,0,9.48,10.92,11.02,12.06c1.55,1.13-14.84,10.92-26.27,7.93
		c-11.44-2.99-3.3-12.26-3.3-12.26S1274.19,1067.71,1278.93,1067.61z"/>
</g>
</svg>
