<svg id="Calque_1" data-name="Calque 1" xmlns="http://www.w3.org/2000/svg" viewBox="0 0 396.39 396.39"><defs><style>.cls-1,.cls-3{fill:none;stroke-miterlimit:10;}.cls-1{stroke:#1e1e1c;}.cls-2{fill:#1e1e1c;}.cls-3{stroke:#fefcf2;stroke-width:2px;}.cls-4{fill:#fefcf2;}</style></defs><title>sound-on</title><path class="cls-1" d="M272.57,226.38" transform="translate(-51.8 -59.95)"/><path class="cls-2" d="M309.77,272" transform="translate(-51.8 -59.95)"/><path class="cls-2" d="M312.05,291.88" transform="translate(-51.8 -59.95)"/><path class="cls-2" d="M296.84,291.88" transform="translate(-51.8 -59.95)"/><path class="cls-2" d="M305.36,272" transform="translate(-51.8 -59.95)"/><circle class="cls-3" cx="198.2" cy="198.2" r="197.2"/><path class="cls-4" d="M279.75,258.24v77a5.4,5.4,0,0,1-9.17,3.87l-50.26-50.2a5,5,0,0,0-3.56-1.47H170.2a4,4,0,0,1-4-4v-25.2h0V232.19a4,4,0,0,1,4-4h46.58a5,5,0,0,0,3.53-1.47l49.4-49.39a5.87,5.87,0,0,1,10,4.16v76.79Z" transform="translate(-51.8 -59.95)"/><path class="cls-4" d="M291.58,226.41" transform="translate(-51.8 -59.95)"/><path class="cls-4" d="M333.81,268.64" transform="translate(-51.8 -59.95)"/><path class="cls-4" d="M291.68,228.65,303.32,217s37.28,36.3,0,81.14L291.58,286.4S317.88,259.51,291.68,228.65Z" transform="translate(-51.8 -59.95)"/><path class="cls-4" d="M313.58,206.81l11.58-11s57.24,55.64,0,124.22l-11.75-11.75S359.58,257.91,313.58,206.81Z" transform="translate(-51.8 -59.95)"/></svg>