<svg id="Calque_1" data-name="Calque 1" xmlns="http://www.w3.org/2000/svg" viewBox="0 0 396.39 396.39"><defs><style>.cls-1{fill:#fefcf2;}.cls-2,.cls-4{fill:none;stroke-miterlimit:10;}.cls-2{stroke:#1e1e1c;}.cls-3{fill:#1e1e1c;}.cls-4{stroke:#fefcf2;stroke-width:2px;}</style></defs><title>sound-off</title><path class="cls-1" d="M260.74,258.21v77.05a5.4,5.4,0,0,1-9.23,3.82l-50.2-50.2a5,5,0,0,0-3.56-1.47H151.19a4,4,0,0,1-4-4v-25.2h0v-26a4,4,0,0,1,4-4h46.54a5,5,0,0,0,3.53-1.47l49.4-49.39a5.87,5.87,0,0,1,10,4.16v76.79Z" transform="translate(-51.8 -59.95)"/><path class="cls-2" d="M272.57,226.38" transform="translate(-51.8 -59.95)"/><path class="cls-3" d="M309.77,272" transform="translate(-51.8 -59.95)"/><path class="cls-3" d="M312.05,291.88" transform="translate(-51.8 -59.95)"/><path class="cls-3" d="M296.84,291.88" transform="translate(-51.8 -59.95)"/><rect class="cls-1" x="278.48" y="250.58" width="58.17" height="11.24" transform="translate(-142.88 232.58) rotate(-45)"/><path class="cls-3" d="M305.36,272" transform="translate(-51.8 -59.95)"/><rect class="cls-1" x="301.94" y="227.13" width="11.24" height="58.17" transform="translate(-142.89 232.58) rotate(-45)"/><circle class="cls-4" cx="198.2" cy="198.2" r="197.2"/></svg>